<svg xmlns="http://www.w3.org/2000/svg" width="136.152" height="35.883" viewBox="0 0 136.152 35.883">
  <g id="Group_7775" data-name="Group 7775" transform="translate(-66 -33)">
    <g id="Group_1729" data-name="Group 1729">
      <path id="Path_1" data-name="Path 1" d="M5504.21,5372.853v-6.307h4.309v6.307h5.641v3.487h-5.641v11.125q0,1.175,1.1,1.175h3.956v3.525h-5.444a3.8,3.8,0,0,1-2.84-1.1,3.955,3.955,0,0,1-1.078-2.9v-11.83H5499v-3.487Z" transform="translate(-5433 -5331.117)" fill="#fff"/>
      <path id="Path_2" data-name="Path 2" d="M5517.451,5377.123a8.97,8.97,0,0,1,3.584-3.565,10.645,10.645,0,0,1,5.191-1.253,10.535,10.535,0,0,1,5.171,1.253,9,9,0,0,1,3.564,3.565,11.866,11.866,0,0,1,0,10.773,8.989,8.989,0,0,1-3.564,3.564,10.525,10.525,0,0,1-5.171,1.254,10.635,10.635,0,0,1-5.191-1.254,8.929,8.929,0,0,1-3.584-3.584,11.825,11.825,0,0,1,0-10.753Zm4.6,10.087a5.816,5.816,0,0,0,8.3,0,6.743,6.743,0,0,0,1.587-4.72,6.671,6.671,0,0,0-1.587-4.7,5.837,5.837,0,0,0-8.3.02,7.753,7.753,0,0,0,0,9.4Z" transform="translate(-5433 -5331.117)" fill="#fff"/>
      <path id="Path_3" data-name="Path 3" d="M5515.167,5365.112a3.418,3.418,0,0,1,2.473-.995,3.472,3.472,0,0,1,2.5.955,3.291,3.291,0,0,1,.994,2.487,3.316,3.316,0,0,1-1.774,3.011,3.6,3.6,0,0,1-1.721.43,3.43,3.43,0,0,1-1.72-.457,3.529,3.529,0,0,1-1.291-1.25,3.4,3.4,0,0,1,.538-4.181Zm.927,4.006a2.315,2.315,0,0,0,3.092,0,2.313,2.313,0,0,0,0-3.119,2.318,2.318,0,0,0-3.092,0,2.315,2.315,0,0,0,0,3.119Z" transform="translate(-5415 -5331.117)" fill="#fff"/>
      <path id="Path_4" data-name="Path 4" d="M5537.659,5364.117l-1.223,5.99h-.8l.25-5.99Z" transform="translate(-5399 -5331.117)" fill="#fff"/>
      <path id="Path_5" data-name="Path 5" d="M5559.7,5364.117l-1.222,5.99h-.8l.249-5.99Zm3.219,0-1.222,5.99h-.824l.25-5.99Z" transform="translate(-5400 -5331.117)" fill="#fff"/>
      <path id="Path_6" data-name="Path 6" d="M5543.559,5372.853v2.82h.391a7.5,7.5,0,0,1,6.7-3.368,8.2,8.2,0,0,1,4.407,1.253,9.03,9.03,0,0,1,3.231,3.565,12.5,12.5,0,0,1,0,10.753,8.991,8.991,0,0,1-3.231,3.584,8.2,8.2,0,0,1-4.407,1.254,7.361,7.361,0,0,1-6.621-3.291h-.391V5400h-4.27v-27.147Zm10.028,14.4a7.856,7.856,0,0,0,0-9.519,5.864,5.864,0,0,0-8.364.02,7.726,7.726,0,0,0,0,9.48,5.865,5.865,0,0,0,8.364.019Z" transform="translate(-5433 -5331.117)" fill="#fff"/>
      <path id="Path_7" data-name="Path 7" d="M5567.415,5392.165h-4.27v-19.312h4.27Z" transform="translate(-5433 -5331.117)" fill="#fff"/>
      <path id="Path_8" data-name="Path 8" d="M5572.35,5377.123a8.973,8.973,0,0,1,3.584-3.565,10.645,10.645,0,0,1,5.191-1.253,10.528,10.528,0,0,1,5.17,1.253,8.994,8.994,0,0,1,3.565,3.565,11.866,11.866,0,0,1,0,10.773,8.986,8.986,0,0,1-3.565,3.564,10.518,10.518,0,0,1-5.17,1.254,10.635,10.635,0,0,1-5.191-1.254,8.932,8.932,0,0,1-3.584-3.584,11.825,11.825,0,0,1,0-10.753Zm4.6,10.087a5.816,5.816,0,0,0,8.3,0,6.743,6.743,0,0,0,1.587-4.72,6.672,6.672,0,0,0-1.587-4.7,5.837,5.837,0,0,0-8.3.02,7.755,7.755,0,0,0,0,9.4Z" transform="translate(-5433 -5331.117)" fill="#fff"/>
      <path id="Path_1-2" data-name="Path 1" d="M5504.21,5372.853v-6.307h4.309v6.307h5.641v3.487h-5.641v11.125q0,1.175,1.1,1.175h3.956v3.525h-5.444a3.8,3.8,0,0,1-2.84-1.1,3.955,3.955,0,0,1-1.078-2.9v-11.83H5499v-3.487Z" transform="translate(-5433 -5331.117)" fill="#fff"/>
      <path id="Path_2-2" data-name="Path 2" d="M5517.451,5377.123a8.97,8.97,0,0,1,3.584-3.565,10.645,10.645,0,0,1,5.191-1.253,10.535,10.535,0,0,1,5.171,1.253,9,9,0,0,1,3.564,3.565,11.866,11.866,0,0,1,0,10.773,8.989,8.989,0,0,1-3.564,3.564,10.525,10.525,0,0,1-5.171,1.254,10.635,10.635,0,0,1-5.191-1.254,8.929,8.929,0,0,1-3.584-3.584,11.825,11.825,0,0,1,0-10.753Zm4.6,10.087a5.816,5.816,0,0,0,8.3,0,6.743,6.743,0,0,0,1.587-4.72,6.671,6.671,0,0,0-1.587-4.7,5.837,5.837,0,0,0-8.3.02,7.753,7.753,0,0,0,0,9.4Z" transform="translate(-5433 -5331.117)" fill="#fff"/>
      <path id="Path_3-2" data-name="Path 3" d="M5515.167,5365.112a3.418,3.418,0,0,1,2.473-.995,3.472,3.472,0,0,1,2.5.955,3.291,3.291,0,0,1,.994,2.487,3.316,3.316,0,0,1-1.774,3.011,3.6,3.6,0,0,1-1.721.43,3.43,3.43,0,0,1-1.72-.457,3.529,3.529,0,0,1-1.291-1.25,3.4,3.4,0,0,1,.538-4.181Zm.927,4.006a2.315,2.315,0,0,0,3.092,0,2.313,2.313,0,0,0,0-3.119,2.318,2.318,0,0,0-3.092,0,2.315,2.315,0,0,0,0,3.119Z" transform="translate(-5415 -5331.117)" fill="#fff"/>
      <path id="Path_4-2" data-name="Path 4" d="M5537.659,5364.117l-1.223,5.99h-.8l.25-5.99Z" transform="translate(-5399 -5331.117)" fill="#fff"/>
      <path id="Path_5-2" data-name="Path 5" d="M5559.7,5364.117l-1.222,5.99h-.8l.249-5.99Zm3.219,0-1.222,5.99h-.824l.25-5.99Z" transform="translate(-5400 -5331.117)" fill="#fff"/>
      <path id="Path_6-2" data-name="Path 6" d="M5543.559,5372.853v2.82h.391a7.5,7.5,0,0,1,6.7-3.368,8.2,8.2,0,0,1,4.407,1.253,9.03,9.03,0,0,1,3.231,3.565,12.5,12.5,0,0,1,0,10.753,8.991,8.991,0,0,1-3.231,3.584,8.2,8.2,0,0,1-4.407,1.254,7.361,7.361,0,0,1-6.621-3.291h-.391V5400h-4.27v-27.147Zm10.028,14.4a7.856,7.856,0,0,0,0-9.519,5.864,5.864,0,0,0-8.364.02,7.726,7.726,0,0,0,0,9.48,5.865,5.865,0,0,0,8.364.019Z" transform="translate(-5433 -5331.117)" fill="#fff"/>
      <path id="Path_7-2" data-name="Path 7" d="M5567.415,5392.165h-4.27v-19.312h4.27Z" transform="translate(-5433 -5331.117)" fill="#fff"/>
      <path id="Path_8-2" data-name="Path 8" d="M5572.35,5377.123a8.973,8.973,0,0,1,3.584-3.565,10.645,10.645,0,0,1,5.191-1.253,10.528,10.528,0,0,1,5.17,1.253,8.994,8.994,0,0,1,3.565,3.565,11.866,11.866,0,0,1,0,10.773,8.986,8.986,0,0,1-3.565,3.564,10.518,10.518,0,0,1-5.17,1.254,10.635,10.635,0,0,1-5.191-1.254,8.932,8.932,0,0,1-3.584-3.584,11.825,11.825,0,0,1,0-10.753Zm4.6,10.087a5.816,5.816,0,0,0,8.3,0,6.743,6.743,0,0,0,1.587-4.72,6.672,6.672,0,0,0-1.587-4.7,5.837,5.837,0,0,0-8.3.02,7.755,7.755,0,0,0,0,9.4Z" transform="translate(-5433 -5331.117)" fill="#fff"/>
    </g>
    <path id="Path_14427" data-name="Path 14427" d="M5.236-9.8a3.029,3.029,0,0,1,2.086.707,2.408,2.408,0,0,1,.8,1.9,2.11,2.11,0,0,1-.469,1.477,2.455,2.455,0,0,1-1.127.707v.14a2.435,2.435,0,0,1,1.162.707,2.125,2.125,0,0,1,.49,1.505,2.474,2.474,0,0,1-.8,1.939A3,3,0,0,1,5.292,0H.812V-9.8Zm-.2,4.032a1.4,1.4,0,0,0,.952-.315,1.079,1.079,0,0,0,.364-.861,1.079,1.079,0,0,0-.364-.861A1.4,1.4,0,0,0,5.04-8.12H2.66v2.352ZM5.068-1.68A1.426,1.426,0,0,0,6.048-2a1.117,1.117,0,0,0,.364-.882,1.117,1.117,0,0,0-.364-.882,1.426,1.426,0,0,0-.98-.322H2.66V-1.68Zm11.2-8.12v1.68H11.676v2.338h4.2V-4.1h-4.2V-1.68h4.676V0H9.828V-9.8Zm8.792,0v1.68H22.092V0H20.244V-8.12H17.276V-9.8Zm5.348,0L33.152,0h-1.89l-.588-2.184H27.258L26.67,0H24.78l2.744-9.8Zm-.182,5.936-1.19-4.424H28.9l-1.19,4.424Z" transform="translate(169 43)" fill="#55f4f0"/>
  </g>
</svg>
