<svg xmlns="http://www.w3.org/2000/svg" width="26.318" height="30.585" viewBox="0 0 26.318 30.585">
  <g id="Logo-header_footer" data-name="Logo-header&amp;footer" transform="translate(0 0)">
    <path id="Path_1" data-name="Path 1" d="M5504.681,5373.423v-6.877h4.7v6.877h6.151v3.8h-6.151v12.131q0,1.282,1.2,1.282h4.313v3.843h-5.936a4.148,4.148,0,0,1-3.1-1.195,4.314,4.314,0,0,1-1.175-3.162v-12.9H5499v-3.8Z" transform="translate(-5498.999 -5363.898)" fill="#333"/>
    <path id="Path_1-2" data-name="Path 1" d="M5504.681,5373.423v-6.877h4.7v6.877h6.151v3.8h-6.151v12.131q0,1.282,1.2,1.282h4.313v3.843h-5.936a4.148,4.148,0,0,1-3.1-1.195,4.314,4.314,0,0,1-1.175-3.162v-12.9H5499v-3.8Z" transform="translate(-5498.999 -5363.898)" fill="#333"/>
    <path id="Path_3" data-name="Path 3" d="M5515.261,5365.2a3.725,3.725,0,0,1,2.7-1.084,3.787,3.787,0,0,1,2.727,1.041,3.586,3.586,0,0,1,1.083,2.712,3.615,3.615,0,0,1-1.934,3.283,3.921,3.921,0,0,1-1.876.47,3.744,3.744,0,0,1-1.876-.5,3.842,3.842,0,0,1-1.408-1.363,3.71,3.71,0,0,1,.587-4.56Zm1.011,4.369a2.523,2.523,0,0,0,3.371,0,2.523,2.523,0,0,0,0-3.4,2.528,2.528,0,0,0-3.371,0,2.522,2.522,0,0,0,0,3.4Z" transform="translate(-5495.449 -5364.117)" fill="#333"/>
  </g>
</svg>
