<svg xmlns="http://www.w3.org/2000/svg" width="88.516" height="102.867" viewBox="0 0 88.516 102.867">
  <g id="Logo-header_footer" data-name="Logo-header&amp;footer" transform="translate(0 0)">
    <path id="Path_1" data-name="Path 1" d="M5518.11,5389.676v-23.13h15.8v23.13H5554.6v12.79h-20.687v40.8q0,4.313,4.024,4.313h14.5v12.928h-19.961a13.948,13.948,0,0,1-10.419-4.021q-3.955-4.025-3.95-10.632v-43.389H5499v-12.79Z" transform="translate(-5499 -5357.641)" fill="#fff"/>
    <path id="Path_1-2" data-name="Path 1" d="M5518.11,5389.676v-23.13h15.8v23.13H5554.6v12.79h-20.687v40.8q0,4.313,4.024,4.313h14.5v12.928h-19.961a13.948,13.948,0,0,1-10.419-4.021q-3.955-4.025-3.95-10.632v-43.389H5499v-12.79Z" transform="translate(-5499 -5357.641)" fill="#fff"/>
    <path id="Path_3" data-name="Path 3" d="M5517.9,5367.766a12.525,12.525,0,0,1,9.069-3.648,12.743,12.743,0,0,1,9.174,3.5,12.066,12.066,0,0,1,3.642,9.12,12.153,12.153,0,0,1-6.5,11.043,13.191,13.191,0,0,1-6.311,1.58,12.612,12.612,0,0,1-6.307-1.675,12.953,12.953,0,0,1-4.737-4.586,12.484,12.484,0,0,1,1.975-15.335Zm3.4,14.693a8.484,8.484,0,0,0,11.338,0,8.487,8.487,0,0,0,0-11.439,8.5,8.5,0,0,0-11.338,0,8.482,8.482,0,0,0,0,11.439Z" transform="translate(-5451.264 -5364.118)" fill="#fff"/>
  </g>
</svg>
