<svg id="Group_83" data-name="Group 83" xmlns="http://www.w3.org/2000/svg" width="30.191" height="24" viewBox="0 0 30.191 24">
  <g id="Group_82" data-name="Group 82">
    <g id="Group_81" data-name="Group 81">
      <path id="Path_59" data-name="Path 59" d="M210.129,123.844a1.179,1.179,0,0,0-1.5-.141c-1.765,1.2-10.616,7.251-11.567,8.2a3.538,3.538,0,0,0,5,5c.951-.951,7-9.8,8.2-11.567A1.18,1.18,0,0,0,210.129,123.844Zm-9.73,11.4a1.179,1.179,0,0,1-1.668-1.668c.37-.365,2.883-2.158,5.975-4.307C202.556,132.359,200.764,134.872,200.4,135.241Z" transform="translate(-184.469 -119.312)" fill="#333"/>
      <path id="Path_60" data-name="Path 60" d="M5.439,73.08l-1.456.71a12.678,12.678,0,0,1-.795-10.717l1.668.8a1.179,1.179,0,1,0,1.02-2.127l-1.647-.79a12.753,12.753,0,0,1,9.687-6.044v1.774a1.179,1.179,0,1,0,2.359,0V54.911a12.591,12.591,0,0,1,4.055,1.068,1.179,1.179,0,1,0,.97-2.15A15.083,15.083,0,0,0,2.558,75.975a1.179,1.179,0,0,0,1.5.4L6.473,75.2a1.179,1.179,0,1,0-1.034-2.12Z" transform="translate(0 -52.499)" fill="#333"/>
      <path id="Path_61" data-name="Path 61" d="M395.858,192.188a1.179,1.179,0,1,0-2.15.97A12.7,12.7,0,0,1,393.2,204.6l-1.52-.724a1.179,1.179,0,0,0-1.014,2.13l2.477,1.179a1.179,1.179,0,0,0,1.487-.409,15.06,15.06,0,0,0,1.227-14.585Z" transform="translate(-366.997 -183.298)" fill="#333"/>
    </g>
  </g>
</svg>
