<svg id="Group_2342" data-name="Group 2342" xmlns="http://www.w3.org/2000/svg" width="15" height="16" viewBox="0 0 15 16">
  <g id="Group_753" data-name="Group 753" transform="translate(3.5)">
    <g id="Group_752" data-name="Group 752">
      <path id="Path_2224" data-name="Path 2224" d="M135.953,7.293A.5.5,0,0,0,135.5,7h-2V.5A.5.5,0,0,0,133,0h-2a.5.5,0,0,0-.5.5V7h-2a.5.5,0,0,0-.376.829l3.5,4a.5.5,0,0,0,.752,0l3.5-4A.5.5,0,0,0,135.953,7.293Z" transform="translate(-127.998 0)" fill="#333"/>
    </g>
  </g>
  <g id="Group_755" data-name="Group 755" transform="translate(0 11)">
    <g id="Group_754" data-name="Group 754">
      <path id="Path_2225" data-name="Path 2225" d="M29,352v3H18v-3H16v4a1,1,0,0,0,1,1H30a1,1,0,0,0,1-1v-4Z" transform="translate(-16 -352)" fill="#333"/>
    </g>
  </g>
</svg>
