<svg xmlns="http://www.w3.org/2000/svg" width="15.982" height="16" viewBox="0 0 15.982 16">
  <g id="Group_2677" data-name="Group 2677" transform="translate(-1.461 -1.425)">
    <path id="Path_9513" data-name="Path 9513" d="M5.8,16.085,12.285,9.6l3.242,3.242L9.042,19.327Z" transform="translate(-2.175 -4.097)" fill="#333"/>
    <path id="Path_9514" data-name="Path 9514" d="M3.8,24.15,3.3,25.6l2.245,2.245,1.447-.5c.05,0,.1-.05.15-.1L3.9,24C3.849,24.05,3.849,24.1,3.8,24.15Z" transform="translate(-0.922 -11.314)" fill="#333"/>
    <path id="Path_9515" data-name="Path 9515" d="M1.48,30.6a.614.614,0,0,0,.1.5.453.453,0,0,0,.349.15.183.183,0,0,0,.15-.05l1.6-.549L2.029,29Z" transform="translate(0 -13.82)" fill="#333"/>
    <path id="Path_9516" data-name="Path 9516" d="M20.2,7.3l1-1L24.44,9.542l-1,1Z" transform="translate(-9.392 -2.443)" fill="#333"/>
    <path id="Path_9517" data-name="Path 9517" d="M28.189,3.508,26.443,1.762a1.056,1.056,0,0,0-1.546,0l-1.4,1.4,3.292,3.292,1.4-1.4a1.1,1.1,0,0,0,.3-.748,1.223,1.223,0,0,0-.3-.8Z" transform="translate(-11.045)" fill="#333"/>
  </g>
</svg>
