<svg xmlns="http://www.w3.org/2000/svg" width="20.719" height="24" viewBox="0 0 20.719 24">
  <g id="Group_2297" data-name="Group 2297" transform="translate(-35 -877.473)">
    <path id="Path_9423" data-name="Path 9423" d="M375.579,877.473v4.754h4.754Z" transform="translate(-324.614 0)" fill="#190aff"/>
    <path id="Path_9424" data-name="Path 9424" d="M55,884.152H49.76a.72.72,0,0,1-.72-.72v-5.238a.72.72,0,0,0-.72-.72H35.72a.72.72,0,0,0-.72.72v22.559a.72.72,0,0,0,.72.72H55a.72.72,0,0,0,.72-.72v-15.88A.72.72,0,0,0,55,884.152Z" fill="#190aff"/>
  </g>
</svg>
