<svg xmlns="http://www.w3.org/2000/svg" width="27.186" height="24" viewBox="0 0 27.186 24">
  <g id="Group_2265" data-name="Group 2265" transform="translate(-627 -19)">
    <path id="Path_9412" data-name="Path 9412" d="M865.3,52.106h12.077a.725.725,0,0,0,.725-.725V49.725a.725.725,0,0,0-.725-.725H864.2a.725.725,0,0,0-.6,1.126l1.1,1.657A.725.725,0,0,0,865.3,52.106Z" transform="translate(-223.918 -28.407)" fill="#190aff"/>
    <path id="Path_9413" data-name="Path 9413" d="M639.869,25.075l-3.824-5.751a.725.725,0,0,0-.6-.323h-7.717a.725.725,0,0,0-.725.725v22.55a.725.725,0,0,0,.725.725h25.736a.725.725,0,0,0,.725-.725V26.123a.725.725,0,0,0-.725-.725H640.473A.725.725,0,0,1,639.869,25.075Z" fill="#190aff"/>
  </g>
</svg>
