<svg xmlns="http://www.w3.org/2000/svg" width="20" height="20" viewBox="0 0 20 20">
  <g data-name="Group 7752" fill="#333">
    <path data-name="Path 8960" d="M10.079 18.105a.194.194 0 0 1-.182 0l-8.559-4.564a.96.96 0 0 0-.892 0 .794.794 0 0 0 0 1.428l9.333 4.977a.486.486 0 0 0 .452 0l9.315-4.968a.808.808 0 0 0 0-1.451.972.972 0 0 0-.912 0Z"/>
    <path data-name="Path 8961" d="M10.091 13.841a.2.2 0 0 1-.182 0L1.367 9.286a.969.969 0 0 0-.9 0 .8.8 0 0 0 0 1.446L9.782 15.7a.486.486 0 0 0 .452 0l9.316-4.968a.807.807 0 0 0 0-1.45.974.974 0 0 0-.912 0Z"/>
    <path data-name="Path 8962" d="m10.23 11.437 9.3-4.962a.811.811 0 0 0 0-1.457L10.23.056a.486.486 0 0 0-.452 0l-9.3 4.962a.811.811 0 0 0 0 1.457l9.3 4.962a.486.486 0 0 0 .452 0Z"/>
  </g>
</svg>
