<svg xmlns="http://www.w3.org/2000/svg" width="191" height="86" viewBox="0 0 191 86">
  <g id="Group_3960" data-name="Group 3960" transform="translate(-23.035 -43.354)">
    <path id="Path_9826" data-name="Path 9826" d="M57.5,537.369l25.547-20.906,26.042,9.119,27.631-56.4,24.826,34.67,27.306-25.466h25.732L241.812,456.1" transform="translate(-31.237 -411)" fill="none" stroke="#190aff" stroke-linecap="round" stroke-width="1"/>
    <circle id="Ellipse_359" data-name="Ellipse 359" cx="2.5" cy="2.5" r="2.5" transform="translate(49.035 103.354)" fill="#333"/>
    <circle id="Ellipse_360" data-name="Ellipse 360" cx="2.5" cy="2.5" r="2.5" transform="translate(75.035 110.354)" fill="#333"/>
    <circle id="Ellipse_361" data-name="Ellipse 361" cx="2.5" cy="2.5" r="2.5" transform="translate(23.035 124.354)" fill="#333"/>
    <circle id="Ellipse_362" data-name="Ellipse 362" cx="2.5" cy="2.5" r="2.5" transform="translate(103.035 56.354)" fill="#333"/>
    <circle id="Ellipse_363" data-name="Ellipse 363" cx="2.5" cy="2.5" r="2.5" transform="translate(128.035 89.354)" fill="#333"/>
    <circle id="Ellipse_364" data-name="Ellipse 364" cx="2.5" cy="2.5" r="2.5" transform="translate(155.035 65.354)" fill="#333"/>
    <circle id="Ellipse_365" data-name="Ellipse 365" cx="2.5" cy="2.5" r="2.5" transform="translate(181.035 65.354)" fill="#333"/>
    <circle id="Ellipse_366" data-name="Ellipse 366" cx="2.5" cy="2.5" r="2.5" transform="translate(209.035 43.354)" fill="#333"/>
  </g>
</svg>
