<svg xmlns="http://www.w3.org/2000/svg" width="192" height="89" viewBox="0 0 192 89">
  <g id="Group_6148" data-name="Group 6148" transform="translate(-81 -427)">
    <g id="Group_4022" data-name="Group 4022" transform="translate(81 427)">
      <rect id="Rectangle_5171" data-name="Rectangle 5171" width="30" height="18" fill="#190aff"/>
      <rect id="Rectangle_5172" data-name="Rectangle 5172" width="30" height="18" transform="translate(27)" fill="#190aff"/>
      <rect id="Rectangle_5173" data-name="Rectangle 5173" width="30" height="18" transform="translate(55)" fill="#fff"/>
      <rect id="Rectangle_5174" data-name="Rectangle 5174" width="30" height="18" transform="translate(82)" fill="#d3d2eb"/>
      <rect id="Rectangle_5175" data-name="Rectangle 5175" width="30" height="18" transform="translate(110)" fill="#190aff"/>
      <rect id="Rectangle_5176" data-name="Rectangle 5176" width="30" height="18" transform="translate(137)" fill="#190aff"/>
      <rect id="Rectangle_5177" data-name="Rectangle 5177" width="30" height="18" transform="translate(162)" fill="#6c6c6c"/>
      <rect id="Rectangle_5178" data-name="Rectangle 5178" width="30" height="18" transform="translate(162)" fill="#bcbcbc"/>
      <rect id="Rectangle_5179" data-name="Rectangle 5179" width="30" height="18" transform="translate(162)" fill="#bcbcbc"/>
      <rect id="Rectangle_5180" data-name="Rectangle 5180" width="30" height="18" transform="translate(162)" fill="#4f42ff"/>
    </g>
    <g id="Group_4023" data-name="Group 4023" transform="translate(81 444.791)">
      <rect id="Rectangle_5181" data-name="Rectangle 5181" width="30" height="18" transform="translate(0 0.209)" fill="#4f42ff"/>
      <rect id="Rectangle_5182" data-name="Rectangle 5182" width="30" height="18" transform="translate(27 0.209)" fill="#3b2fde"/>
      <rect id="Rectangle_5183" data-name="Rectangle 5183" width="30" height="18" transform="translate(55 0.209)" fill="#f2f2f2"/>
      <rect id="Rectangle_5184" data-name="Rectangle 5184" width="30" height="18" transform="translate(82 0.209)" fill="#f2f2f2"/>
      <rect id="Rectangle_5185" data-name="Rectangle 5185" width="30" height="18" transform="translate(110 0.209)" fill="#f2f2f2"/>
      <rect id="Rectangle_5186" data-name="Rectangle 5186" width="30" height="18" transform="translate(137 0.209)" fill="#4f42ff"/>
      <rect id="Rectangle_5187" data-name="Rectangle 5187" width="30" height="18" transform="translate(162 0.209)" fill="#6c6c6c"/>
      <rect id="Rectangle_5188" data-name="Rectangle 5188" width="30" height="18" transform="translate(162 0.209)" fill="#bcbcbc"/>
      <rect id="Rectangle_5189" data-name="Rectangle 5189" width="30" height="18" transform="translate(162 0.209)" fill="#6c6c6c"/>
      <rect id="Rectangle_5190" data-name="Rectangle 5190" width="30" height="18" transform="translate(162 0.209)" fill="#190aff"/>
    </g>
    <g id="Group_4024" data-name="Group 4024" transform="translate(81 462.582)">
      <rect id="Rectangle_5191" data-name="Rectangle 5191" width="30" height="17" transform="translate(0 0.418)" fill="#3b2fde"/>
      <rect id="Rectangle_5192" data-name="Rectangle 5192" width="30" height="17" transform="translate(27 0.418)" fill="#3b2fde"/>
      <rect id="Rectangle_5193" data-name="Rectangle 5193" width="30" height="17" transform="translate(55 0.418)" fill="#3b2fde"/>
      <rect id="Rectangle_5194" data-name="Rectangle 5194" width="30" height="17" transform="translate(82 0.418)" fill="#ededed"/>
      <rect id="Rectangle_5195" data-name="Rectangle 5195" width="30" height="17" transform="translate(110 0.418)" fill="#d3d2eb"/>
      <rect id="Rectangle_5196" data-name="Rectangle 5196" width="30" height="17" transform="translate(137 0.418)" fill="#d3d2eb"/>
      <rect id="Rectangle_5197" data-name="Rectangle 5197" width="30" height="17" transform="translate(162 0.418)" fill="#bcbcbc"/>
      <rect id="Rectangle_5198" data-name="Rectangle 5198" width="30" height="17" transform="translate(162 0.418)" fill="#ededed"/>
      <rect id="Rectangle_5199" data-name="Rectangle 5199" width="30" height="17" transform="translate(162 0.418)" fill="#ededed"/>
      <rect id="Rectangle_5200" data-name="Rectangle 5200" width="30" height="17" transform="translate(162 0.418)" fill="#4f42ff"/>
    </g>
    <g id="Group_4025" data-name="Group 4025" transform="translate(81 480.373)">
      <rect id="Rectangle_5201" data-name="Rectangle 5201" width="30" height="18" transform="translate(0 -0.373)" fill="#fff"/>
      <rect id="Rectangle_5202" data-name="Rectangle 5202" width="30" height="18" transform="translate(27 -0.373)" fill="#fff"/>
      <rect id="Rectangle_5203" data-name="Rectangle 5203" width="30" height="18" transform="translate(55 -0.373)" fill="#4f42ff"/>
      <rect id="Rectangle_5204" data-name="Rectangle 5204" width="30" height="18" transform="translate(82 -0.373)" fill="#d3d2eb"/>
      <rect id="Rectangle_5205" data-name="Rectangle 5205" width="30" height="18" transform="translate(110 -0.373)" fill="#4f42ff"/>
      <rect id="Rectangle_5206" data-name="Rectangle 5206" width="30" height="18" transform="translate(137 -0.373)" fill="#4f42ff"/>
      <rect id="Rectangle_5207" data-name="Rectangle 5207" width="30" height="18" transform="translate(162 -0.373)" fill="#ededed"/>
      <rect id="Rectangle_5208" data-name="Rectangle 5208" width="30" height="18" transform="translate(162 -0.373)" fill="#bcbcbc"/>
      <rect id="Rectangle_5209" data-name="Rectangle 5209" width="30" height="18" transform="translate(162 -0.373)" fill="#f2f2f2"/>
      <rect id="Rectangle_5210" data-name="Rectangle 5210" width="30" height="18" transform="translate(162 -0.373)" fill="#d3d2eb"/>
    </g>
    <g id="Group_4026" data-name="Group 4026" transform="translate(81 498.164)">
      <rect id="Rectangle_5211" data-name="Rectangle 5211" width="30" height="18" transform="translate(0 -0.164)" fill="#4f42ff"/>
      <rect id="Rectangle_5212" data-name="Rectangle 5212" width="30" height="18" transform="translate(27 -0.164)" fill="#3b2fde"/>
      <rect id="Rectangle_5213" data-name="Rectangle 5213" width="30" height="18" transform="translate(55 -0.164)" fill="#4f42ff"/>
      <rect id="Rectangle_5214" data-name="Rectangle 5214" width="30" height="18" transform="translate(82 -0.164)" fill="#f2f2f2"/>
      <rect id="Rectangle_5215" data-name="Rectangle 5215" width="30" height="18" transform="translate(110 -0.164)" fill="#d3d2eb"/>
      <rect id="Rectangle_5216" data-name="Rectangle 5216" width="30" height="18" transform="translate(137 -0.164)" fill="#d3d2eb"/>
      <rect id="Rectangle_5217" data-name="Rectangle 5217" width="30" height="18" transform="translate(162 -0.164)" fill="#6c6c6c"/>
      <rect id="Rectangle_5218" data-name="Rectangle 5218" width="30" height="18" transform="translate(162 -0.164)" fill="#bcbcbc"/>
      <rect id="Rectangle_5219" data-name="Rectangle 5219" width="30" height="18" transform="translate(162 -0.164)" fill="#f2f2f2"/>
      <rect id="Rectangle_5220" data-name="Rectangle 5220" width="30" height="18" transform="translate(162 -0.164)" fill="#4f42ff"/>
    </g>
  </g>
</svg>
