<svg id="Group_101" data-name="Group 101" xmlns="http://www.w3.org/2000/svg" width="24" height="24" viewBox="0 0 24 24">
  <path id="Path_78" data-name="Path 78" d="M12,0A11.993,11.993,0,0,0,1.6,17.966L.033,23.024a.7.7,0,0,0,.892.874l4.909-1.62A11.994,11.994,0,1,0,12,0ZM6.3,20.916a.7.7,0,0,0-.6-.075l-3.926,1.3,1.253-4.054a.7.7,0,0,0-.072-.574A10.6,10.6,0,1,1,6.3,20.916Z" transform="translate(-0.001)" fill="#333"/>
  <path id="Path_79" data-name="Path 79" d="M190.157,180.854H181.72a.7.7,0,1,0,0,1.405h8.437a.7.7,0,1,0,0-1.405Z" transform="translate(-172.532 -172.376)" fill="#333"/>
  <path id="Path_80" data-name="Path 80" d="M130.16,300.757h-8.437a.7.7,0,1,0,0,1.405h8.437a.7.7,0,1,0,0-1.405Z" transform="translate(-115.347 -286.659)" fill="#333"/>
  <path id="Path_81" data-name="Path 81" d="M132.973,240.806H121.723a.7.7,0,1,0,0,1.405h11.249a.7.7,0,1,0,0-1.405Z" transform="translate(-115.347 -229.518)" fill="#333"/>
  <ellipse id="Ellipse_44" data-name="Ellipse 44" cx="0.703" cy="0.703" rx="0.703" ry="0.703" transform="translate(16.922 14.098)" fill="#333"/>
  <ellipse id="Ellipse_45" data-name="Ellipse 45" cx="0.703" cy="0.703" rx="0.703" ry="0.703" transform="translate(5.673 8.524)" fill="#333"/>
</svg>
