<svg xmlns="http://www.w3.org/2000/svg" width="76" height="76.001" viewBox="0 0 76 76.001">
  <g id="Group_6147" data-name="Group 6147" transform="translate(-244.021 -428.54)">
    <path id="Intersection_6" data-name="Intersection 6" d="M19.1,0A38.118,38.118,0,0,1,35.948,20.527L0,33.124Z" transform="translate(282.027 433.683)" fill="#1000ff"/>
    <path id="Intersection_7" data-name="Intersection 7" d="M8.7,0A37.756,37.756,0,0,1,19.093,4.14L0,37.268Z" transform="translate(282.029 429.543)" fill="#07006f"/>
    <path id="Intersection_8" data-name="Intersection 8" d="M0,12.578,35.948,0a37.957,37.957,0,0,1,2.045,12.33A37.855,37.855,0,0,1,28.23,37.76Z" transform="translate(282.027 454.21)" fill="#5346ff"/>
    <path id="Intersection_9" data-name="Intersection 9" d="M0,20.305,31.981,0,60.2,25.174A37.9,37.9,0,0,1,31.964,37.747,37.967,37.967,0,0,1,0,20.305Z" transform="translate(250.056 466.794)" fill="#6c61f5"/>
    <path id="Intersection_10" data-name="Intersection 10" d="M0,38A38.033,38.033,0,0,1,46.728,1.007L38.021,38.259,6.029,58.548A37.821,37.821,0,0,1,0,38Z" transform="translate(244.021 428.54)" fill="#b4adff"/>
  </g>
</svg>
