<svg id="Group_100" data-name="Group 100" xmlns="http://www.w3.org/2000/svg" width="24" height="24" viewBox="0 0 24 24">
  <path id="Path_76" data-name="Path 76" d="M139.346,133.609a5.737,5.737,0,1,0,5.737,5.737A5.744,5.744,0,0,0,139.346,133.609Zm0,10.04a4.3,4.3,0,1,1,4.3-4.3A4.308,4.308,0,0,1,139.346,143.649Z" transform="translate(-127.346 -127.346)" fill="#333"/>
  <path id="Path_77" data-name="Path 77" d="M23.435,9.267l-1.845-.4A10.041,10.041,0,0,0,21,7.435l1.021-1.588a.717.717,0,0,0-.1-.895L19.048,2.078a.717.717,0,0,0-.895-.1L16.565,3a10.046,10.046,0,0,0-1.432-.594l-.4-1.845a.717.717,0,0,0-.7-.565H9.968a.717.717,0,0,0-.7.565l-.4,1.845A10.046,10.046,0,0,0,7.435,3L5.846,1.982a.717.717,0,0,0-.895.1L2.078,4.952a.717.717,0,0,0-.1.895L3,7.435a10.041,10.041,0,0,0-.594,1.432l-1.845.4a.717.717,0,0,0-.565.7v4.064a.717.717,0,0,0,.565.7l1.845.4A10.041,10.041,0,0,0,3,16.565L1.982,18.154a.717.717,0,0,0,.1.895l2.874,2.874a.717.717,0,0,0,.895.1L7.435,21a10.041,10.041,0,0,0,1.432.594l.4,1.845a.717.717,0,0,0,.7.565h4.064a.717.717,0,0,0,.7-.565l.4-1.845A10.041,10.041,0,0,0,16.565,21l1.588,1.021a.717.717,0,0,0,.895-.1l2.874-2.874a.717.717,0,0,0,.1-.895L21,16.565a10.041,10.041,0,0,0,.594-1.432l1.845-.4a.717.717,0,0,0,.565-.7V9.968A.717.717,0,0,0,23.435,9.267Zm-.87,4.187-1.691.368a.717.717,0,0,0-.538.508,8.6,8.6,0,0,1-.794,1.916.717.717,0,0,0,.021.74l.937,1.457L18.443,20.5l-1.457-.937a.717.717,0,0,0-.74-.021,8.61,8.61,0,0,1-1.916.794.717.717,0,0,0-.508.538l-.368,1.691H10.546l-.368-1.691a.717.717,0,0,0-.508-.538,8.6,8.6,0,0,1-1.916-.794.717.717,0,0,0-.74.021L5.557,20.5,3.5,18.443l.936-1.457a.717.717,0,0,0,.021-.74,8.614,8.614,0,0,1-.795-1.916.717.717,0,0,0-.538-.508l-1.692-.368V10.546l1.691-.368a.717.717,0,0,0,.538-.508,8.6,8.6,0,0,1,.794-1.916.717.717,0,0,0-.021-.74L3.5,5.557,5.557,3.5l1.457.937a.717.717,0,0,0,.74.021A8.61,8.61,0,0,1,9.67,3.664a.717.717,0,0,0,.508-.538l.368-1.691h2.908l.368,1.691a.717.717,0,0,0,.508.538,8.6,8.6,0,0,1,1.916.794.717.717,0,0,0,.74-.021L18.443,3.5,20.5,5.557l-.936,1.457a.717.717,0,0,0-.021.74,8.605,8.605,0,0,1,.795,1.916.717.717,0,0,0,.538.508l1.692.368Z" fill="#333"/>
</svg>
