<svg xmlns="http://www.w3.org/2000/svg" viewBox="0 0 452 269.56"><g id="Layer_2" data-name="Layer 2"><g id="Layer_1-2" data-name="Layer 1"><g id="Group_5731" data-name="Group 5731"><g id="Group_5731-2" data-name="Group 5731-2"><rect id="Rectangle_5477" data-name="Rectangle 5477" x="151" y="123.56" width="150" height="145" rx="5" fill="#f2f2f3"/><path id="Path_13320" data-name="Path 13320" d="M296,269.56H156a6,6,0,0,1-6-6v-135a6,6,0,0,1,6-6H296a6,6,0,0,1,6,6v135A6,6,0,0,1,296,269.56Zm-140-145a4,4,0,0,0-4,4v135a4,4,0,0,0,4,4H296a4,4,0,0,0,4-4v-135a4,4,0,0,0-4-4Z" fill="#3d53a4"/></g><g id="Group_5732" data-name="Group 5732"><rect id="Rectangle_5478" data-name="Rectangle 5478" x="157.49" y="172.56" width="43.51" height="96" fill="#f2f2f3"/><path id="Path_13321" data-name="Path 13321" d="M202,269.56H156.49v-98H202Zm-43.51-2H200v-94H158.49Z" fill="#3d53a4"/></g><g id="Group_5733" data-name="Group 5733"><rect id="Rectangle_5479" data-name="Rectangle 5479" x="1" y="100.37" width="150" height="168.19" rx="5" fill="#f2f2f3"/><path id="Path_13322" data-name="Path 13322" d="M146,269.56H6a6,6,0,0,1-6-6V105.36a6,6,0,0,1,6-6H146a6,6,0,0,1,6,6v158.2A6,6,0,0,1,146,269.56ZM6,101.37a4,4,0,0,0-4,4V263.56a4,4,0,0,0,4,4H146a4,4,0,0,0,4-4V105.36a4,4,0,0,0-4-4Z" fill="#3d53a4"/></g><g id="Group_5734" data-name="Group 5734"><rect id="Rectangle_5480" data-name="Rectangle 5480" x="301" y="17" width="150" height="251.56" rx="5" fill="#f2f2f3"/><path id="Path_13323" data-name="Path 13323" d="M446,269.56H306a6,6,0,0,1-6-6V22a6,6,0,0,1,6-6H446a6,6,0,0,1,6,6V263.56A6,6,0,0,1,446,269.56ZM306,18a4,4,0,0,0-4,4V263.56a4,4,0,0,0,4,4H446a4,4,0,0,0,4-4V22a4,4,0,0,0-4-4Z" fill="#3d53a4"/></g><g id="Group_5735" data-name="Group 5735"><path id="Path_13324" data-name="Path 13324" d="M313.94,17V6a5,5,0,0,1,5-5H433.06a5,5,0,0,1,5,5V17Z" fill="#f2f2f3"/><path id="Path_13325" data-name="Path 13325" d="M439.06,18H312.94V6a6,6,0,0,1,6-6H433.06a6,6,0,0,1,6,6ZM314.94,16H437.06V6a4,4,0,0,0-4-4H318.94a4,4,0,0,0-4,4Z" fill="#3d53a4"/></g><g id="Group_5736" data-name="Group 5736"><path id="Path_13326" data-name="Path 13326" d="M13.94,100.36v-11a5,5,0,0,1,5-5H133.06a5,5,0,0,1,5,5v11Z" fill="#f2f2f3"/><path id="Path_13327" data-name="Path 13327" d="M139.06,101.36H12.94v-12a6,6,0,0,1,6-6H133.06a6,6,0,0,1,6,6Zm-124.12-2H137.06v-10a4,4,0,0,0-4-4H18.94a4,4,0,0,0-4,4Z" fill="#3d53a4"/></g><g id="Group_5737" data-name="Group 5737"><rect id="Rectangle_5481" data-name="Rectangle 5481" x="313.94" y="31.83" width="124.13" height="53.41" rx="3" fill="#f2f2f3"/><path id="Path_13328" data-name="Path 13328" d="M435.06,86.23H316.94a4,4,0,0,1-4-4V34.83a4,4,0,0,1,4-4H435.06a4,4,0,0,1,4,4v47.4A4,4,0,0,1,435.06,86.23ZM316.94,32.83a2,2,0,0,0-2,2v47.4a2,2,0,0,0,2,2H435.06a2,2,0,0,0,2-2V34.83a2,2,0,0,0-2-2Z" fill="#3d53a4"/></g><g id="Group_5738" data-name="Group 5738"><rect id="Rectangle_5482" data-name="Rectangle 5482" x="163.53" y="220.83" width="11.2" height="7.19" rx="1" fill="#f2f2f3"/><path id="Path_13329" data-name="Path 13329" d="M173.73,229h-9.2a2,2,0,0,1-2-2v-5.19a2,2,0,0,1,2-2h9.2a2,2,0,0,1,2,2V227A2,2,0,0,1,173.73,229Zm-9.2-7.19V227h9.2v-5.19Z" fill="#3d53a4"/></g><g id="Group_5739" data-name="Group 5739"><rect id="Rectangle_5483" data-name="Rectangle 5483" x="313.94" y="115.5" width="25.32" height="16.12" rx="3" fill="#f2f2f3"/><path id="Path_13330" data-name="Path 13330" d="M336.26,132.62H316.94a4,4,0,0,1-4-4V118.5a4,4,0,0,1,4-4h19.32a4,4,0,0,1,4,4v10.12a4,4,0,0,1-4,4ZM316.94,116.5a2,2,0,0,0-2,2v10.12a2,2,0,0,0,2,2h19.32a2,2,0,0,0,2-2V118.5a2,2,0,0,0-2-2Z" fill="#3d53a4"/></g><g id="Group_5740" data-name="Group 5740"><rect id="Rectangle_5484" data-name="Rectangle 5484" x="363.34" y="115.5" width="25.32" height="16.12" rx="3" fill="#f2f2f3"/><path id="Path_13331" data-name="Path 13331" d="M385.66,132.62H366.34a4,4,0,0,1-4-4V118.5a4,4,0,0,1,4-4h19.32a4,4,0,0,1,4,4v10.12a4,4,0,0,1-4,4ZM366.34,116.5a2,2,0,0,0-2,2v10.12a2,2,0,0,0,2,2h19.32a2,2,0,0,0,2-2V118.5a2,2,0,0,0-2-2Z" fill="#3d53a4"/></g><g id="Group_5741" data-name="Group 5741"><rect id="Rectangle_5485" data-name="Rectangle 5485" x="339.26" y="160.62" width="73.48" height="16.12" rx="3" fill="#f2f2f3"/><path id="Path_13332" data-name="Path 13332" d="M409.74,177.74H342.26a4,4,0,0,1-4-4V163.62a4,4,0,0,1,4-4h67.48a4,4,0,0,1,4,4v10.12A4,4,0,0,1,409.74,177.74Zm-67.48-16.12a2,2,0,0,0-2,2v10.12a2,2,0,0,0,2,2h67.48a2,2,0,0,0,2-2V163.62a2,2,0,0,0-2-2Z" fill="#3d53a4"/></g><g id="Group_5742" data-name="Group 5742"><rect id="Rectangle_5486" data-name="Rectangle 5486" x="13.94" y="115.5" width="124.13" height="16.12" rx="3" fill="#f2f2f3"/><path id="Path_13333" data-name="Path 13333" d="M135.06,132.62H16.94a4,4,0,0,1-4-4V118.5a4,4,0,0,1,4-4H135.06a4,4,0,0,1,4,4v10.12a4,4,0,0,1-4,4ZM16.94,116.5a2,2,0,0,0-2,2v10.12a2,2,0,0,0,2,2H135.06a2,2,0,0,0,2-2V118.5a2,2,0,0,0-2-2Z" fill="#3d53a4"/></g><g id="Group_5743" data-name="Group 5743"><path id="Rectangle_5487" data-name="Rectangle 5487" d="M16.94,144.54H135.06a3,3,0,0,1,3,3v121H13.94v-121A3,3,0,0,1,16.94,144.54Z" fill="#f2f2f3"/><path id="Path_13334" data-name="Path 13334" d="M139.06,269.56H12.94v-122a4,4,0,0,1,4-4H135.06a4,4,0,0,1,4,4Zm-124.12-2H137.06v-120a2,2,0,0,0-2-2H16.94a2,2,0,0,0-2,2Z" fill="#3d53a4"/></g><g id="Group_5744" data-name="Group 5744"><path id="Rectangle_5488" data-name="Rectangle 5488" d="M342.26,191.24h67.48a3,3,0,0,1,3,3v74.32H339.26V194.24A3,3,0,0,1,342.26,191.24Z" fill="#f2f2f3"/><path id="Path_13335" data-name="Path 13335" d="M413.74,269.56H338.26V194.24a4,4,0,0,1,4-4h67.48a4,4,0,0,1,4,4Zm-73.48-2h71.48V194.24a2,2,0,0,0-2-2H342.26a2,2,0,0,0-2,2Z" fill="#3d53a4"/></g><g id="Group_5745" data-name="Group 5745"><rect id="Rectangle_5489" data-name="Rectangle 5489" x="412.74" y="115.5" width="25.32" height="16.12" rx="3" fill="#f2f2f3"/><path id="Path_13336" data-name="Path 13336" d="M435.06,132.62H415.74a4,4,0,0,1-4-4V118.5a4,4,0,0,1,4-4h19.32a4,4,0,0,1,4,4v10.12a4,4,0,0,1-4,4ZM415.74,116.5a2,2,0,0,0-2,2v10.12a2,2,0,0,0,2,2h19.32a2,2,0,0,0,2-2V118.5a2,2,0,0,0-2-2Z" fill="#3d53a4"/></g><g id="Group_5746" data-name="Group 5746"><line id="Line_368" data-name="Line 368" x1="313.94" y1="100.37" x2="438.06" y2="100.37" fill="none"/><path id="Path_13337" data-name="Path 13337" d="M438.06,101.36H313.94a1,1,0,0,1,0-2H438.06a1,1,0,0,1,0,2Z" fill="#3d53a4"/></g><g id="Group_5747" data-name="Group 5747"><line id="Line_369" data-name="Line 369" x1="313.94" y1="146.12" x2="438.06" y2="146.12" fill="none"/><path id="Path_13338" data-name="Path 13338" d="M438.06,147.12H313.94a1,1,0,0,1,0-2H438.06a1,1,0,1,1,0,2Z" fill="#3d53a4"/></g><g id="Group_5750" data-name="Group 5750"><g id="Group_5748" data-name="Group 5748"><line id="Line_370" data-name="Line 370" x1="74.68" y1="153.07" x2="74.68" y2="260.45" fill="none"/><path id="Path_13339" data-name="Path 13339" d="M74.68,261.45a1,1,0,0,1-1-1V153.06a1,1,0,0,1,2,0V260.45A1,1,0,0,1,74.68,261.45Z" fill="#3d53a4"/></g><g id="Group_5749" data-name="Group 5749"><line id="Line_371" data-name="Line 371" x1="79.78" y1="153.07" x2="79.78" y2="260.45" fill="none"/><path id="Path_13340" data-name="Path 13340" d="M79.78,261.45a1,1,0,0,1-1-1V153.06a1,1,0,0,1,2,0V260.45A1,1,0,0,1,79.78,261.45Z" fill="#3d53a4"/></g></g><g id="Group_5751" data-name="Group 5751"><path id="Path_13341" data-name="Path 13341" d="M286.19,68.26c.81-17.88,3.14-40.78-.24-44.18-6.05-6.09-18.4-6.38-28.11.19-5.56,3.77-2.19,35-2.14,48.86.06,20,5.78,22.14,21.53,22.26C289.09,95.48,285.54,82.71,286.19,68.26Z" fill="#5bc4bb"/></g><g id="Group_5752" data-name="Group 5752"><line id="Line_372" data-name="Line 372" x1="396.69" y1="38.05" x2="396.69" y2="79.32" fill="none"/><path id="Path_13342" data-name="Path 13342" d="M396.69,80.32a1,1,0,0,1-1-1V38.05a1,1,0,0,1,2,0V79.32A1,1,0,0,1,396.69,80.32Z" fill="#3d53a4"/></g><g id="Group_5753" data-name="Group 5753"><line id="Line_373" data-name="Line 373" x1="355.31" y1="37.73" x2="355.31" y2="79" fill="none"/><path id="Path_13343" data-name="Path 13343" d="M355.31,80a1,1,0,0,1-1-1V37.73a1,1,0,0,1,2,0V79A1,1,0,0,1,355.31,80Z" fill="#3d53a4"/></g><g id="Group_5754" data-name="Group 5754"><path id="Path_13344" data-name="Path 13344" d="M207.9,217.56v-45h86v45a3,3,0,0,1-3,3h-80A3,3,0,0,1,207.9,217.56Z" fill="#f2f2f3"/><path id="Path_13345" data-name="Path 13345" d="M290.9,221.56h-80a4,4,0,0,1-4-4v-46h88v46A4,4,0,0,1,290.9,221.56Zm-82-48v44a2,2,0,0,0,2,2h80a2,2,0,0,0,2-2v-44Z" fill="#3d53a4"/></g><g id="Group_5755" data-name="Group 5755"><path id="Path_13346" data-name="Path 13346" d="M207.9,268.56V231a3,3,0,0,1,3-3h80a3,3,0,0,1,3,3v37.54Z" fill="#f2f2f3"/><path id="Path_13347" data-name="Path 13347" d="M294.9,269.56h-88V231a4,4,0,0,1,4-4h80a4,4,0,0,1,4,4Zm-86-2h84V231a2,2,0,0,0-2-2h-80a2,2,0,0,0-2,2Z" fill="#3d53a4"/></g><g id="Group_5756" data-name="Group 5756"><line id="Line_374" data-name="Line 374" x1="265.23" y1="179.57" x2="265.23" y2="213.8" fill="none"/><path id="Path_13348" data-name="Path 13348" d="M265.23,214.8a1,1,0,0,1-1-1V179.57a1,1,0,0,1,2,0V213.8A1,1,0,0,1,265.23,214.8Z" fill="#3d53a4"/></g><g id="Group_5757" data-name="Group 5757"><line id="Line_375" data-name="Line 375" x1="236.57" y1="179.31" x2="236.57" y2="213.54" fill="none"/><path id="Path_13349" data-name="Path 13349" d="M236.57,214.54a1,1,0,0,1-1-1V179.31a1,1,0,0,1,2,0v34.23A1,1,0,0,1,236.57,214.54Z" fill="#3d53a4"/></g><g id="Group_5758" data-name="Group 5758"><line id="Line_376" data-name="Line 376" x1="214.7" y1="236.13" x2="287.11" y2="236.13" fill="none"/><path id="Path_13350" data-name="Path 13350" d="M287.11,237.13H214.7a1,1,0,0,1,0-2h72.41a1,1,0,0,1,0,2Z" fill="#3d53a4"/></g><g id="Group_5759" data-name="Group 5759"><line id="Line_377" data-name="Line 377" x1="214.7" y1="244.24" x2="287.11" y2="244.24" fill="none"/><path id="Path_13351" data-name="Path 13351" d="M287.11,245.24H214.7a1,1,0,0,1,0-2h72.41a1,1,0,0,1,0,2Z" fill="#3d53a4"/></g><g id="Group_5760" data-name="Group 5760"><line id="Line_378" data-name="Line 378" x1="214.7" y1="252.35" x2="287.11" y2="252.35" fill="none"/><path id="Path_13352" data-name="Path 13352" d="M287.11,253.35H214.7a1,1,0,0,1,0-2h72.41a1,1,0,0,1,0,2Z" fill="#3d53a4"/></g><g id="Group_5761" data-name="Group 5761"><line id="Line_379" data-name="Line 379" x1="214.7" y1="260.45" x2="287.11" y2="260.45" fill="none"/><path id="Path_13353" data-name="Path 13353" d="M287.11,261.45H214.7a1,1,0,0,1,0-2h72.41a1,1,0,0,1,0,2Z" fill="#3d53a4"/></g><g id="Group_5762" data-name="Group 5762"><path id="Path_13354" data-name="Path 13354" d="M142.92,149.06c4.58-8.71,5.19-21.24,13.11-21.46,11.23-.3,90.48-1.6,96.67-.45,7.6,1.41,37.72-3.48,45.4.75,7.2,3.95,25,52,20.6,57.59-4.82,6.08-7.17.54-49.91.61-12.31,0-76.22,1.87-89.87,2.35-39.8,1.41-48.34-.53-46.79-6.67C133.88,174.86,139.62,155.35,142.92,149.06Z" fill="#7867ae"/></g><g id="Group_5775" data-name="Group 5775"><g id="Group_5763" data-name="Group 5763"><path id="Path_13355" data-name="Path 13355" d="M311.87,175.76H139.77a2.47,2.47,0,0,1-2.24-3.51l19.3-41.84H294.54L314,172.49a2.32,2.32,0,0,1-1.13,3.06,2.44,2.44,0,0,1-1,.21ZM158.11,132.41l-18.77,40.67a.47.47,0,0,0,.23.63.46.46,0,0,0,.2,0h172.1a.32.32,0,0,0,.3-.31.53.53,0,0,0,0-.12l-18.88-40.92Z" fill="#f2f2f3"/></g><g id="Group_5764" data-name="Group 5764"><line id="Line_380" data-name="Line 380" x1="225.68" y1="136.67" x2="225.68" y2="169.42" fill="none"/><path id="Path_13356" data-name="Path 13356" d="M225.68,170.42a1,1,0,0,1-1-1V136.67a1,1,0,0,1,2,0v32.75A1,1,0,0,1,225.68,170.42Z" fill="#f2f2f3"/></g><g id="Group_5765" data-name="Group 5765"><line id="Line_381" data-name="Line 381" x1="203.14" y1="136.67" x2="197.41" y2="169.42" fill="none"/><path id="Path_13357" data-name="Path 13357" d="M197.41,170.42h-.17a1,1,0,0,1-.81-1.16h0l5.73-32.75a1,1,0,0,1,2,.35h0L198.4,169.6A1,1,0,0,1,197.41,170.42Z" fill="#f2f2f3"/></g><g id="Group_5766" data-name="Group 5766"><line id="Line_382" data-name="Line 382" x1="180.48" y1="136.67" x2="168.98" y2="169.42" fill="none"/><path id="Path_13358" data-name="Path 13358" d="M169,170.42a.74.74,0,0,1-.33,0,1,1,0,0,1-.61-1.28l11.5-32.75a1,1,0,0,1,1.89.63v0l-11.5,32.75A1,1,0,0,1,169,170.42Z" fill="#f2f2f3"/></g><g id="Group_5767" data-name="Group 5767"><line id="Line_383" data-name="Line 383" x1="248.52" y1="136.67" x2="254.25" y2="169.42" fill="none"/><path id="Path_13359" data-name="Path 13359" d="M254.25,170.42a1,1,0,0,1-1-.82l-5.73-32.75a1,1,0,0,1,.81-1.16,1,1,0,0,1,1.16.81h0l5.73,32.75a1,1,0,0,1-.81,1.16h-.18Z" fill="#f2f2f3"/></g><g id="Group_5768" data-name="Group 5768"><line id="Line_384" data-name="Line 384" x1="271.19" y1="136.67" x2="282.69" y2="169.42" fill="none"/><path id="Path_13360" data-name="Path 13360" d="M282.69,170.42a1,1,0,0,1-.95-.66L270.24,137a1,1,0,0,1,1.87-.73l0,.06,11.5,32.75a1,1,0,0,1-.61,1.28A.76.76,0,0,1,282.69,170.42Z" fill="#f2f2f3"/></g><g id="Group_5769" data-name="Group 5769"><path id="Path_13361" data-name="Path 13361" d="M165.11,183.22H140.06a3,3,0,0,1-3-3v-6.46h31.05v6.46A3,3,0,0,1,165.11,183.22Zm-26.05-7.46v4.46a1,1,0,0,0,1,1h25.05a1,1,0,0,0,1-1v-4.46Z" fill="#f2f2f3"/></g><g id="Group_5770" data-name="Group 5770"><path id="Path_13362" data-name="Path 13362" d="M193.48,183.22H170.11a4,4,0,0,1-4-4v-5.46h31.37v5.46A4,4,0,0,1,193.48,183.22Zm-25.37-7.46v3.46a2,2,0,0,0,2,2h23.37a2,2,0,0,0,2-2v-3.46Z" fill="#f2f2f3"/></g><g id="Group_5771" data-name="Group 5771"><path id="Path_13363" data-name="Path 13363" d="M222.68,183.22h-23.2a4,4,0,0,1-4-4v-5.46h31.2v5.46A4,4,0,0,1,222.68,183.22Zm-25.2-7.46v3.46a2,2,0,0,0,2,2h23.2a2,2,0,0,0,2-2v-3.46Z" fill="#f2f2f3"/></g><g id="Group_5772" data-name="Group 5772"><path id="Path_13364" data-name="Path 13364" d="M252.32,183.22H228.68a4,4,0,0,1-4-4v-5.46h31.64v5.46A4,4,0,0,1,252.32,183.22Zm-25.64-7.46v3.46a2,2,0,0,0,2,2h23.64a2,2,0,0,0,2-2v-3.46Z" fill="#f2f2f3"/></g><g id="Group_5773" data-name="Group 5773"><path id="Path_13365" data-name="Path 13365" d="M281.56,183.22H258.32a4,4,0,0,1-4-4v-5.46h31.24v5.46a4,4,0,0,1-4,4Zm-25.24-7.46v3.46a2,2,0,0,0,2,2h23.24a2,2,0,0,0,2-2v-3.46Z" fill="#f2f2f3"/></g><g id="Group_5774" data-name="Group 5774"><path id="Path_13366" data-name="Path 13366" d="M310.1,183.22H287.56a4,4,0,0,1-4-4v-5.46H314.1v5.46A4,4,0,0,1,310.1,183.22Zm-24.54-7.46v3.46a2,2,0,0,0,2,2H310.1a2,2,0,0,0,2-2v-3.46Z" fill="#f2f2f3"/></g></g><g id="Group_5776" data-name="Group 5776"><line id="Line_385" data-name="Line 385" x1="282.69" y1="31.83" x2="300.85" y2="31.83" fill="none"/><path id="Path_13367" data-name="Path 13367" d="M300.85,32.83H282.69a1,1,0,0,1,0-2h18.16a1,1,0,0,1,0,2Z" fill="#3d53a4"/></g><g id="Group_5777" data-name="Group 5777"><line id="Line_386" data-name="Line 386" x1="282.69" y1="85.23" x2="300.85" y2="85.23" fill="none"/><path id="Path_13368" data-name="Path 13368" d="M300.85,86.23H282.69a1,1,0,0,1,0-2h18.16a1,1,0,0,1,0,2Z" fill="#3d53a4"/></g></g></g></g></svg>