<svg xmlns="http://www.w3.org/2000/svg" viewBox="0 0 457.85 261.58"><g id="Layer_2" data-name="Layer 2"><g id="Layer_1-2" data-name="Layer 1"><g id="Group_5850" data-name="Group 5850"><g id="Group_5807" data-name="Group 5807"><path id="Path_13375" data-name="Path 13375" d="M151.89,252.6c105.53,3.25,293.52,19.87,302.65-2.56,7.68-18.9.1-82.95-3.54-100-2.53-11.84-48.12,10.1-101.18,7.63C272.42,154.09,123.61,130,75,130.14c-56.35.12-49.72,8-65.14,23.25C-7.08,170.14,5,195.49,4.61,228.67,4.08,276.43,66.59,250,151.89,252.6Z" fill="#5bc4bb"/></g><g id="Group_5808" data-name="Group 5808"><rect id="Rectangle_5493" data-name="Rectangle 5493" x="321.03" y="152.77" width="6" height="36.29" fill="#f2f2f3"/><path id="Path_13376" data-name="Path 13376" d="M327,190.06h-6a1,1,0,0,1-1-1V152.77a1,1,0,0,1,1-1h6a1,1,0,0,1,1,1v36.29A1,1,0,0,1,327,190.06Zm-5-2h4V153.77h-4Z" fill="#3d53a4"/></g><g id="Group_5809" data-name="Group 5809"><rect id="Rectangle_5494" data-name="Rectangle 5494" x="356.47" y="133.04" width="6" height="36.29" fill="#f2f2f3"/><path id="Path_13377" data-name="Path 13377" d="M362.47,170.33h-6a1,1,0,0,1-1-1V133a1,1,0,0,1,1-1h6a1,1,0,0,1,1,1v36.29A1,1,0,0,1,362.47,170.33Zm-5-2h4V134h-4Z" fill="#3d53a4"/></g><g id="Group_5810" data-name="Group 5810"><rect id="Rectangle_5495" data-name="Rectangle 5495" x="377.94" y="152.8" width="6" height="36.29" fill="#f2f2f3"/><path id="Path_13378" data-name="Path 13378" d="M383.94,190.09h-6a1,1,0,0,1-1-1V152.8a1,1,0,0,1,1-1h6a1,1,0,0,1,1,1v36.29A1,1,0,0,1,383.94,190.09Zm-5-2h4V153.8h-4Z" fill="#3d53a4"/></g><g id="Group_5811" data-name="Group 5811"><rect id="Rectangle_5496" data-name="Rectangle 5496" x="415.05" y="170.57" width="6" height="36.29" fill="#f2f2f3"/><path id="Path_13379" data-name="Path 13379" d="M421.05,207.86h-6a1,1,0,0,1-1-1V170.57a1,1,0,0,1,1-1h6a1,1,0,0,1,1,1v36.29A1,1,0,0,1,421.05,207.86Zm-5-2h4V171.57h-4Z" fill="#3d53a4"/></g><g id="Group_5812" data-name="Group 5812"><path id="Path_13380" data-name="Path 13380" d="M111.55,213.69v40H102V215Z" fill="#f2f2f3"/><path id="Path_13381" data-name="Path 13381" d="M111.55,254.71H102a1,1,0,0,1-1-1V215a1,1,0,0,1,.86-1l9.52-1.33a1,1,0,0,1,.8.23,1,1,0,0,1,.34.76v40a1,1,0,0,1-1,1Zm-8.52-2h7.52V214.84l-7.52,1Z" fill="#3d53a4"/></g><g id="Group_5813" data-name="Group 5813"><path id="Path_13382" data-name="Path 13382" d="M365.84,217.25v36.46h-9.51V215.92Z" fill="#f2f2f3"/><path id="Path_13383" data-name="Path 13383" d="M365.84,254.71h-9.51a1,1,0,0,1-1-1V215.92a1,1,0,0,1,1.13-1l9.52,1.33a1,1,0,0,1,.86,1v36.46A1,1,0,0,1,365.84,254.71Zm-8.52-2h7.52V218.12l-7.52-1.05Z" fill="#3d53a4"/></g><g id="Group_5816" data-name="Group 5816"><g id="Group_5814" data-name="Group 5814"><path id="Path_13384" data-name="Path 13384" d="M83.78,21a13.68,13.68,0,0,1,21.73,6.33,10.49,10.49,0,0,1,2.35-.45,6.38,6.38,0,0,1,6.38,6.38h0a3.54,3.54,0,0,1-.26,1.33H36.53a6.38,6.38,0,0,1,9.17-8.34l.19.13A20.27,20.27,0,0,1,83.78,21Z" fill="#f2f2f3"/><path id="Path_13385" data-name="Path 13385" d="M114,35.61h-78l-.29-.52a7.39,7.39,0,0,1,9.57-10.24A21.27,21.27,0,0,1,84.1,19.53a14.67,14.67,0,0,1,22,6.62,8.3,8.3,0,0,1,1.72-.25,7.39,7.39,0,0,1,7.38,7.39A3.46,3.46,0,0,1,115,34.6l-.31,1Zm-76.82-2h76.07c0-.11,0-.22,0-.32a5.39,5.39,0,0,0-5.38-5.39,9.62,9.62,0,0,0-2.06.4l-.94.29-.3-.94a12.69,12.69,0,0,0-16-8.15,12.84,12.84,0,0,0-4.16,2.29l-1,.79-.57-1.1a19.28,19.28,0,0,0-36,5.11l-.3,1.53-1.44-1a5.39,5.39,0,0,0-8,6.53Z" fill="#3d53a4"/></g><g id="Group_5815" data-name="Group 5815"><path id="Path_13386" data-name="Path 13386" d="M50.49,28.56a1,1,0,0,1-1-1,1.18,1.18,0,0,1,0-.27c2.37-8.46,7.92-13.12,15.62-13.12a1,1,0,0,1,0,2c-6.82,0-11.55,4-13.69,11.66A1,1,0,0,1,50.49,28.56Z" fill="#3d53a4"/></g></g><g id="Group_5819" data-name="Group 5819"><g id="Group_5817" data-name="Group 5817"><path id="Path_13387" data-name="Path 13387" d="M302.41,52.5a16.83,16.83,0,0,1,15.73-22.8c10.89,0,15.13,9.47,15.13,9.47a9.77,9.77,0,0,1,10.87-1.3s0-.72,0-1.08a35.79,35.79,0,0,1,69.45-12.17h0a17.59,17.59,0,0,1,16,17.51c0,2.85-.68,8-1.89,10.37Z" fill="#f2f2f3"/><path id="Path_13388" data-name="Path 13388" d="M427.65,53.5H302.41a1,1,0,0,1-.93-.65A17.82,17.82,0,0,1,333.6,37.66a10.93,10.93,0,0,1,9.52-1.3A36.8,36.8,0,0,1,414.3,23.7a18.48,18.48,0,0,1,16.24,18.43c0,2.89-.7,8.26-2,10.82A1,1,0,0,1,427.65,53.5Zm-124.53-2H427a31.11,31.11,0,0,0,1.53-9.37,16.49,16.49,0,0,0-15.06-16.51,1,1,0,0,1-.88-.76,34.8,34.8,0,0,0-67.48,11.92c0,.36,0,1.06,0,1.06a1,1,0,0,1-1,1,1.13,1.13,0,0,1-.48-.11,8.86,8.86,0,0,0-9.75,1.17,1,1,0,0,1-1.41-.1.82.82,0,0,1-.16-.25,15.82,15.82,0,0,0-30,6.94A15.63,15.63,0,0,0,303.12,51.5Z" fill="#3d53a4"/></g><g id="Group_5818" data-name="Group 5818"><path id="Path_13389" data-name="Path 13389" d="M408.1,29.56a1,1,0,0,1-1-.83c-2-11.68-11.61-18.15-19.9-20.31a1,1,0,0,1-.71-1.22,1,1,0,0,1,1.22-.72c8.88,2.32,19.15,9.29,21.35,21.9a1,1,0,0,1-.81,1.16Z" fill="#3d53a4"/></g></g><g id="Group_5830" data-name="Group 5830"><g id="Group_5820" data-name="Group 5820"><rect id="Rectangle_5497" data-name="Rectangle 5497" x="221.24" y="164.19" width="9.52" height="90" fill="#f2f2f3"/><path id="Path_13390" data-name="Path 13390" d="M230.76,255.19h-9.52a1,1,0,0,1-1-1v-90a1,1,0,0,1,1-1h9.52a1,1,0,0,1,1,1v90A1,1,0,0,1,230.76,255.19Zm-8.52-2h7.52v-88h-7.52Z" fill="#3d53a4"/></g><g id="Group_5821" data-name="Group 5821"><path id="Path_13391" data-name="Path 13391" d="M221.24,198.32,1,229.18v-9.61l220.24-30.86Z" fill="#f2f2f3"/><path id="Path_13392" data-name="Path 13392" d="M1,230.18a1,1,0,0,1-1-1v-9.61a1,1,0,0,1,.86-1L221.1,187.72a1,1,0,0,1,1.13.85.66.66,0,0,1,0,.14v9.61a1,1,0,0,1-.86,1L1.14,230.17Zm1-9.74V228l218.24-30.58v-7.59Z" fill="#3d53a4"/></g><g id="Group_5822" data-name="Group 5822"><path id="Path_13393" data-name="Path 13393" d="M230.76,198.32,451,229.18v-9.61L230.76,188.71Z" fill="#f2f2f3"/><path id="Path_13394" data-name="Path 13394" d="M451,230.18h-.14L230.62,199.31a1,1,0,0,1-.86-1v-9.61a1,1,0,0,1,1-1h.14l220.24,30.86a1,1,0,0,1,.86,1v9.61a1,1,0,0,1-1,1ZM231.76,197.45,450,228v-7.59L231.76,189.86Z" fill="#3d53a4"/></g><g id="Group_5823" data-name="Group 5823"><rect id="Rectangle_5498" data-name="Rectangle 5498" x="221.24" y="130.02" width="9.52" height="12.4" fill="#f2f2f3"/><path id="Path_13395" data-name="Path 13395" d="M230.76,143.42h-9.52a1,1,0,0,1-1-1V130a1,1,0,0,1,1-1h9.52a1,1,0,0,1,1,1v12.4A1,1,0,0,1,230.76,143.42Zm-8.52-2h7.52V131h-7.52Z" fill="#3d53a4"/></g><g id="Group_5824" data-name="Group 5824"><path id="Path_13396" data-name="Path 13396" d="M174.15,99.18v24.34a35,35,0,0,0,35,35h33.7a35,35,0,0,0,35-35V99.18ZM268.34,122a27,27,0,0,1-27,27H210.66a27,27,0,0,1-27-27V108.7h84.68Z" fill="#f2f2f3"/><path id="Path_13397" data-name="Path 13397" d="M242.85,159.52h-33.7a36,36,0,0,1-36-36V99.18a1,1,0,0,1,1-1h103.7a1,1,0,0,1,1,1v24.34A36,36,0,0,1,242.85,159.52Zm-67.7-59.34v23.34a34,34,0,0,0,34,34h33.7a34,34,0,0,0,34-34V100.18ZM241.33,150H210.66a28,28,0,0,1-28-28V108.7a1,1,0,0,1,1-1h84.67a1,1,0,0,1,1,1V122a28,28,0,0,1-28,28Zm-56.67-40.3V122a26,26,0,0,0,26,26h30.67a26,26,0,0,0,26-26V109.7Z" fill="#3d53a4"/></g><g id="Group_5825" data-name="Group 5825"><path id="Path_13398" data-name="Path 13398" d="M260.7,94.29v19.58l-29.94,16.26h-9.52L191.3,113.87V94.29Z" fill="#f2f2f3"/><path id="Path_13399" data-name="Path 13399" d="M230.76,131.14h-9.52a1,1,0,0,1-.48-.13l-29.93-16.26a1,1,0,0,1-.53-.88V94.29a1,1,0,0,1,1-1h69.4a1,1,0,0,1,1,1v19.58a1,1,0,0,1-.52.88L231.24,131A1,1,0,0,1,230.76,131.14Zm-9.26-2h9l29.2-15.87v-18H192.3v18Z" fill="#3d53a4"/></g><g id="Group_5826" data-name="Group 5826"><rect id="Rectangle_5499" data-name="Rectangle 5499" x="215" y="142.31" width="22" height="22" fill="#f2f2f3"/><path id="Path_13400" data-name="Path 13400" d="M237,165.31H215a1,1,0,0,1-1-1v-22a1,1,0,0,1,1-1h22a1,1,0,0,1,1,1v22A1,1,0,0,1,237,165.31Zm-21-2h20v-20H216Z" fill="#3d53a4"/></g><g id="Group_5829" data-name="Group 5829"><g id="Group_5827" data-name="Group 5827"><circle id="Ellipse_532" data-name="Ellipse 532" cx="215.19" cy="106.13" r="4.66" fill="#f2f2f3"/><path id="Path_13401" data-name="Path 13401" d="M215.19,111.8a5.67,5.67,0,1,1,5.66-5.67h0A5.68,5.68,0,0,1,215.19,111.8Zm0-9.33a3.67,3.67,0,1,0,3.66,3.67h0A3.66,3.66,0,0,0,215.19,102.47Z" fill="#3d53a4"/></g><g id="Group_5828" data-name="Group 5828"><circle id="Ellipse_533" data-name="Ellipse 533" cx="236.81" cy="106.13" r="4.66" fill="#f2f2f3"/><path id="Path_13402" data-name="Path 13402" d="M236.81,111.8a5.67,5.67,0,1,1,5.66-5.67h0A5.67,5.67,0,0,1,236.81,111.8Zm0-9.33a3.67,3.67,0,1,0,3.66,3.67h0A3.66,3.66,0,0,0,236.81,102.47Z" fill="#3d53a4"/></g></g></g><g id="Group_5831" data-name="Group 5831"><rect id="Rectangle_5500" data-name="Rectangle 5500" x="90.4" y="115.29" width="46.43" height="58.7" rx="2" fill="#f2f2f3"/><path id="Path_13403" data-name="Path 13403" d="M134.83,175H92.4a3,3,0,0,1-3-3v-54.7a3,3,0,0,1,3-3h42.43a3,3,0,0,1,3,3V172A3,3,0,0,1,134.83,175ZM92.4,116.29a1,1,0,0,0-1,1V172a1,1,0,0,0,1,1h42.43a1,1,0,0,0,1-1v-54.7a1,1,0,0,0-1-1Z" fill="#3d53a4"/></g><g id="Group_5832" data-name="Group 5832"><rect id="Rectangle_5501" data-name="Rectangle 5501" x="96.84" y="123.27" width="14" height="8.91" rx="2" fill="#f2f2f3"/><path id="Path_13404" data-name="Path 13404" d="M108.84,133.18h-10a3,3,0,0,1-3-3v-4.91a3,3,0,0,1,3-3h10a3,3,0,0,1,3,3v4.91A3,3,0,0,1,108.84,133.18Zm-10-8.91a1,1,0,0,0-1,1v4.91a1,1,0,0,0,1,1h10a1,1,0,0,0,1-1v-4.91a1,1,0,0,0-1-1Z" fill="#3d53a4"/></g><g id="Group_5833" data-name="Group 5833"><rect id="Rectangle_5502" data-name="Rectangle 5502" x="117.73" y="123.27" width="14" height="8.91" rx="2" fill="#f2f2f3"/><path id="Path_13405" data-name="Path 13405" d="M129.73,133.18h-10a3,3,0,0,1-3-3v-4.91a3,3,0,0,1,3-3h10a3,3,0,0,1,3,3v4.91A3,3,0,0,1,129.73,133.18Zm-10-8.91a1,1,0,0,0-1,1v4.91a1,1,0,0,0,1,1h10a1,1,0,0,0,1-1v-4.91a1,1,0,0,0-1-1Z" fill="#3d53a4"/></g><g id="Group_5834" data-name="Group 5834"><rect id="Rectangle_5503" data-name="Rectangle 5503" x="96.84" y="140.48" width="14" height="8.91" rx="2" fill="#f2f2f3"/><path id="Path_13406" data-name="Path 13406" d="M108.84,150.4h-10a3,3,0,0,1-3-3v-4.92a3,3,0,0,1,3-3h10a3,3,0,0,1,3,3v4.92A3,3,0,0,1,108.84,150.4Zm-10-8.92a1,1,0,0,0-1,1v4.92a1,1,0,0,0,1,1h10a1,1,0,0,0,1-1v-4.92a1,1,0,0,0-1-1Z" fill="#3d53a4"/></g><g id="Group_5835" data-name="Group 5835"><rect id="Rectangle_5504" data-name="Rectangle 5504" x="64.11" y="107.33" width="26.29" height="75.42" rx="2" fill="#f2f2f3"/><path id="Path_13407" data-name="Path 13407" d="M88.4,183.75H66.11a3,3,0,0,1-3-3V109.33a3,3,0,0,1,3-3H88.4a3,3,0,0,1,3,3v71.42A3,3,0,0,1,88.4,183.75ZM66.11,108.33a1,1,0,0,0-1,1v71.42a1,1,0,0,0,1,1H88.4a1,1,0,0,0,1-1V109.33a1,1,0,0,0-1-1Z" fill="#3d53a4"/></g><g id="Group_5836" data-name="Group 5836"><rect id="Rectangle_5505" data-name="Rectangle 5505" x="70.55" y="149.25" width="14" height="8.91" rx="2" fill="#f2f2f3"/><path id="Path_13408" data-name="Path 13408" d="M82.55,159.16h-10a3,3,0,0,1-3-3v-4.91a3,3,0,0,1,3-3h10a3,3,0,0,1,3,3v4.91A3,3,0,0,1,82.55,159.16Zm-10-8.91a1,1,0,0,0-1,1v4.91a1,1,0,0,0,1,1h10a1,1,0,0,0,1-1v-4.91a1,1,0,0,0-1-1Z" fill="#3d53a4"/></g><g id="Group_5837" data-name="Group 5837"><rect id="Rectangle_5506" data-name="Rectangle 5506" x="70.25" y="132.03" width="14" height="8.91" rx="2" fill="#f2f2f3"/><path id="Path_13409" data-name="Path 13409" d="M82.26,141.94h-10a3,3,0,0,1-3-3V134a3,3,0,0,1,3-3h10a3,3,0,0,1,3,3v4.91A3,3,0,0,1,82.26,141.94Zm-10-8.91a1,1,0,0,0-1,1v4.91a1,1,0,0,0,1,1h10a1,1,0,0,0,1-1V134a1,1,0,0,0-1-1Z" fill="#3d53a4"/></g><g id="Group_5838" data-name="Group 5838"><rect id="Rectangle_5507" data-name="Rectangle 5507" x="70.25" y="114.81" width="14" height="8.91" rx="2" fill="#f2f2f3"/><path id="Path_13410" data-name="Path 13410" d="M82.26,124.72h-10a3,3,0,0,1-3-3v-4.91a3,3,0,0,1,3-3h10a3,3,0,0,1,3,3v4.91A3,3,0,0,1,82.26,124.72Zm-10-8.91a1,1,0,0,0-1,1v4.91a1,1,0,0,0,1,1h10a1,1,0,0,0,1-1v-4.91a1,1,0,0,0-1-1Z" fill="#3d53a4"/></g><g id="Group_5839" data-name="Group 5839"><rect id="Rectangle_5508" data-name="Rectangle 5508" x="70.55" y="166.46" width="14" height="8.91" rx="2" fill="#f2f2f3"/><path id="Path_13411" data-name="Path 13411" d="M82.55,176.38h-10a3,3,0,0,1-3-3v-4.92a3,3,0,0,1,3-3h10a3,3,0,0,1,3,3v4.92A3,3,0,0,1,82.55,176.38Zm-10-8.92a1,1,0,0,0-1,1v4.92a1,1,0,0,0,1,1h10a1,1,0,0,0,1-1v-4.92a1,1,0,0,0-1-1Z" fill="#3d53a4"/></g><g id="Group_5840" data-name="Group 5840"><rect id="Rectangle_5509" data-name="Rectangle 5509" x="25.8" y="121.83" width="26.29" height="41.19" rx="2" fill="#f2f2f3"/><path id="Path_13412" data-name="Path 13412" d="M50.09,164H27.8a3,3,0,0,1-3-3V123.83a3,3,0,0,1,3-3H50.09a3,3,0,0,1,3,3V161A3,3,0,0,1,50.09,164ZM27.8,122.83a1,1,0,0,0-1,1V161a1,1,0,0,0,1,1H50.09a1,1,0,0,0,1-1V123.83a1,1,0,0,0-1-1Z" fill="#3d53a4"/></g><g id="Group_5841" data-name="Group 5841"><rect id="Rectangle_5510" data-name="Rectangle 5510" x="32.24" y="129.51" width="14" height="8.91" rx="2" fill="#f2f2f3"/><path id="Path_13413" data-name="Path 13413" d="M44.24,139.42h-10a3,3,0,0,1-3-3v-4.91a3,3,0,0,1,3-3h10a3,3,0,0,1,3,3v4.91A3,3,0,0,1,44.24,139.42Zm-10-8.91a1,1,0,0,0-1,1v4.91a1,1,0,0,0,1,1h10a1,1,0,0,0,1-1v-4.91a1,1,0,0,0-1-1Z" fill="#3d53a4"/></g><g id="Group_5842" data-name="Group 5842"><rect id="Rectangle_5511" data-name="Rectangle 5511" x="32.24" y="146.73" width="14" height="8.91" rx="2" fill="#f2f2f3"/><path id="Path_13414" data-name="Path 13414" d="M44.24,156.64h-10a3,3,0,0,1-3-3v-4.91a3,3,0,0,1,3-3h10a3,3,0,0,1,3,3v4.91A3,3,0,0,1,44.24,156.64Zm-10-8.91a1,1,0,0,0-1,1v4.91a1,1,0,0,0,1,1h10a1,1,0,0,0,1-1v-4.91a1,1,0,0,0-1-1Z" fill="#3d53a4"/></g><g id="Group_5843" data-name="Group 5843"><rect id="Rectangle_5512" data-name="Rectangle 5512" x="117.73" y="140.48" width="14" height="8.91" rx="2" fill="#f2f2f3"/><path id="Path_13415" data-name="Path 13415" d="M129.73,150.4h-10a3,3,0,0,1-3-3v-4.92a3,3,0,0,1,3-3h10a3,3,0,0,1,3,3v4.92A3,3,0,0,1,129.73,150.4Zm-10-8.92a1,1,0,0,0-1,1v4.92a1,1,0,0,0,1,1h10a1,1,0,0,0,1-1v-4.92a1,1,0,0,0-1-1Z" fill="#3d53a4"/></g><g id="Group_5844" data-name="Group 5844"><rect id="Rectangle_5513" data-name="Rectangle 5513" x="96.84" y="157.7" width="14" height="8.91" rx="2" fill="#f2f2f3"/><path id="Path_13416" data-name="Path 13416" d="M108.84,167.61h-10a3,3,0,0,1-3-3V159.7a3,3,0,0,1,3-3h10a3,3,0,0,1,3,3v4.91A3,3,0,0,1,108.84,167.61Zm-10-8.91a1,1,0,0,0-1,1v4.91a1,1,0,0,0,1,1h10a1,1,0,0,0,1-1V159.7a1,1,0,0,0-1-1Z" fill="#3d53a4"/></g><g id="Group_5845" data-name="Group 5845"><rect id="Rectangle_5514" data-name="Rectangle 5514" x="117.73" y="157.7" width="14" height="8.91" rx="2" fill="#f2f2f3"/><path id="Path_13417" data-name="Path 13417" d="M129.73,167.61h-10a3,3,0,0,1-3-3V159.7a3,3,0,0,1,3-3h10a3,3,0,0,1,3,3v4.91A3,3,0,0,1,129.73,167.61Zm-10-8.91a1,1,0,0,0-1,1v4.91a1,1,0,0,0,1,1h10a1,1,0,0,0,1-1V159.7a1,1,0,0,0-1-1Z" fill="#3d53a4"/></g><g id="Group_5846" data-name="Group 5846"><path id="Path_13418" data-name="Path 13418" d="M336.89,144.39c.15-.13.3-.25.45-.4,3.65-3.54,4.17-7,1.22-14.22a34.61,34.61,0,0,0-5.22-6.17,12.44,12.44,0,0,0-4.49-1.8c-.08-.21-.14-.4-.23-.63a18.17,18.17,0,0,0-2.87-3.32c-3.36-1.87-4.37-.59-6.77.41a9.75,9.75,0,0,0-2.77,1.7c-3-1.55-4.06-.34-6.37.61-3,1.24-4.53,3.32-4.49,4.71a9.56,9.56,0,0,0,.86,3.61c-3.06,2.09-4.6,4.74-4.49,6.68a18.64,18.64,0,0,0,5.06,11.73,4.1,4.1,0,0,0-1.43,2.73,9.82,9.82,0,0,0,4.25,7.69c1.06.77,4,1,5.67.17.21-.1.4-.2.59-.28a11.56,11.56,0,0,0,1.86,1.7c1.06.77,4,1,5.68.17s2.43-1,3.33-1.87a5.93,5.93,0,0,0,1.52-2.09l0,0c1.06.78,4,1,5.67.17s2.43-1,3.34-1.87c2.11-2,2.44-3.88.87-7.8A10.65,10.65,0,0,0,336.89,144.39Z" fill="#7867ae"/></g><g id="Group_5847" data-name="Group 5847"><path id="Path_13419" data-name="Path 13419" d="M379.67,121.44A11.17,11.17,0,0,0,378,115.9a1.3,1.3,0,0,0,.1-.15,17.36,17.36,0,0,0,1.05-4.26c-.41-3.82-2-3.9-4.24-5.29a9.87,9.87,0,0,0-3-1.29c-.49-3.37-2.07-3.51-4.18-4.84-2.73-1.72-5.33-1.79-6.44-.95a9.91,9.91,0,0,0-1.3,1.21c-4.28-2.28-8.25-2.17-10.07-.73a18.88,18.88,0,0,0-7,13.28,3.14,3.14,0,0,0-1.81.53,9.77,9.77,0,0,0-3.83,7.9c0,1.31,1.53,3.85,3.14,4.73l.56.31a11.11,11.11,0,0,0-.31,2.5c0,1.32,1.53,3.86,3.14,4.73s2.22,1.4,3.45,1.65a4.88,4.88,0,0,0,4.55-1c0,.17,0,.34,0,.52.06,1.35,1.95,4.07,3.81,5.07s2.58,1.58,4,1.91c3.21.77,5.11,0,7.46-3.48a7.39,7.39,0,0,0,.5-1.64c3.87.11,6.68-1.85,10.22-7.34A33.28,33.28,0,0,0,379.67,121.44Z" fill="#7867ae"/></g><g id="Group_5848" data-name="Group 5848"><path id="Path_13420" data-name="Path 13420" d="M400.84,146.22a38,38,0,0,0-1.77-7.87,10.63,10.63,0,0,0-3.62-4.08c0-.06,0-.12,0-.18a20.06,20.06,0,0,0-1-4.26c-1.9-3.18-3.19-2.48-5.47-2.68a7.74,7.74,0,0,0-2.83.27c-1.78-2.75-3.05-2.13-5.23-2.31-2.82-.23-4.85.93-5.35,2.19a9.24,9.24,0,0,0-.5,1.68c-4.25,0-7.27,2-8.07,4.09a21.4,21.4,0,0,0,.13,15,3,3,0,0,0-1.18,1.32,11.06,11.06,0,0,0,.33,8.77,6,6,0,0,0,4.39,2.7h.57a11.32,11.32,0,0,0,.8,2.36,6,6,0,0,0,4.39,2.7,9.34,9.34,0,0,0,3.34-.16,4.46,4.46,0,0,0,3.1-3c.07.15.13.31.21.46.61,1.17,3.2,2.68,5,2.69s2.65.18,3.85-.18c2.8-.83,4-2.38,4.3-6.58a9.54,9.54,0,0,0-.3-1.68C399,155.78,400.39,152.73,400.84,146.22Z" fill="#7867ae"/></g><g id="Group_5849" data-name="Group 5849"><path id="Path_13421" data-name="Path 13421" d="M437.89,155.83c.1-1.17-1.8-8.86-2.56-10-2-2.88-3.69-4.4-5.41-5.2a16.54,16.54,0,0,0-.95-3.17c-2.38-3.46-4-2.7-6.85-2.9-3.54-.25-6.09,1-6.72,2.41-.08.15-.13.31-.2.47-1-.18-2-.07-3.32-.17-3.54-.24-6.08,1-6.72,2.41a10.45,10.45,0,0,0-.13,8.4,22.46,22.46,0,0,0-.4,10.31c-2,.13-3.47.94-3.88,1.82a8,8,0,0,0,.3,7.25,5.4,5.4,0,0,0,2.77,1.94,9.5,9.5,0,0,0,1.26,5.66c.65,1.17,3.41,2.67,5.39,2.68s2.83.18,4.12-.18a5.28,5.28,0,0,0,3.65-2.64,8,8,0,0,0,5.22,2.44c2,0,2.83.18,4.12-.18,3-.84,4.23-2.39,4.61-6.59a5.62,5.62,0,0,0-.18-1.15C435.59,167.17,437.28,163.28,437.89,155.83Z" fill="#7867ae"/></g></g></g></g></svg>