<svg xmlns="http://www.w3.org/2000/svg" viewBox="0 0 455.88 327.01"><g id="Layer_2" data-name="Layer 2"><g id="Layer_1-2" data-name="Layer 1"><g id="Group_4097" data-name="Group 4097"><g id="Group_4069" data-name="Group 4069"><path id="Path_9090" data-name="Path 9090" d="M238.29,62.92a16.5,16.5,0,1,0-16.5-16.5h0A16.52,16.52,0,0,0,238.29,62.92Zm0-29a12.5,12.5,0,1,1-12.5,12.5h0a12.52,12.52,0,0,1,12.5-12.5Z" fill="#3d53a4"/><path id="Path_9091" data-name="Path 9091" d="M5.46,40.58a2,2,0,0,0,1.68.92h90.6a2,2,0,0,0,1.87-1.3A16.51,16.51,0,0,0,82.51,18a18,18,0,0,0-3,.66A21.1,21.1,0,0,0,58,6.14,24.65,24.65,0,0,0,51.39,8,27.49,27.49,0,0,0,29.2.15C14.63,1.61,2.88,14.76,3,29.47v.2C3,32.2,3.07,36.9,5.46,40.58ZM29.6,4.13a23.5,23.5,0,0,1,19.84,7.58,2,2,0,0,0,2.36.44,23.3,23.3,0,0,1,6.57-2A17.14,17.14,0,0,1,76.43,21.77,2,2,0,0,0,79,23h0A24.12,24.12,0,0,1,82.91,22,12.51,12.51,0,0,1,96.59,33.16a12.2,12.2,0,0,1-.32,4.34h-88C7.06,34.9,7,31.66,7,29.64v-.2C6.9,16.74,17,5.39,29.6,4.13Z" fill="#3d53a4"/><path id="Path_9092" data-name="Path 9092" d="M236.29,72.75v16a2,2,0,0,0,4,0v-16a2,2,0,1,0-4,0Z" fill="#3d53a4"/><path id="Path_9093" data-name="Path 9093" d="M238.29,22.75a2,2,0,0,0,2-2v-16a2,2,0,0,0-4,0v16A2,2,0,0,0,238.29,22.75Z" fill="#3d53a4"/><path id="Path_9094" data-name="Path 9094" d="M255.26,63.73a2,2,0,0,0,0,2.82l11.32,11.32A2,2,0,0,0,269.4,75L258.09,63.73A2,2,0,0,0,255.26,63.73Z" fill="#348f8b"/><path id="Path_9095" data-name="Path 9095" d="M218.49,29.78A2,2,0,1,0,221.37,27a.12.12,0,0,0-.05-.05L210,15.64a2,2,0,0,0-2.83,2.83Z" fill="#348f8b"/><path id="Path_9096" data-name="Path 9096" d="M262.29,46.75a2,2,0,0,0,2,2h16a2,2,0,0,0,0-4h-16A2,2,0,0,0,262.29,46.75Z" fill="#3d53a4"/><path id="Path_9097" data-name="Path 9097" d="M196.29,48.75h16a2,2,0,0,0,0-4h-16a2,2,0,0,0,0,4Z" fill="#3d53a4"/><path id="Path_9098" data-name="Path 9098" d="M256.68,30.37a2,2,0,0,0,1.41-.59L269.4,18.47a2,2,0,0,0-2.82-2.83L255.26,27a2,2,0,0,0,1.42,3.41Z" fill="#348f8b"/><path id="Path_9099" data-name="Path 9099" d="M218.49,63.73,207.18,75A2,2,0,1,0,210,77.92a.12.12,0,0,1,0,0l11.31-11.32a2,2,0,0,0-2.83-2.83Z" fill="#348f8b"/><path id="Path_9100" data-name="Path 9100" d="M443.37,52.93a12.61,12.61,0,0,0-2.6.35,24.51,24.51,0,0,0-32-13.33,24.15,24.15,0,0,0-4.37,2.34,35.34,35.34,0,0,0-64.3,8.78,12.5,12.5,0,0,0-15.82,17.5,2,2,0,0,0,1.76,1h127.4a2,2,0,0,0,1.91-1.42c.06-.19.11-.35.16-.48a6.34,6.34,0,0,0,.37-2.28A12.52,12.52,0,0,0,443.37,52.93Zm8.5,12.68H327.32a8.49,8.49,0,0,1,4.93-11,8.68,8.68,0,0,1,3-.55,8.46,8.46,0,0,1,4.7,1.42l.3.21a2,2,0,0,0,2.79-.46,1.88,1.88,0,0,0,.34-.78A31.34,31.34,0,0,1,402,46.17a2,2,0,0,0,2.7.86,1.69,1.69,0,0,0,.36-.23,20.5,20.5,0,0,1,32.56,9.48,2,2,0,0,0,2.49,1.3,15.75,15.75,0,0,1,3.28-.65,8.52,8.52,0,0,1,8.5,8.5,1.21,1.21,0,0,0,0,.18Z" fill="#3d53a4"/><path id="Path_9101" data-name="Path 9101" d="M92.75,211.21a2,2,0,0,0-2-2H7.48c-1.46-2-3.48-5.38-3.48-12a9.63,9.63,0,0,1,15.51-7.62,2,2,0,0,0,2.82-.16,1.65,1.65,0,0,0,.28-.41,14.64,14.64,0,0,1,27.13,2.84,2,2,0,0,0,2.45,1.4h0A8.14,8.14,0,0,1,61.87,198a2,2,0,0,0,1.8,1.22A2,2,0,0,0,65.53,198c.32-.69,8.28-16.94,27.1-16.94a30.13,30.13,0,0,1,22.7,10.33,2,2,0,0,0,3.08-2.55l-.06-.08a34.1,34.1,0,0,0-25.72-11.7c-16.34,0-25.43,10.76-29,16.19A12.12,12.12,0,0,0,54.38,189,12.26,12.26,0,0,0,53,189a18.63,18.63,0,0,0-32.82-3.77A13.64,13.64,0,0,0,0,197.21c0,9,3.33,13.2,4.93,15.24a2,2,0,0,0,1.57.76H90.75A2,2,0,0,0,92.75,211.21Z" fill="#3d53a4"/><path id="Path_9102" data-name="Path 9102" d="M155.64,214.27a21,21,0,0,0-3.36.27,28.81,28.81,0,0,0-25-14.77,28.45,28.45,0,0,0-26.08,16.83h-.52c-7.23,0-13.67,2.54-17.67,7-3.57,4-5.12,9.28-4.49,15.39a2,2,0,0,0,2,1.79H174.8a2,2,0,0,0,2-1.83c.6-7.43-1.24-13.7-5.34-18.15A21.14,21.14,0,0,0,155.64,214.27Zm-73.3,22.49a14.69,14.69,0,0,1,3.6-10.5c3.25-3.6,8.6-5.66,14.7-5.66.56,0,1.11,0,1.64.08a2,2,0,0,0,2-1.27,24.48,24.48,0,0,1,22.92-15.63,24.77,24.77,0,0,1,22.16,13.88,2,2,0,0,0,2.26,1.08,18.25,18.25,0,0,1,16.86,4.76c3,3.24,4.49,7.8,4.38,13.27Z" fill="#3d53a4"/><path id="Path_9103" data-name="Path 9103" d="M430.58,198.78a37.38,37.38,0,0,0-72.06,12.12,11.77,11.77,0,0,0-8.1,1.21,18.63,18.63,0,0,0-33,16.77,2,2,0,0,0,1.87,1.29h123.8a2,2,0,0,0,1.78-1.1c1.42-2.8,2.08-8.31,2.08-11.15A19.27,19.27,0,0,0,430.58,198.78Zm11.12,27.39h-121A14.63,14.63,0,0,1,348,215.85a2,2,0,0,0,2.66,1,1.44,1.44,0,0,0,.31-.19,1.16,1.16,0,0,0,.24-.2,7.77,7.77,0,0,1,8.3-1,2,2,0,0,0,2.75-.69,2,2,0,0,0,.28-1.16c0-.31,0-.62,0-.94a33.38,33.38,0,0,1,64.72-11.49,2,2,0,0,0,1.74,1.46,15.3,15.3,0,0,1,14,15.31A31.53,31.53,0,0,1,441.7,226.17Z" fill="#3d53a4"/><path id="Path_9104" data-name="Path 9104" d="M176.05,88.34a8.42,8.42,0,0,0-11.57-2.84A8.3,8.3,0,0,0,161.85,88l-52.73,78.71a2,2,0,1,0,3.33,2.23h0l52.72-78.71A4.43,4.43,0,0,1,171.31,89a4.36,4.36,0,0,1,1.31,1.36L255,229.19a2,2,0,1,0,3.48-2s0,0,0-.08Z" fill="#3d53a4"/><path id="Path_9105" data-name="Path 9105" d="M347.12,191.17a2,2,0,0,0,2-2,2,2,0,0,0-.4-1.2L293.17,114.5a8.84,8.84,0,0,0-7.05-3.51h0a8.81,8.81,0,0,0-7,3.49l-42.37,55.3a2,2,0,0,0,3.18,2.44l42.37-55.32a4.79,4.79,0,0,1,3.86-1.91h0a4.83,4.83,0,0,1,3.86,1.92l55.55,73.46A2,2,0,0,0,347.12,191.17Z" fill="#3d53a4"/><path id="Path_9106" data-name="Path 9106" d="M12.57,32.34h.15a2,2,0,0,0,2-1.85c.52-6.9,3.2-15.55,13-17.52A2,2,0,0,0,26.94,9C17.36,11,11.6,18.48,10.73,30.19A2,2,0,0,0,12.57,32.34Z" fill="#348f8b"/><path id="Path_9107" data-name="Path 9107" d="M424.31,205.68a2,2,0,0,0,.29,4c3.19-.23,5.7.5,7.49,2.18a9.73,9.73,0,0,1,2.78,7.32,2,2,0,0,0,2,2h0a2,2,0,0,0,2-2,13.73,13.73,0,0,0-4-10.26C432.23,206.49,428.59,205.38,424.31,205.68Z" fill="#348f8b"/><path id="Path_9108" data-name="Path 9108" d="M373.1,33.63c-12.84,0-22.08,7.75-26,21.83a2,2,0,1,0,3.85,1.08h0c3.47-12.37,11.14-18.91,22.18-18.91a2,2,0,0,0,0-4Z" fill="#348f8b"/><path id="Path_9109" data-name="Path 9109" d="M124.45,207.39c-7.28,1.77-12.54,5.77-16.55,12.6a2,2,0,1,0,3.45,2c3.47-5.91,7.8-9.22,14-10.74a2,2,0,0,0-.86-3.9l-.08,0Z" fill="#348f8b"/><path id="Path_9110" data-name="Path 9110" d="M272.05,141.21a2,2,0,0,0-2.8.37l-28.16,36.77a2,2,0,1,0,3.13,2.48l.05-.05L272.43,144a2,2,0,0,0-.38-2.81Z" fill="#348f8b"/></g><g id="Group_4071" data-name="Group 4071"><g id="Rectangle_5298" data-name="Rectangle 5298"><path d="M135.43,277h185a25,25,0,0,1,25,25h0a25,25,0,0,1-25,25h-185a25,25,0,0,1-25-25h0A25,25,0,0,1,135.43,277Z" fill="none"/><path d="M135.43,278.51h185a23.5,23.5,0,0,1,23.5,23.5h0a23.5,23.5,0,0,1-23.5,23.5h-185a23.5,23.5,0,0,1-23.5-23.5h0A23.5,23.5,0,0,1,135.43,278.51Z" fill="none" stroke="#3d53a4" stroke-width="3"/></g><g id="BECOME_A_VENDOR" data-name="BECOME A VENDOR" style="isolation:isolate"><text transform="translate(132.43 309.01)" font-size="20" fill="#3d53a4" font-family="Roboto-Medium, Roboto" font-weight="500" letter-spacing="0.03em" style="isolation:isolate">BECOME A VENDOR</text></g></g></g></g></g></svg>