<svg xmlns="http://www.w3.org/2000/svg" viewBox="0 0 452.5 269.05"><g id="Layer_2" data-name="Layer 2"><g id="Layer_1-2" data-name="Layer 1"><g id="Group_6146" data-name="Group 6146"><g id="Group_6134" data-name="Group 6134"><path id="Path_13521" data-name="Path 13521" d="M62.41,49.41l92.5-37L226.25,42l83.89-29.59L388.4,50.73,451.5,268l-112.63-41.6L226.25,242.3,113.62,226.44,1,268Z" fill="#f2f2f3"/><path id="Path_13522" data-name="Path 13522" d="M1,269.05a1,1,0,0,1-1-1,.84.84,0,0,1,0-.27L61.45,49.15a1,1,0,0,1,.59-.66l92.5-37a1,1,0,0,1,.75,0l71,29.44,83.53-29.46a1,1,0,0,1,.77,0l78.26,38.31a1,1,0,0,1,.52.62l63.1,217.31a1,1,0,0,1-.68,1.24,1,1,0,0,1-.63,0L338.76,227.47,226.39,243.29a1.31,1.31,0,0,1-.28,0L113.74,227.47,1.35,269A1,1,0,0,1,1,269.05ZM63.24,50.16,2.49,266.43l110.79-40.92a1,1,0,0,1,.48-.06l112.49,15.84,112.48-15.84a1,1,0,0,1,.49.06L450,266.42l-62.42-215L310.07,13.51,226.58,43a1,1,0,0,1-.72,0l-71-29.43Z" fill="#3d53a4"/></g><g id="Group_6135" data-name="Group 6135"><path id="Path_13523" data-name="Path 13523" d="M78.93,43.81a1,1,0,0,1-1-1,1,1,0,0,1,.63-.93l76-30.38a1,1,0,0,1,.75,0l71,29.43L234,38.22a1,1,0,1,1,.67,1.89L226.58,43a1,1,0,0,1-.72,0l-71-29.43L79.3,43.74A.94.94,0,0,1,78.93,43.81Z" fill="#3d53a4"/></g><g id="Group_6136" data-name="Group 6136"><path id="Path_13524" data-name="Path 13524" d="M61.26,57.28c11.84-3.76,27.42.09,35.78,9.15,6,6.45-2.6,11.5,3.63,16.18,7.73,5.8,9.68,1.44,23.78,1.16,18.18-.37,36.67,8.11,47.56,19.15,14,14.16,7,23.92,22.46,37,10.79,9.11,18.5,8,23.78,17.84,5.15,9.58.47,15.57,4.63,25.1,3.86,8.85,12.93,4.49,27.9,11.72,15.83,7.65,24.66,8.87,25,13.38s-1.87,17.86-7.49,16.59c-23.4-5.28-64,16.1-82.39-4-5.23-5.72-3.39-7.29-9.25-13.21-13-13.1-31.35-14.79-44.92-15.86-28.39-2.22-36.33.08-48.63-5.43-7.83-3.5-6.55-16-30.14-33.37C42.71,145.11,41.53,134.57,40.27,132Z" fill="#7867ae"/></g><g id="Group_6137" data-name="Group 6137"><path id="Path_13525" data-name="Path 13525" d="M61.26,57.28l93.65-37.41,71.34,29.58s28.73-2,43.6,10.54C283,71.06,304,88.83,298.25,103.25c-5.62,14.2,5.65,13.27,21.14,26.34,10.78,9.11-4,15.69,1.32,25.51,5.15,9.59-3.83,8.48.33,18,3.86,8.85,22.11,26.16,21.46,31.71-1,8.59-28.56,20.82-35.66,20.81-24,0-52.92,3.3-71.34-16.85-5.23-5.71-6-17.36-11.89-23.28-13-13.1-6.14-31.16-18.22-38.2-30.83-17.95-18.77-19.27-29.34-38.43-3.77-6.82-22.13-23.33-54.39-15-12.3,3.19-44.35,24-63.3-26.54Z" fill="#5bc4bb"/></g><g id="Group_6138" data-name="Group 6138"><path id="Path_13526" data-name="Path 13526" d="M216.08,173.31a1,1,0,0,1-1-.71c-.83-2.76-1.38-5.49-1.91-8.12-1.41-7-2.63-13-8.33-16.33-21.34-12.42-22.52-17.16-24.47-25a50.35,50.35,0,0,0-5.24-13.78c-2.89-5.23-20.37-23-53.26-14.49-1.45.38-3.21,1-5.25,1.7C103.89,101,80.12,109.29,63.11,79.7a1,1,0,1,1,1.73-1C81,106.85,102.92,99.23,116,94.67c2.08-.73,3.87-1.35,5.41-1.75,17.71-4.6,30.73-1.53,38.52,1.84,8.6,3.72,14.73,9.52,17,13.62a52.84,52.84,0,0,1,5.43,14.27c1.89,7.59,2.93,11.77,23.54,23.77,6.47,3.77,7.84,10.52,9.28,17.66.52,2.59,1.07,5.27,1.87,7.94a1,1,0,0,1-.67,1.25h0A.92.92,0,0,1,216.08,173.31Z" fill="#3d53a4"/></g><g id="Group_6139" data-name="Group 6139"><path id="Path_13527" data-name="Path 13527" d="M157.93,193.05a96.53,96.53,0,1,1,96.53-96.53h0A96.64,96.64,0,0,1,157.93,193.05Zm0-191a94.53,94.53,0,1,0,94.53,94.53h0A94.64,94.64,0,0,0,157.93,2Z" fill="#3d53a4"/></g><g id="Group_6140" data-name="Group 6140"><path id="Path_13528" data-name="Path 13528" d="M73.1,53.59a1,1,0,0,1-1-1,1,1,0,0,1,.63-.93l81.81-32.72a1,1,0,0,1,.75,0l71,29.44,11.86-4.19a1,1,0,1,1,.67,1.89l-12.23,4.31a1,1,0,0,1-.72,0l-71-29.43L73.47,53.51A1,1,0,0,1,73.1,53.59Z" fill="#3d53a4"/></g><g id="Group_6144" data-name="Group 6144"><g id="Group_6141" data-name="Group 6141"><path id="Path_13529" data-name="Path 13529" d="M63.39,111.24a1,1,0,0,1-.61-.21,1,1,0,0,1-.18-1.4c1.27-1.63,2.54-3.22,3.78-4.7a1,1,0,0,1,1.54,1.28c-1.23,1.47-2.48,3-3.74,4.65A1,1,0,0,1,63.39,111.24Z" fill="#3d53a4"/></g><g id="Group_6142" data-name="Group 6142"><path id="Path_13530" data-name="Path 13530" d="M74.86,98a1,1,0,0,1-1-1,1,1,0,0,1,.28-.7,96.45,96.45,0,0,1,8.63-7.79,1,1,0,0,1,1.4.17A1,1,0,0,1,84,90.11h0a89.57,89.57,0,0,0-8.44,7.62A1,1,0,0,1,74.86,98Zm67.32-12.59c-1.29,0-2.68-.05-4.15-.14a1,1,0,0,1-.93-1.07h0a1,1,0,0,1,1.06-.93,37.5,37.5,0,0,0,11.14-.58,1,1,0,0,1,1.22.73,1,1,0,0,1-.73,1.21A31.43,31.43,0,0,1,142.18,85.43ZM93,84.08a1,1,0,0,1-.45-1.9,33.54,33.54,0,0,1,11.26-3.49,1,1,0,0,1,1.1.87v0a1,1,0,0,1-.89,1.1A31.5,31.5,0,0,0,93.47,84,1,1,0,0,1,93,84.08Zm33.65-.19h-.17c-3.52-.58-6.9-1.24-9.89-1.81l-1.46-.29a1,1,0,0,1,.38-2l1.46.28c3,.58,6.34,1.23,9.84,1.8a1,1,0,0,1,.83,1.15,1,1,0,0,1-1,.84Zm32.43-5.21a1,1,0,0,1-1-1,1,1,0,0,1,.26-.68c1-1.06,1.88-2.18,2.85-3.37a59.67,59.67,0,0,1,4.71-5.35,1,1,0,0,1,1.4,1.42,62.23,62.23,0,0,0-4.56,5.19c-1,1.22-1.92,2.36-2.93,3.46A1,1,0,0,1,159.11,78.68Zm72.72-9.32a1,1,0,0,1-.25,0,92.58,92.58,0,0,1-10.5-3.55l-.49-.19a1,1,0,0,1,.67-1.89l.05,0,.49.19a90,90,0,0,0,10.28,3.48,1,1,0,0,1-.25,2ZM176.14,63.7a1,1,0,0,1-.39-1.93,44.47,44.47,0,0,1,11.36-2.86,1,1,0,1,1,.25,2,42.28,42.28,0,0,0-10.84,2.73,1,1,0,0,1-.38.08ZM210.05,62a.73.73,0,0,1-.25,0,50.43,50.43,0,0,0-11.13-1.61,1,1,0,0,1,0-2h0A51.39,51.39,0,0,1,210.3,60a1,1,0,0,1-.25,2Z" fill="#3d53a4"/></g><g id="Group_6143" data-name="Group 6143"><path id="Path_13531" data-name="Path 13531" d="M243.36,70.46a1,1,0,0,1-1-1,1,1,0,0,1,1-1,35.35,35.35,0,0,0,5.77-.91,1,1,0,0,1,1.21.73,1,1,0,0,1-.72,1.21h0a39.05,39.05,0,0,1-6.08,1Z" fill="#3d53a4"/></g></g><g id="Group_6145" data-name="Group 6145"><path id="Path_13532" data-name="Path 13532" d="M242.88,140.24l118.57,99.49L346,258.11l-116.8-98Z" fill="#f2f2f3"/><path id="Path_13533" data-name="Path 13533" d="M346,259.11a1,1,0,0,1-.64-.23l-116.8-98a1,1,0,0,1-.19-1.33l13.66-19.87a1,1,0,0,1,1.39-.26l.08.06L362.09,239a1,1,0,0,1,.12,1.41l-15.43,18.38a1,1,0,0,1-.68.36ZM230.56,159.92,345.9,256.7,360,239.85l-117-98.14Z" fill="#3d53a4"/></g></g></g></g></svg>