<svg xmlns="http://www.w3.org/2000/svg" viewBox="0 0 451.43 395.57"><g id="Layer_2" data-name="Layer 2"><g id="Layer_1-2" data-name="Layer 1"><g id="Group_5648" data-name="Group 5648"><g id="Group_5621" data-name="Group 5621"><path id="Path_13196" data-name="Path 13196" d="M265.24,16a573.06,573.06,0,0,0-79.93,23.34C151.26,51.86,79.24,84,71.48,87.75c-5,2.45-36.33,12.55-41.18,26.36-4.69,13.38,3.81,30,26,28.07C69.5,141,170.82,68.57,192.36,59.13c22.6-9.91,79.51-30.8,88.58-33.47C332,10.69,356.84-3.85,265.24,16Z" fill="#7867ae"/></g><g id="Group_5622" data-name="Group 5622"><path id="Path_13197" data-name="Path 13197" d="M146.64,182.53c-7.51,3.9-30.88,17.91-42.9,26.37s-38.17,26.74-41,28.85c-1.8,1.37-12.33,8.34-13.07,13.72-.72,5.21,3.83,12.12,12.58,9.23,5.21-1.71,20.91-27.89,37-38.8,8.3-5.64,50.58-32.84,54-34.68C172.48,176.86,166.27,172.34,146.64,182.53Z" fill="#7867ae"/></g><g id="Group_5623" data-name="Group 5623"><path id="Path_13198" data-name="Path 13198" d="M303.71,228.46c-38,15.77-57.89,42.38-57.3,60.17,1.06,31.91,15,69.7,54.2,98.2,13.59,9.88,51.48,12.46,72.5,2.11s31-12.89,42.61-23.8c26.92-25.35,31.22-49.56,11.16-99.56-2.39-6-30.32-38.77-36.7-42.33C347.3,199.31,334.46,215.71,303.71,228.46Z" fill="#5bc4bb"/></g><g id="Group_5624" data-name="Group 5624"><circle id="Ellipse_526" data-name="Ellipse 526" cx="60.21" cy="250.55" r="5.55" fill="#f2f2f3"/><path id="Path_13199" data-name="Path 13199" d="M60.21,257.1a6.55,6.55,0,1,1,6.55-6.55h0A6.57,6.57,0,0,1,60.21,257.1Zm0-11.1a4.55,4.55,0,1,0,4.55,4.55h0A4.55,4.55,0,0,0,60.21,246Z" fill="#3d53a4"/></g><g id="Group_5625" data-name="Group 5625"><circle id="Ellipse_527" data-name="Ellipse 527" cx="51.6" cy="121.42" r="12.67" fill="#f2f2f3"/><path id="Path_13200" data-name="Path 13200" d="M51.6,135.09a13.68,13.68,0,1,1,13.68-13.67h0A13.7,13.7,0,0,1,51.6,135.09Zm0-25.35a11.68,11.68,0,1,0,11.68,11.68h0A11.69,11.69,0,0,0,51.6,109.74Z" fill="#3d53a4"/></g><g id="Group_5626" data-name="Group 5626"><path id="Path_13201" data-name="Path 13201" d="M338.22,218.48c.91,3,6.42,9,12.63,10.53,5,1.21,6.56-1,10.52.27,7.06,2.21,7.19,9.77,12.7,11.7a13.93,13.93,0,0,0,15.21-5,105,105,0,0,0-24.65-13.29C354.21,218.93,338.22,218.48,338.22,218.48Z" fill="#f2f2f3"/><path id="Path_13202" data-name="Path 13202" d="M378,242.55a13.62,13.62,0,0,1-4.3-.63c-2.88-1-4.43-3.36-5.94-5.63-1.62-2.45-3.29-5-6.73-6.06a8.37,8.37,0,0,0-4.33-.12,13.9,13.9,0,0,1-6.12-.13c-6.46-1.56-12.32-7.79-13.36-11.21a1,1,0,0,1,.17-.9,1,1,0,0,1,.82-.4c.66,0,16.27.5,26.72,4.25a107.09,107.09,0,0,1,24.92,13.43,1,1,0,0,1,.19,1.4A14.62,14.62,0,0,1,378,242.55Zm-19.16-14.67a9.09,9.09,0,0,1,2.79.44c4.11,1.29,6.07,4.25,7.8,6.86,1.44,2.18,2.68,4.06,4.93,4.85a12.93,12.93,0,0,0,13.44-3.89,105,105,0,0,0-23.55-12.54c-8.23-2.94-20.16-3.82-24.47-4,1.73,2.88,6.27,7.28,11.27,8.49a12,12,0,0,0,5.34.09A15.53,15.53,0,0,1,358.88,227.88Z" fill="#3d53a4"/></g><g id="Group_5627" data-name="Group 5627"><path id="Path_13203" data-name="Path 13203" d="M312.87,298.6c-1.25-3.83-1.85-8.8-5.76-7.84-5.21,1.28-7.91,6.9-9.72,8-3.53,2.12-6.3,3.48-7.11,6.79-.53,2.16,1.24,5.46,3,7.54,3.7,4.47,20.78-.67,22.28-2.91C317.21,307.69,313.9,301.78,312.87,298.6Z" fill="#f2f2f3"/><path id="Path_13204" data-name="Path 13204" d="M299,315.85c-3.17,0-5.36-.71-6.53-2.13-1.87-2.25-3.81-5.8-3.17-8.42.84-3.42,3.53-5,6.65-6.87l.91-.54a10.51,10.51,0,0,0,1.8-1.91c1.83-2.21,4.33-5.24,8.2-6.19,4.21-1,5.43,3.21,6.4,6.63.18.63.36,1.26.55,1.87s.63,1.67,1,2.65c1.45,3.5,3.09,7.48,1.52,9.79-1.38,2-10.17,4.8-16.22,5.09Zm9-24.21a2.92,2.92,0,0,0-.66.09c-3.23.79-5.49,3.52-7.13,5.52a11,11,0,0,1-2.31,2.35l-.93.55c-3,1.75-5.09,3-5.73,5.62-.41,1.69,1.08,4.64,2.77,6.67.84,1,2.94,1.51,5.91,1.39,6.41-.28,14.06-3.18,14.78-4.22,1-1.43-.64-5.32-1.71-7.9-.42-1-.82-2-1.08-2.8h0c-.2-.63-.39-1.29-.58-2-1-3.5-1.71-5.32-3.33-5.32Z" fill="#3d53a4"/></g><g id="Group_5628" data-name="Group 5628"><path id="Path_13205" data-name="Path 13205" d="M393.51,239.18c-1.49,2-6.15,7.65-9.7,9.56-2.92,1.57-9.45,4.17-38.14-.76-7.73-1.33-8.55-4.91-12.67-10.13-2.54-3.21-10-6.35-14.73-3.75-5.65,3.11.91,7.69,2.1,11.39,1,3.1,5.38,8.94,10,11.82,8.47,5.26,3.8,11.53,8.13,16.14,3.75,4-1.74,11.65,2.65,15.92,2.24,2.18,6.65,3.08,9.42,1.38,5.64-3.46-.6-14.57,6.45-24.29,1-1.33,4.32-5.82,10.12-6.85,6.1-1.08,10.94,2.37,12.14,3.23s5.66,4,5,6.24c-.85,2.67-8,.19-15,5a20.05,20.05,0,0,0-5.56,6c-3.69,6.13-1.4,10.15-4.56,14.53s-8.66,5.13-9.37,5.23c-3.15.44-4.52,2.61-4.13,5.32.55,3.75,5.89,10.47,12.93,12.9,48.54,16.71,65.89-4.63,64-5.8,0,0,2.79-17.1-5.62-40.15C410.29,253.81,393.51,239.18,393.51,239.18Z" fill="#f2f2f3"/><path id="Path_13206" data-name="Path 13206" d="M392.27,325.43c-9.08,0-20.34-1.73-34-6.45-7.57-2.61-13-9.73-13.6-13.7a5.68,5.68,0,0,1,.95-4.29,5.88,5.88,0,0,1,4-2.16c1-.14,5.94-1,8.7-4.83,1.38-1.92,1.61-3.78,1.87-5.94a19.46,19.46,0,0,1,2.65-8.52,21.06,21.06,0,0,1,5.84-6.27c4.11-2.83,8.21-3.27,11.21-3.59,1.69-.18,3.28-.35,3.46-.91.08-.25.24-1.69-4.58-5.12s-8.8-3.51-11.39-3-6.21,1.92-9.49,6.45c-3.53,4.86-3.55,10-3.57,14.62,0,4.29,0,8-3.17,9.93-3.33,2-8.19.86-10.64-1.52-2.63-2.56-2.2-6.1-1.82-9.23.32-2.64.63-5.14-.86-6.72-2-2.13-2.29-4.54-2.57-6.88-.39-3.21-.76-6.24-5.36-9.09-4.77-3-9.34-8.89-10.46-12.37a14.22,14.22,0,0,0-1.9-3.21c-1.44-2-2.92-4.14-2.42-6.28a4.91,4.91,0,0,1,2.68-3.08c5.18-2.86,13.15.41,16,4,.85,1.07,1.57,2.09,2.21,3,2.55,3.6,4.09,5.78,9.84,6.77,29.63,5.1,35.35,2,37.5.86,3.18-1.7,7.53-6.81,9.38-9.28a1,1,0,0,1,.7-.39,1,1,0,0,1,.76.24c.17.15,17.05,15,23.73,33.33,7.83,21.44,6.09,37.57,5.72,40.27a2,2,0,0,1-.2,1.6C421.85,316.89,412.44,325.43,392.27,325.43Zm-22.73-67A17.65,17.65,0,0,1,379.9,262c2.69,1.91,6.16,4.76,5.34,7.36-.58,1.81-2.6,2-5.16,2.29-2.78.3-6.6.7-10.28,3.24a19,19,0,0,0-5.27,5.67,17.42,17.42,0,0,0-2.37,7.73c-.29,2.33-.56,4.53-2.24,6.86-3.23,4.48-8.93,5.48-10.05,5.64a3.86,3.86,0,0,0-2.7,1.38,3.76,3.76,0,0,0-.57,2.81c.49,3.37,5.52,9.76,12.27,12.09,11.21,3.86,39.24,11.64,57.33.58,3.64-2.23,5.2-4.32,5.47-5a1,1,0,0,1-.07-.58c0-.17,2.64-17.13-5.58-39.64-5.68-15.58-19-28.65-22.38-31.79-1.62,2-5.85,7.09-9.36,9-2.54,1.36-8.48,4.55-38.79-.66-6.57-1.13-8.58-4-11.14-7.58-.65-.93-1.32-1.88-2.14-2.91-2.38-3-9.35-5.77-13.46-3.5a3,3,0,0,0-1.7,1.78c-.3,1.27.92,3,2.1,4.67a15.33,15.33,0,0,1,2.17,3.76c.88,2.71,5.05,8.45,9.62,11.28,5.41,3.35,5.88,7.18,6.29,10.55.26,2.2.5,4.1,2,5.75,2.13,2.27,1.75,5.35,1.39,8.33s-.69,5.69,1.23,7.56,5.77,2.73,8.2,1.24c2.19-1.34,2.2-4.38,2.22-8.23,0-4.63,0-10.4,3.94-15.79,3.67-5.06,7.88-6.73,10.76-7.24A14.33,14.33,0,0,1,369.54,258.41Z" fill="#3d53a4"/></g><g id="Group_5629" data-name="Group 5629"><path id="Path_13207" data-name="Path 13207" d="M291.06,266.56c2.41-.58,6.2,3.33,6.91,7.5.68,3.94-1.51,7.39-2.65,9.17-2.75,4.32-5.22,4.26-6.38,8-.9,2.9.18,4.2-1.15,5.94-1.74,2.29-5.93,3.13-7.36,1.66s.59-3.81,3.47-13.41c.77-2.58-1-7,.85-12.64C286.65,267,289.94,266.83,291.06,266.56Z" fill="#f2f2f3"/><path id="Path_13208" data-name="Path 13208" d="M282.63,300.57a4,4,0,0,1-2.92-1c-1.28-1.32-.69-3,.6-6.55.68-1.86,1.59-4.4,2.63-7.85a10.94,10.94,0,0,0,.06-3.52,22.66,22.66,0,0,1,.8-9.15c1.92-5.84,5.3-6.53,6.74-6.82l.28-.06h0a4.37,4.37,0,0,1,3.39.82,12,12,0,0,1,4.75,7.48c.74,4.32-1.65,8.07-2.79,9.88a18.29,18.29,0,0,1-3.66,4.14,7.25,7.25,0,0,0-2.62,3.63,8.71,8.71,0,0,0-.37,2.83,4.94,4.94,0,0,1-.94,3.41,7.76,7.76,0,0,1-5.54,2.78Zm8.66-33-.35.08c-1.2.24-3.68.75-5.24,5.49a20.83,20.83,0,0,0-.7,8.38,12.52,12.52,0,0,1-.15,4.23c-1.05,3.5-2,6.08-2.66,8-.94,2.61-1.46,4.05-1.05,4.47a2.41,2.41,0,0,0,1.78.42,5.81,5.81,0,0,0,4.07-2,3.08,3.08,0,0,0,.53-2.2,10.76,10.76,0,0,1,.46-3.43,9.12,9.12,0,0,1,3.2-4.52,16.31,16.31,0,0,0,3.3-3.73c1.09-1.71,3.12-4.9,2.51-8.46a10,10,0,0,0-3.88-6.15,2.58,2.58,0,0,0-1.82-.55Z" fill="#3d53a4"/></g><g id="Group_5630" data-name="Group 5630"><path id="Path_13209" data-name="Path 13209" d="M271,286c-1.65,1.77-3.15,4.92-2.08,6.2,1.31,1.57,6.73.6,8.46-2.77,1-1.94.9-4.93-.64-5.84C275,282.58,272.25,284.7,271,286Z" fill="#f2f2f3"/><path id="Path_13210" data-name="Path 13210" d="M271.13,294a3.75,3.75,0,0,1-3-1.09c-1.58-1.89.33-5.6,2.11-7.52h0c1.5-1.61,4.67-4,7-2.59,2.05,1.22,2.22,4.79,1,7.16a8.23,8.23,0,0,1-6.33,4A7.55,7.55,0,0,1,271.13,294Zm.62-7.25c-1.63,1.75-2.55,4.27-2,4.88a2.67,2.67,0,0,0,2,.34,6.27,6.27,0,0,0,4.77-2.93c.82-1.6.69-4-.26-4.52S273,285.38,271.75,286.7Z" fill="#3d53a4"/></g><g id="Group_5632" data-name="Group 5632"><g id="Group_5631" data-name="Group 5631"><path id="Path_13211" data-name="Path 13211" d="M252.5,186.43s33.15,36.59,52.8,71.4c9.11,16.14,30.94,64.23,36.06,75.55a2.19,2.19,0,0,0,2.89,1.1,2.12,2.12,0,0,0,.36-.21l4.57-3.18a2.19,2.19,0,0,0,.75-2.7c-4.4-9.76-27.07-59.78-36.39-76.3-19.65-34.81-52-71.2-52-71.2Z" fill="#f2f2f3"/><path id="Path_13212" data-name="Path 13212" d="M343.35,335.67a3.21,3.21,0,0,1-2.91-1.88c-4.4-9.75-26.83-59.21-36-75.47-19.36-34.31-52.34-70.85-52.67-71.22a1,1,0,0,1,.07-1.41l.15-.11,9.09-5.55a1,1,0,0,1,1.27.19c.32.36,32.6,36.87,52.07,71.38,9.33,16.53,32,66.52,36.43,76.37a3.21,3.21,0,0,1-1.09,3.94l-4.56,3.18A3.19,3.19,0,0,1,343.35,335.67Zm-89.3-149c5.2,5.85,34.35,39.18,52.13,70.67,9.22,16.34,31.68,65.88,36.09,75.64a1.17,1.17,0,0,0,.77.65,1.15,1.15,0,0,0,1-.17l4.57-3.18a1.21,1.21,0,0,0,.41-1.47C344.58,319,322,269,312.67,252.58c-18-31.84-46.92-65.43-51.27-70.4Z" fill="#3d53a4"/></g></g><g id="Group_5633" data-name="Group 5633"><path id="Path_13213" data-name="Path 13213" d="M318.72,149.3a3.78,3.78,0,0,1-1.39,5.17,3.57,3.57,0,0,1-.56.26c-9.84,3.72-35.4,14-59.62,28.81-21.93,13.45-47.94,32.23-57.1,38.93a3.79,3.79,0,0,1-5.29-.82c-.08-.11-.15-.23-.22-.35l-37.8-65.47a3.77,3.77,0,0,1,1-4.91c8.46-6.38,35.57-26.42,59.27-39.77,20-11.27,49.69-24.45,59.27-28.63a3.79,3.79,0,0,1,4.8,1.57Z" fill="#f2f2f3"/><path id="Path_13214" data-name="Path 13214" d="M197.82,224.2a4.76,4.76,0,0,1-4.14-2.4l-37.8-65.47a4.78,4.78,0,0,1,1.26-6.21c7.88-5.94,35.47-26.38,59.38-39.84,20.23-11.38,50.55-24.83,59.36-28.68a4.78,4.78,0,0,1,6.06,2l37.65,65.2a4.79,4.79,0,0,1-1.76,6.54,4.19,4.19,0,0,1-.71.33c-9.84,3.72-35.33,14-59.45,28.73-21.64,13.26-47.09,31.61-57,38.88A4.78,4.78,0,0,1,197.82,224.2Zm80-141a2.84,2.84,0,0,0-1.12.23c-8.79,3.84-39,17.25-59.18,28.59-23.81,13.4-51.3,33.77-59.16,39.7a2.78,2.78,0,0,0-.73,3.61l37.8,65.47a2.78,2.78,0,0,0,3.8,1,2.2,2.2,0,0,0,.25-.17c10-7.29,35.46-25.67,57.17-39,24.26-14.87,49.9-25.16,59.79-28.89a2.79,2.79,0,0,0,1.63-3.59,3.11,3.11,0,0,0-.2-.41h0L280.21,84.6a2.78,2.78,0,0,0-2.41-1.4Z" fill="#3d53a4"/></g><g id="Group_5642" data-name="Group 5642"><g id="Group_5634" data-name="Group 5634"><path id="Path_13215" data-name="Path 13215" d="M193.6,165.08l-3.2-5.54,3.78-2.18,3.2,5.54,5-2.86,1.76,3.06-5,2.85,5.64,9.76a1,1,0,0,0,1.3.61,1.26,1.26,0,0,0,.26-.13l3.47-2,1.78,3.09L206.82,180a3.85,3.85,0,0,1-3,.47,4,4,0,0,1-2.42-2l-6-10.37-4.57,2.64L189,167.72Z" fill="#3d53a4"/></g><g id="Group_5635" data-name="Group 5635"><path id="Path_13216" data-name="Path 13216" d="M207.38,162.11a9.07,9.07,0,0,1,1.33-4.94,11.51,11.51,0,0,1,9.09-5.25,9.15,9.15,0,0,1,4.94,1.33,12,12,0,0,1,5.45,9.45,9.13,9.13,0,0,1-1.32,4.93,11.47,11.47,0,0,1-9.09,5.25,9.13,9.13,0,0,1-5-1.33,12,12,0,0,1-5.44-9.44Zm9.14,6.52a5.89,5.89,0,0,0,7.26-4.1l0-.1a7.88,7.88,0,0,0-4.78-8.27,5.91,5.91,0,0,0-7.25,4.16l0,.07a7.85,7.85,0,0,0,4.76,8.24Z" fill="#3d53a4"/></g><g id="Group_5636" data-name="Group 5636"><path id="Path_13217" data-name="Path 13217" d="M215.31,143.34a3,3,0,0,1,1.45-1.86,3.06,3.06,0,0,1,2.33-.37,3.09,3.09,0,0,1,1.83,4.55,3.25,3.25,0,0,1-1.12,1.09,3.13,3.13,0,0,1-3.06,0,3,3,0,0,1-1.43-3.43Zm2.47,2.65a1.94,1.94,0,1,0-1.37-2.38,2.05,2.05,0,0,0,1.37,2.38Z" fill="#3d53a4"/></g><g id="Group_5637" data-name="Group 5637"><path id="Path_13218" data-name="Path 13218" d="M250.1,122.24l2,5.87-.7.41-2.82-5.39Z" fill="#3d53a4"/></g><g id="Group_5638" data-name="Group 5638"><path id="Path_13219" data-name="Path 13219" d="M266.8,112.59l2,5.88-.7.4-2.82-5.38Zm2.82-1.63,2,5.88-.72.41-2.81-5.38Z" fill="#3d53a4"/></g><g id="Group_5639" data-name="Group 5639"><path id="Path_13220" data-name="Path 13220" d="M229,144.64l1.43,2.47.34-.2a7.61,7.61,0,0,1,4.17-6.34,8.3,8.3,0,0,1,4.5-1.14,9.2,9.2,0,0,1,4.64,1.49,12.66,12.66,0,0,1,5.45,9.44,9.13,9.13,0,0,1-1,4.78,8.35,8.35,0,0,1-3.23,3.33,7.46,7.46,0,0,1-7.47.47l-.35.2,5.36,9.27-3.75,2.17-13.75-23.82Zm16.09,7.55a8,8,0,0,0-4.82-8.35A5.93,5.93,0,0,0,233,148l0,.09a7.83,7.83,0,0,0,4.8,8.32,5.94,5.94,0,0,0,7.32-4.12l0-.1Z" fill="#3d53a4"/></g><g id="Group_5640" data-name="Group 5640"><path id="Path_13221" data-name="Path 13221" d="M259.7,149.5,256,151.66l-9.79-16.94,3.75-2.16Z" fill="#3d53a4"/></g><g id="Group_5641" data-name="Group 5641"><path id="Path_13222" data-name="Path 13222" d="M256.41,133.8a9.16,9.16,0,0,1,1.34-4.94,11.49,11.49,0,0,1,9.09-5.25,9.17,9.17,0,0,1,4.93,1.32,12,12,0,0,1,5.46,9.45,9.14,9.14,0,0,1-1.32,4.94,11.43,11.43,0,0,1-9.09,5.24,9,9,0,0,1-5-1.32,12,12,0,0,1-5.45-9.44Zm9.15,6.52a5.9,5.9,0,0,0,7.26-4.1.52.52,0,0,1,0-.11,6.83,6.83,0,0,0-1-4.94,6.73,6.73,0,0,0-3.77-3.32,5.93,5.93,0,0,0-7.26,4.16v.06a7.86,7.86,0,0,0,4.76,8.25Z" fill="#3d53a4"/></g></g><g id="Group_5643" data-name="Group 5643"><path id="Path_13223" data-name="Path 13223" d="M20.78,289.14a1,1,0,0,1-1-1,1,1,0,0,1,.28-.7c8.65-8.85,17.8-17.77,27.19-26.52a1,1,0,0,1,1.36,1.46h0c-9.37,8.73-18.49,17.63-27.12,26.46A1,1,0,0,1,20.78,289.14Z" fill="#3d53a4"/></g><g id="Group_5644" data-name="Group 5644"><path id="Path_13224" data-name="Path 13224" d="M309.28,109.74a1,1,0,0,1-.36-1.93c44.26-16.81,99.92-18.1,141.82-3.28a1,1,0,0,1,.63,1.27,1,1,0,0,1-1.26.63h0c-41.47-14.68-96.6-13.4-140.44,3.26A1,1,0,0,1,309.28,109.74Z" fill="#3d53a4"/></g><g id="Group_5645" data-name="Group 5645"><path id="Path_13225" data-name="Path 13225" d="M73.29,237.92a1,1,0,0,1-.65-1.75c23.17-20.16,64.78-46.3,86.5-56.2a1,1,0,0,1,.83,1.82h0c-21.6,9.84-63,35.83-86,55.88A1,1,0,0,1,73.29,237.92Z" fill="#3d53a4"/></g><g id="Group_5646" data-name="Group 5646"><path id="Path_13226" data-name="Path 13226" d="M1,159.12a1,1,0,0,1-1-1,1,1,0,0,1,.37-.77c9.06-7.4,18.48-14.78,28-22a1,1,0,0,1,1.4.2,1,1,0,0,1-.2,1.4c-9.48,7.16-18.88,14.53-27.92,21.91A1,1,0,0,1,1,159.12Z" fill="#3d53a4"/></g><g id="Group_5647" data-name="Group 5647"><path id="Path_13227" data-name="Path 13227" d="M73.29,108.91a1,1,0,0,1-.55-1.84c57.07-37.73,127.14-69.14,197.31-88.44C340.64-.79,401.59-5.2,441.66,6.21a1,1,0,0,1,.69,1.23,1,1,0,0,1-1.24.69C401.39-3.18,340.82,1.23,270.58,20.56c-70,19.24-139.84,50.56-196.73,88.18A1,1,0,0,1,73.29,108.91Z" fill="#3d53a4"/></g></g></g></g></svg>