<svg xmlns="http://www.w3.org/2000/svg" viewBox="0 0 549 244"><g id="Layer_2" data-name="Layer 2"><g id="Layer_1-2" data-name="Layer 1"><g id="Group_4110" data-name="Group 4110"><path id="Path_9160" data-name="Path 9160" d="M289.88,78.92a94.89,94.89,0,0,0-23.74-15.68,2,2,0,0,0-1.76,3.6l.08,0a90.7,90.7,0,1,1-121.57,47,2,2,0,0,0-3.65-1.65l0,.08A94.74,94.74,0,1,0,296.94,86a96.11,96.11,0,0,0-7.06-7.07Z" fill="#3d53a4"/><path id="Path_9161" data-name="Path 9161" d="M173.83,74.91a2,2,0,0,0,1.14-.35,90.13,90.13,0,0,1,51.47-16,92.71,92.71,0,0,1,9.28.47,2,2,0,1,0,.41-4h0A95,95,0,0,0,172.7,71.26a2,2,0,0,0,1.13,3.65Z" fill="#3d53a4"/><path id="Path_9162" data-name="Path 9162" d="M251,78.1a2,2,0,0,0,2-2V2a2,2,0,0,0-4,0V76.1A2,2,0,0,0,251,78.1Z" fill="#3d53a4"/><path id="Path_9163" data-name="Path 9163" d="M267,45H313c4.22,0,7.65-4.21,7.65-9.38V9.38C320.62,4.21,317.19,0,313,0H267a2,2,0,0,0,0,4H313c2,0,3.65,2.46,3.65,5.38V35.62C316.62,38.54,315,41,313,41H267a2,2,0,0,0,0,4Z" fill="#3d53a4"/><path id="Path_9164" data-name="Path 9164" d="M144.7,102.54a6.74,6.74,0,0,0,4.37,1.47c3.91,0,8.69-2.61,12.49-7.21,5.42-6.55,6.51-14.3,2.48-17.63h0c-4-3.34-11.44-.82-16.86,5.73S140.67,99.2,144.7,102.54Zm5.56-15.09c3.12-3.77,6.92-5.76,9.39-5.76a2.77,2.77,0,0,1,1.84.56c1.94,1.6,1.06,7.08-3,12s-9.3,6.81-11.23,5.2S146.18,92.38,150.26,87.45Z" fill="#3d53a4"/><path id="Path_9165" data-name="Path 9165" d="M189.72,220.87a20.41,20.41,0,0,0,11,3.76c3,0,5.45-1,6.82-3.07,1.51-2.26,1.44-5.27-.2-8.48a23.22,23.22,0,0,0-17.08-11.45c-3.61-.3-6.4.79-7.92,3.05C179.4,209,182.65,216.14,189.72,220.87Zm-4.09-14c.57-.85,1.82-1.32,3.47-1.32.26,0,.52,0,.8,0a19.23,19.23,0,0,1,13.85,9.28c.94,1.83,1.1,3.44.44,4.43-1.4,2.09-6.93,1.77-12.25-1.79S184.23,209,185.63,206.9Z" fill="#3d53a4"/><path id="Path_9166" data-name="Path 9166" d="M290.19,122.16a6.74,6.74,0,0,0,4.49-1.54c2.06-1.76,2.81-4.68,2.1-8.22a23.24,23.24,0,0,0-13.36-15.64c-3.37-1.25-6.37-1-8.44.79s-2.81,4.69-2.1,8.22a21.53,21.53,0,0,0,4.85,9.38C281.56,119.63,286.31,122.16,290.19,122.16Zm-12.61-21.57a3,3,0,0,1,1.92-.6,7.56,7.56,0,0,1,2.53.52,19.27,19.27,0,0,1,10.83,12.68c.4,2,.12,3.62-.78,4.39-1.91,1.63-7.16-.17-11.31-5a17.77,17.77,0,0,1-4-7.57C276.39,103,276.68,101.36,277.58,100.59Z" fill="#3d53a4"/><path id="Path_9167" data-name="Path 9167" d="M206.36,131a16.5,16.5,0,1,0-16.5,16.5A16.5,16.5,0,0,0,206.36,131Zm-29,0a12.5,12.5,0,1,1,12.5,12.5h0a12.52,12.52,0,0,1-12.5-12.5Z" fill="#3d53a4"/><path id="Path_9168" data-name="Path 9168" d="M261.63,172.83a16.5,16.5,0,1,0-16.5-16.5h0A16.53,16.53,0,0,0,261.63,172.83Zm0-29a12.5,12.5,0,1,1-12.5,12.5h0a12.52,12.52,0,0,1,12.5-12.5Z" fill="#3d53a4"/><path id="Path_9169" data-name="Path 9169" d="M531.61,181a2,2,0,0,0-2.83,2.83l8.5,8.5a2,2,0,0,0,2.88-2.77l0-.06Z" fill="#3d53a4"/><path id="Path_9170" data-name="Path 9170" d="M500,149.37a2,2,0,0,0-2.82,2.83l9.56,9.56a2,2,0,0,0,2.88-2.78l-.05,0Z" fill="#3d53a4"/><path id="Path_9171" data-name="Path 9171" d="M518.64,185.17a2,2,0,0,0-2,2v12a2,2,0,0,0,4,0v-12A2,2,0,0,0,518.64,185.17Z" fill="#348f8b"/><path id="Path_9172" data-name="Path 9172" d="M518.64,140.48a2,2,0,0,0-2,2V156a2,2,0,0,0,4,0V142.48A2,2,0,0,0,518.64,140.48Z" fill="#348f8b"/><path id="Path_9173" data-name="Path 9173" d="M505.68,181l-8.5,8.5a2,2,0,1,0,2.77,2.88.12.12,0,0,0,.05,0l8.5-8.5a2,2,0,0,0-2.82-2.83Z" fill="#3d53a4"/><path id="Path_9174" data-name="Path 9174" d="M530.55,161.76l9.56-9.56a2,2,0,0,0-2.83-2.83l-9.56,9.56a2,2,0,0,0,2.77,2.88Z" fill="#3d53a4"/><path id="Path_9175" data-name="Path 9175" d="M504.3,170.83a2,2,0,0,0-2-2h-12a2,2,0,0,0,0,4h12A2,2,0,0,0,504.3,170.83Z" fill="#348f8b"/><path id="Path_9176" data-name="Path 9176" d="M547,168.83H533.48a2,2,0,0,0,0,4H547a2,2,0,0,0,0-4Z" fill="#348f8b"/><path id="Path_9177" data-name="Path 9177" d="M432,85.69a2,2,0,0,0-2.83,2.82l8.5,8.5a2,2,0,1,0,2.88-2.77l-.05,0Z" fill="#348f8b"/><path id="Path_9178" data-name="Path 9178" d="M400.42,54.08a2,2,0,1,0-2.83,2.83l9.57,9.56A2,2,0,0,0,410,63.64Z" fill="#348f8b"/><path id="Path_9179" data-name="Path 9179" d="M419.06,89.88a2,2,0,0,0-2,2v12a2,2,0,1,0,4,0v-12A2,2,0,0,0,419.06,89.88Z" fill="#3d53a4"/><path id="Path_9180" data-name="Path 9180" d="M419.06,45.19a2,2,0,0,0-2,2V60.71a2,2,0,0,0,4,0V47.19A2,2,0,0,0,419.06,45.19Z" fill="#3d53a4"/><path id="Path_9181" data-name="Path 9181" d="M406.09,85.69l-8.5,8.5a2,2,0,0,0,2.78,2.88l.05-.06,8.5-8.5a2,2,0,0,0-2.83-2.82Z" fill="#348f8b"/><path id="Path_9182" data-name="Path 9182" d="M431,66.47l9.57-9.56a2,2,0,1,0-2.83-2.83l-9.56,9.56a2,2,0,1,0,2.77,2.88.12.12,0,0,0,0,0Z" fill="#348f8b"/><path id="Path_9183" data-name="Path 9183" d="M404.72,75.55a2,2,0,0,0-2-2h-12a2,2,0,0,0,0,4h12A2,2,0,0,0,404.72,75.55Z" fill="#3d53a4"/><path id="Path_9184" data-name="Path 9184" d="M447.42,73.55H433.9a2,2,0,0,0,0,4h13.52a2,2,0,0,0,0-4Z" fill="#3d53a4"/><path id="Path_9185" data-name="Path 9185" d="M104.73,49.19A2,2,0,0,0,101.91,52l8.5,8.5a2,2,0,0,0,2.82-2.83Z" fill="#3d53a4"/><path id="Path_9186" data-name="Path 9186" d="M73.12,17.58a2,2,0,0,0-2.82,2.83L79.86,30a2,2,0,0,0,2.83-2.83Z" fill="#3d53a4"/><path id="Path_9187" data-name="Path 9187" d="M91.76,53.39a2,2,0,0,0-2,2v12a2,2,0,0,0,4,0v-12A2,2,0,0,0,91.76,53.39Z" fill="#348f8b"/><path id="Path_9188" data-name="Path 9188" d="M91.76,8.69a2,2,0,0,0-2,2V24.22a2,2,0,0,0,4,0V10.69A2,2,0,0,0,91.76,8.69Z" fill="#348f8b"/><path id="Path_9189" data-name="Path 9189" d="M78.8,49.19l-8.5,8.5a2,2,0,1,0,2.77,2.88l.05,0,8.5-8.5a2,2,0,0,0-2.82-2.83Z" fill="#3d53a4"/><path id="Path_9190" data-name="Path 9190" d="M103.67,30l9.56-9.57a2,2,0,0,0-2.83-2.82l-9.56,9.56A2,2,0,0,0,103.61,30Z" fill="#3d53a4"/><path id="Path_9191" data-name="Path 9191" d="M77.43,39.05a2,2,0,0,0-2-2h-12a2,2,0,0,0,0,4h12A2,2,0,0,0,77.43,39.05Z" fill="#348f8b"/><path id="Path_9192" data-name="Path 9192" d="M120.12,37.05H106.6a2,2,0,0,0,0,4h13.52a2,2,0,0,0,0-4Z" fill="#348f8b"/><path id="Path_9193" data-name="Path 9193" d="M43.32,223.25a2,2,0,0,0-2.82,2.83l8.5,8.5a2,2,0,0,0,2.82-2.83Z" fill="#348f8b"/><path id="Path_9194" data-name="Path 9194" d="M11.72,191.65a2,2,0,0,0-2.83,2.83L18.45,204a2,2,0,0,0,2.83-2.83Z" fill="#348f8b"/><path id="Path_9195" data-name="Path 9195" d="M30.36,227.45a2,2,0,0,0-2,2v12a2,2,0,0,0,4,0v-12A2,2,0,0,0,30.36,227.45Z" fill="#3d53a4"/><path id="Path_9196" data-name="Path 9196" d="M30.36,182.76a2,2,0,0,0-2,2v13.52a2,2,0,0,0,4,0V184.76A2,2,0,0,0,30.36,182.76Z" fill="#3d53a4"/><path id="Path_9197" data-name="Path 9197" d="M17.39,223.25l-8.5,8.5a2,2,0,1,0,2.83,2.83h0l8.5-8.5a2,2,0,0,0-2.83-2.83Z" fill="#348f8b"/><path id="Path_9198" data-name="Path 9198" d="M42.26,204l9.56-9.56A2,2,0,0,0,49,191.65l-9.57,9.56A2,2,0,0,0,42.26,204Z" fill="#348f8b"/><path id="Path_9199" data-name="Path 9199" d="M16,213.12a2,2,0,0,0-2-2H2a2,2,0,0,0,0,4H14A2,2,0,0,0,16,213.12Z" fill="#3d53a4"/><path id="Path_9200" data-name="Path 9200" d="M58.72,211.12H45.19a2,2,0,0,0,0,4H58.72a2,2,0,1,0,0-4Z" fill="#3d53a4"/><path id="Path_9201" data-name="Path 9201" d="M128.37,175.11a2,2,0,1,0-3.94.68,1.06,1.06,0,0,0,0,.19,94.57,94.57,0,0,0,23.75,44.52,2,2,0,0,0,3-2.69l-.06-.06A90.62,90.62,0,0,1,128.37,175.11Z" fill="#348f8b"/><path id="Path_9202" data-name="Path 9202" d="M298.9,72.65a2,2,0,1,0-2.72,2.94l0,0A90.67,90.67,0,0,1,315.9,101a2,2,0,0,0,3.54-1.86h0A94.85,94.85,0,0,0,298.9,72.65Z" fill="#348f8b"/><path id="Path_9203" data-name="Path 9203" d="M314.29,202.65a2,2,0,0,0-2.75.69,90.94,90.94,0,0,1-17.2,20.89,2,2,0,1,0,2.59,3.05.6.6,0,0,0,.08-.08,94.69,94.69,0,0,0,18-21.81A2,2,0,0,0,314.29,202.65Z" fill="#348f8b"/><path id="Path_9204" data-name="Path 9204" d="M286.62,33.85a2,2,0,0,0,2,2H310a2,2,0,0,0,0-4H288.62A2,2,0,0,0,286.62,33.85Z" fill="#348f8b"/><path id="Path_9205" data-name="Path 9205" d="M286.65,8.79H267.19a2,2,0,0,0,0,4h19.46a2,2,0,0,0,0-4Z" fill="#348f8b"/></g></g></g></svg>