<svg xmlns="http://www.w3.org/2000/svg" viewBox="0 0 454.95 277.92"><g id="Layer_2" data-name="Layer 2"><g id="Layer_1-2" data-name="Layer 1"><g id="Group_5382" data-name="Group 5382"><g id="Group_5345" data-name="Group 5345"><circle id="Ellipse_516" data-name="Ellipse 516" cx="327.99" cy="173.42" r="79.35" fill="#7867ae"/></g><g id="Group_5346" data-name="Group 5346"><path id="Path_12904" data-name="Path 12904" d="M220.12,123a31,31,0,0,1,28.93-41.93c20,0,27.83,17.43,27.83,17.43a17.93,17.93,0,0,1,20-2.41s0-1.32,0-2A65.84,65.84,0,0,1,424.59,71.74h0A32.33,32.33,0,0,1,454,103.94c0,5.24-1.25,14.7-3.47,19.07Z" fill="#f2f2f3"/><path id="Path_12905" data-name="Path 12905" d="M450.48,124H220.12a1,1,0,0,1-.93-.64,32,32,0,0,1,29.86-43.29C266.45,80.09,275,93,277.2,97a18.9,18.9,0,0,1,18.63-2.43v-.42a66.84,66.84,0,0,1,129.48-23.3A33.15,33.15,0,0,1,455,104c0,5.22-1.24,14.92-3.57,19.52A1,1,0,0,1,450.48,124Zm-229.66-2h229c2-4.49,3.1-13.37,3.1-18.07a31.15,31.15,0,0,0-28.46-31.2,1,1,0,0,1-.89-.8A64.84,64.84,0,0,0,297.83,94.12c0,.66,0,2,0,2a1,1,0,0,1-1.46.91,16.95,16.95,0,0,0-18.87,2.27,1,1,0,0,1-1.57-.34c-.07-.17-7.8-16.84-26.92-16.84A30,30,0,0,0,220.82,122Z" fill="#3d53a4"/></g><g id="Group_5347" data-name="Group 5347"><path id="Path_12906" data-name="Path 12906" d="M43.71,138s-37.53-2.3-40.07,0c-4.88,4.42,1.62,13,4,18.68,3.77,8.92,6.74,18.13,14.81,23.31,5.38,3.46,14.65,1.71,21.23,2.78Z" fill="#5bc4bb"/></g><g id="Group_5348" data-name="Group 5348"><path id="Path_12907" data-name="Path 12907" d="M43.84,76.88H1.12c-3.85,0,3.29,12.36,5.61,18.19,4.63,11.61,8.64,24.32,20.37,28.4,5.07,1.76,13.76,2.53,16.74-1.22Z" fill="#5bc4bb"/></g><g id="Group_5349" data-name="Group 5349"><path id="Path_12908" data-name="Path 12908" d="M43.84,15.38l-40.3-.87C-1.3,15.25.88,32,6.74,37.45c6.66,6.14,8.41,15.88,16.4,19.94,6.27,3.2,12.84,1.72,20.71,3Z" fill="#5bc4bb"/></g><g id="Group_5350" data-name="Group 5350"><path id="Path_12909" data-name="Path 12909" d="M127.92,138H168c3.13-.33,1.45,14.73-1.07,20.55-4.42,10.2-15.41,20.73-25.27,25.76-4.32,2.21-8.77,0-13.73.83Z" fill="#5bc4bb"/></g><g id="Group_5351" data-name="Group 5351"><path id="Path_12910" data-name="Path 12910" d="M128.05,76.88l39.86.35c12.65,1.34.63,23.32-9,32.59-3.43,3.29-8.35,11.75-12.6,14-4.77,2.51-13.88,5.23-18.23.61Z" fill="#5bc4bb"/></g><g id="Group_5352" data-name="Group 5352"><path id="Path_12911" data-name="Path 12911" d="M128.05,15.38h38.62c6.05.7,5,15.52,2.48,21.5-3.85,9.32-14.61,14.25-22.87,19.82-6,4-16.5,16.24-18.23,8.94C125.88,56.45,128.05,15.38,128.05,15.38Z" fill="#5bc4bb"/></g><g id="Group_5354" data-name="Group 5354"><g id="Group_5353" data-name="Group 5353"><path id="Path_12912" data-name="Path 12912" d="M79.36,273.92v-80H91.88v80a3,3,0,0,1-3,3H82.36A3,3,0,0,1,79.36,273.92Z" fill="#f2f2f3"/><path id="Path_12913" data-name="Path 12913" d="M88.88,277.92H82.36a4,4,0,0,1-4-4v-81H92.88v81A4,4,0,0,1,88.88,277.92Zm-8.52-83v79a2,2,0,0,0,2,2h6.52a2,2,0,0,0,2-2v-79Z" fill="#3d53a4"/></g></g><g id="Group_5355" data-name="Group 5355"><rect id="Rectangle_5425" data-name="Rectangle 5425" x="43.84" y="1" width="84.07" height="192.88" rx="5" fill="#f2f2f3"/><path id="Path_12914" data-name="Path 12914" d="M122.92,194.88H48.84a6,6,0,0,1-6-6V6a6,6,0,0,1,6-6h74.08a6,6,0,0,1,6,6V188.88A6,6,0,0,1,122.92,194.88ZM48.84,2a4,4,0,0,0-4,4V188.88a4,4,0,0,0,4,4h74.08a4,4,0,0,0,4-4V6a4,4,0,0,0-4-4Z" fill="#3d53a4"/></g><g id="Group_5356" data-name="Group 5356"><rect id="Rectangle_5426" data-name="Rectangle 5426" x="366.42" y="170.77" width="83.98" height="106.15" rx="3.88" fill="#f2f2f3"/><path id="Path_12915" data-name="Path 12915" d="M446.52,277.92H370.29a4.87,4.87,0,0,1-4.87-4.88v-98.4a4.87,4.87,0,0,1,4.87-4.87h76.23a4.87,4.87,0,0,1,4.87,4.87V273A4.87,4.87,0,0,1,446.52,277.92ZM370.29,171.77a2.88,2.88,0,0,0-2.87,2.87V273a2.88,2.88,0,0,0,2.87,2.88h76.23a2.88,2.88,0,0,0,2.87-2.88v-98.4a2.88,2.88,0,0,0-2.87-2.87Z" fill="#3d53a4"/></g><g id="Group_5357" data-name="Group 5357"><rect id="Rectangle_5427" data-name="Rectangle 5427" x="378.07" y="185.19" width="25.32" height="16.12" rx="5" fill="#f2f2f3"/><path id="Path_12916" data-name="Path 12916" d="M398.39,202.31H383.07a6,6,0,0,1-6-6v-6.12a6,6,0,0,1,6-6h15.32a6,6,0,0,1,6,6v6.12A6,6,0,0,1,398.39,202.31Zm-15.32-16.12a4,4,0,0,0-4,4v6.12a4,4,0,0,0,4,4h15.32a4,4,0,0,0,4-4v-6.12a4,4,0,0,0-4-4Z" fill="#3d53a4"/></g><g id="Group_5358" data-name="Group 5358"><rect id="Rectangle_5428" data-name="Rectangle 5428" x="415.85" y="185.19" width="25.32" height="16.12" rx="5" fill="#f2f2f3"/><path id="Path_12917" data-name="Path 12917" d="M436.17,202.31H420.85a6,6,0,0,1-6-6v-6.12a6,6,0,0,1,6-6h15.32a6,6,0,0,1,6,6v6.12A6,6,0,0,1,436.17,202.31Zm-15.32-16.12a4,4,0,0,0-4,4v6.12a4,4,0,0,0,4,4h15.32a4,4,0,0,0,4-4v-6.12a4,4,0,0,0-4-4Z" fill="#3d53a4"/></g><g id="Group_5359" data-name="Group 5359"><rect id="Rectangle_5429" data-name="Rectangle 5429" x="378.07" y="216.33" width="25.32" height="16.12" rx="5" fill="#f2f2f3"/><path id="Path_12918" data-name="Path 12918" d="M398.39,233.44H383.07a6,6,0,0,1-6-6v-6.11a6,6,0,0,1,6-6h15.32a6,6,0,0,1,6,6v6.11A6,6,0,0,1,398.39,233.44Zm-15.32-16.11a4,4,0,0,0-4,4v6.11a4,4,0,0,0,4,4h15.32a4,4,0,0,0,4-4v-6.11a4,4,0,0,0-4-4Z" fill="#3d53a4"/></g><g id="Group_5360" data-name="Group 5360"><rect id="Rectangle_5430" data-name="Rectangle 5430" x="318.87" y="202.43" width="47.54" height="74.49" rx="3.88" fill="#f2f2f3"/><path id="Path_12919" data-name="Path 12919" d="M362.54,277.92H322.75a4.89,4.89,0,0,1-4.88-4.88V206.3a4.88,4.88,0,0,1,4.88-4.87h39.79a4.88,4.88,0,0,1,4.88,4.87V273A4.89,4.89,0,0,1,362.54,277.92Zm-39.79-74.49a2.89,2.89,0,0,0-2.88,2.87V273a2.89,2.89,0,0,0,2.88,2.88h39.79a2.88,2.88,0,0,0,2.88-2.88V206.3a2.88,2.88,0,0,0-2.88-2.87Z" fill="#3d53a4"/></g><g id="Group_5361" data-name="Group 5361"><rect id="Rectangle_5431" data-name="Rectangle 5431" x="330.52" y="216.33" width="25.32" height="16.12" rx="5" fill="#f2f2f3"/><path id="Path_12920" data-name="Path 12920" d="M350.84,233.44H335.52a6,6,0,0,1-6-6v-6.11a6,6,0,0,1,6-6h15.32a6,6,0,0,1,6,6v6.11A6,6,0,0,1,350.84,233.44Zm-15.32-16.11a4,4,0,0,0-4,4v6.11a4,4,0,0,0,4,4h15.32a4,4,0,0,0,4-4v-6.11a4,4,0,0,0-4-4Z" fill="#3d53a4"/></g><g id="Group_5362" data-name="Group 5362"><rect id="Rectangle_5432" data-name="Rectangle 5432" x="330.52" y="247.46" width="25.32" height="16.12" rx="5" fill="#f2f2f3"/><path id="Path_12921" data-name="Path 12921" d="M350.84,264.58H335.52a6,6,0,0,1-6-6v-6.12a6,6,0,0,1,6-6h15.32a6,6,0,0,1,6,6v6.12A6,6,0,0,1,350.84,264.58Zm-15.32-16.12a4,4,0,0,0-4,4v6.12a4,4,0,0,0,4,4h15.32a4,4,0,0,0,4-4v-6.12a4,4,0,0,0-4-4Z" fill="#3d53a4"/></g><g id="Group_5363" data-name="Group 5363"><rect id="Rectangle_5433" data-name="Rectangle 5433" x="415.85" y="216.33" width="25.32" height="16.12" rx="5" fill="#f2f2f3"/><path id="Path_12922" data-name="Path 12922" d="M436.17,233.44H420.85a6,6,0,0,1-6-6v-6.11a6,6,0,0,1,6-6h15.32a6,6,0,0,1,6,6v6.11A6,6,0,0,1,436.17,233.44Zm-15.32-16.11a4,4,0,0,0-4,4v6.11a4,4,0,0,0,4,4h15.32a4,4,0,0,0,4-4v-6.11a4,4,0,0,0-4-4Z" fill="#3d53a4"/></g><g id="Group_5364" data-name="Group 5364"><rect id="Rectangle_5434" data-name="Rectangle 5434" x="378.07" y="247.46" width="25.32" height="16.12" rx="5" fill="#f2f2f3"/><path id="Path_12923" data-name="Path 12923" d="M398.39,264.58H383.07a6,6,0,0,1-6-6v-6.12a6,6,0,0,1,6-6h15.32a6,6,0,0,1,6,6v6.12A6,6,0,0,1,398.39,264.58Zm-15.32-16.12a4,4,0,0,0-4,4v6.12a4,4,0,0,0,4,4h15.32a4,4,0,0,0,4-4v-6.12a4,4,0,0,0-4-4Z" fill="#3d53a4"/></g><g id="Group_5365" data-name="Group 5365"><rect id="Rectangle_5435" data-name="Rectangle 5435" x="415.85" y="247.46" width="25.32" height="16.12" rx="5" fill="#f2f2f3"/><path id="Path_12924" data-name="Path 12924" d="M436.17,264.58H420.85a6,6,0,0,1-6-6v-6.12a6,6,0,0,1,6-6h15.32a6,6,0,0,1,6,6v6.12A6,6,0,0,1,436.17,264.58Zm-15.32-16.12a4,4,0,0,0-4,4v6.12a4,4,0,0,0,4,4h15.32a4,4,0,0,0,4-4v-6.12a4,4,0,0,0-4-4Z" fill="#3d53a4"/></g><g id="Group_5366" data-name="Group 5366"><circle id="Ellipse_517" data-name="Ellipse 517" cx="85.62" cy="36.29" r="21.78" fill="#f2f2f3"/><path id="Path_12925" data-name="Path 12925" d="M85.62,59.07a22.79,22.79,0,1,1,22.79-22.78h0A22.82,22.82,0,0,1,85.62,59.07Zm0-43.57a20.79,20.79,0,1,0,20.79,20.79h0A20.82,20.82,0,0,0,85.62,15.51Z" fill="#3d53a4"/></g><g id="Group_5367" data-name="Group 5367"><path id="Path_12926" data-name="Path 12926" d="M128.05,14.51h36.47A43.47,43.47,0,0,1,128.05,57.4Z" fill="#f2f2f3"/><path id="Path_12927" data-name="Path 12927" d="M127.05,58.57V13.51h38.47v1a44.24,44.24,0,0,1-37.3,43.87Zm2-43.06v40.7a42.24,42.24,0,0,0,34.45-40.7Z" fill="#3d53a4"/></g><g id="Group_5368" data-name="Group 5368"><path id="Path_12928" data-name="Path 12928" d="M128.05,76h36.47a43.47,43.47,0,0,1-36.47,42.89Z" fill="#f2f2f3"/><path id="Path_12929" data-name="Path 12929" d="M127.05,120.06V75h38.47v1a44.24,44.24,0,0,1-37.3,43.88Zm2-43.07v40.7A42.22,42.22,0,0,0,163.5,77Z" fill="#3d53a4"/></g><g id="Group_5369" data-name="Group 5369"><path id="Path_12930" data-name="Path 12930" d="M128.05,137.14h36.47A43.47,43.47,0,0,1,128.05,180Z" fill="#f2f2f3"/><path id="Path_12931" data-name="Path 12931" d="M127.05,181.21V136.14h38.47v1A44.24,44.24,0,0,1,128.22,181Zm2-43.07v40.7a42.22,42.22,0,0,0,34.45-40.7Z" fill="#3d53a4"/></g><g id="Group_5370" data-name="Group 5370"><path id="Path_12932" data-name="Path 12932" d="M43.84,14.51H7.38A43.46,43.46,0,0,0,43.84,57.4Z" fill="#f2f2f3"/><path id="Path_12933" data-name="Path 12933" d="M44.84,58.57l-1.16-.19A44.24,44.24,0,0,1,6.38,14.51v-1H44.85ZM8.39,15.51a42.25,42.25,0,0,0,34.45,40.7V15.51Z" fill="#3d53a4"/></g><g id="Group_5371" data-name="Group 5371"><path id="Path_12934" data-name="Path 12934" d="M43.84,76H7.38a43.46,43.46,0,0,0,36.46,42.89Z" fill="#f2f2f3"/><path id="Path_12935" data-name="Path 12935" d="M44.84,120.06l-1.16-.19A44.24,44.24,0,0,1,6.38,76V75H44.85ZM8.39,77a42.23,42.23,0,0,0,34.45,40.7V77Z" fill="#3d53a4"/></g><g id="Group_5372" data-name="Group 5372"><path id="Path_12936" data-name="Path 12936" d="M43.84,137.14H7.38A43.46,43.46,0,0,0,43.84,180Z" fill="#f2f2f3"/><path id="Path_12937" data-name="Path 12937" d="M44.84,181.21,43.68,181a44.24,44.24,0,0,1-37.3-43.88v-1H44.85ZM8.39,138.14a42.23,42.23,0,0,0,34.45,40.7v-40.7Z" fill="#3d53a4"/></g><g id="Group_5373" data-name="Group 5373"><circle id="Ellipse_518" data-name="Ellipse 518" cx="85.62" cy="97.44" r="21.78" fill="#f2f2f3"/><path id="Path_12938" data-name="Path 12938" d="M85.62,120.22a22.78,22.78,0,1,1,22.79-22.78h0A22.81,22.81,0,0,1,85.62,120.22Zm0-43.56a20.78,20.78,0,1,0,20.79,20.78h0A20.82,20.82,0,0,0,85.62,76.65Z" fill="#3d53a4"/></g><g id="Group_5374" data-name="Group 5374"><path id="Path_12939" data-name="Path 12939" d="M240,205.72a25.8,25.8,0,0,1,41,11.93,20.88,20.88,0,0,1,4.43-.84,12,12,0,0,1,12,12h0a6.49,6.49,0,0,1-.5,2.5h-146a12,12,0,0,1,17.31-15.73l.34.25A38.23,38.23,0,0,1,240,205.72Z" fill="#f2f2f3"/><path id="Path_12940" data-name="Path 12940" d="M297.64,232.35H150.26l-.29-.52a13,13,0,0,1,17.86-17.59,39.22,39.22,0,0,1,72.44-10,26.81,26.81,0,0,1,37.53,5.29,26.47,26.47,0,0,1,3.77,6.95,17.45,17.45,0,0,1,3.79-.63,13.06,13.06,0,0,1,13,13,6,6,0,0,1-.36,2.21c-.06.16-.12.35-.19.58Zm-146.18-2h144.7a3.84,3.84,0,0,0,.24-1.5,11,11,0,0,0-11-11,18.92,18.92,0,0,0-4.14.79l-.93.29L280,218A24.8,24.8,0,0,0,240.6,206.5l-1,.79-.57-1.1a37.23,37.23,0,0,0-69.59,9.88l-.3,1.52-1.6-1.15a11,11,0,0,0-16.11,13.92Z" fill="#3d53a4"/></g><g id="Group_5375" data-name="Group 5375"><path id="Path_12941" data-name="Path 12941" d="M177.17,219a1.24,1.24,0,0,1-.27,0,1,1,0,0,1-.69-1.23h0c4.35-15.54,14.51-24.09,28.6-24.09a1,1,0,0,1,0,2c-13.3,0-22.53,7.82-26.68,22.63A1,1,0,0,1,177.17,219Z" fill="#3d53a4"/></g><g id="Group_5376" data-name="Group 5376"><path id="Path_12942" data-name="Path 12942" d="M414.53,80a1,1,0,0,1-1-.82c-3.82-21.88-21.72-34-37.2-38a1,1,0,0,1,.42-2l.08,0c16.08,4.2,34.69,16.81,38.67,39.62A1,1,0,0,1,414.7,80h-.17Z" fill="#3d53a4"/></g><g id="Group_5377" data-name="Group 5377"><path id="Path_12943" data-name="Path 12943" d="M93.76,134.48c-12.43-1.23-19.13-4.58-27.85,4.1-7,7-9.34,19.7-.56,38.41,3.75,8,16.64,5.47,26.29,5.4,13.92-.1,23.61-8.68,20.5-32C109.41,130,103.81,135.47,93.76,134.48Z" fill="#5bc4bb"/></g><g id="Group_5378" data-name="Group 5378"><path id="Path_12944" data-name="Path 12944" d="M86.14,181.37a22.79,22.79,0,1,1,22.78-22.78h0A22.79,22.79,0,0,1,86.14,181.37Zm0-43.57a20.79,20.79,0,1,0,20.78,20.79h0A20.82,20.82,0,0,0,86.14,137.8Z" fill="#f2f2f3"/></g><g id="Group_5381" data-name="Group 5381"><g id="Group_5379" data-name="Group 5379"><path id="Path_12945" data-name="Path 12945" d="M90.22,159.59H73a1,1,0,0,1,0-2H90.22a1,1,0,0,1,0,2Z" fill="#f2f2f3"/></g><g id="Group_5380" data-name="Group 5380"><path id="Path_12946" data-name="Path 12946" d="M92.39,168a1,1,0,0,1-1-1,1.05,1.05,0,0,1,.22-.64L98,158.59l-6.36-7.73a1,1,0,1,1,1.55-1.27l7.4,9-7.4,9A1,1,0,0,1,92.39,168Z" fill="#f2f2f3"/></g></g></g></g></g></svg>