<svg xmlns="http://www.w3.org/2000/svg" viewBox="0 0 466.65 270.85"><g id="Layer_2" data-name="Layer 2"><g id="Layer_1-2" data-name="Layer 1"><g id="Group_5730" data-name="Group 5730"><g id="Group_5690" data-name="Group 5690"><path id="Path_13271" data-name="Path 13271" d="M400.14,1l63.32,25a3.79,3.79,0,0,1,2.19,3.43V258.82a3,3,0,0,1-3,3.05h-.3l-62.16,8Z" fill="#f2f2f3"/><path id="Path_13272" data-name="Path 13272" d="M400.14,270.85a1,1,0,0,1-1-1V1a1,1,0,0,1,1-1,1,1,0,0,1,.37.07l63.31,25a4.81,4.81,0,0,1,2.83,4.36V258.82a4,4,0,0,1-4,4.05h-.27l-62.06,8Zm1-268.38V268.71l61-7.85h.23a2,2,0,0,0,2.24-1.84,1.34,1.34,0,0,0,0-.2V29.41A2.79,2.79,0,0,0,463,26.89Z" fill="#3d53a4"/></g><g id="Group_5691" data-name="Group 5691"><path id="Path_13273" data-name="Path 13273" d="M262,266.85V18.79a3,3,0,0,1,2.68-3L400.14,1V269.85H265A3,3,0,0,1,262,266.85Z" fill="#f2f2f3"/><path id="Path_13274" data-name="Path 13274" d="M400.14,270.85H265a4,4,0,0,1-4-4V18.79a4,4,0,0,1,3.57-4L400,0a1,1,0,0,1,1.1.88s0,.07,0,.11V269.85A1,1,0,0,1,400.14,270.85Zm-1-268.73L264.77,16.8a2,2,0,0,0-1.78,2V266.85a2,2,0,0,0,2,2H399.14Z" fill="#3d53a4"/></g><g id="Group_5692" data-name="Group 5692"><path id="Path_13275" data-name="Path 13275" d="M324,78.4l-32.36,3.53a2.27,2.27,0,0,1-2.5-2,2.18,2.18,0,0,1,0-.25v-3.9a2.26,2.26,0,0,1,2-2.25L323.51,70a2.27,2.27,0,0,1,2.5,2,2.18,2.18,0,0,1,0,.25v3.9A2.27,2.27,0,0,1,324,78.4Z" fill="#f2f2f3"/><path id="Path_13276" data-name="Path 13276" d="M291.39,82.94a3.25,3.25,0,0,1-3.26-3.26h0v-3.9A3.26,3.26,0,0,1,291,72.53L323.4,69a3.25,3.25,0,0,1,3.6,2.88,2.17,2.17,0,0,1,0,.36v3.9a3.26,3.26,0,0,1-2.91,3.25h0l-32.36,3.53A2.17,2.17,0,0,1,291.39,82.94Zm32.37-12h-.14l-32.36,3.53a1.26,1.26,0,0,0-1.13,1.26v3.9a1.25,1.25,0,0,0,1.26,1.26h.14l32.36-3.54h0A1.27,1.27,0,0,0,325,76.14v-3.9A1.26,1.26,0,0,0,323.76,71Z" fill="#3d53a4"/></g><g id="Group_5693" data-name="Group 5693"><path id="Path_13277" data-name="Path 13277" d="M371,73.31,338.74,76.8a2.28,2.28,0,0,1-2.5-2,2.09,2.09,0,0,1,0-.25v-3.9a2.27,2.27,0,0,1,2-2.25l32.23-3.49a2.28,2.28,0,0,1,2.5,2,1.93,1.93,0,0,1,0,.24v3.9A2.27,2.27,0,0,1,371,73.31Z" fill="#f2f2f3"/><path id="Path_13278" data-name="Path 13278" d="M338.49,77.81a3.26,3.26,0,0,1-3.26-3.26h0v-3.9a3.24,3.24,0,0,1,2.91-3.24l32.24-3.49A3.25,3.25,0,0,1,374,66.8a2.11,2.11,0,0,1,0,.35v3.9a3.26,3.26,0,0,1-2.91,3.25h0l-32.24,3.49Zm32.24-11.92h-.14l-32.23,3.49a1.25,1.25,0,0,0-1.13,1.25v3.9a1.26,1.26,0,0,0,1.26,1.27h.14l32.23-3.49A1.27,1.27,0,0,0,372,71.06v-3.9a1.26,1.26,0,0,0-1.26-1.27Z" fill="#3d53a4"/></g><g id="Group_5694" data-name="Group 5694"><path id="Path_13279" data-name="Path 13279" d="M324,59.89l-32.36,3.53a2.27,2.27,0,0,1-2.5-2,2.09,2.09,0,0,1,0-.25v-3.9a2.27,2.27,0,0,1,2-2.25l32.36-3.53a2.27,2.27,0,0,1,2.5,2,2,2,0,0,1,0,.25v3.9A2.27,2.27,0,0,1,324,59.89Z" fill="#f2f2f3"/><path id="Path_13280" data-name="Path 13280" d="M291.39,64.44a3.26,3.26,0,0,1-3.26-3.26h0v-3.9A3.25,3.25,0,0,1,291,54l32.36-3.54a3.26,3.26,0,0,1,3.6,2.89,2.17,2.17,0,0,1,0,.36v3.9a3.26,3.26,0,0,1-2.91,3.24l-32.36,3.54Zm32.37-12h-.14L291.26,56a1.27,1.27,0,0,0-1.13,1.26v3.9a1.26,1.26,0,0,0,1.26,1.27h.14l32.36-3.53h0A1.27,1.27,0,0,0,325,57.64v-3.9a1.26,1.26,0,0,0-1.26-1.27Z" fill="#3d53a4"/></g><g id="Group_5695" data-name="Group 5695"><path id="Path_13281" data-name="Path 13281" d="M371,54.8l-32.23,3.49a2.27,2.27,0,0,1-2.5-2,1.93,1.93,0,0,1,0-.24v-3.9a2.27,2.27,0,0,1,2-2.26l32.23-3.49a2.28,2.28,0,0,1,2.5,2,2,2,0,0,1,0,.25v3.9A2.27,2.27,0,0,1,371,54.8Z" fill="#f2f2f3"/><path id="Path_13282" data-name="Path 13282" d="M338.49,59.3A3.26,3.26,0,0,1,335.23,56h0v-3.9a3.25,3.25,0,0,1,2.91-3.25l32.24-3.49A3.25,3.25,0,0,1,374,48.29a2.17,2.17,0,0,1,0,.36v3.9a3.26,3.26,0,0,1-2.91,3.24h0l-32.24,3.49Zm32.24-11.92h-.14l-32.23,3.49a1.26,1.26,0,0,0-1.13,1.26V56a1.26,1.26,0,0,0,1.26,1.26h.14l32.23-3.48A1.27,1.27,0,0,0,372,52.55v-3.9a1.26,1.26,0,0,0-1.26-1.27Z" fill="#3d53a4"/></g><g id="Group_5696" data-name="Group 5696"><path id="Path_13283" data-name="Path 13283" d="M324,41.38l-32.36,3.53a2.27,2.27,0,0,1-2.5-2,2.09,2.09,0,0,1,0-.25v-3.9a2.26,2.26,0,0,1,2-2.25L323.51,33a2.28,2.28,0,0,1,2.5,2,2,2,0,0,1,0,.25v3.9A2.27,2.27,0,0,1,324,41.38Z" fill="#f2f2f3"/><path id="Path_13284" data-name="Path 13284" d="M291.39,45.93a3.26,3.26,0,0,1-3.26-3.26h0v-3.9A3.26,3.26,0,0,1,291,35.52L323.4,32a3.26,3.26,0,0,1,3.6,2.89,2.17,2.17,0,0,1,0,.36v3.9a3.26,3.26,0,0,1-2.91,3.25l-32.36,3.53Zm32.37-12h-.14l-32.36,3.54a1.26,1.26,0,0,0-1.13,1.25v3.9a1.27,1.27,0,0,0,1.26,1.27h.14l32.36-3.53h0A1.27,1.27,0,0,0,325,39.13v-3.9A1.27,1.27,0,0,0,323.76,34Z" fill="#3d53a4"/></g><g id="Group_5697" data-name="Group 5697"><path id="Path_13285" data-name="Path 13285" d="M371,36.29l-32.23,3.49a2.28,2.28,0,0,1-2.5-2,2,2,0,0,1,0-.25v-3.9a2.27,2.27,0,0,1,2-2.25l32.23-3.49a2.27,2.27,0,0,1,2.5,2,1.93,1.93,0,0,1,0,.24V34A2.26,2.26,0,0,1,371,36.29Z" fill="#f2f2f3"/><path id="Path_13286" data-name="Path 13286" d="M338.49,40.79a3.26,3.26,0,0,1-3.26-3.26h0v-3.9a3.26,3.26,0,0,1,2.91-3.25l32.24-3.49a3.26,3.26,0,0,1,3.59,2.9,2,2,0,0,1,0,.35V34a3.26,3.26,0,0,1-2.91,3.25h0l-32.24,3.49Zm32.24-11.92h-.14l-32.23,3.49a1.26,1.26,0,0,0-1.13,1.26v3.9a1.25,1.25,0,0,0,1.26,1.26h.14l32.23-3.49A1.27,1.27,0,0,0,372,34v-3.9a1.27,1.27,0,0,0-1.26-1.27Z" fill="#3d53a4"/></g><g id="Group_5698" data-name="Group 5698"><path id="Path_13287" data-name="Path 13287" d="M2.14,35.06,262,160.53v-15.1L3.88,20.8A2,2,0,0,0,1,22.6V33.26A2,2,0,0,0,2.14,35.06Z" fill="#f2f2f3"/><path id="Path_13288" data-name="Path 13288" d="M262,161.53a.91.91,0,0,1-.43-.1L1.7,36A3,3,0,0,1,0,33.26V22.6a3,3,0,0,1,3-3,2.92,2.92,0,0,1,1.3.3L262.41,144.53a1,1,0,0,1,.57.9v15.1a1,1,0,0,1-.47.85A1,1,0,0,1,262,161.53ZM3,21.6a1,1,0,0,0-.54.15A1,1,0,0,0,2,22.6V33.26a1,1,0,0,0,.56.9h0L261,158.94V146.06L3.44,21.7A.94.94,0,0,0,3,21.6Z" fill="#3d53a4"/></g><g id="Group_5699" data-name="Group 5699"><path id="Path_13289" data-name="Path 13289" d="M20.11,40.07a1,1,0,0,1-.43-1.9L25,35.62a1,1,0,0,1,1.32.52,1,1,0,0,1-.45,1.28L20.55,40A1.13,1.13,0,0,1,20.11,40.07Z" fill="#3d53a4"/></g><g id="Group_5700" data-name="Group 5700"><path id="Path_13290" data-name="Path 13290" d="M28.62,44.59a1,1,0,0,1-1-1,1,1,0,0,1,.57-.9l5.27-2.55a1,1,0,0,1,1.33.5,1,1,0,0,1-.46,1.3l-5.27,2.55A1.13,1.13,0,0,1,28.62,44.59Z" fill="#3d53a4"/></g><g id="Group_5701" data-name="Group 5701"><path id="Path_13291" data-name="Path 13291" d="M60.05,59.32a1,1,0,0,1-.44-1.9l5.28-2.54a1,1,0,1,1,.93,1.77l-.06,0-5.28,2.54A.91.91,0,0,1,60.05,59.32Z" fill="#3d53a4"/></g><g id="Group_5702" data-name="Group 5702"><path id="Path_13292" data-name="Path 13292" d="M68.56,63.84a1,1,0,0,1-1-1,1,1,0,0,1,.57-.9l5.27-2.55a1,1,0,1,1,.93,1.77l-.06,0L69,63.74A1,1,0,0,1,68.56,63.84Z" fill="#3d53a4"/></g><g id="Group_5703" data-name="Group 5703"><path id="Path_13293" data-name="Path 13293" d="M99,77.71a1,1,0,0,1-.44-1.9l5.28-2.54a1,1,0,0,1,1.32.5,1,1,0,0,1-.45,1.3l-5.28,2.54A.91.91,0,0,1,99,77.71Z" fill="#3d53a4"/></g><g id="Group_5704" data-name="Group 5704"><path id="Path_13294" data-name="Path 13294" d="M107.47,82.23a1,1,0,0,1-.44-1.9l5.28-2.55a1,1,0,0,1,1.32.52,1,1,0,0,1-.45,1.28l-5.28,2.55A1,1,0,0,1,107.47,82.23Z" fill="#3d53a4"/></g><g id="Group_5705" data-name="Group 5705"><path id="Path_13295" data-name="Path 13295" d="M139.11,97.24a1,1,0,0,1-1-1,1,1,0,0,1,.56-.9L144,92.79a1,1,0,0,1,1.32.52,1,1,0,0,1-.45,1.28l-5.28,2.55A1,1,0,0,1,139.11,97.24Z" fill="#3d53a4"/></g><g id="Group_5706" data-name="Group 5706"><path id="Path_13296" data-name="Path 13296" d="M147.62,101.76a1,1,0,0,1-1-1,1,1,0,0,1,.56-.9l5.28-2.55a1,1,0,0,1,.87,1.8l-5.28,2.55A1.23,1.23,0,0,1,147.62,101.76Z" fill="#3d53a4"/></g><g id="Group_5707" data-name="Group 5707"><path id="Path_13297" data-name="Path 13297" d="M186.73,120.32a1,1,0,0,1-.43-1.9l5.27-2.54a1,1,0,0,1,.87,1.8l-5.27,2.54A1,1,0,0,1,186.73,120.32Z" fill="#3d53a4"/></g><g id="Group_5708" data-name="Group 5708"><path id="Path_13298" data-name="Path 13298" d="M195.24,124.84a1,1,0,0,1-.44-1.9l5.28-2.54a1,1,0,0,1,1.32.51,1,1,0,0,1-.45,1.29l-5.28,2.54A.91.91,0,0,1,195.24,124.84Z" fill="#3d53a4"/></g><g id="Group_5709" data-name="Group 5709"><path id="Path_13299" data-name="Path 13299" d="M231.79,141.91a1,1,0,0,1-1-1,1,1,0,0,1,.56-.9l5.28-2.54a1,1,0,0,1,.87,1.8l-5.28,2.54A.91.91,0,0,1,231.79,141.91Z" fill="#3d53a4"/></g><g id="Group_5710" data-name="Group 5710"><path id="Path_13300" data-name="Path 13300" d="M240.3,146.43a1,1,0,0,1-.44-1.9l5.28-2.54a1,1,0,0,1,1.32.51,1,1,0,0,1-.45,1.29l-5.28,2.54A.91.91,0,0,1,240.3,146.43Z" fill="#3d53a4"/></g><g id="Group_5711" data-name="Group 5711"><path id="Path_13301" data-name="Path 13301" d="M376.77,82.12a1,1,0,0,1,0-2,2.77,2.77,0,0,0,2.77-2.77V64.9a1,1,0,0,1,2,0V77.35A4.78,4.78,0,0,1,376.77,82.12Z" fill="#3d53a4"/></g><g id="Group_5712" data-name="Group 5712"><path id="Path_13302" data-name="Path 13302" d="M281.58,45.79a1,1,0,0,1-1-1V32.34a4.78,4.78,0,0,1,4.77-4.78,1,1,0,0,1,0,2,2.78,2.78,0,0,0-2.77,2.78V44.79A1,1,0,0,1,281.58,45.79Z" fill="#3d53a4"/></g><g id="Group_5713" data-name="Group 5713"><path id="Path_13303" data-name="Path 13303" d="M458.1,253.15a1,1,0,0,1-1-1V216.36a1,1,0,0,1,2,0v35.79A1,1,0,0,1,458.1,253.15Z" fill="#3d53a4"/></g><g id="Group_5714" data-name="Group 5714"><path id="Path_13304" data-name="Path 13304" d="M450.55,245.6a1,1,0,0,1-1-1V208.81a1,1,0,0,1,2,0V244.6A1,1,0,0,1,450.55,245.6Z" fill="#3d53a4"/></g><g id="Group_5715" data-name="Group 5715"><path id="Path_13305" data-name="Path 13305" d="M443,238.05a1,1,0,0,1-1-1V201.26a1,1,0,0,1,2,0v35.79A1,1,0,0,1,443,238.05Z" fill="#3d53a4"/></g><g id="Group_5716" data-name="Group 5716"><path id="Path_13306" data-name="Path 13306" d="M407.69,52.72a1,1,0,0,1-1-1V15.93a1,1,0,0,1,2,0V51.72A1,1,0,0,1,407.69,52.72Z" fill="#3d53a4"/></g><g id="Group_5717" data-name="Group 5717"><path id="Path_13307" data-name="Path 13307" d="M415.24,60.28a1,1,0,0,1-1-1V23.49a1,1,0,0,1,2,0V59.28A1,1,0,0,1,415.24,60.28Z" fill="#3d53a4"/></g><g id="Group_5718" data-name="Group 5718"><path id="Path_13308" data-name="Path 13308" d="M422.79,67.82a1,1,0,0,1-1-1V31a1,1,0,0,1,2,0V66.82A1,1,0,0,1,422.79,67.82Z" fill="#3d53a4"/></g><g id="Group_5719" data-name="Group 5719"><path id="Path_13309" data-name="Path 13309" d="M338.28,100.33c-11.84-1.18-18.24-4.37-26.54,3.9-6.73,6.7-8.91,18.78-.54,36.62,3.58,7.62,15.86,5.21,25.06,5.14,13.27-.1,22.51-8.27,19.54-30.5C353.2,96,347.86,101.28,338.28,100.33Z" fill="#5bc4bb"/></g><g id="Group_5720" data-name="Group 5720"><path id="Path_13310" data-name="Path 13310" d="M331.06,144a21.47,21.47,0,1,1,21.47-21.47A21.47,21.47,0,0,1,331.06,144Zm0-40.94a19.47,19.47,0,1,0,19.47,19.47A19.47,19.47,0,0,0,331.06,103Z" fill="#3d53a4"/></g><g id="Group_5721" data-name="Group 5721"><path id="Path_13311" data-name="Path 13311" d="M318.38,123.51a1,1,0,0,1-1-1,13.7,13.7,0,0,1,13.68-13.68,1,1,0,0,1,0,2,11.68,11.68,0,0,0-11.68,11.68A1,1,0,0,1,318.38,123.51Z" fill="#3d53a4"/></g><g id="Group_5722" data-name="Group 5722"><path id="Path_13312" data-name="Path 13312" d="M283.06,220.7c.47-15.41,8.84-31.28,13.6-51.74,0,0,53.24-6.49,69.94-7.3,4.4-.21-20.23,30.29-20.34,47.89-.12,18.53,13.87,33.39,3.08,37.79-5.61,2.29-28.81,8.72-34.22,10.78C287.44,268.7,282.5,239.07,283.06,220.7Z" fill="#7867ae"/></g><g id="Group_5723" data-name="Group 5723"><path id="Path_13313" data-name="Path 13313" d="M299.9,259.13a4.43,4.43,0,0,1-1.44-.27c-3.29-1.23-5.8-6.36-7.61-10.68l-.2-.47a53.67,53.67,0,0,1-4.13-18c-1.12-19.15,8.47-46.08,17.85-63l.25-.45,62.11-6.64-2,2c-15.2,15-27.21,42.33-20.73,65.44,1,3.68,4.45,10.38,5.88,13.08a2.9,2.9,0,0,1-1.21,3.91l-.3.14q-4,1.56-8.12,2.72c-3,.72-5.73,1.37-8.38,2-11.06,2.57-19.79,4.6-30.16,9.75A4.07,4.07,0,0,1,299.9,259.13Zm6-90.95c-9.16,16.69-18.43,42.87-17.35,61.45a51.51,51.51,0,0,0,4,17.3l.2.48c.88,2.1,3.55,8.49,6.46,9.57a1.9,1.9,0,0,0,1.63-.08c10.59-5.25,19.42-7.3,30.6-9.9,2.64-.62,5.41-1.26,8.35-2a82.5,82.5,0,0,0,7.88-2.64.9.9,0,0,0,.51-1.15.93.93,0,0,0-.05-.1c-1.81-3.43-5-9.75-6-13.47-6.4-22.86,4.64-49.63,19.32-65.41Z" fill="#f2f2f3"/></g><g id="Group_5724" data-name="Group 5724"><path id="Path_13314" data-name="Path 13314" d="M310.28,177.52a1,1,0,0,1-.11-2l24-2.56a1,1,0,0,1,.21,2l-24,2.57Z" fill="#f2f2f3"/></g><g id="Group_5725" data-name="Group 5725"><path id="Path_13315" data-name="Path 13315" d="M303.1,186.91a1,1,0,0,1-.1-2l24-2.56a1,1,0,1,1,.21,2h0l-24,2.57Z" fill="#f2f2f3"/></g><g id="Group_5726" data-name="Group 5726"><path id="Path_13316" data-name="Path 13316" d="M313.29,196.3a1,1,0,0,1-1-1,1,1,0,0,1,.89-1l24-2.56a1,1,0,0,1,.21,2l-24,2.57Z" fill="#f2f2f3"/></g><g id="Group_5727" data-name="Group 5727"><path id="Path_13317" data-name="Path 13317" d="M297.26,235.77a1,1,0,0,1-.19-2l23.73-4.59a1,1,0,0,1,.38,2h0l-23.73,4.59Z" fill="#f2f2f3"/></g><g id="Group_5728" data-name="Group 5728"><path id="Path_13318" data-name="Path 13318" d="M307.12,242.69a1,1,0,0,1-.19-2l23.73-4.58a1,1,0,1,1,.38,2l-23.73,4.59Z" fill="#f2f2f3"/></g><g id="Group_5729" data-name="Group 5729"><path id="Path_13319" data-name="Path 13319" d="M289.13,170a1,1,0,0,1-.11-2l83.87-9a1,1,0,0,1,.26,2h0l-83.87,9Z" fill="#3d53a4"/></g></g></g></g></svg>