<svg xmlns="http://www.w3.org/2000/svg" viewBox="0 0 452 270.7"><g id="Layer_2" data-name="Layer 2"><g id="Layer_1-2" data-name="Layer 1"><g id="Group_5498" data-name="Group 5498"><g id="Group_5436" data-name="Group 5436"><circle id="Ellipse_521" data-name="Ellipse 521" cx="370.49" cy="149.74" r="10.95" fill="#f2f2f3"/><path id="Path_12991" data-name="Path 12991" d="M370.49,161.69a11.95,11.95,0,1,1,11.95-11.95A11.95,11.95,0,0,1,370.49,161.69Zm0-21.89a9.95,9.95,0,1,0,9.95,9.94A9.95,9.95,0,0,0,370.49,139.8Z" fill="#3d53a4"/></g><g id="Group_5438" data-name="Group 5438"><g id="Group_5437" data-name="Group 5437"><rect id="Rectangle_5438" data-name="Rectangle 5438" x="6.23" y="46.92" width="12.19" height="132.23" fill="#f2f2f3"/><path id="Path_12992" data-name="Path 12992" d="M18.41,180.15H6.23a1,1,0,0,1-1-1V46.92a1,1,0,0,1,1-1H18.41a1,1,0,0,1,1,1V179.15A1,1,0,0,1,18.41,180.15Zm-11.18-2H17.41V47.92H7.23Z" fill="#3d53a4"/></g></g><g id="Group_5440" data-name="Group 5440"><g id="Group_5439" data-name="Group 5439"><rect id="Rectangle_5439" data-name="Rectangle 5439" x="144.46" y="46.28" width="12.19" height="132.23" fill="#f2f2f3"/><path id="Path_12993" data-name="Path 12993" d="M156.65,179.51H144.46a1,1,0,0,1-1-1V46.28a1,1,0,0,1,1-1h12.19a1,1,0,0,1,1,1V178.51a1,1,0,0,1-1,1Zm-11.19-2h10.19V47.28H145.46Z" fill="#3d53a4"/></g></g><g id="Group_5442" data-name="Group 5442"><g id="Group_5441" data-name="Group 5441"><rect id="Rectangle_5440" data-name="Rectangle 5440" x="295.38" y="46.92" width="12.19" height="132.23" fill="#f2f2f3"/><path id="Path_12994" data-name="Path 12994" d="M307.56,180.15H295.37a1,1,0,0,1-1-1V46.92a1,1,0,0,1,1-1h12.19a1,1,0,0,1,1,1V179.15A1,1,0,0,1,307.56,180.15Zm-11.19-2h10.19V47.92H296.37Z" fill="#3d53a4"/></g></g><g id="Group_5444" data-name="Group 5444"><g id="Group_5443" data-name="Group 5443"><rect id="Rectangle_5441" data-name="Rectangle 5441" x="433.43" y="46.92" width="12.19" height="132.23" fill="#f2f2f3"/><path id="Path_12995" data-name="Path 12995" d="M445.62,180.15H433.43a1,1,0,0,1-1-1V46.92a1,1,0,0,1,1-1h12.19a1,1,0,0,1,1,1V179.15A1,1,0,0,1,445.62,180.15Zm-11.19-2h10.19V47.92H434.43Z" fill="#3d53a4"/></g></g><g id="Group_5445" data-name="Group 5445"><rect id="Rectangle_5442" data-name="Rectangle 5442" x="173.47" y="63.29" width="106.22" height="166.14" rx="5" fill="#f2f2f3"/><path id="Path_12996" data-name="Path 12996" d="M274.69,230.43H178.47a6,6,0,0,1-6-6V68.28a6,6,0,0,1,6-6h96.22a6,6,0,0,1,6,6V224.42A6,6,0,0,1,274.69,230.43ZM178.47,64.28a4,4,0,0,0-4,4V224.42a4,4,0,0,0,4,4h96.22a4,4,0,0,0,4-4V68.28a4,4,0,0,0-4-4Z" fill="#3d53a4"/></g><g id="Group_5446" data-name="Group 5446"><path id="Path_12997" data-name="Path 12997" d="M47.79,193.21v-16.7c0-16.07,12.47-29.09,27.85-29.09h12.8c15.39,0,27.86,13,27.86,29.09v16.7Z" fill="#f2f2f3"/><path id="Path_12998" data-name="Path 12998" d="M116.29,194.21H47.79a1,1,0,0,1-1-1v-16.7c0-16.59,12.94-30.09,28.85-30.09h12.8c15.91,0,28.86,13.5,28.86,30.09v16.7a1,1,0,0,1-1,1Zm-67.5-2h66.5v-15.7c0-15.49-12-28.09-26.85-28.09H75.64c-14.81,0-26.86,12.6-26.86,28.09Z" fill="#3d53a4"/></g><g id="Group_5447" data-name="Group 5447"><path id="Path_12999" data-name="Path 12999" d="M279.69,231.43v15.35a3.77,3.77,0,0,1-3.77,3.78H177.25a3.78,3.78,0,0,1-3.78-3.78V231.42a2,2,0,0,1,2-2H277.69a2,2,0,0,1,2,2Z" fill="#f2f2f3"/><path id="Path_13000" data-name="Path 13000" d="M275.92,251.56H177.25a4.79,4.79,0,0,1-4.78-4.77V231.43a3,3,0,0,1,3-3H277.69a3,3,0,0,1,3,3v15.35A4.77,4.77,0,0,1,275.92,251.56ZM175.47,230.43a1,1,0,0,0-1,1v15.35a2.77,2.77,0,0,0,2.78,2.77h98.67a2.77,2.77,0,0,0,2.77-2.77V231.42a1,1,0,0,0-1-1Z" fill="#3d53a4"/></g><g id="Group_5450" data-name="Group 5450"><g id="Group_5448" data-name="Group 5448"><path id="Path_13001" data-name="Path 13001" d="M203.55,250.56v9.3a9.84,9.84,0,0,1-9.84,9.84h0a9.85,9.85,0,0,1-9.84-9.84h0v-9.3Z" fill="#f2f2f3"/><path id="Path_13002" data-name="Path 13002" d="M193.71,270.7a10.85,10.85,0,0,1-10.84-10.84v-9.3a1,1,0,0,1,1-1h19.68a1,1,0,0,1,1,1v9.3A10.84,10.84,0,0,1,193.71,270.7Zm-8.84-19.14v8.3a8.84,8.84,0,0,0,17.68.06v-8.36Z" fill="#3d53a4"/></g><g id="Group_5449" data-name="Group 5449"><path id="Path_13003" data-name="Path 13003" d="M269.29,250.56v9.3a9.84,9.84,0,0,1-9.84,9.84h0a9.85,9.85,0,0,1-9.84-9.84h0v-9.3Z" fill="#f2f2f3"/><path id="Path_13004" data-name="Path 13004" d="M259.45,270.7a10.85,10.85,0,0,1-10.84-10.84v-9.3a1,1,0,0,1,1-1h19.68a1,1,0,0,1,1,1v9.3A10.84,10.84,0,0,1,259.45,270.7Zm-8.84-19.14v8.3a8.84,8.84,0,0,0,17.68,0h0v-8.3Z" fill="#3d53a4"/></g></g><g id="Group_5451" data-name="Group 5451"><path id="Path_13005" data-name="Path 13005" d="M127.33,232.61v14.11a3.77,3.77,0,0,1-3.77,3.77H39.32a3.77,3.77,0,0,1-3.78-3.77V232.61a3,3,0,0,1,3-3h85.79A3,3,0,0,1,127.33,232.61Z" fill="#f2f2f3"/><path id="Path_13006" data-name="Path 13006" d="M123.56,251.49H39.32a4.76,4.76,0,0,1-4.77-4.77V232.61a4,4,0,0,1,4-4h85.78a4,4,0,0,1,4,4v14.11A4.77,4.77,0,0,1,123.56,251.49Zm-85-20.88a2,2,0,0,0-2,2v14.11a2.77,2.77,0,0,0,2.77,2.77h84.24a2.77,2.77,0,0,0,2.77-2.77V232.61a2,2,0,0,0-2-2Z" fill="#3d53a4"/></g><g id="Group_5452" data-name="Group 5452"><path id="Path_13007" data-name="Path 13007" d="M123.56,229.61H39.32a3.77,3.77,0,0,1-3.77-3.77V211.5a3.76,3.76,0,0,1,.7-2.2l9.27-14.52a3.76,3.76,0,0,1,3.06-1.57h66.2a3.75,3.75,0,0,1,3.12,1.65l8.78,14.46a3.76,3.76,0,0,1,.65,2.13v14.39a3.77,3.77,0,0,1-3.77,3.77Z" fill="#f2f2f3"/><path id="Path_13008" data-name="Path 13008" d="M123.56,230.61H39.32a4.77,4.77,0,0,1-4.77-4.77V211.5a4.69,4.69,0,0,1,.9-2.78l9.23-14.47a4.77,4.77,0,0,1,3.91-2h66.2a4.77,4.77,0,0,1,3.94,2.08l8.8,14.51a4.66,4.66,0,0,1,.8,2.65v14.39A4.77,4.77,0,0,1,123.56,230.61Zm-75-36.4a2.77,2.77,0,0,0-2.26,1.16L37.1,209.84a2.76,2.76,0,0,0-.55,1.66v14.34a2.78,2.78,0,0,0,2.77,2.78h84.24a2.78,2.78,0,0,0,2.77-2.78V211.45a2.79,2.79,0,0,0-.48-1.56l-8.8-14.51a2.75,2.75,0,0,0-2.26-1.17Z" fill="#3d53a4"/></g><g id="Group_5455" data-name="Group 5455"><g id="Group_5453" data-name="Group 5453"><path id="Path_13009" data-name="Path 13009" d="M66,250.49v9.12a9.83,9.83,0,0,1-9.84,9.84h0a9.84,9.84,0,0,1-9.84-9.84h0v-9.12Z" fill="#f2f2f3"/><path id="Path_13010" data-name="Path 13010" d="M56.11,270.45a10.85,10.85,0,0,1-10.84-10.84v-9.12a1,1,0,0,1,1-1H66a1,1,0,0,1,1,1v9.12A10.84,10.84,0,0,1,56.11,270.45Zm-8.84-19v8.12a8.84,8.84,0,0,0,17.68.2v-8.32Z" fill="#3d53a4"/></g><g id="Group_5454" data-name="Group 5454"><path id="Path_13011" data-name="Path 13011" d="M116.6,250.49v9.12a9.83,9.83,0,0,1-9.84,9.84h0a9.83,9.83,0,0,1-9.84-9.84h0v-9.12Z" fill="#f2f2f3"/><path id="Path_13012" data-name="Path 13012" d="M106.76,270.45a10.84,10.84,0,0,1-10.84-10.84v-9.12a1,1,0,0,1,1-1H116.6a1,1,0,0,1,1,1v9.12A10.85,10.85,0,0,1,106.76,270.45Zm-8.84-19v8.12a8.84,8.84,0,0,0,17.68,0v-8.12Z" fill="#3d53a4"/></g></g><g id="Group_5456" data-name="Group 5456"><rect id="Rectangle_5443" data-name="Rectangle 5443" x="1.4" y="1" width="449.6" height="45.28" rx="5" fill="#f2f2f3"/><path id="Path_13013" data-name="Path 13013" d="M446,47.28H6.4a6,6,0,0,1-6-6V6a6,6,0,0,1,6-6H446a6,6,0,0,1,6,6V41.28A6,6,0,0,1,446,47.28ZM6.4,2a4,4,0,0,0-4,4V41.28a4,4,0,0,0,4,4H446a4,4,0,0,0,4-4V6a4,4,0,0,0-4-4Z" fill="#3d53a4"/></g><g id="Group_5457" data-name="Group 5457"><rect id="Rectangle_5444" data-name="Rectangle 5444" x="1" y="179.15" width="22.64" height="90.55" rx="5" fill="#f2f2f3"/><path id="Path_13014" data-name="Path 13014" d="M18.64,270.7H6a6,6,0,0,1-6-6V184.15a6,6,0,0,1,6-6H18.64a6,6,0,0,1,6,6V264.7A6,6,0,0,1,18.64,270.7ZM6,180.15a4,4,0,0,0-4,4V264.7a4,4,0,0,0,4,4H18.64a4,4,0,0,0,4-4V184.15a4,4,0,0,0-4-4Z" fill="#3d53a4"/></g><g id="Group_5458" data-name="Group 5458"><rect id="Rectangle_5445" data-name="Rectangle 5445" x="428.21" y="179.15" width="22.64" height="90.55" rx="5" fill="#f2f2f3"/><path id="Path_13015" data-name="Path 13015" d="M445.84,270.7H433.21a6,6,0,0,1-6-6V184.15a6,6,0,0,1,6-6h12.63a6,6,0,0,1,6,6V264.7A6,6,0,0,1,445.84,270.7Zm-12.63-90.55a4,4,0,0,0-4,4V264.7a4,4,0,0,0,4,4h12.63a4,4,0,0,0,4-4V184.15a4,4,0,0,0-4-4Z" fill="#3d53a4"/></g><g id="Group_5459" data-name="Group 5459"><rect id="Rectangle_5446" data-name="Rectangle 5446" x="139.23" y="179.15" width="22.64" height="90.55" rx="5" fill="#f2f2f3"/><path id="Path_13016" data-name="Path 13016" d="M156.87,270.7H144.23a6,6,0,0,1-6-6V184.15a6,6,0,0,1,6-6h12.64a6,6,0,0,1,6,6V264.7A6,6,0,0,1,156.87,270.7Zm-12.64-90.55a4,4,0,0,0-4,4V264.7a4,4,0,0,0,4,4h12.64a4,4,0,0,0,4-4V184.15a4,4,0,0,0-4-4Z" fill="#3d53a4"/></g><g id="Group_5460" data-name="Group 5460"><rect id="Rectangle_5447" data-name="Rectangle 5447" x="290.15" y="179.15" width="22.64" height="90.55" rx="5" fill="#f2f2f3"/><path id="Path_13017" data-name="Path 13017" d="M307.79,270.7H295.15a6,6,0,0,1-6-6V184.15a6,6,0,0,1,6-6h12.64a6,6,0,0,1,6,6V264.7A6,6,0,0,1,307.79,270.7Zm-12.64-90.55a4,4,0,0,0-4,4V264.7a4,4,0,0,0,4,4h12.64a4,4,0,0,0,4-4V184.15a4,4,0,0,0-4-4Z" fill="#3d53a4"/></g><g id="Group_5461" data-name="Group 5461"><path id="Path_13018" data-name="Path 13018" d="M226.58,220.14a1,1,0,0,1-1-1V70.55a1,1,0,1,1,2,0V219.14A1,1,0,0,1,226.58,220.14Z" fill="#3d53a4"/></g><g id="Group_5462" data-name="Group 5462"><path id="Path_13019" data-name="Path 13019" d="M354.49,187H341.82a4.22,4.22,0,0,1-4.23-4.22h0a4.23,4.23,0,0,1,4.23-4.23h12.67Z" fill="#f2f2f3"/><path id="Path_13020" data-name="Path 13020" d="M354.49,188H341.82a5.23,5.23,0,1,1,0-10.45h12.67a1,1,0,0,1,1,1V187A1,1,0,0,1,354.49,188Zm-12.67-8.45a3.23,3.23,0,1,0,0,6.45h11.67v-6.45Z" fill="#3d53a4"/></g><g id="Group_5463" data-name="Group 5463"><path id="Path_13021" data-name="Path 13021" d="M386.67,187h12.67a4.22,4.22,0,0,0,4.23-4.22h0a4.23,4.23,0,0,0-4.23-4.23H386.67Z" fill="#f2f2f3"/><path id="Path_13022" data-name="Path 13022" d="M399.34,188H386.67a1,1,0,0,1-1-1v-8.45a1,1,0,0,1,1-1h12.67a5.23,5.23,0,1,1,0,10.45Zm-11.67-2h11.67a3.23,3.23,0,1,0,0-6.45H387.67Z" fill="#3d53a4"/></g><g id="Group_5464" data-name="Group 5464"><path id="Path_13023" data-name="Path 13023" d="M355.61,212.57c-.72-1.6-1.12-14-1.12-15.83V171.69c0-7.77,7.16-14.08,16-14.08h0c8.83,0,16,6.31,16,14.08v25.05c0,1.7-.34,14-1,15.47Z" fill="#f2f2f3"/><path id="Path_13024" data-name="Path 13024" d="M355.61,213.57a1,1,0,0,1-.92-.59c-.92-2.06-1.2-16.1-1.2-16.24V171.69c0-8.31,7.62-15.08,17-15.08s17,6.77,17,15.08v25.05c0,.13-.25,13.93-1.05,15.86a1,1,0,0,1-.91.61l-29.92.36Zm14.88-55c-8.27,0-15,5.87-15,13.08v25.05c0,2.33.38,12.09.88,14.82l28.37-.34c.43-2.69.75-12.2.75-14.48V171.69C385.49,164.48,378.76,158.61,370.49,158.61Z" fill="#3d53a4"/></g><g id="Group_5465" data-name="Group 5465"><path id="Path_13025" data-name="Path 13025" d="M380.33,250.56v9.3a9.84,9.84,0,0,1-9.84,9.84h0a9.84,9.84,0,0,1-9.84-9.84h0v-9.3Z" fill="#f2f2f3"/><path id="Path_13026" data-name="Path 13026" d="M370.49,270.7a10.85,10.85,0,0,1-10.84-10.84v-9.3a1,1,0,0,1,1-1h19.68a1,1,0,0,1,1,1v9.3A10.85,10.85,0,0,1,370.49,270.7Zm-8.84-19.14v8.3a8.84,8.84,0,1,0,17.68.19v-8.49Z" fill="#3d53a4"/></g><g id="Group_5466" data-name="Group 5466"><path id="Path_13027" data-name="Path 13027" d="M181,88.05a1,1,0,0,1-1-1V74.61a4.78,4.78,0,0,1,4.77-4.78,1,1,0,0,1,0,2A2.78,2.78,0,0,0,182,74.61V87.05A1,1,0,0,1,181,88.05Z" fill="#3d53a4"/></g><g id="Group_5467" data-name="Group 5467"><path id="Path_13028" data-name="Path 13028" d="M268.24,223.53a1,1,0,0,1,0-2,2.79,2.79,0,0,0,2.78-2.78V206.31a1,1,0,0,1,2,0v12.44A4.79,4.79,0,0,1,268.24,223.53Z" fill="#3d53a4"/></g><g id="Group_5468" data-name="Group 5468"><path id="Path_13029" data-name="Path 13029" d="M54.05,176.85h-.11a1,1,0,0,1-.88-1.1C54.28,164.7,58.94,158.4,69.13,154a1,1,0,0,1,.8,1.84C60.37,160,56.2,165.61,55.05,176A1,1,0,0,1,54.05,176.85Z" fill="#3d53a4"/></g><g id="Group_5469" data-name="Group 5469"><path id="Path_13030" data-name="Path 13030" d="M379,198.9a1,1,0,0,1-1-1V184.32a1,1,0,0,1,2,0V197.9A1,1,0,0,1,379,198.9Z" fill="#3d53a4"/></g><g id="Group_5470" data-name="Group 5470"><path id="Path_13031" data-name="Path 13031" d="M362,186.86a1,1,0,0,1-1-1V172.28a1,1,0,1,1,2,0v13.58A1,1,0,0,1,362,186.86Z" fill="#3d53a4"/></g><g id="Group_5471" data-name="Group 5471"><path id="Path_13032" data-name="Path 13032" d="M53.5,211.89c-5.12-.35-6.88-.88-10.47,1.61-2.9,2-5.56,3.8-1.23,10.61,1.48,2.34,6.85,1.49,10.82,1.55,7.48.13,10.18-2.66,7.64-9.24C58.12,210.84,57.64,212.18,53.5,211.89Z" fill="#7867ae"/></g><g id="Group_5472" data-name="Group 5472"><path id="Path_13033" data-name="Path 13033" d="M115.07,212.51c-5.06-.34-7.44-.85-11,1.49-2.88,1.89-5,4.13-.59,9.93,1.6,2.1,6.78,1.39,10.72,1.45,8.14.11,8.86-2.42,7.6-8.69C120.69,211.21,119.17,212.77,115.07,212.51Z" fill="#7867ae"/></g><g id="Group_5473" data-name="Group 5473"><path id="Path_13034" data-name="Path 13034" d="M190.67,233.23c5-.33,7.69-1.24,11.19,1.12,2.83,1.91,3.75,5.34.22,10.42-1.51,2.17-6.68,1.48-10.56,1.46-5.59,0-9.48-2.35-8.23-8.68C184.38,232,186.63,233.51,190.67,233.23Z" fill="#7867ae"/></g><g id="Group_5474" data-name="Group 5474"><path id="Path_13035" data-name="Path 13035" d="M263.05,246.53c-5,.34-8.38.21-11.89-2.2-2.84-2-3.62-4.89-.09-10.1,1.51-2.23,7.77-1.22,11.65-1.21,5.6,0,8.43,2.12,7.18,8.62C268.8,247.32,267.09,246.25,263.05,246.53Z" fill="#7867ae"/></g><g id="Group_5475" data-name="Group 5475"><path id="Rectangle_5448" data-name="Rectangle 5448" d="M370.49,203.64h0a16,16,0,0,1,16,16v27.15a3.77,3.77,0,0,1-3.77,3.77H358.26a3.77,3.77,0,0,1-3.77-3.77V219.64A16,16,0,0,1,370.49,203.64Z" fill="#f2f2f3"/><path id="Path_13036" data-name="Path 13036" d="M382.72,251.56H358.26a4.77,4.77,0,0,1-4.77-4.77V219.64a17,17,0,0,1,34,0v27.14A4.79,4.79,0,0,1,382.72,251.56Zm-12.23-46.92a15,15,0,0,0-15,15v27.14a2.77,2.77,0,0,0,2.77,2.77h24.46a2.77,2.77,0,0,0,2.77-2.77V219.64A15,15,0,0,0,370.49,204.64Z" fill="#3d53a4"/></g><g id="Group_5476" data-name="Group 5476"><path id="Path_13037" data-name="Path 13037" d="M377.28,244.17H363.7a1,1,0,0,1,0-2h13.58a1,1,0,0,1,0,2Z" fill="#3d53a4"/></g><g id="Group_5477" data-name="Group 5477"><path id="Path_13038" data-name="Path 13038" d="M105.13,8.68c-21.59-5.46-49.52-3.63-66,.64-7.55,2-10.36,20.91-2.14,27.29,6.88,5.34,49.8,2.64,67,3C128.38,40.15,121.68,12.86,105.13,8.68Z" fill="#5bc4bb"/></g><g id="Group_5478" data-name="Group 5478"><path id="Path_13039" data-name="Path 13039" d="M254.92,9.68c-21.59-5.46-49.52-3.63-66,.64-7.56,2-10.36,20.92-2.15,27.29,6.88,5.34,49.8,2.64,67,3C278.17,41.15,271.47,13.86,254.92,9.68Z" fill="#5bc4bb"/></g><g id="Group_5479" data-name="Group 5479"><path id="Path_13040" data-name="Path 13040" d="M401.52,8.68c-21.58-5.46-49.51-3.63-66,.64-7.55,2-10.36,20.91-2.14,27.29,6.88,5.34,49.8,2.64,67,3C424.77,40.15,418.07,12.86,401.52,8.68Z" fill="#5bc4bb"/></g><g id="Group_5482" data-name="Group 5482"><g id="Group_5480" data-name="Group 5480"><path id="Path_13041" data-name="Path 13041" d="M77.27,20.41a1,1,0,0,1-1-1V7.74a1,1,0,1,1,2,0V19.41A1,1,0,0,1,77.27,20.41Z" fill="#3d53a4"/></g><g id="Group_5481" data-name="Group 5481"><path id="Path_13042" data-name="Path 13042" d="M77.27,30.44l-7.46-6.13a1,1,0,0,1,1.27-1.54l6.19,5.08,6.19-5.08a1,1,0,0,1,1.4.13,1,1,0,0,1-.13,1.41Z" fill="#3d53a4"/></g></g><g id="Group_5483" data-name="Group 5483"><path id="Path_13043" data-name="Path 13043" d="M117.81,37.64H36.72a1,1,0,0,1,0-2h81.09a1,1,0,0,1,0,2Z" fill="#3d53a4"/></g><g id="Group_5486" data-name="Group 5486"><g id="Group_5484" data-name="Group 5484"><path id="Path_13044" data-name="Path 13044" d="M225.8,20.41a1,1,0,0,1-1-1V7.74a1,1,0,0,1,2,0V19.41A1,1,0,0,1,225.8,20.41Z" fill="#3d53a4"/></g><g id="Group_5485" data-name="Group 5485"><path id="Path_13045" data-name="Path 13045" d="M225.8,30.44l-7.46-6.13a1,1,0,1,1,1.27-1.54l6.19,5.08L232,22.77a1,1,0,0,1,1.4.17,1,1,0,0,1-.13,1.37Z" fill="#3d53a4"/></g></g><g id="Group_5487" data-name="Group 5487"><path id="Path_13046" data-name="Path 13046" d="M266.34,37.64H185.25a1,1,0,0,1,0-2h81.09a1,1,0,0,1,0,2Z" fill="#3d53a4"/></g><g id="Group_5490" data-name="Group 5490"><g id="Group_5488" data-name="Group 5488"><path id="Path_13047" data-name="Path 13047" d="M375.84,20.31a1,1,0,0,1-1-1V7.64a1,1,0,1,1,2,0V19.31A1,1,0,0,1,375.84,20.31Z" fill="#3d53a4"/></g><g id="Group_5489" data-name="Group 5489"><path id="Path_13048" data-name="Path 13048" d="M375.84,30.34l-7.46-6.13a1,1,0,1,1,1.27-1.55l6.19,5.09L382,22.66a1,1,0,0,1,1.31,1.52l0,0Z" fill="#3d53a4"/></g></g><g id="Group_5491" data-name="Group 5491"><path id="Path_13049" data-name="Path 13049" d="M416.38,37.54H335.29a1,1,0,0,1,0-2h81.09a1,1,0,0,1,0,2Z" fill="#3d53a4"/></g><g id="Group_5492" data-name="Group 5492"><path id="Path_13050" data-name="Path 13050" d="M196.84,244.79h-6.26a5.23,5.23,0,0,1,0-10.45h6.26a5.23,5.23,0,1,1,.14,10.45Zm-6.26-8.45a3.23,3.23,0,0,0,0,6.45h6.26a3.23,3.23,0,0,0,.11-6.45h-6.37Z" fill="#f2f2f3"/></g><g id="Group_5493" data-name="Group 5493"><path id="Path_13051" data-name="Path 13051" d="M262.58,244.79h-6.26a5.23,5.23,0,0,1-.14-10.45h6.4a5.23,5.23,0,0,1,0,10.45Zm-6.26-8.45a3.23,3.23,0,0,0-.11,6.45h6.37a3.23,3.23,0,0,0,0-6.45Z" fill="#f2f2f3"/></g><g id="Group_5494" data-name="Group 5494"><path id="Path_13052" data-name="Path 13052" d="M53.27,224H47a5.23,5.23,0,1,1,0-10.45h6.29a5.23,5.23,0,0,1,0,10.45ZM47,215.55A3.23,3.23,0,1,0,47,222h6.28a3.23,3.23,0,0,0,0-6.45H47Z" fill="#f2f2f3"/></g><g id="Group_5495" data-name="Group 5495"><path id="Path_13053" data-name="Path 13053" d="M115.11,224h-6.26a5.23,5.23,0,0,1,0-10.45h6.29a5.23,5.23,0,0,1,0,10.45Zm-6.26-8.45a3.23,3.23,0,0,0,0,6.45h6.28a3.23,3.23,0,0,0,0-6.45Z" fill="#f2f2f3"/></g><g id="Group_5496" data-name="Group 5496"><path id="Path_13054" data-name="Path 13054" d="M373.75,224.24c-5.33.37-7.51.43-11.25-2.2-3-2.13-5.3-4-1.54-9.66,1.61-2.42,7.15-2.75,11.29-2.73,6,0,10.81.26,9.48,7.32C380.56,223.16,378.05,223.94,373.75,224.24Z" fill="#7867ae"/></g><g id="Group_5497" data-name="Group 5497"><path id="Path_13055" data-name="Path 13055" d="M373.62,222h-6.26a5.23,5.23,0,1,1,0-10.45h6.26a5.23,5.23,0,0,1,0,10.45Zm-6.26-8.45a3.23,3.23,0,0,0,0,6.45h6.26a3.23,3.23,0,0,0,0-6.45Z" fill="#f2f2f3"/></g></g></g></g></svg>