<svg xmlns="http://www.w3.org/2000/svg" viewBox="0 0 458.55 301.9"><g id="Layer_2" data-name="Layer 2"><g id="Layer_1-2" data-name="Layer 1"><g id="Group_5435" data-name="Group 5435"><g id="Group_5383" data-name="Group 5383"><path id="Path_12947" data-name="Path 12947" d="M307.39,240.53c-19.94-10.54-37.82-5.39-80-2.84-31,1.88-76.62,5.62-103.22,3.3-59.77-5.21-79.43,5.95-102.09,9.58-24.73,4-29.35,28-10.53,35.34,16.79,6.54,40.37,4.4,63.34,7.26,42,5.25,45.8-5.15,86.61-20.36,19.48-7.27,48.23-17.5,56.14-18.28C234.49,252.88,328,251.42,307.39,240.53Z" fill="#5bc4bb"/></g><g id="Group_5384" data-name="Group 5384"><path id="Path_12948" data-name="Path 12948" d="M156.37,301.76c28.38,1.62,40.8-11.89,73.17-11.89,27.87,0,65.13,7.6,90.17,6.94,52.6-1.39,104.54-6.94,116.58-10.57C457.1,280,460.18,268,456.61,261.47c-3.4-6.21-9.38-10.52-32.87-15.85C407.18,241.85,396,234.16,360,236c-16.5.86-25.66,12.89-49.66,15.12-42.37,4-84.14,9.64-99.29,13.2-27,6.33-62.87,18-74.65,25.18C128.15,294.55,133.11,300.44,156.37,301.76Z" fill="#7867ae"/></g><g id="Group_5386" data-name="Group 5386"><g id="Group_5385" data-name="Group 5385"><path id="Path_12949" data-name="Path 12949" d="M56.09,182.4v84.42a3,3,0,0,1-3,3h-6.2a3,3,0,0,1-3-3V182.4Z" fill="#f2f2f3"/><path id="Path_12950" data-name="Path 12950" d="M53.09,270.82h-6.2a4,4,0,0,1-4-4V182.4a1,1,0,0,1,1-1h12.2a1,1,0,0,1,1,1v84.42A4,4,0,0,1,53.09,270.82Zm-8.2-87.42v83.42a2,2,0,0,0,2,2h6.2a2,2,0,0,0,2-2V183.4Z" fill="#3d53a4"/></g></g><g id="Group_5388" data-name="Group 5388"><g id="Group_5387" data-name="Group 5387"><path id="Path_12951" data-name="Path 12951" d="M151.25,86.37V266.82a3,3,0,0,1-3,3h-6.2a3,3,0,0,1-3-3V86.37Z" fill="#f2f2f3"/><path id="Path_12952" data-name="Path 12952" d="M148.25,270.82h-6.2a4,4,0,0,1-4-4V86.37a1,1,0,0,1,1-1h12.2a1,1,0,0,1,1,1V266.82A4,4,0,0,1,148.25,270.82Zm-8.2-183.45V266.82a2,2,0,0,0,2,2h6.2a2,2,0,0,0,2-2V87.37Z" fill="#3d53a4"/></g></g><g id="Group_5390" data-name="Group 5390"><g id="Group_5389" data-name="Group 5389"><path id="Path_12953" data-name="Path 12953" d="M227.4,266.82V147.31h12.2V266.82a3,3,0,0,1-3,3h-6.2a3,3,0,0,1-3-3Z" fill="#f2f2f3"/><path id="Path_12954" data-name="Path 12954" d="M236.6,270.82h-6.2a4,4,0,0,1-4-4V147.31a1,1,0,0,1,1-1h12.2a1,1,0,0,1,1,1V266.82A4,4,0,0,1,236.6,270.82Zm-8.2-122.51V266.82a2,2,0,0,0,2,2h6.2a2,2,0,0,0,2-2V148.31Z" fill="#3d53a4"/></g></g><g id="Group_5392" data-name="Group 5392"><g id="Group_5391" data-name="Group 5391"><path id="Path_12955" data-name="Path 12955" d="M335.08,132.56V266.82a3,3,0,0,1-3,3h-6.2a3,3,0,0,1-3-3V132.56Z" fill="#f2f2f3"/><path id="Path_12956" data-name="Path 12956" d="M332.08,270.82h-6.2a4,4,0,0,1-4-4V132.56a1,1,0,0,1,1-1h12.2a1,1,0,0,1,1,1V266.82A4,4,0,0,1,332.08,270.82Zm-8.2-137.27V266.82a2,2,0,0,0,2,2h6.2a2,2,0,0,0,2-2V133.56Z" fill="#3d53a4"/></g></g><g id="Group_5394" data-name="Group 5394"><g id="Group_5393" data-name="Group 5393"><path id="Path_12957" data-name="Path 12957" d="M422,69.71V266.82a3,3,0,0,1-3,3h-6.2a3,3,0,0,1-3-3V69.71Z" fill="#f2f2f3"/><path id="Path_12958" data-name="Path 12958" d="M419,270.82h-6.2a4,4,0,0,1-4-4V69.71a1,1,0,0,1,1-1H422a1,1,0,0,1,1,1V266.82A4,4,0,0,1,419,270.82ZM410.8,70.71V266.82a2,2,0,0,0,2,2H419a2,2,0,0,0,2-2V70.71Z" fill="#3d53a4"/></g></g><g id="Group_5395" data-name="Group 5395"><circle id="Ellipse_519" data-name="Ellipse 519" cx="49.99" cy="140.87" r="41.54" fill="#f2f2f3"/><path id="Path_12959" data-name="Path 12959" d="M50,183.4a42.54,42.54,0,1,1,42.53-42.54h0A42.57,42.57,0,0,1,50,183.4Zm0-83.07a40.54,40.54,0,1,0,40.53,40.54h0A40.58,40.58,0,0,0,50,100.33Z" fill="#3d53a4"/></g><g id="Group_5396" data-name="Group 5396"><circle id="Ellipse_520" data-name="Ellipse 520" cx="328.98" cy="91.02" r="41.54" fill="#f2f2f3"/><path id="Path_12960" data-name="Path 12960" d="M329,133.56A42.54,42.54,0,1,1,371.51,91h0A42.58,42.58,0,0,1,329,133.56Zm0-83.08A40.54,40.54,0,1,0,369.51,91h0A40.58,40.58,0,0,0,329,50.48Z" fill="#3d53a4"/></g><g id="Group_5397" data-name="Group 5397"><rect id="Rectangle_5436" data-name="Rectangle 5436" x="197.5" y="75.3" width="72.01" height="72.01" rx="5" fill="#f2f2f3"/><path id="Path_12961" data-name="Path 12961" d="M264.5,148.31h-62a6,6,0,0,1-6-6v-62a6,6,0,0,1,6-6h62a6,6,0,0,1,6,6v62A6,6,0,0,1,264.5,148.31Zm-62-72a4,4,0,0,0-4,4v62a4,4,0,0,0,4,4h62a4,4,0,0,0,4-4v-62a4,4,0,0,0-4-4Z" fill="#3d53a4"/></g><g id="Group_5398" data-name="Group 5398"><rect id="Rectangle_5437" data-name="Rectangle 5437" x="112.31" y="13.04" width="65.67" height="65.67" rx="5" transform="translate(10.08 116.07) rotate(-45)" fill="#f2f2f3"/><path id="Path_12962" data-name="Path 12962" d="M145.14,91.23a6,6,0,0,1-4.24-1.75h0L101.54,50.11a6,6,0,0,1,0-8.48L140.9,2.27a6,6,0,0,1,8.49,0l39.36,39.36a6,6,0,0,1,0,8.48L149.39,89.48A6,6,0,0,1,145.14,91.23Zm-2.82-3.17a4,4,0,0,0,5.65,0L187.34,48.7a4,4,0,0,0,0-5.66L148,3.68a4,4,0,0,0-5.65,0h0L103,43a4,4,0,0,0,0,5.66h0Z" fill="#3d53a4"/></g><g id="Group_5399" data-name="Group 5399"><path id="Path_12963" data-name="Path 12963" d="M420.23,72,456.88,8.5A5,5,0,0,0,452.55,1h-73.3a5,5,0,0,0-4.33,7.5L411.57,72a5,5,0,0,0,8.66,0Z" fill="#f2f2f3"/><path id="Path_12964" data-name="Path 12964" d="M415.9,75.48a5.94,5.94,0,0,1-5.2-3L374.05,9a6,6,0,0,1,2.2-8.2,6.07,6.07,0,0,1,3-.8h73.3a6,6,0,0,1,6,6,5.86,5.86,0,0,1-.8,3L421.1,72.48h0A5.94,5.94,0,0,1,415.9,75.48ZM379.25,2a4,4,0,0,0-3.46,6l36.65,63.48a4,4,0,0,0,5.46,1.46,3.93,3.93,0,0,0,1.46-1.46L456,8a4,4,0,0,0-3.46-6Z" fill="#3d53a4"/></g><g id="Group_5400" data-name="Group 5400"><path id="Path_12965" data-name="Path 12965" d="M415.9,65.37a1,1,0,0,1-.87-.5L386.39,15.26a1,1,0,1,1,1.73-1l28.65,49.61a1,1,0,0,1-.37,1.37A1,1,0,0,1,415.9,65.37Z" fill="#3d53a4"/></g><g id="Group_5401" data-name="Group 5401"><path id="Path_12966" data-name="Path 12966" d="M419.72,58.77a1,1,0,0,1-1-1,1,1,0,0,1,.13-.5L447.26,8.06a1,1,0,1,1,1.73,1h0L420.58,58.27A1,1,0,0,1,419.72,58.77Z" fill="#3d53a4"/></g><g id="Group_5402" data-name="Group 5402"><path id="Path_12967" data-name="Path 12967" d="M440.24,9.56H383.67a1,1,0,1,1,0-2h56.57a1,1,0,0,1,0,2Z" fill="#3d53a4"/></g><g id="Group_5405" data-name="Group 5405"><g id="Group_5403" data-name="Group 5403"><path id="Path_12968" data-name="Path 12968" d="M304.38,87.37l-.16,0a1,1,0,0,1-.82-1.15,25.9,25.9,0,0,1,23.16-21.57,1,1,0,1,1,.23,2h0a23.89,23.89,0,0,0-21.38,19.9A1,1,0,0,1,304.38,87.37Z" fill="#3d53a4"/></g><g id="Group_5404" data-name="Group 5404"><path id="Path_12969" data-name="Path 12969" d="M329,73.54a1,1,0,0,1-.77-1.64l5.24-6.38-5.24-6.38a1,1,0,0,1,1.54-1.27L336,65.52l-6.29,7.65A1,1,0,0,1,329,73.54Z" fill="#3d53a4"/></g></g><g id="Group_5408" data-name="Group 5408"><g id="Group_5406" data-name="Group 5406"><path id="Path_12970" data-name="Path 12970" d="M329.08,116.36a26.1,26.1,0,0,1-21.77-11.66,1,1,0,0,1,.29-1.39,1,1,0,0,1,1.38.29,24.08,24.08,0,0,0,28.4,9.26,1,1,0,0,1,.71,1.87A25.43,25.43,0,0,1,329.08,116.36Z" fill="#3d53a4"/></g><g id="Group_5407" data-name="Group 5407"><path id="Path_12971" data-name="Path 12971" d="M301.31,107.42a1,1,0,0,1-.35-.06,1,1,0,0,1-.58-1.29l3.48-9.27,9.77,1.62a1,1,0,1,1-.27,2h-.06L305.15,99l-2.9,7.74A1,1,0,0,1,301.31,107.42Z" fill="#3d53a4"/></g></g><g id="Group_5411" data-name="Group 5411"><g id="Group_5409" data-name="Group 5409"><path id="Path_12972" data-name="Path 12972" d="M351.17,102.81a.83.83,0,0,1-.46-.11,1,1,0,0,1-.43-1.34h0A24,24,0,0,0,344.18,72a1,1,0,0,1,1.23-1.58l0,0a26,26,0,0,1,6.61,31.85A1,1,0,0,1,351.17,102.81Z" fill="#3d53a4"/></g><g id="Group_5410" data-name="Group 5410"><path id="Path_12973" data-name="Path 12973" d="M347,109l-3.48-9.27a1,1,0,0,1,1.86-.74l0,0,2.9,7.73,8.14-1.35a1,1,0,0,1,1.16.82,1,1,0,0,1-.83,1.15Z" fill="#3d53a4"/></g></g><g id="Group_5414" data-name="Group 5414"><g id="Group_5412" data-name="Group 5412"><path id="Path_12974" data-name="Path 12974" d="M233.5,129.32a1,1,0,0,1-1-1V103.66a1,1,0,1,1,2,0v24.66a1,1,0,0,1-1,1Z" fill="#3d53a4"/></g><g id="Group_5413" data-name="Group 5413"><path id="Path_12975" data-name="Path 12975" d="M244.4,104.09a1,1,0,0,1-.64-.23L233.5,95.42l-10.26,8.44a1,1,0,1,1-1.31-1.51l0,0,11.53-9.49L245,102.32a1,1,0,0,1-.63,1.77Z" fill="#3d53a4"/></g></g><g id="Group_5421" data-name="Group 5421"><g id="Group_5417" data-name="Group 5417"><g id="Group_5415" data-name="Group 5415"><path id="Path_12976" data-name="Path 12976" d="M133.92,60.28a1,1,0,0,1-1-1V39.87a1,1,0,0,1,2,0V59.28A1,1,0,0,1,133.92,60.28Z" fill="#3d53a4"/></g><g id="Group_5416" data-name="Group 5416"><path id="Path_12977" data-name="Path 12977" d="M142.49,40.42a1,1,0,0,1-.63-.22l-7.94-6.53L126,40.2a1,1,0,0,1-1.31-1.52l0,0,9.21-7.57,9.21,7.57a1,1,0,0,1,.14,1.41,1,1,0,0,1-.78.36Z" fill="#3d53a4"/></g></g><g id="Group_5420" data-name="Group 5420"><g id="Group_5418" data-name="Group 5418"><path id="Path_12978" data-name="Path 12978" d="M156.37,52.87a1,1,0,0,1-1-1V32.46a1,1,0,0,1,2,0V51.87A1,1,0,0,1,156.37,52.87Z" fill="#3d53a4"/></g><g id="Group_5419" data-name="Group 5419"><path id="Path_12979" data-name="Path 12979" d="M156.37,60.66l-9.21-7.57a1,1,0,1,1,1.23-1.57l0,0,7.94,6.53,7.94-6.53a1,1,0,1,1,1.27,1.54Z" fill="#3d53a4"/></g></g></g><g id="Group_5426" data-name="Group 5426"><g id="Group_5422" data-name="Group 5422"><path id="Path_12980" data-name="Path 12980" d="M39.52,150.39H27.09a6,6,0,0,1-6-6v-4a6,6,0,0,1,6-6H39.52a6,6,0,0,1,6,6v4A6,6,0,0,1,39.52,150.39Zm-12.43-14a4,4,0,0,0-4,4v4a4,4,0,0,0,4,4H39.52a4,4,0,0,0,4-4v-4a4,4,0,0,0-4-4Z" fill="#3d53a4"/></g><g id="Group_5423" data-name="Group 5423"><path id="Path_12981" data-name="Path 12981" d="M41.54,136.42a1,1,0,0,1-1-.72l-1.42-4.8a2.78,2.78,0,0,0-2.66-2H30.11a2.79,2.79,0,0,0-2.66,2L26,135.7a1,1,0,1,1-1.91-.57l1.41-4.8a4.81,4.81,0,0,1,4.58-3.42H36.5a4.81,4.81,0,0,1,4.58,3.42l1.42,4.8a1,1,0,0,1-.68,1.24A.87.87,0,0,1,41.54,136.42Z" fill="#3d53a4"/></g><g id="Group_5424" data-name="Group 5424"><path id="Path_12982" data-name="Path 12982" d="M27.1,154.82a1,1,0,0,1-1-1v-4.29a1,1,0,0,1,2,0v4.29A1,1,0,0,1,27.1,154.82Z" fill="#3d53a4"/></g><g id="Group_5425" data-name="Group 5425"><path id="Path_12983" data-name="Path 12983" d="M40,154.82a1,1,0,0,1-1-1v-4.29a1,1,0,0,1,2,0v4.29A1,1,0,0,1,40,154.82Z" fill="#3d53a4"/></g></g><g id="Group_5427" data-name="Group 5427"><path id="Path_12984" data-name="Path 12984" d="M205.05,100.08a1,1,0,0,1-1-1V86.63a4.78,4.78,0,0,1,4.77-4.78,1,1,0,0,1,0,2,2.78,2.78,0,0,0-2.77,2.78V99.08A1,1,0,0,1,205.05,100.08Z" fill="#3d53a4"/></g><g id="Group_5428" data-name="Group 5428"><path id="Path_12985" data-name="Path 12985" d="M258.17,140.76a1,1,0,0,1,0-2A2.79,2.79,0,0,0,261,136V123.53a1,1,0,0,1,2,0V136A4.79,4.79,0,0,1,258.17,140.76Z" fill="#3d53a4"/></g><g id="Group_5429" data-name="Group 5429"><path id="Path_12986" data-name="Path 12986" d="M71.69,125.31c-8.19-.82-12.61-3-18.35,2.7-4.65,4.63-6.15,13-.37,25.3,2.47,5.27,11,3.6,17.32,3.56,9.18-.07,15.56-5.72,13.51-21.08C82,122.33,78.31,126,71.69,125.31Z" fill="#5bc4bb"/></g><g id="Group_5434" data-name="Group 5434"><g id="Group_5430" data-name="Group 5430"><path id="Path_12987" data-name="Path 12987" d="M72.88,150.39H60.46a6,6,0,0,1-6-6v-4a6,6,0,0,1,6-6H72.88a6,6,0,0,1,6,6v4A6,6,0,0,1,72.88,150.39Zm-12.42-14a4,4,0,0,0-4,4v4a4,4,0,0,0,4,4H72.88a4,4,0,0,0,4-4v-4a4,4,0,0,0-4-4Z" fill="#f2f2f3"/></g><g id="Group_5431" data-name="Group 5431"><path id="Path_12988" data-name="Path 12988" d="M74.9,136.42a1,1,0,0,1-1-.72l-1.42-4.8a2.78,2.78,0,0,0-2.66-2H63.47a2.79,2.79,0,0,0-2.66,2l-1.42,4.8a1,1,0,1,1-1.91-.57l1.41-4.8a4.81,4.81,0,0,1,4.58-3.42h6.39a4.81,4.81,0,0,1,4.58,3.42l1.42,4.8a1,1,0,0,1-.68,1.24A.87.87,0,0,1,74.9,136.42Z" fill="#f2f2f3"/></g><g id="Group_5432" data-name="Group 5432"><path id="Path_12989" data-name="Path 12989" d="M60.46,154.82a1,1,0,0,1-1-1v-4.29a1,1,0,0,1,2,0v4.29A1,1,0,0,1,60.46,154.82Z" fill="#f2f2f3"/></g><g id="Group_5433" data-name="Group 5433"><path id="Path_12990" data-name="Path 12990" d="M73.39,154.82a1,1,0,0,1-1-1v-4.29a1,1,0,0,1,2,0v4.29A1,1,0,0,1,73.39,154.82Z" fill="#f2f2f3"/></g></g></g></g></g></svg>