<svg xmlns="http://www.w3.org/2000/svg" viewBox="0 0 494.94 317.64"><g id="Layer_2" data-name="Layer 2"><g id="Layer_1-2" data-name="Layer 1"><g id="Group_5344" data-name="Group 5344"><g id="Group_5272" data-name="Group 5272"><path id="Path_12824" data-name="Path 12824" d="M117.34,30.12c-18.29,16.61-39,20-48,21.33-27.45,4.09-35.11-5.8-45.89,3.28S8.6,83.93,12.16,99c7.42,31.43,47.1,39.73,57.18,41.84,23.22,4.86,28-3,52.94-2.46,46.36,1,51,28.76,91.06,31.17,42.47,2.55,45.38-28.14,88.94-24.61,32.29,2.62,35.8,19.9,76.94,24.61,18.31,2.1,41.56,4.76,64.94-9,29.47-17.37,55.11-58.46,45.88-82-8.49-21.69-44.33-23-65.64-23.79-37.91-1.39-42,12.39-68.47,7.38C325.34,56.33,325,36.85,282.51,18.63,264.63,11,249.18,8.6,218.28,3.87,153.51-6,138.66,5.69,133.57,10.43,125.87,17.6,127.5,20.89,117.34,30.12Z" fill="#5bc4bb"/></g><g id="Group_5273" data-name="Group 5273"><path id="Path_12825" data-name="Path 12825" d="M462.39,249.26c-11.8-3.18-54.21-2.58-106.14,2.52-22.44,2.2-58.79,7.24-100.95,9.8a485.08,485.08,0,0,1-78.76-1c-59.78-5.2-76.11-21.13-118.23-11.28-9,2.12-56.74,3.3-58.25,19-2,20.4,49.16,45.69,100,48.61,121.71,7,157.78-37.22,257.22-10.59,6.86,1.84,33.82,5.26,76.46-2.82,36.21-6.86,55.11-20.57,58.2-25.37C502,262.39,485.41,255.47,462.39,249.26Z" fill="#7867ae"/></g><g id="Group_5274" data-name="Group 5274"><path id="Path_12826" data-name="Path 12826" d="M125,33V14.62a6.41,6.41,0,0,1,6.4-6.41h0a6.41,6.41,0,0,1,6.41,6.41h0V33Z" fill="#f2f2f3"/><path id="Path_12827" data-name="Path 12827" d="M138.77,34H124V14.62a7.41,7.41,0,1,1,14.81,0ZM126,32h10.81V14.62a5.41,5.41,0,1,0-10.81,0h0Z" fill="#3d53a4"/></g><g id="Group_5275" data-name="Group 5275"><path id="Path_12828" data-name="Path 12828" d="M137.78,205.4v78.32a3,3,0,0,1-3,3H128a3,3,0,0,1-3-3V205.4Z" fill="#f2f2f3"/><path id="Path_12829" data-name="Path 12829" d="M134.77,287.72H128a4,4,0,0,1-4-4V204.4h14.81v79.32A4,4,0,0,1,134.77,287.72ZM126,206.4v77.32a2,2,0,0,0,2,2h6.81a2,2,0,0,0,2-2V206.4Z" fill="#3d53a4"/></g><g id="Group_5276" data-name="Group 5276"><path id="Path_12830" data-name="Path 12830" d="M339.82,205.4v78.32a3,3,0,0,1-3,3H330a3,3,0,0,1-3-3V205.4Z" fill="#f2f2f3"/><path id="Path_12831" data-name="Path 12831" d="M336.82,287.72H330a4,4,0,0,1-4-4V204.4h14.82v79.32A4,4,0,0,1,336.82,287.72ZM328,206.4v77.32a2,2,0,0,0,2,2h6.82a2,2,0,0,0,2-2V206.4Z" fill="#3d53a4"/></g><g id="Group_5277" data-name="Group 5277"><path id="Path_12832" data-name="Path 12832" d="M125,152.63v18.65h12.82V152.63" fill="#f2f2f3"/><path id="Path_12833" data-name="Path 12833" d="M138.77,172.28H124V152.63a1,1,0,0,1,2,0v17.65h10.81V152.63a1,1,0,0,1,2,0Z" fill="#3d53a4"/></g><g id="Group_5278" data-name="Group 5278"><path id="Path_12834" data-name="Path 12834" d="M327,33V14.62a6.41,6.41,0,0,1,6.41-6.41h0a6.41,6.41,0,0,1,6.41,6.41V33Z" fill="#f2f2f3"/><path id="Path_12835" data-name="Path 12835" d="M340.82,34H326V14.62a7.41,7.41,0,1,1,14.82,0ZM328,32h10.82V14.62a5.41,5.41,0,1,0-10.82,0h0Z" fill="#3d53a4"/></g><g id="Group_5279" data-name="Group 5279"><path id="Path_12836" data-name="Path 12836" d="M327,152.63v18.65h12.82V152.63" fill="#f2f2f3"/><path id="Path_12837" data-name="Path 12837" d="M340.82,172.28H326V152.63a1,1,0,0,1,2,0v17.65h10.82V152.63a1,1,0,0,1,2,0Z" fill="#3d53a4"/></g><g id="Group_5280" data-name="Group 5280"><rect id="Rectangle_5424" data-name="Rectangle 5424" x="101.71" y="33.04" width="260.5" height="119.59" rx="5" fill="#f2f2f3"/><path id="Path_12838" data-name="Path 12838" d="M357.21,153.63H106.71a6,6,0,0,1-6-6V38a6,6,0,0,1,6-6h250.5a6,6,0,0,1,6,6V147.63A6,6,0,0,1,357.21,153.63ZM106.71,34a4,4,0,0,0-4,4V147.63a4,4,0,0,0,4,4h250.5a4,4,0,0,0,4-4V38a4,4,0,0,0-4-4Z" fill="#3d53a4"/></g><g id="Group_5281" data-name="Group 5281"><path id="Path_12839" data-name="Path 12839" d="M340.55,205.4H105.68a4,4,0,0,1-4-4h0V175.25a4,4,0,0,1,4-4H340.55a2.38,2.38,0,0,1,1.51.55l17.66,14.62a2.39,2.39,0,0,1,.46,3.34,2.45,2.45,0,0,1-.46.45l-17.66,14.62A2.39,2.39,0,0,1,340.55,205.4Z" fill="#f2f2f3"/><path id="Path_12840" data-name="Path 12840" d="M340.55,206.4H105.68a5,5,0,0,1-5-5V175.25a5,5,0,0,1,5-5H340.55a3.4,3.4,0,0,1,2.15.78l17.66,14.62a3.39,3.39,0,0,1,.59,4.74,3.25,3.25,0,0,1-.62.61l-17.63,14.6A3.34,3.34,0,0,1,340.55,206.4ZM105.68,172.28a3,3,0,0,0-3,3v26.19a3,3,0,0,0,3,3H340.55a1.42,1.42,0,0,0,.88-.32l17.66-14.62a1.39,1.39,0,0,0,0-2.22L341.43,172.6a1.36,1.36,0,0,0-.88-.32Z" fill="#3d53a4"/></g><g id="Group_5284" data-name="Group 5284"><g id="Group_5282" data-name="Group 5282"><path id="Path_12841" data-name="Path 12841" d="M42,287.72a1,1,0,0,1-1-1,75.62,75.62,0,0,0-.85-8.1c-.1-.76-.21-1.51-.3-2.25a56.06,56.06,0,0,0-2.52-11.31,40.68,40.68,0,0,0-7.18-12.75,1,1,0,0,1,.12-1.41,1,1,0,0,1,1.41.11v0a42.7,42.7,0,0,1,7.53,13.37,58.66,58.66,0,0,1,2.61,11.71c.1.73.2,1.48.31,2.23a79.57,79.57,0,0,1,.86,8.31,1,1,0,0,1-1,1h0Z" fill="#3d53a4"/></g><g id="Group_5283" data-name="Group 5283"><path id="Path_12842" data-name="Path 12842" d="M24.36,248.64a4.49,4.49,0,1,1,4.49-4.49h0A4.51,4.51,0,0,1,24.36,248.64Zm0-7a2.49,2.49,0,1,0,2.49,2.49h0a2.51,2.51,0,0,0-2.49-2.49Z" fill="#3d53a4"/></g></g><g id="Group_5287" data-name="Group 5287"><g id="Group_5285" data-name="Group 5285"><path id="Path_12843" data-name="Path 12843" d="M73.94,287.72h0a1,1,0,0,1-1-1h0a83.08,83.08,0,0,1,.87-8.33c.1-.75.21-1.48.3-2.21a58.66,58.66,0,0,1,2.61-11.71,43.1,43.1,0,0,1,7.53-13.37,1,1,0,0,1,1.56,1.26l0,0a41,41,0,0,0-7.18,12.74,57,57,0,0,0-2.51,11.32l-.3,2.22a79,79,0,0,0-.86,8.12A1,1,0,0,1,73.94,287.72Z" fill="#3d53a4"/></g><g id="Group_5286" data-name="Group 5286"><path id="Path_12844" data-name="Path 12844" d="M91.6,248.64a4.49,4.49,0,1,1,4.49-4.49h0A4.5,4.5,0,0,1,91.6,248.64Zm0-7a2.49,2.49,0,1,0,2.49,2.49h0a2.5,2.5,0,0,0-2.49-2.49Z" fill="#3d53a4"/></g></g><g id="Group_5288" data-name="Group 5288"><path id="Path_12845" data-name="Path 12845" d="M130.86,193.15a4.49,4.49,0,1,1,4.49-4.49h0A4.5,4.5,0,0,1,130.86,193.15Zm0-7a2.49,2.49,0,1,0,2.49,2.49h0A2.5,2.5,0,0,0,130.86,186.17Z" fill="#3d53a4"/></g><g id="Group_5289" data-name="Group 5289"><path id="Path_12846" data-name="Path 12846" d="M332.33,193.15a4.49,4.49,0,1,1,4.49-4.49h0A4.5,4.5,0,0,1,332.33,193.15Zm0-7a2.49,2.49,0,1,0,2.49,2.49h0A2.5,2.5,0,0,0,332.33,186.17Z" fill="#3d53a4"/></g><g id="Group_5290" data-name="Group 5290"><path id="Path_12847" data-name="Path 12847" d="M130.86,139.83a4.49,4.49,0,1,1,4.49-4.49h0A4.5,4.5,0,0,1,130.86,139.83Zm0-7a2.49,2.49,0,1,0,2.49,2.49h0a2.49,2.49,0,0,0-2.49-2.49Z" fill="#3d53a4"/></g><g id="Group_5291" data-name="Group 5291"><path id="Path_12848" data-name="Path 12848" d="M332.33,139.83a4.49,4.49,0,1,1,4.49-4.49h0A4.5,4.5,0,0,1,332.33,139.83Zm0-7a2.49,2.49,0,1,0,2.49,2.49h0a2.49,2.49,0,0,0-2.49-2.49Z" fill="#3d53a4"/></g><g id="Group_5292" data-name="Group 5292"><path id="Path_12849" data-name="Path 12849" d="M130.86,53.14a4.49,4.49,0,1,1,4.49-4.49h0A4.5,4.5,0,0,1,130.86,53.14Zm0-7a2.5,2.5,0,1,0,2.49,2.5h0A2.5,2.5,0,0,0,130.86,46.16Z" fill="#3d53a4"/></g><g id="Group_5293" data-name="Group 5293"><path id="Path_12850" data-name="Path 12850" d="M332.33,53.14a4.49,4.49,0,1,1,4.49-4.49h0A4.5,4.5,0,0,1,332.33,53.14Zm0-7a2.5,2.5,0,1,0,2.49,2.5h0A2.5,2.5,0,0,0,332.33,46.16Z" fill="#3d53a4"/></g><g id="Group_5296" data-name="Group 5296"><g id="Group_5294" data-name="Group 5294"><path id="Path_12851" data-name="Path 12851" d="M20.88,213.31a4.34,4.34,0,1,1,.29,0Zm0-7h-.16a2.49,2.49,0,1,0,2.64,2.33h0A2.5,2.5,0,0,0,20.89,206.33Z" fill="#3d53a4"/></g><g id="Group_5295" data-name="Group 5295"><path id="Path_12852" data-name="Path 12852" d="M48.39,287.72h-.17a1,1,0,0,1-.82-1.15h0a117.12,117.12,0,0,0,.33-34.77c-.23-1.7-.5-3.4-.82-5-3.08-15.81-9.15-26.54-18.06-31.9a1,1,0,1,1,1-1.75l.07,0c9.41,5.66,15.8,16.84,19,33.22.33,1.68.61,3.42.85,5.17a119.74,119.74,0,0,1-.34,35.36A1,1,0,0,1,48.39,287.72Z" fill="#3d53a4"/></g></g><g id="Group_5299" data-name="Group 5299"><g id="Group_5297" data-name="Group 5297"><path id="Path_12853" data-name="Path 12853" d="M61.61,229.13a4.49,4.49,0,1,1,4.47-4.92h0a4.49,4.49,0,0,1-4,4.9A3.1,3.1,0,0,1,61.61,229.13Zm0-7h-.24a2.5,2.5,0,1,0,.24,0Z" fill="#3d53a4"/></g><g id="Group_5298" data-name="Group 5298"><path id="Path_12854" data-name="Path 12854" d="M57.36,287.72a1,1,0,0,1-1-1,1.64,1.64,0,0,1,0-.23c.27-1.07.5-2.13.75-3.2.34-1.5.69-3.05,1.09-4.57a135.33,135.33,0,0,0,4.4-23.36,96.49,96.49,0,0,0-.7-20.87,1,1,0,0,1,2-.28v0a97.92,97.92,0,0,1,.71,21.3,138.11,138.11,0,0,1-4.45,23.7c-.4,1.49-.74,3-1.08,4.5-.24,1.08-.48,2.15-.75,3.23A1,1,0,0,1,57.36,287.72Z" fill="#3d53a4"/></g></g><g id="Group_5302" data-name="Group 5302"><g id="Group_5300" data-name="Group 5300"><path id="Path_12855" data-name="Path 12855" d="M86.09,229.71a4.48,4.48,0,1,1,.44,0Zm0-7h-.24A2.49,2.49,0,1,0,88.58,225h0a2.5,2.5,0,0,0-2.48-2.25Z" fill="#3d53a4"/></g><g id="Group_5301" data-name="Group 5301"><path id="Path_12856" data-name="Path 12856" d="M67.18,287.72h0a1,1,0,0,1-1-1c0-6.83.26-14.85,1.87-22.49,2.28-10.82,7.43-20.74,12.42-30.33a1,1,0,0,1,1.78.93c-4.93,9.47-10,19.26-12.24,29.82-1.57,7.45-1.8,15.34-1.83,22.08A1,1,0,0,1,67.18,287.72Z" fill="#3d53a4"/></g></g><g id="Group_5305" data-name="Group 5305"><g id="Group_5303" data-name="Group 5303"><path id="Path_12857" data-name="Path 12857" d="M395.78,287.73a1,1,0,0,1-1-.92,107.66,107.66,0,0,0-2.72-18.29,38.09,38.09,0,0,0-8.2-16.07,1,1,0,1,1,1.48-1.34h0c3.91,4.3,6.82,10,8.66,16.9a108.51,108.51,0,0,1,2.77,18.63,1,1,0,0,1-.91,1.08Z" fill="#3d53a4"/></g><g id="Group_5304" data-name="Group 5304"><path id="Path_12858" data-name="Path 12858" d="M378.11,248.64a4.49,4.49,0,1,1,4.49-4.49h0A4.51,4.51,0,0,1,378.11,248.64Zm0-7a2.49,2.49,0,1,0,2.49,2.49h0a2.5,2.5,0,0,0-2.49-2.49Z" fill="#3d53a4"/></g></g><g id="Group_5308" data-name="Group 5308"><g id="Group_5306" data-name="Group 5306"><path id="Path_12859" data-name="Path 12859" d="M423.71,287.73h-.08a1,1,0,0,1-.91-1.08,112.69,112.69,0,0,1,2.48-17.44,45.28,45.28,0,0,1,8.8-18.13,1,1,0,0,1,1.4-.15,1,1,0,0,1,.15,1.41h0a43.53,43.53,0,0,0-8.4,17.33,111.23,111.23,0,0,0-2.43,17.14A1,1,0,0,1,423.71,287.73Z" fill="#3d53a4"/></g><g id="Group_5307" data-name="Group 5307"><path id="Path_12860" data-name="Path 12860" d="M441.36,248.64a4.49,4.49,0,1,1,4.49-4.49h0A4.51,4.51,0,0,1,441.36,248.64Zm0-7a2.49,2.49,0,1,0,2.49,2.49h0a2.51,2.51,0,0,0-2.49-2.49Z" fill="#3d53a4"/></g></g><g id="Group_5311" data-name="Group 5311"><g id="Group_5309" data-name="Group 5309"><path id="Path_12861" data-name="Path 12861" d="M438.75,213.31h-.28a4.5,4.5,0,0,1-4.2-4.76h0a4.48,4.48,0,1,1,4.48,4.77Zm-2.49-4.64a2.47,2.47,0,1,0,2.64-2.33,2.5,2.5,0,0,0-2.64,2.33Z" fill="#3d53a4"/></g><g id="Group_5310" data-name="Group 5310"><path id="Path_12862" data-name="Path 12862" d="M411.24,287.72a1,1,0,0,1-1-.83,119.74,119.74,0,0,1-.33-35.36c.23-1.75.51-3.49.84-5.17,3.19-16.38,9.58-27.56,19-33.22a1,1,0,1,1,1.1,1.67l-.07,0c-8.91,5.36-15,16.09-18.06,31.9-.32,1.64-.6,3.34-.82,5a117.46,117.46,0,0,0,.33,34.77,1,1,0,0,1-.82,1.15h-.17Z" fill="#3d53a4"/></g></g><g id="Group_5314" data-name="Group 5314"><g id="Group_5312" data-name="Group 5312"><path id="Path_12863" data-name="Path 12863" d="M400.47,229.13a3.24,3.24,0,0,1-.44,0,4.5,4.5,0,0,1-4-4.9h0a4.49,4.49,0,1,1,4.48,4.92ZM398,224.4a2.5,2.5,0,1,0,2.77-2.23h-.05A2.5,2.5,0,0,0,398,224.4Z" fill="#3d53a4"/></g><g id="Group_5313" data-name="Group 5313"><path id="Path_12864" data-name="Path 12864" d="M404.72,287.72a1,1,0,0,1-1-.76c-.26-1.07-.5-2.14-.75-3.21-.33-1.48-.68-3-1.08-4.52a138.11,138.11,0,0,1-4.45-23.7,97.92,97.92,0,0,1,.71-21.3,1,1,0,0,1,1.09-.9,1,1,0,0,1,.9,1.1s0,0,0,.06a96.49,96.49,0,0,0-.7,20.87,135.33,135.33,0,0,0,4.4,23.36c.41,1.53.76,3.09,1.1,4.59.24,1.06.48,2.12.74,3.18a1,1,0,0,1-.74,1.2Z" fill="#3d53a4"/></g></g><g id="Group_5317" data-name="Group 5317"><g id="Group_5315" data-name="Group 5315"><path id="Path_12865" data-name="Path 12865" d="M435.84,229.71a4.48,4.48,0,1,1,.44,0Zm0-7h-.24a2.49,2.49,0,1,0,2.72,2.24h0a2.5,2.5,0,0,0-2.48-2.25Z" fill="#3d53a4"/></g><g id="Group_5316" data-name="Group 5316"><path id="Path_12866" data-name="Path 12866" d="M416.93,287.72h0a1,1,0,0,1-1-1c0-7.54.44-17.48,3.44-27.5,2.76-9.24,7-18,10.85-25.32a1,1,0,1,1,1.77.93c-3.77,7.25-8,15.89-10.71,25-2.92,9.77-3.33,19.52-3.35,26.93A1,1,0,0,1,416.93,287.72Z" fill="#3d53a4"/></g></g><g id="Group_5318" data-name="Group 5318"><path id="Path_12867" data-name="Path 12867" d="M155.4,194.61V182.83h4a4.83,4.83,0,0,1,3,.8,2.78,2.78,0,0,1,1,2.38,2.52,2.52,0,0,1-.43,1.46,2.86,2.86,0,0,1-1.28,1,2.62,2.62,0,0,1,1.48,1,2.91,2.91,0,0,1,.52,1.72,3.14,3.14,0,0,1-1.07,2.55,4.67,4.67,0,0,1-3,.89Zm2-6.82h2a2.31,2.31,0,0,0,1.5-.44,1.75,1.75,0,0,0,0-2.48,2.42,2.42,0,0,0-1.55-.39h-2Zm0,1.5V193h2.27a2.24,2.24,0,0,0,1.51-.48,1.89,1.89,0,0,0,0-2.66,1.85,1.85,0,0,0-1.31-.54Z" fill="#3d53a4"/><path id="Path_12868" data-name="Path 12868" d="M173.24,189.35H168.4V193h5.66v1.63h-7.7V182.83H174v1.65h-5.6v3.25h4.84Z" fill="#3d53a4"/><path id="Path_12869" data-name="Path 12869" d="M185.22,190.77a4.28,4.28,0,0,1-1.4,2.95,4.73,4.73,0,0,1-3.23,1.05,4.62,4.62,0,0,1-2.48-.66,4.41,4.41,0,0,1-1.65-1.9,6.75,6.75,0,0,1-.61-2.86v-1.1a6.91,6.91,0,0,1,.59-2.94,4.43,4.43,0,0,1,1.7-2,4.68,4.68,0,0,1,2.55-.69,4.57,4.57,0,0,1,3.14,1.06,4.42,4.42,0,0,1,1.39,3h-2a2.93,2.93,0,0,0-.74-1.83,2.47,2.47,0,0,0-1.75-.57,2.41,2.41,0,0,0-2.05,1,4.9,4.9,0,0,0-.73,2.86v1a5.23,5.23,0,0,0,.68,2.92,2.29,2.29,0,0,0,2,1,2.66,2.66,0,0,0,1.82-.55,2.88,2.88,0,0,0,.77-1.8Z" fill="#3d53a4"/><path id="Path_12870" data-name="Path 12870" d="M197,189a7.4,7.4,0,0,1-.6,3,4.52,4.52,0,0,1-1.72,2,5,5,0,0,1-5.11,0,4.58,4.58,0,0,1-1.73-2,6.86,6.86,0,0,1-.62-3v-.66a7.26,7.26,0,0,1,.61-3.05,4.62,4.62,0,0,1,1.72-2,5,5,0,0,1,5.11,0,4.49,4.49,0,0,1,1.72,2,7.29,7.29,0,0,1,.62,3Zm-2-.62a5.11,5.11,0,0,0-.74-3,2.63,2.63,0,0,0-3.66-.52,2.84,2.84,0,0,0-.52.52,5,5,0,0,0-.76,2.94V189a5.08,5.08,0,0,0,.75,3,2.45,2.45,0,0,0,2.1,1.06,2.43,2.43,0,0,0,2.1-1,5.27,5.27,0,0,0,.73-3Z" fill="#3d53a4"/><path id="Path_12871" data-name="Path 12871" d="M202.14,182.83l3.4,9,3.39-9h2.65v11.78h-2v-3.88l.2-5.2-3.48,9.08h-1.47l-3.47-9.08.2,5.19v3.89h-2V182.83Z" fill="#3d53a4"/><path id="Path_12872" data-name="Path 12872" d="M221.38,189.35h-4.84V193h5.66v1.63h-7.71V182.83h7.65v1.65h-5.6v3.25h4.84Z" fill="#3d53a4"/><path id="Path_12873" data-name="Path 12873" d="M235.59,191.87H231l-1,2.74h-2.13l4.45-11.78h1.84l4.46,11.78h-2.14Zm-4-1.65H235l-1.71-4.89Z" fill="#3d53a4"/><path id="Path_12874" data-name="Path 12874" d="M249.3,192.05l3-9.22h2.25l-4.24,11.78h-2l-4.23-11.78h2.24Z" fill="#3d53a4"/><path id="Path_12875" data-name="Path 12875" d="M263.26,189.35h-4.84V193h5.65v1.63h-7.7V182.83H264v1.65h-5.6v3.25h4.84Z" fill="#3d53a4"/><path id="Path_12876" data-name="Path 12876" d="M275.58,194.61h-2l-5.26-8.36v8.36h-2V182.83h2l5.27,8.39v-8.39h2Z" fill="#3d53a4"/><path id="Path_12877" data-name="Path 12877" d="M278.5,194.61V182.83H282a5.36,5.36,0,0,1,2.77.7,4.7,4.7,0,0,1,1.88,2,6.35,6.35,0,0,1,.66,2.93V189a6.29,6.29,0,0,1-.67,2.95,4.61,4.61,0,0,1-1.9,2,5.77,5.77,0,0,1-2.82.69Zm2.05-10.13V193h1.34a3.09,3.09,0,0,0,2.47-1,4.43,4.43,0,0,0,.88-2.89v-.66a4.52,4.52,0,0,0-.84-2.93,2.93,2.93,0,0,0-2.42-1Z" fill="#3d53a4"/><path id="Path_12878" data-name="Path 12878" d="M299.23,189a7.09,7.09,0,0,1-.6,3,4.43,4.43,0,0,1-1.71,2,5,5,0,0,1-5.11,0,4.66,4.66,0,0,1-1.74-2,7,7,0,0,1-.61-3v-.66a7,7,0,0,1,.61-3.05,4.62,4.62,0,0,1,1.72-2,5,5,0,0,1,5.11,0,4.55,4.55,0,0,1,1.72,2,7.13,7.13,0,0,1,.61,3Zm-2-.62a5.26,5.26,0,0,0-.74-3,2.63,2.63,0,0,0-3.66-.52,2.84,2.84,0,0,0-.52.52,5.09,5.09,0,0,0-.77,2.94V189a5.16,5.16,0,0,0,.76,3,2.44,2.44,0,0,0,2.1,1.06,2.4,2.4,0,0,0,2.09-1,5.2,5.2,0,0,0,.74-3Z" fill="#3d53a4"/><path id="Path_12879" data-name="Path 12879" d="M306.1,190.08h-2.28v4.53h-2.05V182.83h4.15a4.78,4.78,0,0,1,3.14.91,3.19,3.19,0,0,1,1.11,2.65,3.25,3.25,0,0,1-.57,2A3.58,3.58,0,0,1,308,189.6l2.65,4.91v.1h-2.19Zm-2.28-1.65h2.1a2.37,2.37,0,0,0,1.62-.52,1.84,1.84,0,0,0,.58-1.43,1.94,1.94,0,0,0-.54-1.47,2.22,2.22,0,0,0-1.6-.53h-2.17Z" fill="#3d53a4"/></g><g id="Group_5327" data-name="Group 5327"><g id="Group_5319" data-name="Group 5319"><path id="Path_12880" data-name="Path 12880" d="M167.93,79.18V69.82h6.39v9.36h8.37v5.17h-8.37v16.5c0,1.16.54,1.74,1.63,1.74h5.86v5.23h-8.07a5.6,5.6,0,0,1-4.21-1.63,5.79,5.79,0,0,1-1.6-4.3V84.35H160.2V79.18Z" fill="#3d53a4"/></g><g id="Group_5320" data-name="Group 5320"><path id="Path_12881" data-name="Path 12881" d="M187.57,85.51a13.38,13.38,0,0,1,5.31-5.29,15.9,15.9,0,0,1,7.7-1.86,15.73,15.73,0,0,1,7.67,1.86,13.39,13.39,0,0,1,5.29,5.29,17.59,17.59,0,0,1,0,16,13.39,13.39,0,0,1-5.29,5.29,15.73,15.73,0,0,1-7.67,1.86,15.9,15.9,0,0,1-7.7-1.86,13.26,13.26,0,0,1-5.31-5.32,17.52,17.52,0,0,1,0-15.95Zm6.82,15a8.63,8.63,0,0,0,12.2.12l.12-.12a10,10,0,0,0,2.36-7,9.9,9.9,0,0,0-2.36-7,8.67,8.67,0,0,0-12.25,0l-.07.07a11.49,11.49,0,0,0,0,13.94Z" fill="#3d53a4"/></g><g id="Group_5321" data-name="Group 5321"><path id="Path_12882" data-name="Path 12882" d="M211.37,67.51a4.42,4.42,0,0,1,3.2-1.29,4.48,4.48,0,0,1,3.23,1.23,4.23,4.23,0,0,1,1.29,3.22,4.29,4.29,0,0,1-2.29,3.89,4.7,4.7,0,0,1-2.23.56,4.45,4.45,0,0,1-2.22-.6,4.53,4.53,0,0,1-1.67-1.61,4.41,4.41,0,0,1,.7-5.4Zm1.2,5.17a2.84,2.84,0,1,0,0-4A3,3,0,0,0,212.57,72.68Z" fill="#3d53a4"/></g><g id="Group_5322" data-name="Group 5322"><path id="Path_12883" data-name="Path 12883" d="M270.94,66.22l-1.82,8.88h-1.18l.37-8.88Z" fill="#3d53a4"/></g><g id="Group_5323" data-name="Group 5323"><path id="Path_12884" data-name="Path 12884" d="M299.18,66.22l-1.82,8.88h-1.18l.37-8.88Zm4.77,0-1.81,8.88h-1.22l.37-8.88Z" fill="#3d53a4"/></g><g id="Group_5324" data-name="Group 5324"><path id="Path_12885" data-name="Path 12885" d="M227.77,79.18v4.18h.59c2.2-3.33,5.52-5,9.93-5a12.2,12.2,0,0,1,6.54,1.86,13.42,13.42,0,0,1,4.79,5.29,18.57,18.57,0,0,1,0,15.95,13.33,13.33,0,0,1-4.79,5.31,12.12,12.12,0,0,1-6.54,1.86q-6.61,0-9.82-4.88h-.58v15.69h-6.33V79.18Zm14.88,21.35a11.67,11.67,0,0,0,0-14.12,8.7,8.7,0,0,0-12.31-.07l-.1.1a11.47,11.47,0,0,0,0,14.06,8.71,8.71,0,0,0,12.31.13l.1-.1Z" fill="#3d53a4"/></g><g id="Group_5325" data-name="Group 5325"><path id="Path_12886" data-name="Path 12886" d="M263.16,107.82h-6.34V79.18h6.34Z" fill="#3d53a4"/></g><g id="Group_5326" data-name="Group 5326"><path id="Path_12887" data-name="Path 12887" d="M270.48,85.51a13.34,13.34,0,0,1,5.32-5.29,16.79,16.79,0,0,1,15.36,0,13.39,13.39,0,0,1,5.29,5.29,17.59,17.59,0,0,1,0,16,13.39,13.39,0,0,1-5.29,5.29,16.79,16.79,0,0,1-15.36,0,13.23,13.23,0,0,1-5.32-5.32,17.52,17.52,0,0,1,0-15.95Zm6.83,15a8.61,8.61,0,0,0,12.19.12l.12-.12a10,10,0,0,0,2.36-7,9.9,9.9,0,0,0-2.36-7,8.67,8.67,0,0,0-12.25,0l-.06.07a11.49,11.49,0,0,0,0,13.94Z" fill="#3d53a4"/></g></g><g id="Group_5328" data-name="Group 5328"><path id="Path_12888" data-name="Path 12888" d="M55.88,247.56a1,1,0,0,1-1-.81c-1.87-9.59-4.31-19.46-9.51-26.7A1,1,0,1,1,47,218.83l0,0c5.43,7.55,7.94,17.67,9.85,27.48a1,1,0,0,1-.79,1.18h0Z" fill="#3d53a4"/></g><g id="Group_5329" data-name="Group 5329"><path id="Path_12889" data-name="Path 12889" d="M81.36,287.72h0a1,1,0,0,1-1-1h0a77.61,77.61,0,0,1,.87-8.33c.1-.75.21-1.48.3-2.21a58.66,58.66,0,0,1,2.61-11.71,1,1,0,0,1,1.89.65,55.61,55.61,0,0,0-2.51,11.32q-.15,1.09-.3,2.22a79,79,0,0,0-.86,8.12A1,1,0,0,1,81.36,287.72Z" fill="#fff"/></g><g id="Group_5330" data-name="Group 5330"><path id="Path_12890" data-name="Path 12890" d="M391.24,223.49h-.1a1,1,0,0,1-.9-1.09h0A9.37,9.37,0,0,1,400.46,214a1,1,0,1,1-.19,2,7.37,7.37,0,0,0-8,6.64A1,1,0,0,1,391.24,223.49Z" fill="#3d53a4"/></g><g id="Group_5331" data-name="Group 5331"><path id="Path_12891" data-name="Path 12891" d="M430.27,287.73h-.09a1,1,0,0,1-.91-1.08,115.17,115.17,0,0,1,2.48-17.44,1,1,0,1,1,2,.4.14.14,0,0,1,0,.07,112.45,112.45,0,0,0-2.42,17.14A1,1,0,0,1,430.27,287.73Z" fill="#fff"/></g><g id="Group_5332" data-name="Group 5332"><path id="Path_12892" data-name="Path 12892" d="M385.71,269.26a1,1,0,0,1-1-.74c-.24-.89-.44-1.7-.63-2.46-1.09-4.35-1.69-6.74-5.1-10.49a1,1,0,1,1,1.44-1.39l0,0c3.74,4.13,4.42,6.85,5.55,11.35.19.75.39,1.56.63,2.44a1,1,0,0,1-.72,1.22,1.07,1.07,0,0,1-.25,0Z" fill="#fff"/></g><g id="Group_5333" data-name="Group 5333"><path id="Path_12893" data-name="Path 12893" d="M436.71,235.18a1,1,0,0,1-1-1,1,1,0,0,1,.95-1,8,8,0,0,0,7.2-8.73,1,1,0,0,1,.87-1.12,1,1,0,0,1,1.11.87.13.13,0,0,1,0,.06,10,10,0,0,1-9,10.91Z" fill="#3d53a4"/></g><g id="Group_5334" data-name="Group 5334"><path id="Path_12894" data-name="Path 12894" d="M88.11,80.18H24.38a1,1,0,1,1,0-2H88.11a1,1,0,1,1,0,2Z" fill="#3d53a4"/></g><g id="Group_5335" data-name="Group 5335"><path id="Path_12895" data-name="Path 12895" d="M77.35,93.83H6.87a1,1,0,0,1,0-2H77.35a1,1,0,0,1,0,2Z" fill="#3d53a4"/></g><g id="Group_5336" data-name="Group 5336"><path id="Path_12896" data-name="Path 12896" d="M85.08,108.82H33.74a1,1,0,0,1,0-2H85.08a1,1,0,0,1,0,2Z" fill="#fff"/></g><g id="Group_5337" data-name="Group 5337"><path id="Path_12897" data-name="Path 12897" d="M440.05,106.12H376.31a1,1,0,0,1,0-2h63.74a1,1,0,1,1,0,2Z" fill="#3d53a4"/></g><g id="Group_5338" data-name="Group 5338"><path id="Path_12898" data-name="Path 12898" d="M412.72,119.78H387.07a1,1,0,0,1,0-2h25.65a1,1,0,0,1,0,2Z" fill="#fff"/></g><g id="Group_5339" data-name="Group 5339"><path id="Path_12899" data-name="Path 12899" d="M456.87,119.78H431.22a1,1,0,0,1,0-2h25.65a1,1,0,0,1,0,2Z" fill="#fff"/></g><g id="Group_5340" data-name="Group 5340"><path id="Path_12900" data-name="Path 12900" d="M446.34,134.77h-67a1,1,0,0,1,0-2h67a1,1,0,0,1,0,2Z" fill="#3d53a4"/></g><g id="Group_5341" data-name="Group 5341"><path id="Path_12901" data-name="Path 12901" d="M33.74,277.28a1,1,0,0,1-1-.87,56.75,56.75,0,0,0-2.52-11.31,1,1,0,1,1,1.89-.66h0a58.66,58.66,0,0,1,2.61,11.71,1,1,0,0,1-.86,1.12Z" fill="#fff"/></g><g id="Group_5342" data-name="Group 5342"><path id="Path_12902" data-name="Path 12902" d="M350.31,145.7a1,1,0,0,1,0-2,3,3,0,0,0,3-3V127.65a1,1,0,1,1,2,0v13.08A5,5,0,0,1,350.31,145.7Z" fill="#3d53a4"/></g><g id="Group_5343" data-name="Group 5343"><path id="Path_12903" data-name="Path 12903" d="M109.64,59a1,1,0,0,1-1-1V44.93a5,5,0,0,1,5-5,1,1,0,0,1,0,2,3,3,0,0,0-3,3V58a1,1,0,0,1-1,1Z" fill="#3d53a4"/></g></g></g></g></svg>