<svg xmlns="http://www.w3.org/2000/svg" viewBox="0 0 506.64 367.85"><g id="Layer_2" data-name="Layer 2"><g id="Layer_1-2" data-name="Layer 1"><g id="Group_4111" data-name="Group 4111"><path id="Path_9126" data-name="Path 9126" d="M16.5,167.42A16.5,16.5,0,1,0,33,183.92,16.5,16.5,0,0,0,16.5,167.42Zm0,29A12.5,12.5,0,1,1,29,183.92a12.5,12.5,0,0,1-12.5,12.5Z" fill="#3d53a4"/><path id="Path_9127" data-name="Path 9127" d="M247.38,183.92a2,2,0,0,0-2-2H46.84a2,2,0,0,0,0,4H245.38A2,2,0,0,0,247.38,183.92Z" fill="#3d53a4"/><path id="Path_9128" data-name="Path 9128" d="M479.88,167.42a16.5,16.5,0,1,0,16.5,16.5A16.5,16.5,0,0,0,479.88,167.42Zm0,29a12.5,12.5,0,1,1,12.5-12.5,12.5,12.5,0,0,1-12.5,12.5Z" fill="#3d53a4"/><path id="Path_9129" data-name="Path 9129" d="M503.13,170.69a2,2,0,1,0-3.47,2,22.83,22.83,0,0,1,1.6,19.06,2,2,0,0,0,3.76,1.38h0a26.83,26.83,0,0,0-1.88-22.42Z" fill="#348f8b"/><path id="Path_9130" data-name="Path 9130" d="M450.85,181.92H302.31a2,2,0,0,0,0,4H450.85a2,2,0,0,0,0-4Z" fill="#3d53a4"/><path id="Path_9131" data-name="Path 9131" d="M95.82,75a16.89,16.89,0,1,0-.13-.1Zm-.41-20.7a12.41,12.41,0,0,1,8.16-5,13.11,13.11,0,0,1,2-.16,12.5,12.5,0,1,1-10.14,5.16Z" fill="#3d53a4"/><path id="Path_9132" data-name="Path 9132" d="M129.57,81.57l120.07,87.24a2,2,0,1,0,2.37-3.22l0,0L131.92,78.33a2,2,0,0,0-2.37,3.23Z" fill="#3d53a4"/><path id="Path_9133" data-name="Path 9133" d="M426,274a16.5,16.5,0,1,0,3.65,23A16.5,16.5,0,0,0,426,274Zm.41,20.7a12.5,12.5,0,1,1-2.76-17.46,12.49,12.49,0,0,1,2.76,17.46Z" fill="#3d53a4"/><path id="Path_9134" data-name="Path 9134" d="M394,268.71,298.05,199a2,2,0,1,0-2.35,3.23L391.6,272a2,2,0,0,0,2.37-3.23Z" fill="#3d53a4"/><path id="Path_9135" data-name="Path 9135" d="M239.05,76.83a16.49,16.49,0,1,0,12.59,1A16.5,16.5,0,0,0,239.05,76.83Zm10.77,4.56A12.4,12.4,0,1,1,244.16,80a12.4,12.4,0,0,1,5.66,1.37Z" fill="#3d53a4"/><path id="Path_9136" data-name="Path 9136" d="M225,77.92a2,2,0,0,0,1.51-.69,23.39,23.39,0,0,1,17.62-8,2,2,0,1,0,0-4,27.41,27.41,0,0,0-20.65,9.42,2,2,0,0,0,.21,2.82A2,2,0,0,0,225,77.92Z" fill="#348f8b"/><path id="Path_9137" data-name="Path 9137" d="M252.86,119.34a2,2,0,0,0-1.28,2.52l11.57,35.61A2,2,0,1,0,267,156.4l-.05-.17-11.57-35.6A2,2,0,0,0,252.86,119.34Z" fill="#3d53a4"/><path id="Path_9138" data-name="Path 9138" d="M304.36,240.09a16.49,16.49,0,1,0,8.22,9.61,16.51,16.51,0,0,0-8.22-9.61Zm-3.62,26.59a12.29,12.29,0,1,1,.19-.06l-.19.06Z" fill="#3d53a4"/><path id="Path_9139" data-name="Path 9139" d="M286.52,229.4a2,2,0,0,0,3.85-1.07.84.84,0,0,0-.05-.17l-5.78-17.78a2,2,0,0,0-3.81,1.23Z" fill="#3d53a4"/><path id="Path_9140" data-name="Path 9140" d="M274,157.92a2,2,0,0,0,2-2V136.48a2,2,0,1,0-4,0v19.44A2,2,0,0,0,274,157.92Z" fill="#348f8b"/><path id="Path_9141" data-name="Path 9141" d="M274,210.85a2,2,0,0,0-2,2v18.7a2,2,0,0,0,4,0v-18.7A2,2,0,0,0,274,210.85Z" fill="#348f8b"/><path id="Path_9142" data-name="Path 9142" d="M305.06,141.92a2,2,0,0,0-2.8.44h0l-12.69,17.48a2,2,0,1,0,3.22,2.36h0l12.69-17.47a2,2,0,0,0-.44-2.8Z" fill="#348f8b"/><path id="Path_9143" data-name="Path 9143" d="M245.56,223.81a2,2,0,0,0,2.79-.44h0l11-15.13a2,2,0,1,0-3.23-2.35l-11,15.13a2,2,0,0,0,.44,2.79Z" fill="#348f8b"/><path id="Path_9144" data-name="Path 9144" d="M301.15,176.83l21-6.82a2,2,0,0,0-1.23-3.8l-21,6.82a2,2,0,0,0,1.07,3.86l.17-.06Z" fill="#348f8b"/><path id="Path_9145" data-name="Path 9145" d="M245.77,190.62,228,196.4a2,2,0,0,0,1.24,3.8h0L247,194.43a2,2,0,0,0-1.23-3.8Z" fill="#348f8b"/><path id="Path_9146" data-name="Path 9146" d="M301.06,194.53l17.8,5.79a2,2,0,0,0,1.24-3.8l-17.8-5.79a2,2,0,1,0-1.41,3.75l.17.05Z" fill="#348f8b"/><path id="Path_9147" data-name="Path 9147" d="M249.44,175.66a2,2,0,0,0-1.28-2.52h0l-17.79-5.78a2,2,0,0,0-1.23,3.8l17.78,5.78a2,2,0,0,0,2.52-1.29h0Z" fill="#348f8b"/><path id="Path_9148" data-name="Path 9148" d="M302.92,225.68a2,2,0,0,0,2-2,2,2,0,0,0-.39-1.17l-12.07-16.63a2,2,0,0,0-3.25,2.34v0l12.08,16.62A2,2,0,0,0,302.92,225.68Z" fill="#348f8b"/><path id="Path_9149" data-name="Path 9149" d="M258.55,162.61a2,2,0,0,0,.44-2.79h0l-11-15.13a2,2,0,0,0-3.23,2.35h0l11,15.13a2,2,0,0,0,2.79.44Z" fill="#348f8b"/><path id="Path_9150" data-name="Path 9150" d="M323.14,32.2a16.5,16.5,0,1,0-9.6-8.2A16.52,16.52,0,0,0,323.14,32.2Zm-6.79-19.56a12.5,12.5,0,1,1,8,15.75,12.51,12.51,0,0,1-8-15.75Z" fill="#3d53a4"/><path id="Path_9151" data-name="Path 9151" d="M282,158.75a2,2,0,0,0,2.52-1.28L321.17,44.73a2,2,0,0,0-3.8-1.24L280.74,156.23A2,2,0,0,0,282,158.75Z" fill="#3d53a4"/><path id="Path_9152" data-name="Path 9152" d="M224.55,335.65a16.5,16.5,0,1,0,9.6,8.2A16.5,16.5,0,0,0,224.55,335.65Zm6.79,19.56a12.54,12.54,0,1,1,.6-3.85A12.5,12.5,0,0,1,231.34,355.21Z" fill="#3d53a4"/><path id="Path_9153" data-name="Path 9153" d="M265.67,209.09a2,2,0,0,0-2.52,1.29L226.52,323.11a2,2,0,1,0,3.74,1.41l.06-.17L267,211.61A2,2,0,0,0,265.67,209.09Z" fill="#3d53a4"/><path id="Path_9154" data-name="Path 9154" d="M392.79,114a16.5,16.5,0,1,0-13.37-6.8A16.49,16.49,0,0,0,392.79,114ZM380.43,95.56A12.51,12.51,0,0,1,392.75,85a13.21,13.21,0,0,1,2,.16,12.5,12.5,0,1,1-14.3,10.39Z" fill="#3d53a4"/><path id="Path_9155" data-name="Path 9155" d="M295.26,168.37a2,2,0,0,0,2.79.44h0l72.21-52.46a2,2,0,0,0-2.35-3.24L295.7,165.57a2,2,0,0,0-.45,2.8Z" fill="#3d53a4"/><path id="Path_9156" data-name="Path 9156" d="M170.62,239.51a16.5,16.5,0,1,0,23,3.65A16.5,16.5,0,0,0,170.62,239.51Zm22,15.3a12.5,12.5,0,1,1-12.38-14.46,12,12,0,0,1,2,.16,12.5,12.5,0,0,1,10.39,14.3Z" fill="#3d53a4"/><path id="Path_9157" data-name="Path 9157" d="M172.46,272.4A21.08,21.08,0,0,1,160,258.56a2,2,0,0,0-3.85,1.08A25.12,25.12,0,0,0,171,276.12a2,2,0,0,0,1.49-3.72Z" fill="#348f8b"/><path id="Path_9158" data-name="Path 9158" d="M252,202.27a2,2,0,1,0-2.33-3.25l0,0-47.95,34.83a2,2,0,1,0,2.33,3.25h0Z" fill="#3d53a4"/><path id="Path_9159" data-name="Path 9159" d="M273.92,200.42a16.5,16.5,0,1,0-16.5-16.5h0A16.52,16.52,0,0,0,273.92,200.42Zm0-29a12.5,12.5,0,1,1-12.5,12.5h0a12.52,12.52,0,0,1,12.5-12.5Z" fill="#3d53a4"/></g></g></g></svg>