<svg xmlns="http://www.w3.org/2000/svg" viewBox="0 0 549 243.28"><g id="Layer_2" data-name="Layer 2"><g id="Layer_1-2" data-name="Layer 1"><g id="Group_4109" data-name="Group 4109"><path id="Path_9111" data-name="Path 9111" d="M503.39,121.64c0-25.81-24-49.92-67.69-67.88C392.61,36,335.36,26.26,274.5,26.26c-42,0-83.12,4.75-118.8,13.74l-3.47.89a2,2,0,0,0,1,3.89l.06,0c1.13-.3,2.28-.59,3.43-.88C192.05,35,232.79,30.26,274.5,30.26c60.35,0,117.05,9.66,159.67,27.2,42.06,17.3,65.22,40.1,65.22,64.18s-23.16,46.87-65.22,64.18C391.55,203.36,334.85,213,274.5,213c-43.21,0-85.2-5-121.42-14.55-35.14-9.23-63.3-22.22-81.43-37.55C57,148.55,49.6,135.33,49.6,121.64c0-17.34,12.23-34.29,35.37-49,1.68-1.07,3.45-2.14,5.26-3.2a2,2,0,0,0-2-3.45c-1.85,1.07-3.67,2.17-5.4,3.27C58.47,84.74,45.6,102.85,45.6,121.63c0,14.93,7.9,29.17,23.46,42.34,18.58,15.72,47.28,29,83,38.37C188.61,211.94,231,217,274.49,217c60.86,0,118.11-9.77,161.2-27.5C479.35,171.55,503.39,147.45,503.39,121.64Z" fill="#3d53a4"/><path id="Path_9112" data-name="Path 9112" d="M33.52,86.43a2,2,0,0,0-2.73-2.93l-.05,0C18.3,95.54,12,108.35,12,121.64c0,8.87,2.86,17.64,8.52,26.06a2,2,0,0,0,3.32-2.23C18.63,137.72,16,129.7,16,121.64,16,109.48,21.88,97.63,33.52,86.43Z" fill="#348f8b"/><path id="Path_9113" data-name="Path 9113" d="M354.09,19.2l.27,0a2,2,0,0,0,.26-4,594.56,594.56,0,0,0-65.57-5.07H289a2,2,0,0,0-.05,4A593.91,593.91,0,0,1,354.09,19.2Z" fill="#348f8b"/><path id="Path_9114" data-name="Path 9114" d="M213.43,94.42a2,2,0,0,0-2.33-1.57h0a217.45,217.45,0,0,0-21.18,5.23c-4.09,1.25-8,2.59-11.48,4a2,2,0,0,0,1.47,3.72h0c3.44-1.36,7.2-2.67,11.17-3.88a213.27,213.27,0,0,1,20.8-5.14A2,2,0,0,0,213.43,94.42Z" fill="#348f8b"/><path id="Path_9115" data-name="Path 9115" d="M97.85,130.17a2,2,0,1,0,3.82-1.19,24.67,24.67,0,0,1-1.14-7.34c0-12.17,9.39-24.12,27.16-34.53A158.68,158.68,0,0,1,154.25,75a259.73,259.73,0,0,1,28.95-8.42c27.41-6.37,59-9.74,91.3-9.74,46.76,0,90.7,6.9,123.71,19.44,32.41,12.3,50.25,28.41,50.25,45.37,0,13.15-10.82,25.89-31.29,36.85-14.83,7.93-34.48,14.65-56.84,19.44-26.05,5.57-55.73,8.51-85.83,8.51-40.78,0-80.46-5.43-111.74-15.29a2,2,0,0,0-1.2,3.82c31.66,10,71.77,15.47,112.94,15.47,30.38,0,60.35-3,86.67-8.6C383.89,177,403.9,170.12,419.06,162c21.86-11.7,33.41-25.65,33.41-40.37,0-18.74-18.76-36.18-52.83-49.11-33.46-12.7-77.9-19.7-125.14-19.7-32.62,0-64.51,3.4-92.21,9.84a266.3,266.3,0,0,0-29.4,8.55,163,163,0,0,0-27.22,12.43c-19.07,11.18-29.14,24.31-29.14,38A28.73,28.73,0,0,0,97.85,130.17Z" fill="#3d53a4"/><path id="Path_9116" data-name="Path 9116" d="M358.79,170.57a2,2,0,0,0,2,1.63,2.31,2.31,0,0,0,.37,0,177.65,177.65,0,0,0,52.54-18.63,2,2,0,1,0-1.89-3.53h0a173.32,173.32,0,0,1-51.39,18.22A2,2,0,0,0,358.79,170.57Z" fill="#348f8b"/><path id="Path_9117" data-name="Path 9117" d="M310.21,80.47c-11.55-1.09-23.56-1.64-35.71-1.64a349.71,349.71,0,0,0-66.41,6,216.93,216.93,0,0,0-21.19,5.23,129.25,129.25,0,0,0-19.67,7.62c-14,7-21.36,15.23-21.36,23.94,0,24,56.5,42.8,128.63,42.8s128.63-18.8,128.63-42.8c0-9.63-8.92-18.62-25.79-26a2,2,0,0,0-1.6,3.66c15.08,6.6,23.39,14.54,23.39,22.34,0,21-57.07,38.8-124.63,38.8s-124.63-17.77-124.63-38.8c0-7.09,6.62-14.12,19.14-20.36a125,125,0,0,1,19.05-7.37,211.86,211.86,0,0,1,20.8-5.14,346.59,346.59,0,0,1,65.64-5.94c12,0,23.91.55,35.34,1.62a2,2,0,1,0,.38-4Z" fill="#3d53a4"/><path id="Path_9118" data-name="Path 9118" d="M231.19,103.74c-4.94.69-9.6,1.49-13.82,2.4a108.07,108.07,0,0,0-12.86,3.49C194.87,113,190,117,190,121.64c0,12.27,34.28,17.27,49,18.84a2,2,0,0,0,.43-4c-29.83-3.2-45.44-9.9-45.44-14.87,0-2.56,4.44-5.64,11.86-8.23a102,102,0,0,1,12.38-3.36c4.13-.89,8.68-1.67,13.53-2.34A318.46,318.46,0,0,1,274.5,105c49.89,0,80.53,9.7,80.53,16.65,0,5.24-16.7,12.14-48.6,15.19a2,2,0,0,0,.19,4h.19c12.25-1.17,52.21-6,52.21-19.17C359,108.23,315.47,101,274.5,101A325,325,0,0,0,231.19,103.74Z" fill="#3d53a4"/><path id="Path_9119" data-name="Path 9119" d="M493.51,48.12c-34.7-20.28-84-35.51-138.89-42.88A604.72,604.72,0,0,0,274.5,0C201.44,0,132.73,12.51,81,35.21,28.77,58.14,0,88.84,0,121.64s28.77,63.49,81,86.42c51.72,22.71,120.43,35.21,193.49,35.21a592.7,592.7,0,0,0,95.28-7.49,2,2,0,0,0-.57-3.95h-.07a589.41,589.41,0,0,1-94.64,7.43C125.34,239.27,4,186.5,4,121.64S125.34,4,274.5,4a600.11,600.11,0,0,1,79.59,5.2c54.35,7.3,103.14,22.35,137.4,42.37C526.49,72,545,96.25,545,121.64c0,18.5-9.73,36.25-28.91,52.76-18.54,16-45.66,30.13-78.45,41a2,2,0,1,0,1.26,3.8c33.27-11,60.87-25.43,79.8-41.72,19.82-17.06,30.3-36.36,30.3-55.8C549,94.75,529.81,69.33,493.51,48.12Z" fill="#3d53a4"/><path id="Path_9120" data-name="Path 9120" d="M403.61,209.33a16.5,16.5,0,1,0,16.5,16.5A16.5,16.5,0,0,0,403.61,209.33Zm0,29a12.5,12.5,0,1,1,12.5-12.5h0a12.51,12.51,0,0,1-12.5,12.5Z" fill="#3d53a4"/><path id="Path_9121" data-name="Path 9121" d="M120.11,69.72a16.5,16.5,0,1,0-16.5-16.5h0A16.52,16.52,0,0,0,120.11,69.72Zm0-29a12.5,12.5,0,1,1-12.5,12.5h0a12.52,12.52,0,0,1,12.5-12.5Z" fill="#3d53a4"/><path id="Path_9122" data-name="Path 9122" d="M362.75,87.29a16.5,16.5,0,1,0-16.5,16.5h0A16.52,16.52,0,0,0,362.75,87.29Zm-29,0a12.5,12.5,0,1,1,12.5,12.5h0a12.5,12.5,0,0,1-12.5-12.5Z" fill="#3d53a4"/><path id="Path_9123" data-name="Path 9123" d="M125.82,173.44a16.5,16.5,0,1,0-16.5-16.5h0A16.52,16.52,0,0,0,125.82,173.44Zm0-29a12.5,12.5,0,1,1-12.5,12.5h0a12.52,12.52,0,0,1,12.5-12.5Z" fill="#3d53a4"/><path id="Path_9124" data-name="Path 9124" d="M135.38,136.46a2,2,0,0,0,1.77-3.59l-.08,0a26.34,26.34,0,0,0-11.25-2.49,26.76,26.76,0,0,0-26.28,22.54,2,2,0,0,0,1.67,2.28l.3,0a2,2,0,0,0,2-1.7,22.74,22.74,0,0,1,22.34-19.14A22.44,22.44,0,0,1,135.38,136.46Z" fill="#348f8b"/><path id="Path_9125" data-name="Path 9125" d="M258,140.28a16.5,16.5,0,1,0,16.5-16.5h0A16.52,16.52,0,0,0,258,140.28Zm29,0a12.5,12.5,0,1,1-12.5-12.5,12.5,12.5,0,0,1,12.5,12.5Z" fill="#3d53a4"/></g></g></g></svg>