<svg xmlns="http://www.w3.org/2000/svg" viewBox="0 0 554.83 368.43"><g id="Layer_2" data-name="Layer 2"><g id="Layer_1-2" data-name="Layer 1"><g id="Group_5689" data-name="Group 5689"><g id="Group_5649" data-name="Group 5649"><path id="Path_13228" data-name="Path 13228" d="M350.88,177.37C214,180.59,31.7,173.93,19.9,189.09.81,213.6-9.16,276.8,11.36,316.47,29.21,351,334.38,332.26,438.6,332c150.44-.31,111.76-34.83,111.77-110.2C550.37,180.59,459.4,174.81,350.88,177.37Z" fill="#5bc4bb"/></g><g id="Group_5650" data-name="Group 5650"><path id="Path_13229" data-name="Path 13229" d="M126.84,78.19c18.55-7.43,67.51-67.08,87.2-67.66,27.87-.83,93.48-4.36,108.84-1.24,18.88,3.83,74.66,57.44,93.74,68.9C434.48,88.93,544,155.26,533.07,170.34c-12,16.5-64.09-1.27-170.23-1.06-30.58.06-189.26,5.05-223.16,6.36-98.84,3.83-120-1.45-116.18-18.11C27.83,138.79,110.83,84.6,126.84,78.19Z" fill="#7867ae"/></g><g id="Group_5651" data-name="Group 5651"><rect id="Rectangle_5463" data-name="Rectangle 5463" x="274.44" y="1" width="9.52" height="28.34" rx="2.81" fill="#f2f2f3"/><path id="Path_13230" data-name="Path 13230" d="M281.14,30.34h-3.89a3.82,3.82,0,0,1-3.81-3.81V3.81A3.82,3.82,0,0,1,277.25,0h3.89A3.82,3.82,0,0,1,285,3.81V26.53A3.82,3.82,0,0,1,281.14,30.34ZM277.25,2a1.81,1.81,0,0,0-1.81,1.81V26.53a1.81,1.81,0,0,0,1.81,1.81h3.89A1.82,1.82,0,0,0,283,26.53V3.81A1.82,1.82,0,0,0,281.14,2Z" fill="#3d53a4"/></g><g id="Group_5652" data-name="Group 5652"><rect id="Rectangle_5464" data-name="Rectangle 5464" x="274.44" y="49.27" width="9.52" height="41.52" rx="2.81" fill="#f2f2f3"/><path id="Path_13231" data-name="Path 13231" d="M281.14,91.79h-3.89A3.82,3.82,0,0,1,273.44,88V52.09a3.81,3.81,0,0,1,3.81-3.81h3.89A3.82,3.82,0,0,1,285,52.09V88A3.83,3.83,0,0,1,281.14,91.79Zm-3.89-41.52a1.81,1.81,0,0,0-1.81,1.82V88a1.81,1.81,0,0,0,1.81,1.81h3.89A1.82,1.82,0,0,0,283,88V52.09a1.82,1.82,0,0,0-1.82-1.81Z" fill="#3d53a4"/></g><g id="Group_5653" data-name="Group 5653"><rect id="Rectangle_5465" data-name="Rectangle 5465" x="274.44" y="109.22" width="9.52" height="56.16" rx="2.81" fill="#f2f2f3"/><path id="Path_13232" data-name="Path 13232" d="M281.14,166.38h-3.89a3.82,3.82,0,0,1-3.81-3.82V112a3.81,3.81,0,0,1,3.81-3.81h3.89A3.82,3.82,0,0,1,285,112v50.53A3.83,3.83,0,0,1,281.14,166.38Zm-3.89-56.16a1.81,1.81,0,0,0-1.81,1.81v50.53a1.81,1.81,0,0,0,1.81,1.82h3.89a1.83,1.83,0,0,0,1.82-1.82V112a1.82,1.82,0,0,0-1.82-1.81Z" fill="#3d53a4"/></g><g id="Group_5654" data-name="Group 5654"><rect id="Rectangle_5466" data-name="Rectangle 5466" x="293.95" y="201.14" width="41.52" height="9.52" rx="2.81" fill="#f2f2f3"/><path id="Path_13233" data-name="Path 13233" d="M332.66,211.66H296.77a3.82,3.82,0,0,1-3.82-3.81V204a3.83,3.83,0,0,1,3.82-3.82h35.89a3.82,3.82,0,0,1,3.81,3.82v3.89A3.82,3.82,0,0,1,332.66,211.66Zm-35.89-9.52A1.83,1.83,0,0,0,295,204v3.89a1.81,1.81,0,0,0,1.82,1.81h35.89a1.81,1.81,0,0,0,1.81-1.81V204a1.82,1.82,0,0,0-1.81-1.82Z" fill="#3d53a4"/></g><g id="Group_5655" data-name="Group 5655"><rect id="Rectangle_5467" data-name="Rectangle 5467" x="293.95" y="221.84" width="41.52" height="9.52" rx="2.81" fill="#f2f2f3"/><path id="Path_13234" data-name="Path 13234" d="M332.66,232.36H296.77a3.82,3.82,0,0,1-3.82-3.81v-3.89a3.83,3.83,0,0,1,3.82-3.82h35.89a3.82,3.82,0,0,1,3.81,3.82v3.89A3.82,3.82,0,0,1,332.66,232.36Zm-35.89-9.52a1.82,1.82,0,0,0-1.82,1.82v3.89a1.81,1.81,0,0,0,1.82,1.81h35.89a1.81,1.81,0,0,0,1.81-1.81v-3.89a1.82,1.82,0,0,0-1.81-1.82Z" fill="#3d53a4"/></g><g id="Group_5656" data-name="Group 5656"><rect id="Rectangle_5468" data-name="Rectangle 5468" x="293.95" y="283.94" width="41.52" height="9.52" rx="2.81" fill="#f2f2f3"/><path id="Path_13235" data-name="Path 13235" d="M332.66,294.46H296.77a3.82,3.82,0,0,1-3.82-3.81v-3.9a3.82,3.82,0,0,1,3.82-3.81h35.89a3.82,3.82,0,0,1,3.81,3.81v3.9A3.82,3.82,0,0,1,332.66,294.46Zm-35.89-9.52a1.81,1.81,0,0,0-1.82,1.81v3.9a1.81,1.81,0,0,0,1.82,1.81h35.89a1.81,1.81,0,0,0,1.81-1.81v-3.9a1.81,1.81,0,0,0-1.81-1.81Z" fill="#3d53a4"/></g><g id="Group_5657" data-name="Group 5657"><rect id="Rectangle_5469" data-name="Rectangle 5469" x="293.95" y="263.24" width="41.52" height="9.52" rx="2.81" fill="#f2f2f3"/><path id="Path_13236" data-name="Path 13236" d="M332.66,273.76H296.77A3.82,3.82,0,0,1,293,270v-3.89a3.82,3.82,0,0,1,3.82-3.82h35.89a3.82,3.82,0,0,1,3.81,3.82V270A3.82,3.82,0,0,1,332.66,273.76Zm-35.89-9.52a1.81,1.81,0,0,0-1.82,1.82V270a1.81,1.81,0,0,0,1.82,1.81h35.89a1.81,1.81,0,0,0,1.81-1.81v-3.89a1.81,1.81,0,0,0-1.81-1.82Z" fill="#3d53a4"/></g><g id="Group_5658" data-name="Group 5658"><rect id="Rectangle_5470" data-name="Rectangle 5470" x="293.95" y="242.54" width="41.52" height="9.52" rx="2.81" fill="#f2f2f3"/><path id="Path_13237" data-name="Path 13237" d="M332.66,253.06H296.77a3.82,3.82,0,0,1-3.82-3.81v-3.89a3.83,3.83,0,0,1,3.82-3.82h35.89a3.82,3.82,0,0,1,3.81,3.82v3.89A3.82,3.82,0,0,1,332.66,253.06Zm-35.89-9.52a1.81,1.81,0,0,0-1.82,1.82v3.89a1.81,1.81,0,0,0,1.82,1.81h35.89a1.81,1.81,0,0,0,1.81-1.81v-3.89a1.82,1.82,0,0,0-1.81-1.82Z" fill="#3d53a4"/></g><g id="Group_5659" data-name="Group 5659"><rect id="Rectangle_5471" data-name="Rectangle 5471" x="480.1" y="201.14" width="41.52" height="9.52" rx="2.81" fill="#f2f2f3"/><path id="Path_13238" data-name="Path 13238" d="M518.8,211.66H482.91a3.82,3.82,0,0,1-3.82-3.81V204a3.83,3.83,0,0,1,3.82-3.82H518.8a3.82,3.82,0,0,1,3.81,3.82v3.89A3.82,3.82,0,0,1,518.8,211.66Zm-35.89-9.52a1.82,1.82,0,0,0-1.82,1.82v3.89a1.82,1.82,0,0,0,1.82,1.81H518.8a1.81,1.81,0,0,0,1.81-1.81V204a1.82,1.82,0,0,0-1.81-1.82Z" fill="#3d53a4"/></g><g id="Group_5660" data-name="Group 5660"><rect id="Rectangle_5472" data-name="Rectangle 5472" x="480.1" y="221.84" width="41.52" height="9.52" rx="2.81" fill="#f2f2f3"/><path id="Path_13239" data-name="Path 13239" d="M518.8,232.36H482.91a3.82,3.82,0,0,1-3.82-3.81v-3.89a3.83,3.83,0,0,1,3.82-3.82H518.8a3.82,3.82,0,0,1,3.81,3.82v3.89A3.82,3.82,0,0,1,518.8,232.36Zm-35.89-9.52a1.83,1.83,0,0,0-1.82,1.82v3.89a1.81,1.81,0,0,0,1.82,1.81H518.8a1.81,1.81,0,0,0,1.81-1.81v-3.89a1.82,1.82,0,0,0-1.81-1.82Z" fill="#3d53a4"/></g><g id="Group_5661" data-name="Group 5661"><rect id="Rectangle_5473" data-name="Rectangle 5473" x="480.1" y="283.94" width="41.52" height="9.52" rx="2.81" fill="#f2f2f3"/><path id="Path_13240" data-name="Path 13240" d="M518.8,294.46H482.91a3.82,3.82,0,0,1-3.82-3.81v-3.9a3.82,3.82,0,0,1,3.82-3.81H518.8a3.82,3.82,0,0,1,3.81,3.81v3.9A3.82,3.82,0,0,1,518.8,294.46Zm-35.89-9.52a1.82,1.82,0,0,0-1.82,1.81v3.9a1.81,1.81,0,0,0,1.82,1.81H518.8a1.81,1.81,0,0,0,1.81-1.81v-3.9a1.81,1.81,0,0,0-1.81-1.81Z" fill="#3d53a4"/></g><g id="Group_5662" data-name="Group 5662"><rect id="Rectangle_5474" data-name="Rectangle 5474" x="480.1" y="263.24" width="41.52" height="9.52" rx="2.81" fill="#f2f2f3"/><path id="Path_13241" data-name="Path 13241" d="M518.8,273.76H482.91a3.82,3.82,0,0,1-3.82-3.81v-3.89a3.82,3.82,0,0,1,3.82-3.82H518.8a3.82,3.82,0,0,1,3.81,3.82V270A3.82,3.82,0,0,1,518.8,273.76Zm-35.89-9.52a1.81,1.81,0,0,0-1.82,1.82V270a1.81,1.81,0,0,0,1.82,1.81H518.8a1.81,1.81,0,0,0,1.81-1.81v-3.89a1.81,1.81,0,0,0-1.81-1.82Z" fill="#3d53a4"/></g><g id="Group_5663" data-name="Group 5663"><rect id="Rectangle_5475" data-name="Rectangle 5475" x="480.1" y="242.54" width="41.52" height="9.52" rx="2.81" fill="#f2f2f3"/><path id="Path_13242" data-name="Path 13242" d="M518.8,253.06H482.91a3.82,3.82,0,0,1-3.82-3.81v-3.89a3.83,3.83,0,0,1,3.82-3.82H518.8a3.82,3.82,0,0,1,3.81,3.82v3.89A3.82,3.82,0,0,1,518.8,253.06Zm-35.89-9.52a1.82,1.82,0,0,0-1.82,1.82v3.89a1.81,1.81,0,0,0,1.82,1.81H518.8a1.81,1.81,0,0,0,1.81-1.81v-3.89a1.81,1.81,0,0,0-1.81-1.82Z" fill="#3d53a4"/></g><g id="Group_5664" data-name="Group 5664"><circle id="Ellipse_528" data-name="Ellipse 528" cx="97.41" cy="201.83" r="24.33" fill="#f2f2f3"/><path id="Path_13243" data-name="Path 13243" d="M97.41,227.16a25.33,25.33,0,1,1,25.33-25.33h0A25.37,25.37,0,0,1,97.41,227.16Zm0-48.65a23.33,23.33,0,1,0,23.33,23.32h0A23.35,23.35,0,0,0,97.41,178.51Z" fill="#3d53a4"/></g><g id="Group_5665" data-name="Group 5665"><circle id="Ellipse_529" data-name="Ellipse 529" cx="197.41" cy="201.83" r="24.33" fill="#f2f2f3"/><path id="Path_13244" data-name="Path 13244" d="M197.41,227.16a25.33,25.33,0,1,1,25.32-25.33h0A25.35,25.35,0,0,1,197.41,227.16Zm0-48.65a23.33,23.33,0,1,0,23.32,23.32h0A23.34,23.34,0,0,0,197.41,178.51Z" fill="#3d53a4"/></g><g id="Group_5666" data-name="Group 5666"><path id="Path_13245" data-name="Path 13245" d="M147.44,124.66A121.39,121.39,0,1,0,268.82,246.05h0A121.38,121.38,0,0,0,147.44,124.66Zm0,223.34a102,102,0,1,1,102-101.95A101.95,101.95,0,0,1,147.44,348Z" fill="#f2f2f3"/><path id="Path_13246" data-name="Path 13246" d="M147.44,368.43A122.39,122.39,0,1,1,269.82,246.05h0A122.51,122.51,0,0,1,147.44,368.43Zm0-242.77A120.39,120.39,0,1,0,267.82,246.05,120.39,120.39,0,0,0,147.44,125.66Zm0,223.34a103,103,0,1,1,103-102.95A102.94,102.94,0,0,1,147.44,349Zm0-203.91a101,101,0,1,0,101,101,101,101,0,0,0-101-101Z" fill="#3d53a4"/></g><g id="Group_5667" data-name="Group 5667"><path id="Path_13247" data-name="Path 13247" d="M97.48,194.56a1,1,0,0,1-1-1V185.2a1,1,0,0,1,2,0v8.36A1,1,0,0,1,97.48,194.56Z" fill="#3d53a4"/></g><g id="Group_5668" data-name="Group 5668"><path id="Path_13248" data-name="Path 13248" d="M91.63,197a1,1,0,0,1-.71-.29L85,190.78a1,1,0,0,1,1.41-1.41l5.91,5.9a1,1,0,0,1,0,1.42A1.05,1.05,0,0,1,91.63,197Z" fill="#3d53a4"/></g><g id="Group_5669" data-name="Group 5669"><path id="Path_13249" data-name="Path 13249" d="M89.2,202.83H80.85a1,1,0,0,1,0-2H89.2a1,1,0,1,1,0,2Z" fill="#3d53a4"/></g><g id="Group_5670" data-name="Group 5670"><path id="Path_13250" data-name="Path 13250" d="M85.72,214.59a1,1,0,0,1-.7-1.71l5.9-5.9a1,1,0,0,1,1.42,1.41l-5.91,5.91A1,1,0,0,1,85.72,214.59Z" fill="#3d53a4"/></g><g id="Group_5671" data-name="Group 5671"><path id="Path_13251" data-name="Path 13251" d="M197.41,194.56a1,1,0,0,1-1-1V185.2a1,1,0,0,1,2,0v8.36A1,1,0,0,1,197.41,194.56Z" fill="#3d53a4"/></g><g id="Group_5672" data-name="Group 5672"><path id="Path_13252" data-name="Path 13252" d="M203.26,197a1,1,0,0,1-1-1,1,1,0,0,1,.29-.71l5.91-5.9a1,1,0,0,1,1.41,1.41l-5.9,5.91A1,1,0,0,1,203.26,197Z" fill="#3d53a4"/></g><g id="Group_5673" data-name="Group 5673"><path id="Path_13253" data-name="Path 13253" d="M214,202.83h-8.35a1,1,0,0,1,0-2H214a1,1,0,0,1,0,2Z" fill="#3d53a4"/></g><g id="Group_5674" data-name="Group 5674"><path id="Path_13254" data-name="Path 13254" d="M209.17,214.59a1,1,0,0,1-.71-.29l-5.91-5.91A1,1,0,0,1,204,207l5.9,5.9a1,1,0,0,1-.7,1.71Z" fill="#3d53a4"/></g><g id="Group_5675" data-name="Group 5675"><path id="Path_13255" data-name="Path 13255" d="M190.67,227.93a46.83,46.83,0,0,1-10.51,51.78l-1.6,1.48A27.44,27.44,0,0,1,220,317l-3.49,4.24A102.09,102.09,0,0,0,244,212.93l1,6.56c0,15.16-11.67,31.48-26.83,31.48-12.87,0-22-9.73-26.64-20.83Z" fill="#f2f2f3"/><path id="Path_13256" data-name="Path 13256" d="M216.47,322.28a1,1,0,0,1-1-1,1,1,0,0,1,.23-.63l3.49-4.24a26.16,26.16,0,0,0,5.31-15.9,26.46,26.46,0,0,0-43.57-20.17l-.08.08-1.61,1.5a1,1,0,1,1-1.39-1.43c.56-.57,1.14-1.11,1.74-1.63a45.86,45.86,0,0,0,11-48.3v0l-.88-2.23a1,1,0,0,1,1.85-.76c.33.76.63,1.53.9,2.3,2.58,6.1,10.2,20.14,25.69,20.14,14.76,0,25.79-16,25.83-30.4l-1-6.49a1,1,0,0,1,1.93-.48A103.11,103.11,0,0,1,217.15,322,1.06,1.06,0,0,1,216.47,322.28Zm-18.42-50.22a28.48,28.48,0,0,1,26.07,39.88,101.15,101.15,0,0,0,21.7-89.08C244.25,237.23,233,252,218.18,252c-9.21,0-17.6-5.05-23.5-13.84a47.92,47.92,0,0,1-8.87,36.68,28.32,28.32,0,0,1,12.24-2.75Z" fill="#3d53a4"/></g><g id="Group_5676" data-name="Group 5676"><path id="Path_13257" data-name="Path 13257" d="M104.22,227.93a46.83,46.83,0,0,0,10.51,51.78l1.6,1.48A27.44,27.44,0,0,0,74.93,317l3.49,4.24A102.09,102.09,0,0,1,50.9,212.93l-1,6.56C49.88,234.65,61.54,251,76.7,251c12.88,0,22-9.73,26.64-20.83Z" fill="#f2f2f3"/><path id="Path_13258" data-name="Path 13258" d="M78.42,322.28a1,1,0,0,1-.68-.26A103.09,103.09,0,0,1,50,212.6a1,1,0,0,1,1.27-.61,1,1,0,0,1,.66,1.09l-1,6.49C50.92,233.94,62,250,76.7,250c15.5,0,23.12-14,25.7-20.15q.42-1.15.9-2.28a1,1,0,0,1,1.86.75l-.87,2.21,0,0a45.85,45.85,0,0,0,11,48.32c.6.51,1.18,1.06,1.74,1.62a1,1,0,1,1-1.39,1.44h0l-1.6-1.48-.1-.1a26.45,26.45,0,0,0-38.23,36.1l3.47,4.21a1,1,0,0,1-.14,1.41,1,1,0,0,1-.64.22ZM49.07,222.86A101.14,101.14,0,0,0,70.78,312a28.48,28.48,0,0,1,38.31-37.14,47.89,47.89,0,0,1-8.88-36.68c-5.9,8.8-14.29,13.84-23.5,13.84C61.94,252,50.63,237.23,49.07,222.86Z" fill="#3d53a4"/></g><g id="Group_5677" data-name="Group 5677"><circle id="Ellipse_530" data-name="Ellipse 530" cx="147.44" cy="188.38" r="34.42" fill="#f2f2f3"/><path id="Path_13259" data-name="Path 13259" d="M147.44,223.79a35.42,35.42,0,1,1,35.42-35.41h0A35.46,35.46,0,0,1,147.44,223.79Zm0-68.83a33.42,33.42,0,1,0,33.42,33.42h0A33.46,33.46,0,0,0,147.44,155Z" fill="#3d53a4"/></g><g id="Group_5678" data-name="Group 5678"><path id="Path_13260" data-name="Path 13260" d="M147.44,173.84a1,1,0,0,1-1-1v-10.2a1,1,0,0,1,2,0v10.2A1,1,0,0,1,147.44,173.84Z" fill="#3d53a4"/></g><g id="Group_5679" data-name="Group 5679"><path id="Path_13261" data-name="Path 13261" d="M155.19,175.91a1,1,0,0,1-1-1,1.13,1.13,0,0,1,.13-.5l5.1-8.83a1,1,0,0,1,1.74,1l-5.1,8.83A1,1,0,0,1,155.19,175.91Z" fill="#3d53a4"/></g><g id="Group_5680" data-name="Group 5680"><path id="Path_13262" data-name="Path 13262" d="M160.87,181.59a1,1,0,0,1-.5-1.87l8.83-5.1a1,1,0,0,1,1,1.74l-8.83,5.1A1.13,1.13,0,0,1,160.87,181.59Z" fill="#3d53a4"/></g><g id="Group_5681" data-name="Group 5681"><path id="Path_13263" data-name="Path 13263" d="M173.14,189.34h-10.2a1,1,0,0,1,0-2h10.2a1,1,0,0,1,0,2Z" fill="#3d53a4"/></g><g id="Group_5682" data-name="Group 5682"><path id="Path_13264" data-name="Path 13264" d="M139.69,175.91a1,1,0,0,1-.87-.5l-5.1-8.83a1,1,0,0,1,1.73-1l5.1,8.83a1,1,0,0,1-.86,1.5Z" fill="#3d53a4"/></g><g id="Group_5683" data-name="Group 5683"><path id="Path_13265" data-name="Path 13265" d="M134,181.59a1.06,1.06,0,0,1-.5-.13l-8.83-5.1a1,1,0,0,1,1-1.74l8.83,5.1a1,1,0,0,1-.5,1.87Z" fill="#3d53a4"/></g><g id="Group_5684" data-name="Group 5684"><path id="Path_13266" data-name="Path 13266" d="M131.93,189.34h-10.2a1,1,0,1,1,0-2h10.2a1,1,0,0,1,0,2Z" fill="#3d53a4"/></g><g id="Group_5685" data-name="Group 5685"><circle id="Ellipse_531" data-name="Ellipse 531" cx="147.44" cy="246.05" r="46.79" fill="#f2f2f3"/><path id="Path_13267" data-name="Path 13267" d="M147.44,293.83a47.79,47.79,0,1,1,47.78-47.78A47.79,47.79,0,0,1,147.44,293.83Zm0-93.57a45.79,45.79,0,1,0,45.78,45.79A45.79,45.79,0,0,0,147.44,200.26Z" fill="#3d53a4"/></g><g id="Group_5686" data-name="Group 5686"><rect id="Rectangle_5476" data-name="Rectangle 5476" x="354.35" y="199.98" width="106.87" height="93.58" rx="5" fill="#f2f2f3"/><path id="Path_13268" data-name="Path 13268" d="M456.22,294.55H359.35a6,6,0,0,1-6-6V205a6,6,0,0,1,6-6h96.87a6,6,0,0,1,6,6v83.57A6,6,0,0,1,456.22,294.55ZM359.35,201a4,4,0,0,0-4,4v83.57a4,4,0,0,0,4,4h96.87a4,4,0,0,0,4-4V205a4,4,0,0,0-4-4Z" fill="#3d53a4"/></g><g id="Group_5687" data-name="Group 5687"><path id="Path_13269" data-name="Path 13269" d="M362.85,227.73a1,1,0,0,1-1-1v-14a5.25,5.25,0,0,1,5.24-5.25,1,1,0,0,1,0,2,3.25,3.25,0,0,0-3.24,3.25v14A1,1,0,0,1,362.85,227.73Z" fill="#3d53a4"/></g><g id="Group_5688" data-name="Group 5688"><path id="Path_13270" data-name="Path 13270" d="M448.47,286.06a1,1,0,0,1,0-2,3.26,3.26,0,0,0,3.25-3.25v-14a1,1,0,1,1,2,0v14A5.26,5.26,0,0,1,448.47,286.06Z" fill="#3d53a4"/></g></g></g></g></svg>