<svg version="1.0" xmlns="http://www.w3.org/2000/svg"
  style="transform: scale(99%)"
  width="100.000000pt" height="100.000000pt" viewBox="0 0 100.000000 100.000000"
  preserveAspectRatio="xMidYMid meet">

  <g transform="translate(0.000000,100.000000) scale(0.100000,-0.100000)"
    fill="#000000" stroke="none"
  >
    <path d="M255 860 c-132 -77 -241 -143 -242 -147 -2 -5 36 -30 83 -57 l86 -49
    -39 -24 c-21 -13 -59 -35 -85 -50 -27 -14 -48 -29 -48 -33 0 -3 30 -23 68 -45
    115 -66 114 -56 17 -111 -47 -27 -85 -52 -85 -55 0 -4 110 -70 245 -148 l245
    -141 245 141 c135 78 245 144 245 148 0 3 -38 28 -85 55 -97 55 -98 45 18 111
    37 22 67 42 67 45 0 4 -38 28 -85 54 -47 26 -85 49 -85 51 0 1 38 25 85 51 47
    27 85 52 85 55 0 5 -485 290 -492 288 -2 0 -111 -63 -243 -139z m284 23 c17
    -10 31 -20 31 -23 0 -4 -294 -171 -330 -187 -3 -2 -20 6 -39 18 l-34 20 159
    94 c88 51 164 93 171 94 6 1 25 -7 42 -16z m262 -152 l31 -19 -23 -15 c-13 -8
    -88 -51 -166 -96 -141 -81 -142 -82 -172 -67 -16 9 -32 19 -34 23 -4 7 305
    189 325 192 4 1 22 -8 39 -18z m23 -229 c2 -4 -70 -49 -160 -100 l-164 -94
    -65 37 -65 36 0 54 c0 30 3 55 8 55 4 0 30 -14 57 -30 28 -16 57 -30 65 -30 8
    0 64 29 124 64 l109 63 44 -24 c23 -14 45 -28 47 -31z m-51 -178 c65 -33 66
    -31 -104 -130 -89 -52 -165 -94 -170 -94 -4 0 -35 16 -68 36 l-61 36 0 54 c0
    30 3 54 6 54 3 0 32 -16 65 -35 l58 -34 113 64 c62 36 117 65 121 65 4 0 22
    -7 40 -16z"/>
  </g>
</svg>