<?xml version="1.0" encoding="UTF-8"?><svg id="Layer_2" xmlns="http://www.w3.org/2000/svg" viewBox="0 0 24 24"><defs><style>.cls-1{fill:#333;}</style></defs><g id="Layer_1-2"><path class="cls-1" d="M7.5,0V1.5s0,0,0,0V3.75H3.75v3.75H0v1.5H0v2.25h0v1.5H0v2.25h0v1.5H0v2.25h0v1.5H0v2.25h0v1.5H16.5s0-3.75,0-3.75h3.75v-3.75h3.75s0-16.5,0-16.5H7.5Zm5.25,1.5h2.25V3.75h-2.25V1.5Zm0,3.75h2.25v2.25h-2.25v-2.25Zm0,3.75h2.25v2.25h-2.25v-2.25Zm0,3.75h2.25v2.25h-2.25v-2.25Zm0,3.75h2.25v2.25h-2.25v-2.25ZM9,1.5h2.25V3.75h-2.25V1.5Zm0,3.75h2.25v2.25h-2.25v-2.25Zm0,3.75h2.25v2.25h-2.25v-2.25Zm0,3.75h2.25v2.25h-2.25v-2.25Zm0,3.75h2.25v2.25h-2.25v-2.25ZM5.25,5.25h2.25v2.25h-2.25v-2.25Zm0,3.75h2.25v2.25h-2.25v-2.25Zm0,3.75h2.25v2.25h-2.25v-2.25Zm0,3.75h2.25v2.25h-2.25v-2.25ZM1.5,9H3.75v2.25H1.5v-2.25Zm0,3.75H3.75v2.25H1.5v-2.25Zm0,3.75H3.75v2.25H1.5v-2.25Zm0,6v-2.25H3.75v2.25H1.5Zm3.75,0v-2.25h2.25v2.25h-2.25Zm3.75,0v-2.25h2.25v2.25h-2.25Zm3.75,0v-2.25h2.25v2.25h-2.25Zm6-3.75h-2.25v-2.25h2.25v2.25Zm0-3.75h-2.25v-2.25h2.25v2.25Zm0-3.75h-2.25v-2.25h2.25v2.25Zm0-3.75h-2.25v-2.25h2.25v2.25Zm0-3.75h-2.25V1.5h2.25V3.75Zm3.75,11.25h-2.25v-2.25h2.25v2.25Zm0-3.75h-2.25v-2.25h2.25v2.25Zm0-3.75h-2.25v-2.25h2.25v2.25Zm0-3.75h-2.25V1.5h2.25V3.75Z"/></g></svg>