<svg id="Layer_1" data-name="Layer 1" xmlns="http://www.w3.org/2000/svg" viewBox="0 0 24 24">
  <defs>
    <style>
      .cls-1{fill:none;stroke:#ccc;stroke-miterlimit:10;}.cls-2{fill:#333;}
    </style>
  </defs>
  <rect class="cls-1" x="-506.1" y="-168.8" width="884.3" height="859.94"/>
  <rect class="cls-2" width="4" height="4"/>
  <rect class="cls-2" x="20" y="20" width="4" height="4"/>
  <rect class="cls-2" x="4" y="20" width="4" height="4"/>
  <rect class="cls-2" x="8" width="4" height="4"/>
  <rect class="cls-2" x="12" y="20" width="4" height="4"/>
  <rect class="cls-2" x="20" y="12" width="4" height="4"/>
  <rect class="cls-2" x="4" y="12" width="4" height="4"/>
  <rect class="cls-2" x="12" y="12" width="4" height="4"/>
  <rect class="cls-2" x="20" y="4" width="4" height="4"/>
  <rect class="cls-2" x="4" y="4" width="4" height="4"/>
  <rect class="cls-2" x="12" y="4" width="4" height="4"/>
  <rect class="cls-2" x="16" width="4" height="4"/>
  <rect class="cls-2" y="16" width="4" height="4"/>
  <rect class="cls-2" x="8" y="16" width="4" height="4"/>
  <rect class="cls-2" x="16" y="16" width="4" height="4"/>
  <rect class="cls-2" y="8" width="4" height="4"/>
  <rect class="cls-2" x="8" y="8" width="4" height="4"/>
  <rect class="cls-2" x="16" y="8" width="4" height="4"/>
</svg>
