<svg id="Layer_1" data-name="Layer 1" xmlns="http://www.w3.org/2000/svg" viewBox="0 0 24 24">
  <defs>
    <style>
      .cls-1{fill:none;stroke:#ccc;stroke-miterlimit:10;}.cls-2{fill:#333;}
    </style>
  </defs>
  <rect class="cls-1" x="-506.1" y="-293.1" width="884.3" height="859.94"/>
  <polygon class="cls-2" points="3 1.5 3 0 1.5 0 1.5 1.5 0 1.5 0 3 1.5 3 1.5 24 3 24 3 3 24 3 24 1.5 3 1.5"/>
  <rect class="cls-2" x="6" y="6" width="4" height="4"/>
  <rect class="cls-2" x="13" y="6" width="4" height="4"/>
  <rect class="cls-2" x="20" y="6" width="4" height="4"/>
  <rect class="cls-2" x="6" y="13" width="4" height="4"/>
  <rect class="cls-2" x="13" y="13" width="4" height="4"/>
  <rect class="cls-2" x="20" y="13" width="4" height="4"/>
  <rect class="cls-2" x="6" y="20" width="4" height="4"/>
  <rect class="cls-2" x="13" y="20" width="4" height="4"/>
  <rect class="cls-2" x="20" y="20" width="4" height="4"/>
</svg>
