<svg id="Layer_1" data-name="Layer 1" xmlns="http://www.w3.org/2000/svg" viewBox="0 0 24 24"><defs><style>.cls-1{fill:#333;}.cls-2{fill:none;stroke:#ccc;stroke-miterlimit:10;}</style></defs><path class="cls-1" d="M15.5,12.6a2.9,2.9,0,0,0-2.8,2.9,2.9,2.9,0,0,0,5.7,0A2.9,2.9,0,0,0,15.5,12.6Zm0,4.2a1.3,1.3,0,0,1-1.3-1.3,1.3,1.3,0,0,1,1.3-1.4,1.4,1.4,0,0,1,1.4,1.4A1.3,1.3,0,0,1,15.5,16.8Z"/><path class="cls-1" d="M21.8,12,23,10.9,20.1,8,18.9,9.2l-1.4-.6V6.9H13.4V8.6l-1.3.6L10.9,8,8,10.9l1.2,1.2a8.1,8.1,0,0,0-.6,1.3H6.9v4.1H8.6l.6,1.4L8,20.1,10.9,23l1.2-1.3,1.3.6V24h4.1V22.4a4.2,4.2,0,0,0,1.4-.6L20.1,23,23,20.1l-1.2-1.2a9.1,9.1,0,0,0,.7-1.4H24V13.4H22.5C22.3,12.9,22,12.4,21.8,12Zm.7,4H21.3v.6a22,22,0,0,1-.9,2.1l-.3.5.8.9-.7.7-.9-.9-.5.4a11.1,11.1,0,0,1-2.1.8l-.6.2v1.2H14.9V21.3L11.7,20l-.8.8-.8-.7.9-1-.2-.4a10.2,10.2,0,0,1-.9-2.1V16H8.4V14.9H9.8v-.6a9.3,9.3,0,0,1,.9-2l.2-.5-.9-.9.8-.8.8.9,3.2-1.4V8.4H16V9.6l3.3,1.3.8-.8.7.8-.8.8.3.5a22,22,0,0,1,.9,2.1v.6h1.2Z"/><polygon class="cls-1" points="0 0 0 24 6.9 24 6.9 22.5 1.5 22.5 1.5 1.5 22.5 1.5 22.5 7.3 24 7.3 24 0 0 0"/><rect class="cls-2" x="-506.1" y="-667.1" width="884.3" height="859.94"/></svg>