<svg xmlns="http://www.w3.org/2000/svg" width="58.241" height="73.772" viewBox="0 0 58.241 73.772">
  <path id="db_icon" d="M-83.818-88.61c20.133,0,29.121-2.835,29.121-9.26v-55.348c0-6.33-8.988-9.163-29.121-9.163s-29.12,2.833-29.12,9.163v55.445C-112.938-91.445-103.95-88.61-83.818-88.61Zm0-66.007a86.615,86.615,0,0,1,18.113,1.4,86.5,86.5,0,0,1-18.113,1.4,86.5,86.5,0,0,1-18.113-1.4A86.615,86.615,0,0,1-83.818-154.617Zm-21.355,8.562a83.679,83.679,0,0,0,21.355,1.94,83.679,83.679,0,0,0,21.355-1.94v10.268c-1.378.681-6.347,2.427-21.355,2.427s-19.977-1.747-21.355-2.427Zm0,18.481a83.758,83.758,0,0,0,21.355,1.942,83.758,83.758,0,0,0,21.355-1.942v10.27c-1.378.679-6.347,2.426-21.355,2.426s-19.977-1.747-21.355-2.426Zm0,18.481a83.605,83.605,0,0,0,21.355,1.942,83.605,83.605,0,0,0,21.355-1.942V-98.8c-1.378.679-6.367,2.426-21.355,2.426S-103.8-98.123-105.173-98.8Z" transform="translate(112.938 162.382)"/>
</svg>
