<svg xmlns="http://www.w3.org/2000/svg" xmlns:xlink="http://www.w3.org/1999/xlink" viewBox="0 0 112 102"><defs><style>.cls-1{fill:url(#linear-gradient);}</style><linearGradient id="linear-gradient" x1="56" y1="-6.15" x2="56" y2="112.9" gradientUnits="userSpaceOnUse"><stop offset="0" stop-color="#100699"/><stop offset="1" stop-color="#328f8c"/></linearGradient></defs><g id="Layer_2" data-name="Layer 2"><g id="Layer_1-2" data-name="Layer 1"><path class="cls-1" d="M87.85,27a.76.76,0,0,0,.09-.09A15,15,0,1,0,82.3,12H29.7a15,15,0,1,0,0,6H82.3A15.07,15.07,0,0,0,84,22.44l-.09.07L24.05,75.06A15,15,0,1,0,29.7,90H95l-5,5a3.31,3.31,0,1,0,4.68,4.69L105,89.34a3.31,3.31,0,0,0,0-4.68L94.66,74.29A3.31,3.31,0,1,0,90,79l5,5H29.7A15.11,15.11,0,0,0,28,79.57ZM15,25A10,10,0,1,1,25,15,10,10,0,0,1,15,25ZM97,5A10,10,0,1,1,87,15,10,10,0,0,1,97,5ZM15,97A10,10,0,1,1,25,87,10,10,0,0,1,15,97Z"/></g></g></svg>