<svg xmlns="http://www.w3.org/2000/svg" xmlns:xlink="http://www.w3.org/1999/xlink" viewBox="0 0 112.16 98.5"><defs><style>.cls-1{fill:url(#linear-gradient);}</style><linearGradient id="linear-gradient" x1="56.08" y1="-10.61" x2="56.08" y2="109.77" gradientUnits="userSpaceOnUse"><stop offset="0" stop-color="#100699"/><stop offset="1" stop-color="#328f8c"/></linearGradient></defs><g id="Layer_2" data-name="Layer 2"><g id="Layer_1-2" data-name="Layer 1"><path class="cls-1" d="M100.21,59.2l.21-.05c4.06-1,11.74-5.37,11.74-14.27V16.05a3,3,0,0,0-3-3H24.08L20.05,2a3,3,0,0,0-2.82-2H3A3,3,0,0,0,3,6H15.13L36.81,66.51,34.9,73.57l-.47,0A12.48,12.48,0,1,0,46.56,88.93h41a12.46,12.46,0,1,0,0-5.76h-41a12.51,12.51,0,0,0-5.9-7.94l1.5-5.56Zm-.53,20.35A6.48,6.48,0,1,1,93.2,86,6.48,6.48,0,0,1,99.68,79.55Zm-65.25,13A6.48,6.48,0,1,1,40.91,86,6.48,6.48,0,0,1,34.43,92.5ZM26.3,19.05h79.86V44.88c0,6.15-6.33,8.2-7.15,8.44L42.14,63.58Z"/></g></g></svg>