<svg id="market_icon" xmlns="http://www.w3.org/2000/svg" width="57.716" height="81.505" viewBox="0 0 57.716 81.505">
  <path id="Path_2322" data-name="Path 2322" d="M-187.06-123.121-165.3-84.875A3.394,3.394,0,0,0-160.67-83.6a3.39,3.39,0,0,0,1.28-1.278l21.236-37.346h0c2.36-4.125,4.668-8.64,4.668-14.463,0-15.431-12.952-27.976-28.858-27.976S-191.2-152.115-191.2-136.684A26.013,26.013,0,0,0-187.06-123.121Zm24.716-34.749a21.661,21.661,0,0,1,22.068,21.185c0,3.769-1.375,6.943-3.786,11.136l-18.283,32.185-18.809-33.119a19.7,19.7,0,0,1-3.259-10.185A21.661,21.661,0,0,1-162.344-157.87Z" transform="translate(191.202 164.66)"/>
  <path id="Path_2323" data-name="Path 2323" d="M-169.319-131.894a11.883,11.883,0,0,0,11.883-11.883,11.883,11.883,0,0,0-11.883-11.883A11.883,11.883,0,0,0-181.2-143.777,11.883,11.883,0,0,0-169.319-131.894Zm0-16.975a5.092,5.092,0,0,1,5.093,5.093,5.093,5.093,0,0,1-5.093,5.093,5.093,5.093,0,0,1-5.093-5.093A5.092,5.092,0,0,1-169.319-148.87Z" transform="translate(198.177 170.938)"/>
</svg>
