<svg xmlns="http://www.w3.org/2000/svg" xmlns:xlink="http://www.w3.org/1999/xlink" viewBox="0 0 101.77 101.77"><defs><style>.cls-1{fill:url(#linear-gradient);}.cls-2{fill:url(#linear-gradient-2);}</style><linearGradient id="linear-gradient" x1="50.89" y1="-10.8" x2="50.89" y2="108.2" gradientUnits="userSpaceOnUse"><stop offset="0" stop-color="#100699"/><stop offset="1" stop-color="#328f8c"/></linearGradient><linearGradient id="linear-gradient-2" x1="49.13" y1="-10.8" x2="49.13" y2="108.2" xlink:href="#linear-gradient"/></defs><g id="Layer_2" data-name="Layer 2"><g id="Layer_1-2" data-name="Layer 1"><path class="cls-1" d="M101.77,50.89A50.88,50.88,0,0,0,16.58,13.31l0,0-3.27,3.27,0,0A50.88,50.88,0,0,0,85.19,88.46l0,0,3.27-3.27,0,0A50.64,50.64,0,0,0,101.77,50.89ZM50.89,95.62A44.7,44.7,0,0,1,17.68,21L29.4,32.68a25.1,25.1,0,0,1,2.25-4.31L21,17.68A44.7,44.7,0,0,1,84.09,80.82L74.37,71.1a21,21,0,0,1-2.43,4.11l8.88,8.88A44.54,44.54,0,0,1,50.89,95.62Z"/><path class="cls-2" d="M72.22,58.09H64.47V59.5c0,7.91-3.52,12.92-12.13,12.92-8.07,0-12.53-3.41-13-11.87h13V54.44H39.26V46.62H52.34V40.44H39.42c.7-7.68,5.17-11.09,12.92-11.09s12.13,5.09,12.13,13.08v1.1h7.75V42.12c0-12.14-7.12-19.73-19.88-19.73-12.06,0-19.65,5.68-20.67,18H26v6.18h5.48v7.82H26v6.11h5.56c.78,13.31,8.53,18.84,20.75,18.84,12.84,0,19.88-7.52,19.88-19.66Z"/></g></g></svg>