<svg xmlns="http://www.w3.org/2000/svg" xmlns:xlink="http://www.w3.org/1999/xlink" viewBox="0 0 93 97"><defs><style>.cls-1{fill:url(#linear-gradient);}.cls-2{fill:url(#linear-gradient-2);}.cls-3{fill:url(#linear-gradient-3);}.cls-4{fill:url(#linear-gradient-4);}.cls-5{fill:url(#linear-gradient-5);}.cls-6{fill:url(#linear-gradient-6);}.cls-7{fill:url(#linear-gradient-7);}.cls-8{fill:url(#linear-gradient-8);}.cls-9{fill:url(#linear-gradient-9);}.cls-10{fill:url(#linear-gradient-10);}.cls-11{fill:url(#linear-gradient-11);}.cls-12{fill:url(#linear-gradient-12);}</style><linearGradient id="linear-gradient" x1="80.4" y1="-2.88" x2="81.07" y2="100.87" gradientUnits="userSpaceOnUse"><stop offset="0" stop-color="#100699"/><stop offset="1" stop-color="#328f8c"/></linearGradient><linearGradient id="linear-gradient-2" x1="80.17" y1="-2.88" x2="80.84" y2="100.87" xlink:href="#linear-gradient"/><linearGradient id="linear-gradient-3" x1="79.94" y1="-2.88" x2="80.6" y2="100.87" xlink:href="#linear-gradient"/><linearGradient id="linear-gradient-4" x1="49.9" y1="-2.69" x2="50.57" y2="101.07" xlink:href="#linear-gradient"/><linearGradient id="linear-gradient-5" x1="49.84" y1="-2.69" x2="50.5" y2="101.07" xlink:href="#linear-gradient"/><linearGradient id="linear-gradient-6" x1="49.61" y1="-2.69" x2="50.27" y2="101.07" xlink:href="#linear-gradient"/><linearGradient id="linear-gradient-7" x1="24.41" y1="-2.52" x2="25.07" y2="101.23" xlink:href="#linear-gradient"/><linearGradient id="linear-gradient-8" x1="24.5" y1="-2.52" x2="25.17" y2="101.23" gradientTransform="translate(60.75 7.41) rotate(67.5)" xlink:href="#linear-gradient"/><linearGradient id="linear-gradient-9" x1="24.27" y1="-2.52" x2="24.94" y2="101.23" gradientTransform="translate(94.01 29.63) rotate(67.5)" xlink:href="#linear-gradient"/><linearGradient id="linear-gradient-10" x1="3.91" y1="-2.39" x2="4.57" y2="101.36" xlink:href="#linear-gradient"/><linearGradient id="linear-gradient-11" x1="4.17" y1="-2.39" x2="4.83" y2="101.36" xlink:href="#linear-gradient"/><linearGradient id="linear-gradient-12" x1="3.94" y1="-2.39" x2="4.6" y2="101.36" xlink:href="#linear-gradient"/></defs><g id="Layer_2" data-name="Layer 2"><g id="Layer_1-2" data-name="Layer 1"><circle class="cls-1" cx="80.5" cy="12.5" r="12.5"/><circle class="cls-2" cx="80.5" cy="48.5" r="12.5"/><circle class="cls-3" cx="80.5" cy="84.5" r="12.5"/><path class="cls-4" d="M50,22a9.67,9.67,0,0,0,9.67-9.67h0A9.67,9.67,0,1,0,50,22Z"/><path class="cls-5" d="M50.17,39.17a9.67,9.67,0,1,0,9.66,9.66h0A9.65,9.65,0,0,0,50.17,39.17Z"/><path class="cls-6" d="M50.17,75.17h0a9.67,9.67,0,1,0,9.66,9.66h0A9.65,9.65,0,0,0,50.17,75.17Z"/><circle class="cls-7" cx="24.5" cy="12.17" r="6.83"/><circle class="cls-8" cx="24.83" cy="49.17" r="6.83" transform="translate(-30.09 53.29) rotate(-67.5)"/><circle class="cls-9" cx="24.83" cy="85.17" r="6.83" transform="translate(-63.35 75.52) rotate(-67.5)"/><circle class="cls-10" cx="4" cy="12" r="4"/><circle class="cls-11" cx="4.5" cy="49.5" r="4"/><circle class="cls-12" cx="4.5" cy="85.5" r="4"/></g></g></svg>