<svg xmlns="http://www.w3.org/2000/svg" xmlns:xlink="http://www.w3.org/1999/xlink" viewBox="0 0 92.43 100.62"><defs><style>.cls-1{fill:url(#linear-gradient);}.cls-2{fill:url(#linear-gradient-2);}.cls-3{fill:url(#linear-gradient-3);}</style><linearGradient id="linear-gradient" x1="46.22" y1="-8.88" x2="46.22" y2="105.51" gradientUnits="userSpaceOnUse"><stop offset="0" stop-color="#100699"/><stop offset="1" stop-color="#328f8c"/></linearGradient><linearGradient id="linear-gradient-2" x1="46.5" y1="-8.88" x2="46.5" y2="105.51" xlink:href="#linear-gradient"/><linearGradient id="linear-gradient-3" x1="46.5" y1="-8.88" x2="46.5" y2="105.51" xlink:href="#linear-gradient"/></defs><g id="Layer_2" data-name="Layer 2"><g id="Layer_1-2" data-name="Layer 1"><polygon class="cls-1" points="92.43 73.06 89.59 66.83 75.27 73.35 59.61 66.76 55.32 71.79 67.01 77.11 46.21 86.58 25.42 77.11 36.96 71.85 33.23 66.57 17.16 73.35 2.84 66.83 0 73.06 8.89 77.11 0 81.16 2.84 87.39 17.16 80.87 37.95 90.34 29.06 94.39 31.89 100.62 46.21 94.11 60.53 100.62 63.38 94.39 54.48 90.34 75.27 80.87 89.59 87.39 92.43 81.16 83.54 77.11 92.43 73.06"/><path class="cls-2" d="M48.32,72.07c.91-1.13,24.56-27.51,24.56-45.7a26.38,26.38,0,0,0-52.75,0c0,18,23.64,44.57,24.55,45.7A2.36,2.36,0,0,0,48.32,72.07ZM46.5,4.77a21.59,21.59,0,0,1,21.6,21.6c0,12.28-13.64,30.92-21.6,40.47-8-9.55-21.6-28.19-21.6-40.47A21.74,21.74,0,0,1,46.5,4.77Z"/><path class="cls-3" d="M59.69,26.37A13.19,13.19,0,1,0,46.5,39.56,13.19,13.19,0,0,0,59.69,26.37Zm-21.6,0a8.41,8.41,0,1,1,16.82,0,8.41,8.41,0,1,1-16.82,0Z"/></g></g></svg>