<svg xmlns="http://www.w3.org/2000/svg" xmlns:xlink="http://www.w3.org/1999/xlink" viewBox="0 0 85.17 106.12"><defs><style>.cls-1{fill:url(#linear-gradient);}.cls-2{fill:url(#linear-gradient-2);}.cls-3{fill:url(#linear-gradient-3);}.cls-4{fill:url(#linear-gradient-4);}</style><linearGradient id="linear-gradient" x1="42.58" y1="-13.37" x2="42.58" y2="118.38" gradientUnits="userSpaceOnUse"><stop offset="0" stop-color="#100699"/><stop offset="1" stop-color="#328f8c"/></linearGradient><linearGradient id="linear-gradient-2" x1="42.58" y1="-13.37" x2="42.58" y2="118.38" xlink:href="#linear-gradient"/><linearGradient id="linear-gradient-3" x1="50.86" y1="-13.37" x2="50.86" y2="118.38" xlink:href="#linear-gradient"/><linearGradient id="linear-gradient-4" x1="42.75" y1="-13.37" x2="42.75" y2="118.38" xlink:href="#linear-gradient"/></defs><g id="Layer_2" data-name="Layer 2"><g id="Layer_1-2" data-name="Layer 1"><path class="cls-1" d="M85.16,59.78V19a6,6,0,0,0-6-6A50,50,0,0,1,55.65,7.48a34.49,34.49,0,0,1-8.07-5.62A6,6,0,0,0,43.31,0h-.08A6,6,0,0,0,39,1.77C28.56,12.22,12.52,13,7.85,13c-.93,0-1.47,0-1.47,0L6,13a6,6,0,0,0-6,6V60.22c0,9.07,7.47,16,8.32,16.77L39.25,104.6a6,6,0,0,0,8,0c1.11-1,27.12-24.12,31.85-28.84C85.14,69.7,85.21,61.37,85.16,59.78ZM74.84,71.53c-4.66,4.65-31.6,28.59-31.6,28.59L12.32,72.52S6,66.87,6,60.22V19s.67.05,1.85.05c5.71,0,23.41-1,35.39-13,0,0,12.31,13,35.92,13V59.89S79.49,66.87,74.84,71.53Z"/><path class="cls-2" d="M42.58,25.93A20.62,20.62,0,1,0,63.2,46.55,20.67,20.67,0,0,0,42.58,25.93Zm0,37.88A17.27,17.27,0,1,1,59.85,46.55,17.26,17.26,0,0,1,42.58,63.81Z"/><path class="cls-3" d="M50.83,40.62c.13-.13,0-.13,0,0Z"/><path class="cls-4" d="M50.83,40.62,40.39,51.18l-6-6.18A1.64,1.64,0,0,0,32,47.32l7.34,7.34c.13.13.26.13.39.26l.13.13a1.64,1.64,0,0,0,1.28,0c.13,0,.13-.13.26-.13s.26-.13.39-.26L53.4,42.81a1.63,1.63,0,0,0,.13-2.32A2,2,0,0,0,50.83,40.62Z"/></g></g></svg>