<svg xmlns="http://www.w3.org/2000/svg" xmlns:xlink="http://www.w3.org/1999/xlink" viewBox="0 0 114.31 103.18"><defs><style>.cls-1{fill:url(#linear-gradient);}.cls-2{fill:url(#linear-gradient-2);}.cls-3{fill:url(#linear-gradient-3);}.cls-4{fill:url(#linear-gradient-4);}.cls-5{fill:url(#linear-gradient-5);}.cls-6{fill:url(#linear-gradient-6);}.cls-7{fill:url(#linear-gradient-7);}</style><linearGradient id="linear-gradient" x1="56.65" y1="-5.49" x2="56.65" y2="109.57" gradientUnits="userSpaceOnUse"><stop offset="0" stop-color="#100699"/><stop offset="1" stop-color="#328f8c"/></linearGradient><linearGradient id="linear-gradient-2" x1="22.51" y1="-5.49" x2="22.51" y2="109.57" xlink:href="#linear-gradient"/><linearGradient id="linear-gradient-3" x1="97.63" y1="-5.49" x2="97.63" y2="109.57" xlink:href="#linear-gradient"/><linearGradient id="linear-gradient-4" x1="85.99" y1="-5.49" x2="85.99" y2="109.57" xlink:href="#linear-gradient"/><linearGradient id="linear-gradient-5" x1="17.44" y1="-5.49" x2="17.44" y2="109.57" xlink:href="#linear-gradient"/><linearGradient id="linear-gradient-6" x1="87" y1="-5.49" x2="87" y2="109.57" xlink:href="#linear-gradient"/><linearGradient id="linear-gradient-7" x1="31.62" y1="-5.49" x2="31.62" y2="109.57" xlink:href="#linear-gradient"/></defs><g id="Layer_2" data-name="Layer 2"><g id="Layer_1-2" data-name="Layer 1"><path class="cls-1" d="M72.34,65.62V49.71a4.7,4.7,0,0,0-3.54-4.54V35.28a6,6,0,0,0-6-6H51.47a6,6,0,0,0-5.95,6v1.63a2,2,0,1,0,4,0V35.28a1.91,1.91,0,0,1,1.9-1.91H62.84a1.92,1.92,0,0,1,1.91,1.91V45H45.66a4.71,4.71,0,0,0-4.7,4.7V65.62a4.71,4.71,0,0,0,4.7,4.7h22A4.71,4.71,0,0,0,72.34,65.62ZM45,65.62V49.71a.65.65,0,0,1,.65-.65h22a.65.65,0,0,1,.65.65V65.62a.65.65,0,0,1-.65.65h-22A.65.65,0,0,1,45,65.62Z"/><path class="cls-2" d="M17.68,19V33.88a2,2,0,0,0,1.18,1.84L32,41.79a1.94,1.94,0,0,0,.84.19,2,2,0,0,0,.85-3.87l-12-5.53V19a9.59,9.59,0,1,0-4.05,0ZM19.71,5a4.59,4.59,0,1,1-4.59,4.59A4.59,4.59,0,0,1,19.71,5Z"/><path class="cls-3" d="M104.73,34.41A9.6,9.6,0,0,0,95.14,44a9.47,9.47,0,0,0,1.54,5.18l-4.43,4.43H83a2,2,0,1,0,0,4H93.09a2,2,0,0,0,1.43-.59l5-5a9.58,9.58,0,1,0,5.19-17.64Zm0,14.17A4.59,4.59,0,1,1,109.31,44,4.59,4.59,0,0,1,104.73,48.58Z"/><path class="cls-4" d="M97.64,82a9.59,9.59,0,0,0-9.45,8.06H75.07L68.55,78A2,2,0,1,0,65,79.88L72.08,93a2,2,0,0,0,1.78,1.06H88.41A9.58,9.58,0,1,0,97.64,82Zm0,14.17a4.58,4.58,0,0,1-4.53-4.06v0a2,2,0,0,0,0-.43s0-.05,0-.08a4.59,4.59,0,1,1,4.58,4.59Z"/><path class="cls-5" d="M23.38,57.16h9.49a2,2,0,0,0,0-4H22.74a2,2,0,0,0-1.15.36l-5.47,3.78a9.57,9.57,0,1,0,3.05,7,9.49,9.49,0,0,0-.73-3.66ZM9.58,68.83a4.59,4.59,0,1,1,4.59-4.59A4.59,4.59,0,0,1,9.58,68.83Z"/><path class="cls-6" d="M67.81,22a2,2,0,0,0,1,.26,2,2,0,0,0,1.78-1l4.48-8.07H88.41a9.59,9.59,0,1,0-.22-4.05H73.86a2,2,0,0,0-1.77,1L67,19.23A2,2,0,0,0,67.81,22ZM97.64,6a4.59,4.59,0,1,1-4.58,4.59A4.6,4.6,0,0,1,97.64,6Z"/><path class="cls-7" d="M40.54,79,34,85.55A9.47,9.47,0,0,0,28.82,84a9.6,9.6,0,1,0,8,4.4l6.54-6.54A2,2,0,1,0,40.54,79ZM28.82,98.18A4.59,4.59,0,1,1,33.4,93.6,4.59,4.59,0,0,1,28.82,98.18Z"/></g></g></svg>