<svg id="Layer_1" data-name="Layer 1" xmlns="http://www.w3.org/2000/svg" viewBox="0 0 24 24"><defs><style>.cls-1{fill:#333;}.cls-2{fill:none;stroke:#ccc;stroke-miterlimit:10;}</style></defs><path class="cls-1" d="M22.5,4H24V0H20V4h1a8.6,8.6,0,0,1-7,7.1V10H10v1.2H3.9A2.1,2.1,0,0,0,2,9.9a2,2,0,0,0,0,4,2.1,2.1,0,0,0,1.9-1.2H6.2A10.9,10.9,0,0,0,1.5,20H0v4H4V20H3a8.6,8.6,0,0,1,7-7.1V14h4V12.7h6A2,2,0,0,0,21.9,14a2,2,0,0,0,0-4,2,2,0,0,0-1.8,1.2H18A10.7,10.7,0,0,0,22.5,4Z"/><rect class="cls-2" x="-506.1" y="-49.4" width="884.3" height="859.94"/></svg>