<?xml version="1.0" encoding="UTF-8"?><svg id="Layer_2" xmlns="http://www.w3.org/2000/svg" viewBox="0 0 21 16.5"><defs><style>.cls-1{fill:none;}.cls-2{fill:#333;}</style></defs><g id="Layer_1-2"><g><g><path class="cls-2" d="M10.5,8.81c.41,0,.75-.34,.75-.75V1c0-.41-.34-.75-.75-.75s-.75,.34-.75,.75v7.06c0,.41,.34,.75,.75,.75Z"/><path class="cls-2" d="M17.75,14.75H3.25c-.41,0-.75,.34-.75,.75s.34,.75,.75,.75h14.5c.41,0,.75-.34,.75-.75s-.34-.75-.75-.75Z"/><path class="cls-2" d="M10,13.08c.14,.13,.32,.19,.5,.19s.36-.06,.5-.19l3.74-3.39c.31-.28,.33-.75,.05-1.06-.28-.31-.75-.33-1.06-.05l-3.24,2.93-3.24-2.93c-.31-.28-.78-.25-1.06,.05-.28,.31-.25,.78,.05,1.06l3.74,3.39Z"/></g><rect class="cls-1" width="21" height="16.5"/></g></g></svg>