<?xml version="1.0" encoding="UTF-8"?><svg id="Layer_2" xmlns="http://www.w3.org/2000/svg" viewBox="0 0 21 16.5"><defs><style>.cls-1{fill:none;}.cls-2{fill:#333;}</style></defs><g id="Layer_1-2"><g><g><path class="cls-2" d="M4.47,11.78c-1.23,0-2.24,1-2.24,2.24s1,2.24,2.24,2.24,2.24-1,2.24-2.24-1-2.24-2.24-2.24Zm0,2.97c-.41,0-.74-.33-.74-.74s.33-.74,.74-.74,.74,.33,.74,.74-.33,.74-.74,.74Z"/><path class="cls-2" d="M18.75,11.78c-1.23,0-2.24,1-2.24,2.24s1,2.24,2.24,2.24,2.24-1,2.24-2.24-1-2.24-2.24-2.24Zm0,2.97c-.41,0-.74-.33-.74-.74s.33-.74,.74-.74,.74,.33,.74,.74-.33,.74-.74,.74Z"/><path class="cls-2" d="M14.4,13.26h-5.57c-.41,0-.75,.34-.75,.75s.34,.75,.75,.75h5.57c.41,0,.75-.34,.75-.75s-.34-.75-.75-.75Z"/><path class="cls-2" d="M19.5,7.79V1.93c0-.41-.34-.75-.75-.75H8.41c-.41,0-.75,.34-.75,.75s.34,.75,.75,.75h9.59V7.14l-10.48,1.52c-.18,.03-.35,.12-.47,.26l-.84,1.01c-.26,.32-.22,.79,.1,1.06,.14,.12,.31,.17,.48,.17,.22,0,.43-.09,.58-.27l.65-.79,10.83-1.57c.37-.05,.64-.37,.64-.74Z"/><path class="cls-2" d="M5.36,6.83c.13,.26,.4,.4,.67,.4,.12,0,.23-.03,.35-.08,.37-.19,.51-.64,.32-1.01L3.84,.65c-.13-.25-.39-.4-.67-.4H.77C.35,.25,.02,.59,.02,1s.34,.75,.75,.75h1.95l2.64,5.08Z"/></g><rect class="cls-1" width="21" height="16.5"/></g></g></svg>