<?xml version="1.0" encoding="UTF-8"?><svg id="Layer_2" xmlns="http://www.w3.org/2000/svg" viewBox="0 0 21 16.5"><defs><style>.cls-1{fill:none;}.cls-2{fill:#333;}</style></defs><g id="Layer_1-2"><g><rect class="cls-1" width="21" height="16.5"/><g><path class="cls-2" d="M17.59,4.54c-.19-.37-.65-.51-1.01-.32s-.51,.65-.32,1.01c.48,.92,.74,1.96,.74,3.01,0,3.58-2.92,6.5-6.5,6.5s-6.5-2.92-6.5-6.5c0-1.35,.41-2.65,1.19-3.75,.36-.51,.79-.96,1.28-1.35,.39-.31,.81-.57,1.25-.78,1.32-.62,2.84-.78,4.25-.46,.4,.09,.81-.16,.9-.56,.09-.4-.16-.81-.56-.9-1.75-.4-3.61-.21-5.23,.56-.54,.26-1.06,.58-1.54,.95-.6,.48-1.13,1.03-1.57,1.66-.96,1.36-1.47,2.95-1.47,4.62,0,4.41,3.59,8,8,8s8-3.59,8-8c0-1.29-.31-2.57-.91-3.71Z"/><path class="cls-2" d="M7.43,7.55c-.27-.32-.74-.36-1.06-.09-.32,.27-.36,.74-.09,1.06l2.37,2.81c.14,.17,.35,.27,.57,.27,.01,0,.02,0,.03,0,.23-.01,.45-.13,.58-.32L15.32,3.45c.24-.34,.16-.81-.18-1.04-.34-.24-.81-.16-1.04,.18l-4.92,7.03-1.74-2.07Z"/></g></g></g></svg>