<svg xmlns="http://www.w3.org/2000/svg" xmlns:xlink="http://www.w3.org/1999/xlink" viewBox="0 0 88 88"><defs><linearGradient id="linear-gradient" x1="-267.67" y1="428.43" x2="-267.67" y2="420.76" gradientTransform="matrix(11.26, 0, 0, -11.26, 3059.02, 4824.96)" gradientUnits="userSpaceOnUse"><stop offset="0" stop-color="#2c2f89"/><stop offset="1" stop-color="#318f8c"/></linearGradient><linearGradient id="linear-gradient-2" x1="-291.16" y1="445.86" x2="-291.16" y2="443.98" gradientTransform="matrix(88, 0, 0, -45.76, 25666.17, 20401.88)" xlink:href="#linear-gradient"/><linearGradient id="linear-gradient-3" x1="-208.4" y1="445.33" x2="-208.4" y2="443.1" gradientTransform="matrix(3.52, 0, 0, -38.74, 777.56, 17250.43)" xlink:href="#linear-gradient"/></defs><g id="Layer_2" data-name="Layer 2"><g id="Layer_1-2" data-name="Layer 1"><g id="Group_4180" data-name="Group 4180"><path id="Path_9983" data-name="Path 9983" d="M44,76.74a5.63,5.63,0,1,0,5.63,5.63h0A5.63,5.63,0,0,0,44,76.74Zm0,7.74a2.11,2.11,0,1,1,2.11-2.11A2.11,2.11,0,0,1,44,84.48Z" fill="url(#linear-gradient)"/><path id="Path_9984" data-name="Path 9984" d="M44,0A44.05,44.05,0,0,0,0,44a1.76,1.76,0,0,0,3.52,0h0a12.32,12.32,0,0,1,24.64,0h0a1.76,1.76,0,1,0,3.52,0h0a12.32,12.32,0,0,1,24.64,0h0a1.76,1.76,0,0,0,3.52,0h0a12.32,12.32,0,0,1,24.64,0h0A1.76,1.76,0,0,0,88,44h0A44.05,44.05,0,0,0,44,0ZM72.16,28.16a15.84,15.84,0,0,0-14.08,8.62,15.8,15.8,0,0,0-28.16,0A15.77,15.77,0,0,0,5.27,32.24a40.47,40.47,0,0,1,77.46,0A15.7,15.7,0,0,0,72.16,28.16Z" fill="url(#linear-gradient-2)"/><path id="Path_9985" data-name="Path 9985" d="M45.76,72V36.78a1.76,1.76,0,0,0-3.52,0V72a1.76,1.76,0,0,0,3.52,0Z" fill="url(#linear-gradient-3)"/></g></g></g></svg>