<svg xmlns="http://www.w3.org/2000/svg" xmlns:xlink="http://www.w3.org/1999/xlink" viewBox="0 0 88 88"><defs><linearGradient id="linear-gradient" x1="-216.52" y1="639.45" x2="-216.52" y2="637.12" gradientTransform="matrix(50.74, 0, 0, -38.37, 11043.94, 24532.06)" gradientUnits="userSpaceOnUse"><stop offset="0" stop-color="#2c2f89"/><stop offset="1" stop-color="#318f8c"/></linearGradient><linearGradient id="linear-gradient-2" x1="-205.13" y1="636.26" x2="-205.13" y2="630.08" gradientTransform="matrix(14.44, 0, 0, -14.44, 2990.77, 9185.83)" xlink:href="#linear-gradient"/><linearGradient id="linear-gradient-3" x1="-205.13" y1="636.26" x2="-205.13" y2="630.08" gradientTransform="matrix(14.44, 0, 0, -14.44, 3043.3, 9185.83)" xlink:href="#linear-gradient"/><linearGradient id="linear-gradient-4" x1="-214.16" y1="616.91" x2="-214.16" y2="591.56" gradientTransform="matrix(33.36, 0, 0, -3.52, 7198.2, 2169.08)" xlink:href="#linear-gradient"/><linearGradient id="linear-gradient-5" x1="-211.96" y1="638.07" x2="-211.96" y2="634.93" gradientTransform="matrix(25.3, 0, 0, -28.36, 5389.11, 18090.21)" xlink:href="#linear-gradient"/><linearGradient id="linear-gradient-6" x1="-204.26" y1="606.21" x2="-204.26" y2="580.86" gradientTransform="matrix(13.69, 0, 0, -3.52, 2803.09, 2131.41)" xlink:href="#linear-gradient"/><linearGradient id="linear-gradient-7" x1="-217.86" y1="594.46" x2="-217.86" y2="569.11" gradientTransform="matrix(72.08, 0, 0, -3.52, 15740.07, 2090.06)" xlink:href="#linear-gradient"/><linearGradient id="linear-gradient-8" x1="-216.54" y1="597.37" x2="-216.54" y2="572.02" gradientTransform="matrix(51.01, 0, 0, -3.52, 11100.74, 2100.31)" xlink:href="#linear-gradient"/><linearGradient id="linear-gradient-9" x1="-216.54" y1="600.27" x2="-216.54" y2="574.92" gradientTransform="matrix(51.01, 0, 0, -3.52, 11079.01, 2110.53)" xlink:href="#linear-gradient"/><linearGradient id="linear-gradient-10" x1="-210.06" y1="609.71" x2="-210.06" y2="584.36" gradientTransform="matrix(20.91, 0, 0, -3.52, 4410.31, 2143.75)" xlink:href="#linear-gradient"/><linearGradient id="linear-gradient-11" x1="-211.89" y1="613.22" x2="-211.89" y2="587.87" gradientTransform="matrix(25.1, 0, 0, -3.52, 5331.53, 2156.1)" xlink:href="#linear-gradient"/></defs><g id="Layer_2" data-name="Layer 2"><g id="Layer_1-2" data-name="Layer 1"><g id="Group_4269" data-name="Group 4269"><path id="Path_10095" data-name="Path 10095" d="M37.17,36.38a1.76,1.76,0,0,0,1.76,1.76H79V56.37L39.59,62.08a1.75,1.75,0,0,0-1.09.6l-6.31,7.43a1.76,1.76,0,0,0,2.69,2.28l5.88-6.93L81,59.63a1.75,1.75,0,0,0,1.51-1.74V36.38a1.76,1.76,0,0,0-1.76-1.76H38.94a1.75,1.75,0,0,0-1.77,1.75Z" fill="url(#linear-gradient)"/><path id="Path_10096" data-name="Path 10096" d="M28.24,73.56a7.22,7.22,0,1,0,7.23,7.22A7.22,7.22,0,0,0,28.24,73.56Zm0,10.92A3.7,3.7,0,1,1,32,80.78,3.69,3.69,0,0,1,28.24,84.48Z" fill="url(#linear-gradient-2)"/><path id="Path_10097" data-name="Path 10097" d="M80.77,73.56A7.22,7.22,0,1,0,88,80.78,7.22,7.22,0,0,0,80.77,73.56Zm0,10.92a3.7,3.7,0,1,1,3.71-3.7A3.69,3.69,0,0,1,80.77,84.48Z" fill="url(#linear-gradient-3)"/><path id="Path_10098" data-name="Path 10098" d="M69,79H39.18a1.76,1.76,0,1,0,0,3.52H69A1.76,1.76,0,1,0,69,79Z" fill="url(#linear-gradient-4)"/><path id="Path_10099" data-name="Path 10099" d="M36.4,59.55A1.76,1.76,0,0,0,38,57L25,32.14a1.76,1.76,0,0,0-1.56-.95H14.61a1.76,1.76,0,0,0,0,3.52H22.4L34.83,58.6A1.77,1.77,0,0,0,36.4,59.55Z" fill="url(#linear-gradient-5)"/><path id="Path_10100" data-name="Path 10100" d="M1.76,44.87H11.93a1.76,1.76,0,0,0,0-3.52H1.76a1.76,1.76,0,1,0,0,3.52Z" fill="url(#linear-gradient-6)"/><path id="Path_10101" data-name="Path 10101" d="M1.76,3.52H70.32a1.76,1.76,0,1,0,0-3.52H1.76a1.76,1.76,0,0,0,0,3.52Z" fill="url(#linear-gradient-7)"/><path id="Path_10102" data-name="Path 10102" d="M29.07,12a1.76,1.76,0,0,0,1.76,1.76H78.32a1.76,1.76,0,1,0,0-3.52H30.83A1.76,1.76,0,0,0,29.07,12Z" fill="url(#linear-gradient-8)"/><path id="Path_10103" data-name="Path 10103" d="M59.21,22.22a1.76,1.76,0,0,0-1.76-1.76H10A1.76,1.76,0,1,0,10,24H57.45A1.76,1.76,0,0,0,59.21,22.22Z" fill="url(#linear-gradient-9)"/><path id="Path_10104" data-name="Path 10104" d="M9.18,53.69a1.76,1.76,0,1,0,0,3.52H26.57a1.76,1.76,0,0,0,0-3.52Z" fill="url(#linear-gradient-10)"/><path id="Path_10105" data-name="Path 10105" d="M25.1,67.78A1.76,1.76,0,0,0,23.34,66H1.76a1.76,1.76,0,1,0,0,3.52H23.34a1.76,1.76,0,0,0,1.76-1.76Z" fill="url(#linear-gradient-11)"/></g></g></g></svg>