<svg xmlns="http://www.w3.org/2000/svg" xmlns:xlink="http://www.w3.org/1999/xlink" viewBox="0 0 88 88"><defs><linearGradient id="linear-gradient" x1="176.29" y1="1054.54" x2="176.29" y2="1046.93" gradientTransform="matrix(11.4, 0, 0, -11.4, -1995.1, 12021.37)" gradientUnits="userSpaceOnUse"><stop offset="0" stop-color="#2c2f89"/><stop offset="1" stop-color="#318f8c"/></linearGradient><linearGradient id="linear-gradient-2" x1="176.29" y1="1052.52" x2="176.29" y2="1044.91" gradientTransform="matrix(11.4, 0, 0, -11.4, -1971.23, 11998.35)" xlink:href="#linear-gradient"/><linearGradient id="linear-gradient-3" x1="176.29" y1="1053.29" x2="176.29" y2="1045.69" gradientTransform="matrix(11.4, 0, 0, -11.4, -1947.36, 12007.15)" xlink:href="#linear-gradient"/><linearGradient id="linear-gradient-4" x1="176.28" y1="1051.89" x2="176.28" y2="1044.29" gradientTransform="matrix(11.39, 0, 0, -11.4, -1925.83, 11988.09)" xlink:href="#linear-gradient"/><linearGradient id="linear-gradient-5" x1="178.15" y1="1051.74" x2="178.15" y2="1044.73" gradientTransform="matrix(12.89, 0, 0, -12.37, -2270.45, 13004.46)" xlink:href="#linear-gradient"/><linearGradient id="linear-gradient-6" x1="173.12" y1="1074.98" x2="173.12" y2="1059.82" gradientTransform="matrix(9.53, 0, 0, -5.74, -1598.55, 6170.94)" xlink:href="#linear-gradient"/><linearGradient id="linear-gradient-7" x1="179.06" y1="1051.2" x2="179.06" y2="1043.99" gradientTransform="matrix(13.76, 0, 0, -12.06, -2389.53, 12679.85)" xlink:href="#linear-gradient"/><linearGradient id="linear-gradient-8" x1="190.31" y1="1033.48" x2="190.31" y2="1032.49" gradientTransform="matrix(88, 0, 0, -88, -16702.06, 90945.86)" xlink:href="#linear-gradient"/></defs><g id="Layer_2" data-name="Layer 2"><g id="Layer_1-2" data-name="Layer 1"><g id="Group_4172" data-name="Group 4172"><path id="Path_9903" data-name="Path 9903" d="M14.64,64.79a5.7,5.7,0,1,0-5.7-5.7,5.7,5.7,0,0,0,5.7,5.7Zm0-7.87a2.18,2.18,0,1,1-2.18,2.18h0a2.19,2.19,0,0,1,2.18-2.18Z" fill="url(#linear-gradient)"/><path id="Path_9904" data-name="Path 9904" d="M38.5,41.77a5.7,5.7,0,1,0-5.7-5.7,5.7,5.7,0,0,0,5.7,5.7Zm0-7.87a2.18,2.18,0,1,1-2.17,2.17h0A2.17,2.17,0,0,1,38.5,33.9Z" fill="url(#linear-gradient-2)"/><path id="Path_9905" data-name="Path 9905" d="M62.37,50.57a5.7,5.7,0,1,0-5.7-5.7,5.7,5.7,0,0,0,5.7,5.7Zm0-7.87a2.18,2.18,0,1,1-2.18,2.18h0a2.19,2.19,0,0,1,2.18-2.18Z" fill="url(#linear-gradient-3)"/><path id="Path_9906" data-name="Path 9906" d="M86.24,23.2H78.36a1.76,1.76,0,0,0,0,3.52h6.12v6.12a1.76,1.76,0,0,0,3.52,0V25a1.76,1.76,0,0,0-1.76-1.76Z" fill="url(#linear-gradient-4)"/><path id="Path_9907" data-name="Path 9907" d="M21.55,53.83a1.76,1.76,0,0,0,1.21-.48l9.37-8.84A1.76,1.76,0,1,0,29.71,42h0l-9.37,8.84a1.76,1.76,0,0,0,1.21,3Z" fill="url(#linear-gradient-5)"/><path id="Path_9908" data-name="Path 9908" d="M47,41.07l5.94,2.2a1.87,1.87,0,0,0,.61.11,1.76,1.76,0,0,0,1.76-1.76A1.72,1.72,0,0,0,54.14,40l-5.94-2.2A1.76,1.76,0,1,0,46.86,41l.12,0Z" fill="url(#linear-gradient-6)"/><path id="Path_9909" data-name="Path 9909" d="M69.56,40.64a1.7,1.7,0,0,0,1.12-.41l10.2-8.5A1.76,1.76,0,1,0,78.72,29l-.1.08-10.19,8.5a1.76,1.76,0,0,0,1.13,3.11Z" fill="url(#linear-gradient-7)"/><path id="Path_9910" data-name="Path 9910" d="M86.24,84.48H3.52V1.76A1.76,1.76,0,0,0,0,1.76H0V86.24A1.76,1.76,0,0,0,1.76,88H86.24a1.76,1.76,0,1,0,0-3.52Z" fill="url(#linear-gradient-8)"/></g></g></g></svg>