<svg xmlns="http://www.w3.org/2000/svg" xmlns:xlink="http://www.w3.org/1999/xlink" viewBox="0 0 87.99 88.02"><defs><linearGradient id="linear-gradient" x1="-57" y1="479.3" x2="-57" y2="471.86" gradientTransform="matrix(11.58, 0, 0, -11.58, 728.65, 5552.11)" gradientUnits="userSpaceOnUse"><stop offset="0" stop-color="#2c2f89"/><stop offset="1" stop-color="#318f8c"/></linearGradient><linearGradient id="linear-gradient-2" x1="-61.04" y1="495.63" x2="-61.04" y2="493.01" gradientTransform="matrix(32.98, 0, 0, -32.99, 2081.58, 16349.72)" xlink:href="#linear-gradient"/><linearGradient id="linear-gradient-3" x1="-60.64" y1="495.29" x2="-60.64" y2="492.2" gradientTransform="matrix(27.89, 0, 0, -27.89, 1705.48, 13815.91)" xlink:href="#linear-gradient"/><linearGradient id="linear-gradient-4" x1="-57.88" y1="483.91" x2="-57.88" y2="477.51" gradientTransform="matrix(13.48, 0, 0, -13.48, 800.82, 6522.23)" xlink:href="#linear-gradient"/><linearGradient id="linear-gradient-5" x1="-56.09" y1="478.66" x2="-56.09" y2="470.16" gradientTransform="matrix(10.1, 0, 0, -10.1, 603.92, 4835.57)" xlink:href="#linear-gradient"/><linearGradient id="linear-gradient-6" x1="-56.2" y1="480.43" x2="-56.2" y2="472.01" gradientTransform="matrix(10.26, 0, 0, -10.26, 627.64, 4928.04)" xlink:href="#linear-gradient"/><linearGradient id="linear-gradient-7" x1="-58.02" y1="487.79" x2="-58.02" y2="481.56" gradientTransform="matrix(13.84, 0, 0, -13.84, 841.95, 6751.96)" xlink:href="#linear-gradient"/><linearGradient id="linear-gradient-8" x1="-55.42" y1="473.15" x2="-55.42" y2="463.86" gradientTransform="matrix(9.23, 0, 0, -9.23, 548.69, 4368.84)" xlink:href="#linear-gradient"/><linearGradient id="linear-gradient-9" x1="-52.74" y1="460.19" x2="-52.74" y2="447.61" gradientTransform="matrix(6.87, 0, 0, -6.87, 412.3, 3162.66)" xlink:href="#linear-gradient"/><linearGradient id="linear-gradient-10" x1="-52.73" y1="464.75" x2="-52.73" y2="452.17" gradientTransform="matrix(6.87, 0, 0, -6.87, 443.53, 3193.7)" xlink:href="#linear-gradient"/><linearGradient id="linear-gradient-11" x1="-56.03" y1="477.08" x2="-56.03" y2="468.48" gradientTransform="matrix(10.02, 0, 0, -10.02, 613.12, 4781.8)" xlink:href="#linear-gradient"/><linearGradient id="linear-gradient-12" x1="-56.18" y1="478.98" x2="-56.18" y2="470.56" gradientTransform="matrix(10.23, 0, 0, -10.23, 639.99, 4901.28)" xlink:href="#linear-gradient"/><linearGradient id="linear-gradient-13" x1="-56.15" y1="477.47" x2="-56.15" y2="469.05" gradientTransform="matrix(10.19, 0, 0, -10.19, 580.69, 4864.6)" xlink:href="#linear-gradient"/><linearGradient id="linear-gradient-14" x1="-60.65" y1="493.83" x2="-60.65" y2="490.75" gradientTransform="matrix(28.02, 0, 0, -28.02, 1731.41, 13837.88)" xlink:href="#linear-gradient"/><linearGradient id="linear-gradient-15" x1="-59.08" y1="489.25" x2="-59.08" y2="484.3" gradientTransform="matrix(17.38, 0, 0, -17.38, 1053.27, 8504.43)" xlink:href="#linear-gradient"/><linearGradient id="linear-gradient-16" x1="-51.31" y1="458.71" x2="-51.31" y2="444.5" gradientTransform="matrix(6.05, 0, 0, -6.05, 349.32, 2775.57)" xlink:href="#linear-gradient"/><linearGradient id="linear-gradient-17" x1="-51.33" y1="462.37" x2="-51.33" y2="448.16" gradientTransform="matrix(6.06, 0, 0, -6.06, 356.3, 2802.11)" xlink:href="#linear-gradient"/><linearGradient id="linear-gradient-18" x1="-58.72" y1="487.81" x2="-58.72" y2="482.43" gradientTransform="matrix(16, 0, 0, -16, 996, 7804.9)" xlink:href="#linear-gradient"/><linearGradient id="linear-gradient-19" x1="-54.18" y1="468.77" x2="-54.18" y2="458" gradientTransform="matrix(7.97, 0, 0, -7.97, 478.42, 3737.5)" xlink:href="#linear-gradient"/><linearGradient id="linear-gradient-20" x1="-58" y1="486.74" x2="-58" y2="480.5" gradientTransform="matrix(13.81, 0, 0, -13.82, 835.94, 6725.17)" xlink:href="#linear-gradient"/><linearGradient id="linear-gradient-21" x1="-60.27" y1="494.64" x2="-60.27" y2="491.11" gradientTransform="matrix(24.41, 0, 0, -24.41, 1528.93, 12071.87)" xlink:href="#linear-gradient"/><linearGradient id="linear-gradient-22" x1="-50.71" y1="460.12" x2="-50.71" y2="445.23" gradientTransform="matrix(5.76, 0, 0, -5.76, 365.63, 2651.27)" xlink:href="#linear-gradient"/><linearGradient id="linear-gradient-23" x1="-56.86" y1="481.14" x2="-56.86" y2="473.53" gradientTransform="matrix(11.32, 0, 0, -11.32, 726.14, 5447.86)" xlink:href="#linear-gradient"/></defs><g id="Layer_2" data-name="Layer 2"><g id="Layer_1-2" data-name="Layer 1"><g id="Group_4178" data-name="Group 4178"><path id="Path_9954" data-name="Path 9954" d="M64.24,16.35a5.81,5.81,0,1,0,4.1-1.7A5.79,5.79,0,0,0,64.24,16.35Zm6.31,4.1a2.21,2.21,0,1,1-2.21-2.21,2.21,2.21,0,0,1,2.21,2.21Z" fill="url(#linear-gradient)"/><path id="Path_9955" data-name="Path 9955" d="M75.74,7.17,74.88,8a14.9,14.9,0,0,0-2.3-1V5.86A1.79,1.79,0,0,0,70.8,4.07H65.89A1.79,1.79,0,0,0,64.1,5.86h0v1.2a14.9,14.9,0,0,0-2.3,1L61,7.17a1.79,1.79,0,0,0-2.53,0h0L55,10.63a1.79,1.79,0,0,0,0,2.53h0l.89.9a13.86,13.86,0,0,0-.91,2.26H53.64a1.79,1.79,0,0,0-1.79,1.79h0V23a1.79,1.79,0,0,0,1.79,1.79H55A14.12,14.12,0,0,0,55.92,27l-1,1a1.79,1.79,0,0,0,0,2.53h0L58.42,34A1.79,1.79,0,0,0,61,34h0l1-1a13.91,13.91,0,0,0,2.15.89v1.43a1.79,1.79,0,0,0,1.78,1.79H70.8a1.79,1.79,0,0,0,1.78-1.79h0V33.84A13.91,13.91,0,0,0,74.73,33l1,1a1.79,1.79,0,0,0,2.53,0h0l3.47-3.46a1.79,1.79,0,0,0,0-2.53h0l-1-1a14.12,14.12,0,0,0,.93-2.19h1.35A1.79,1.79,0,0,0,84.84,23h0v-4.9a1.79,1.79,0,0,0-1.79-1.79H81.76a13,13,0,0,0-.91-2.26l.89-.9a1.79,1.79,0,0,0,0-2.53h0L78.27,7.17a1.79,1.79,0,0,0-2.53,0Zm5.51,14.05h-.93a1.79,1.79,0,0,0-1.75,1.45A10.33,10.33,0,0,1,77,26.28h0c0,.08-.09.16-.13.24a.43.43,0,0,1,0,.07s0,.08,0,.12a1.77,1.77,0,0,0,.42,1.82l.69.69-.93.94-.7-.7h0a2,2,0,0,0-.27-.22l-.15-.08-.15-.08a.83.83,0,0,0-.21-.06l-.12,0-.22,0h-.12l-.24,0h-.1l-.3.09h0a1.54,1.54,0,0,0-.34.17,10.41,10.41,0,0,1-3.58,1.48h0A1.78,1.78,0,0,0,69,32.46v1H67.68v-1a2.19,2.19,0,0,0,0-.36s0-.05,0-.07a2,2,0,0,0-.08-.26l-.17-.3a.64.64,0,0,0-.1-.13,1.34,1.34,0,0,0-.11-.14l-.12-.1L66.9,31l-.19-.1-.11-.07a2.19,2.19,0,0,0-.34-.1h0a10.36,10.36,0,0,1-3.62-1.49l-.18-.09-.13-.07A1.55,1.55,0,0,0,62.1,29L62,29l-.23,0h-.31l-.15,0-.16.05-.18.05-.14.08a1.29,1.29,0,0,0-.16.09,1.56,1.56,0,0,0-.2.16l-.08.06-.71.71-.93-.94.69-.69.05-.06a1.39,1.39,0,0,0,.15-.19,1.19,1.19,0,0,0,.09-.15L59.8,28a1.34,1.34,0,0,0,.07-.18l0-.12a1.29,1.29,0,0,0,0-.19s0-.08,0-.12v-.2s0-.07,0-.11l0-.21,0-.08a.9.9,0,0,0-.08-.23h0a1.24,1.24,0,0,0-.16-.3,10.27,10.27,0,0,1-1.52-3.59,1.79,1.79,0,0,0-1.76-1.45h-.93V19.9h1.06a1.65,1.65,0,0,0,.32-.06l.09,0a1.77,1.77,0,0,0,.31-.15l0,0a1.87,1.87,0,0,0,.61-.64l0-.07a2,2,0,0,0,.17-.47h0a10.26,10.26,0,0,1,1.48-3.68,1.8,1.8,0,0,0-.21-2.27l-.6-.6.93-.94.56.56a1.79,1.79,0,0,0,2,.38,2,2,0,0,0,.25-.14h0a10.44,10.44,0,0,1,3.74-1.56h0a2.32,2.32,0,0,0,.44-.16l.1-.06a1.54,1.54,0,0,0,.36-.27h0a1.83,1.83,0,0,0,.24-.31l.06-.1L67.57,9l0-.13a.86.86,0,0,0,.05-.27c0-.05,0-.09,0-.14V7.66H69v.77a1.78,1.78,0,0,0,1.43,1.77,10.4,10.4,0,0,1,3.73,1.56,1.92,1.92,0,0,0,.66.27h0a1.53,1.53,0,0,0,.3,0h0a1.24,1.24,0,0,0,.27,0h.07l.25-.07.07,0a1.46,1.46,0,0,0,.25-.13l.05,0a1.44,1.44,0,0,0,.27-.22h0L77,11l.94.93-.59.59a1.68,1.68,0,0,0-.24.29v0a1.59,1.59,0,0,0-.15.29s0,0,0,.05a2.29,2.29,0,0,0-.08.28v.05a1.36,1.36,0,0,0,0,.29v0a1.69,1.69,0,0,0,.29,1,10.62,10.62,0,0,1,1.5,3.71,1.76,1.76,0,0,0,1.28,1.38l.1,0h.12l.24,0h.89Z" fill="url(#linear-gradient-2)"/><path id="Path_9956" data-name="Path 9956" d="M27.37,69.6a1.79,1.79,0,0,0,0-2.53h0L3.05,42.76a1.79,1.79,0,0,0-2.53,0,1.8,1.8,0,0,0,0,2.53L24.84,69.6a1.79,1.79,0,0,0,2.53,0Z" fill="url(#linear-gradient-3)"/><path id="Path_9957" data-name="Path 9957" d="M27,41.13a1.79,1.79,0,0,0,0-2.53l-9.9-9.9a1.79,1.79,0,1,0-2.53,2.53l9.9,9.9a1.79,1.79,0,0,0,2.53,0Z" fill="url(#linear-gradient-4)"/><path id="Path_9958" data-name="Path 9958" d="M41.89,56a1.8,1.8,0,0,0,0-2.54l-6.55-6.54a1.79,1.79,0,0,0-2.53,2.53L39.36,56a1.8,1.8,0,0,0,2.53,0Z" fill="url(#linear-gradient-5)"/><path id="Path_9959" data-name="Path 9959" d="M46.53,63.18l6.65,6.65a1.79,1.79,0,0,0,2.59-2.48l-.06,0-6.65-6.66a1.79,1.79,0,1,0-2.53,2.54Z" fill="url(#linear-gradient-6)"/><path id="Path_9960" data-name="Path 9960" d="M32.47,74.71a1.77,1.77,0,0,0,0,2.52h0L42.71,87.48A1.79,1.79,0,0,0,45.29,85l0,0L35,74.71A1.79,1.79,0,0,0,32.47,74.71Z" fill="url(#linear-gradient-7)"/><path id="Path_9961" data-name="Path 9961" d="M41.07,27.07a1.79,1.79,0,0,0,0-2.53h0l-5.69-5.69a1.79,1.79,0,0,0-2.53,2.52l5.69,5.7A1.79,1.79,0,0,0,41.07,27.07Z" fill="url(#linear-gradient-8)"/><path id="Path_9962" data-name="Path 9962" d="M47,4.73a1.8,1.8,0,0,0,0,2.53h0l3.27,3.27a1.79,1.79,0,0,0,2.58-2.48L52.76,8,49.49,4.73a1.77,1.77,0,0,0-2.52,0Z" fill="url(#linear-gradient-9)"/><path id="Path_9963" data-name="Path 9963" d="M78.22,36a1.79,1.79,0,0,0,0,2.53l3.27,3.27a1.79,1.79,0,1,0,2.58-2.48s0,0,0-.05L80.75,36A1.79,1.79,0,0,0,78.22,36Z" fill="url(#linear-gradient-10)"/><path id="Path_9964" data-name="Path 9964" d="M47,35.5l6.44,6.44A1.79,1.79,0,0,0,56,39.47l0-.06L49.5,33A1.79,1.79,0,0,0,47,35.5Z" fill="url(#linear-gradient-11)"/><path id="Path_9965" data-name="Path 9965" d="M69.78,55.77a1.79,1.79,0,0,0,0-2.53l-6.66-6.66a1.79,1.79,0,0,0-2.53,0,1.8,1.8,0,0,0,0,2.53l6.66,6.66a1.79,1.79,0,0,0,2.53,0Z" fill="url(#linear-gradient-12)"/><path id="Path_9966" data-name="Path 9966" d="M6.63,41.72l6.66-6.66a1.79,1.79,0,0,0-2.53-2.53L4.1,39.19a1.79,1.79,0,0,0,2.53,2.53Z" fill="url(#linear-gradient-13)"/><path id="Path_9967" data-name="Path 9967" d="M20.81,27.52,45.28,3.05a1.79,1.79,0,0,0,0-2.53,1.8,1.8,0,0,0-2.53,0L18.28,25a1.79,1.79,0,0,0,.06,2.53,1.77,1.77,0,0,0,2.47,0Z" fill="url(#linear-gradient-14)"/><path id="Path_9968" data-name="Path 9968" d="M20.69,55.78,34.49,42A1.79,1.79,0,0,0,32,39.4l0,.05L18.15,53.26a1.79,1.79,0,0,0,2.53,2.52Z" fill="url(#linear-gradient-15)"/><path id="Path_9969" data-name="Path 9969" d="M36.26,35.15a1.79,1.79,0,0,0,2.53,2.53l2.49-2.49a1.79,1.79,0,0,0-2.48-2.58l0,0Z" fill="url(#linear-gradient-16)"/><path id="Path_9970" data-name="Path 9970" d="M47.72,54.34a1.79,1.79,0,0,0-2.53,0l-2.48,2.48a1.79,1.79,0,0,0,2.53,2.53h0l2.48-2.48A1.79,1.79,0,0,0,47.72,54.34Z" fill="url(#linear-gradient-17)"/><path id="Path_9971" data-name="Path 9971" d="M64,38.07a1.79,1.79,0,0,0-2.53,0h0L49,50.49A1.79,1.79,0,0,0,51.57,53h0L64,40.6A1.79,1.79,0,0,0,64,38.07Z" fill="url(#linear-gradient-18)"/><path id="Path_9972" data-name="Path 9972" d="M49.93,24a1.8,1.8,0,0,0-2.53,0h0L43,28.43A1.79,1.79,0,0,0,45.51,31l4.42-4.42A1.79,1.79,0,0,0,49.93,24Z" fill="url(#linear-gradient-19)"/><path id="Path_9973" data-name="Path 9973" d="M31.17,73.42,41.41,63.18a1.79,1.79,0,0,0-2.53-2.53L28.65,70.89a1.79,1.79,0,0,0,2.53,2.53Z" fill="url(#linear-gradient-20)"/><path id="Path_9974" data-name="Path 9974" d="M67.11,60.54,46.28,81.37a1.79,1.79,0,0,0,2.53,2.53L69.64,63.07a1.79,1.79,0,0,0-2.48-2.58l0,0Z" fill="url(#linear-gradient-21)"/><path id="Path_9975" data-name="Path 9975" d="M73.32,54.34l-2.21,2.21a1.79,1.79,0,0,0,0,2.53,1.8,1.8,0,0,0,2.53,0l2.21-2.21a1.79,1.79,0,0,0-2.53-2.53Z" fill="url(#linear-gradient-22)"/><path id="Path_9976" data-name="Path 9976" d="M84.94,42.71,77.2,50.46a1.79,1.79,0,0,0,0,2.53,1.8,1.8,0,0,0,2.53,0l7.74-7.75a1.79,1.79,0,0,0-2.53-2.53Z" fill="url(#linear-gradient-23)"/></g></g></g></svg>