<svg xmlns="http://www.w3.org/2000/svg" xmlns:xlink="http://www.w3.org/1999/xlink" viewBox="0 0 88 88"><defs><linearGradient id="linear-gradient" x1="-91.12" y1="305.04" x2="-91.12" y2="303.01" gradientTransform="matrix(45.72, 0, 0, -44.27, 4197.94, 13504.17)" gradientUnits="userSpaceOnUse"><stop offset="0" stop-color="#2c2f89"/><stop offset="1" stop-color="#318f8c"/></linearGradient><linearGradient id="linear-gradient-2" x1="-91.11" y1="305.7" x2="-91.11" y2="303.68" gradientTransform="matrix(45.35, 0, 0, -44.64, 4188.36, 13644.35)" xlink:href="#linear-gradient"/><linearGradient id="linear-gradient-3" x1="-92.2" y1="310.44" x2="-92.2" y2="309.42" gradientTransform="matrix(88, 0, 0, -88, 8157.59, 27318.38)" xlink:href="#linear-gradient"/></defs><g id="Layer_2" data-name="Layer 2"><g id="Layer_1-2" data-name="Layer 1"><g id="Group_4270" data-name="Group 4270"><path id="Path_10106" data-name="Path 10106" d="M11.57,53.23a1.9,1.9,0,0,0,.4,0,1.76,1.76,0,0,0,1.32-2.11A31.51,31.51,0,0,1,52.4,13.63a1.77,1.77,0,1,0,1-3.38l-.08,0A35,35,0,0,0,9.85,51.85,1.78,1.78,0,0,0,11.57,53.23Z" fill="url(#linear-gradient)"/><path id="Path_10107" data-name="Path 10107" d="M75.93,34.46a1.77,1.77,0,0,0-1.3,2.13,31.35,31.35,0,0,1-8.35,29.69,31.66,31.66,0,0,1-30.39,8.17,1.77,1.77,0,0,0-.9,3.42,35.05,35.05,0,0,0,43.07-42.1,1.77,1.77,0,0,0-2.13-1.31Z" fill="url(#linear-gradient-2)"/><path id="Path_10108" data-name="Path 10108" d="M87.46.5A1.77,1.77,0,0,0,85.37.22L37.19,26.88A1.77,1.77,0,1,0,38.91,30h0l43-23.8-25.19,48-7.62-7.63a5.71,5.71,0,0,0-7.68-7.69l-9.32-9.33a1.77,1.77,0,0,0-2.5,0,1.92,1.92,0,0,0-.32.43L.2,85.42a1.77,1.77,0,0,0,2.43,2.36L50,61.36a1.77,1.77,0,0,0-1.72-3.09L6.09,81.8l25.23-48,7.62,7.63a5.71,5.71,0,0,0,7.68,7.69l9.32,9.33a1.77,1.77,0,0,0,1.25.52l.27,0a1.81,1.81,0,0,0,1.3-.93l29-55.38A1.77,1.77,0,0,0,87.46.5ZM41.84,44A2.19,2.19,0,1,1,44,46.16,2.18,2.18,0,0,1,41.84,44Z" fill="url(#linear-gradient-3)"/></g></g></g></svg>