<svg xmlns="http://www.w3.org/2000/svg" xmlns:xlink="http://www.w3.org/1999/xlink" viewBox="0 0 88 88"><defs><linearGradient id="linear-gradient" x1="-383.54" y1="373.81" x2="-383.54" y2="372.16" gradientTransform="matrix(61.1, 0, 0, -52.29, 23466.5, 19548.08)" gradientUnits="userSpaceOnUse"><stop offset="0" stop-color="#2c2f89"/><stop offset="1" stop-color="#318f8c"/></linearGradient><linearGradient id="linear-gradient-2" x1="-367.15" y1="354.97" x2="-367.15" y2="349.31" gradientTransform="matrix(17.41, 0, 0, -15.27, 6469.78, 5419.7)" xlink:href="#linear-gradient"/><linearGradient id="linear-gradient-3" x1="-385.54" y1="370.52" x2="-385.54" y2="367.88" gradientTransform="matrix(88, 0, 0, -32.71, 33971.17, 12121.18)" xlink:href="#linear-gradient"/><linearGradient id="linear-gradient-4" x1="-385.54" y1="369.96" x2="-385.54" y2="367.31" gradientTransform="matrix(88, 0, 0, -32.66, 33971.17, 12082.26)" xlink:href="#linear-gradient"/><linearGradient id="linear-gradient-5" x1="-369.46" y1="359.93" x2="-369.46" y2="355.48" gradientTransform="matrix(19.36, 0, 0, -19.36, 7224.32, 6968.99)" xlink:href="#linear-gradient"/><linearGradient id="linear-gradient-6" x1="-369.46" y1="360.46" x2="-369.46" y2="356" gradientTransform="matrix(19.36, 0, 0, -19.36, 7202.8, 6979.19)" xlink:href="#linear-gradient"/><linearGradient id="linear-gradient-7" x1="-369.46" y1="361.28" x2="-369.46" y2="356.82" gradientTransform="matrix(19.36, 0, 0, -19.36, 7216.4, 6995)" xlink:href="#linear-gradient"/></defs><g id="Layer_2" data-name="Layer 2"><g id="Layer_1-2" data-name="Layer 1"><g id="Group_4272" data-name="Group 4272"><path id="Path_10115" data-name="Path 10115" d="M.88,27.67,43.12,52.06a1.78,1.78,0,0,0,1.76,0l5-2.92a1.76,1.76,0,0,0-1.76-3L44,48.5,5.28,26.15,44,3.79l14.49,8.37a1.76,1.76,0,0,0,1.76-3.05L44.88.24a1.73,1.73,0,0,0-1.76,0L.88,24.62A1.76,1.76,0,0,0,.24,27a1.78,1.78,0,0,0,.64.64Z" fill="url(#linear-gradient)"/><path id="Path_10116" data-name="Path 10116" d="M78.25,21.53a1.76,1.76,0,0,0,.65,2.4l3.82,2.21L71.5,32.62a1.76,1.76,0,1,0,1.72,3.07l0,0,13.86-8a1.77,1.77,0,0,0,.65-2.4,1.84,1.84,0,0,0-.65-.65l-6.46-3.73A1.76,1.76,0,0,0,78.25,21.53Z" fill="url(#linear-gradient-2)"/><path id="Path_10117" data-name="Path 10117" d="M87.12,60.33l-8-4.62a1.76,1.76,0,1,0-1.84,3l.08,0,5.35,3.09L44,84.21,5.28,61.85,11,58.56a1.76,1.76,0,0,0-1.76-3.05L.88,60.33a1.77,1.77,0,0,0,0,3.05L43.12,87.76a1.73,1.73,0,0,0,1.76,0L87.12,63.38A1.76,1.76,0,0,0,87.76,61a1.64,1.64,0,0,0-.64-.64Z" fill="url(#linear-gradient-3)"/><path id="Path_10118" data-name="Path 10118" d="M87.12,42.51l-7.34-4.24a1.76,1.76,0,1,0-1.8,3l0,0L82.72,44,44,66.39,5.28,44l5.57-3.22a1.76,1.76,0,1,0-1.72-3.07l0,0L.88,42.51a1.76,1.76,0,0,0-.64,2.41,1.78,1.78,0,0,0,.64.64L43.12,70a1.78,1.78,0,0,0,1.76,0L87.12,45.56a1.77,1.77,0,0,0,.65-2.41,1.9,1.9,0,0,0-.65-.64Z" fill="url(#linear-gradient-4)"/><path id="Path_10119" data-name="Path 10119" d="M63.54,17H69.7v6.16a1.76,1.76,0,0,0,3.52,0V17h6.16a1.76,1.76,0,0,0,0-3.52H73.22V7.31a1.76,1.76,0,0,0-3.52,0v6.16H63.54a1.76,1.76,0,1,0,0,3.52Z" fill="url(#linear-gradient-5)"/><path id="Path_10120" data-name="Path 10120" d="M49.94,35.11a1.76,1.76,0,0,0,1.76-1.76h0V27.19h6.17a1.76,1.76,0,1,0,0-3.52H51.7V17.51a1.76,1.76,0,0,0-3.52,0v6.16H42a1.76,1.76,0,0,0,0,3.52h6.16v6.16A1.77,1.77,0,0,0,49.94,35.11Z" fill="url(#linear-gradient-6)"/><path id="Path_10121" data-name="Path 10121" d="M55.62,39.49a1.76,1.76,0,1,0,0,3.52h6.16v6.16a1.76,1.76,0,0,0,3.52,0h0V43h6.16a1.76,1.76,0,1,0,0-3.52H65.3V33.33a1.76,1.76,0,0,0-3.52,0v6.16Z" fill="url(#linear-gradient-7)"/></g></g></g></svg>