<svg xmlns="http://www.w3.org/2000/svg" xmlns:xlink="http://www.w3.org/1999/xlink" viewBox="0 0 88.21 87.99"><defs><linearGradient id="linear-gradient" x1="552.7" y1="1064.01" x2="552.7" y2="1055.34" gradientTransform="matrix(9.96, 0, 0, -9.96, -5475.37, 10597.23)" gradientUnits="userSpaceOnUse"><stop offset="0" stop-color="#2c2f89"/><stop offset="1" stop-color="#318f8c"/></linearGradient><linearGradient id="linear-gradient-2" x1="552.7" y1="1064.01" x2="552.7" y2="1055.34" gradientTransform="matrix(9.96, 0, 0, -9.96, -5443.28, 10597.23)" xlink:href="#linear-gradient"/><linearGradient id="linear-gradient-3" x1="582.44" y1="1120.95" x2="582.44" y2="1094.61" gradientTransform="matrix(19.53, 0, 0, -3.28, -11330.04, 3674.12)" xlink:href="#linear-gradient"/><linearGradient id="linear-gradient-4" x1="594.27" y1="1046.94" x2="594.27" y2="1043.35" gradientTransform="matrix(31.61, 0, 0, -24.09, -18736.64, 25216.82)" xlink:href="#linear-gradient"/><linearGradient id="linear-gradient-5" x1="576.42" y1="1050.31" x2="576.42" y2="1045.51" gradientTransform="matrix(16.35, 0, 0, -18.02, -9397.58, 18926.75)" xlink:href="#linear-gradient"/><linearGradient id="linear-gradient-6" x1="552.93" y1="1059.53" x2="552.93" y2="1050.52" gradientTransform="matrix(10, 0, 0, -9.59, -5484.51, 10158.2)" xlink:href="#linear-gradient"/><linearGradient id="linear-gradient-7" x1="552.91" y1="1060.12" x2="552.91" y2="1051.11" gradientTransform="matrix(10, 0, 0, -9.59, -5502.43, 10162.82)" xlink:href="#linear-gradient"/><linearGradient id="linear-gradient-8" x1="552.91" y1="1061.57" x2="552.91" y2="1052.56" gradientTransform="matrix(10, 0, 0, -9.59, -5516.48, 10179.07)" xlink:href="#linear-gradient"/><linearGradient id="linear-gradient-9" x1="552.93" y1="1063.7" x2="552.93" y2="1054.69" gradientTransform="matrix(10, 0, 0, -9.59, -5522.92, 10196.03)" xlink:href="#linear-gradient"/><linearGradient id="linear-gradient-10" x1="552.91" y1="1065.62" x2="552.91" y2="1056.62" gradientTransform="matrix(9.99, 0, 0, -9.59, -5514.49, 10214.49)" xlink:href="#linear-gradient"/><linearGradient id="linear-gradient-11" x1="552.89" y1="1067.08" x2="552.89" y2="1058.07" gradientTransform="matrix(9.99, 0, 0, -9.59, -5498.91, 10229.01)" xlink:href="#linear-gradient"/><linearGradient id="linear-gradient-12" x1="552.91" y1="1067.7" x2="552.91" y2="1058.7" gradientTransform="matrix(9.99, 0, 0, -9.59, -5481.43, 10235.38)" xlink:href="#linear-gradient"/><linearGradient id="linear-gradient-13" x1="552.9" y1="1066.98" x2="552.9" y2="1057.98" gradientTransform="matrix(9.99, 0, 0, -9.59, -5460.66, 10227.77)" xlink:href="#linear-gradient"/><linearGradient id="linear-gradient-14" x1="552.88" y1="1065.54" x2="552.88" y2="1056.54" gradientTransform="matrix(9.99, 0, 0, -9.59, -5445.63, 10213.76)" xlink:href="#linear-gradient"/><linearGradient id="linear-gradient-15" x1="552.93" y1="1063.55" x2="552.93" y2="1054.55" gradientTransform="matrix(10, 0, 0, -9.59, -5444.56, 10198.08)" xlink:href="#linear-gradient"/><linearGradient id="linear-gradient-16" x1="552.93" y1="1061.46" x2="552.93" y2="1052.45" gradientTransform="matrix(10, 0, 0, -9.59, -5450.77, 10177.87)" xlink:href="#linear-gradient"/><linearGradient id="linear-gradient-17" x1="552.92" y1="1060.05" x2="552.92" y2="1051.04" gradientTransform="matrix(10, 0, 0, -9.59, -5463.92, 10164.21)" xlink:href="#linear-gradient"/></defs><g id="Layer_2" data-name="Layer 2"><g id="Layer_1-2" data-name="Layer 1"><g id="Group_4267" data-name="Group 4267"><path id="Path_10073" data-name="Path 10073" d="M29.53,53.23a5,5,0,1,0,5,5h0A5,5,0,0,0,29.53,53.23Zm0,6.68a1.7,1.7,0,1,1,1.7-1.7,1.7,1.7,0,0,1-1.7,1.7Z" fill="url(#linear-gradient)"/><path id="Path_10074" data-name="Path 10074" d="M66.59,58.21a5,5,0,1,0-5,5h0A5,5,0,0,0,66.59,58.21Zm-6.68,0a1.7,1.7,0,1,1,1.7,1.7,1.7,1.7,0,0,1-1.7-1.7Z" fill="url(#linear-gradient-2)"/><path id="Path_10075" data-name="Path 10075" d="M53.59,56.57H37.34a1.64,1.64,0,1,0,0,3.27H53.59a1.64,1.64,0,1,0,0-3.27Z" fill="url(#linear-gradient-3)"/><path id="Path_10076" data-name="Path 10076" d="M61.85,45.83a1.64,1.64,0,0,0,1.4-1.62V31a1.65,1.65,0,0,0-1.64-1.64H38.37a1.64,1.64,0,0,0,0,3.28H60v10.1L36.38,46.2a1.65,1.65,0,0,0-1,.58L32,50.8a1.64,1.64,0,0,0,2.53,2.1h0l2.92-3.54Z" fill="url(#linear-gradient-4)"/><path id="Path_10077" data-name="Path 10077" d="M21.2,30.59h4.42l7.2,13.86a1.64,1.64,0,1,0,2.91-1.51L28.07,28.19a1.66,1.66,0,0,0-1.46-.88H21.2a1.64,1.64,0,0,0,0,3.28Z" fill="url(#linear-gradient-5)"/><path id="Path_10078" data-name="Path 10078" d="M40.71,6.05a.31.31,0,0,1,.09.26l-.45,2.94a.29.29,0,0,0,.25.33.28.28,0,0,0,.18,0l2.61-1.43a.26.26,0,0,1,.27,0l2.66,1.33a.29.29,0,0,0,.4-.13.22.22,0,0,0,0-.18l-.55-2.93A.29.29,0,0,1,46.27,6l2.09-2.12a.28.28,0,0,0,0-.41.28.28,0,0,0-.17-.09l-3-.37A.28.28,0,0,1,45,2.8L43.64.16A.29.29,0,0,0,43.25,0a.25.25,0,0,0-.13.14L41.85,2.86a.3.3,0,0,1-.22.17l-2.94.48a.3.3,0,0,0-.24.34.26.26,0,0,0,.09.16Z" fill="url(#linear-gradient-6)"/><path id="Path_10079" data-name="Path 10079" d="M21.57,12l-.45,2.94a.29.29,0,0,0,.25.33.28.28,0,0,0,.18,0l2.61-1.43a.26.26,0,0,1,.27,0l2.66,1.33a.3.3,0,0,0,.4-.13.25.25,0,0,0,0-.19L27,11.85a.29.29,0,0,1,.08-.26l2.09-2.12a.3.3,0,0,0,0-.41A.32.32,0,0,0,29,9L26,8.6a.28.28,0,0,1-.22-.16L24.41,5.8A.29.29,0,0,0,24,5.67a.25.25,0,0,0-.13.14L22.62,8.5a.3.3,0,0,1-.22.17l-2.94.48a.3.3,0,0,0-.24.34.32.32,0,0,0,.09.16l2.17,2A.3.3,0,0,1,21.57,12Z" fill="url(#linear-gradient-7)"/><path id="Path_10080" data-name="Path 10080" d="M7.35,25.63a.28.28,0,0,1,.09.26L7,28.83a.29.29,0,0,0,.25.33.31.31,0,0,0,.19,0L10,27.69a.32.32,0,0,1,.27,0L13,29a.29.29,0,0,0,.39-.13.31.31,0,0,0,0-.19l-.56-2.92a.29.29,0,0,1,.08-.26L15,23.41A.28.28,0,0,0,15,23a.26.26,0,0,0-.17-.09l-2.95-.37a.3.3,0,0,1-.23-.16l-1.36-2.64a.3.3,0,0,0-.4-.13.29.29,0,0,0-.13.14L8.49,22.44a.27.27,0,0,1-.22.16l-2.93.49a.29.29,0,0,0-.24.34.35.35,0,0,0,.08.16Z" fill="url(#linear-gradient-8)"/><path id="Path_10081" data-name="Path 10081" d="M8.3,49.09l-.56-2.92a.27.27,0,0,1,.08-.26l2.09-2.12a.29.29,0,0,0,0-.42.34.34,0,0,0-.17-.08l-3-.38a.31.31,0,0,1-.22-.15L5.19,40.11A.28.28,0,0,0,4.8,40a.24.24,0,0,0-.13.13L3.4,42.82a.29.29,0,0,1-.22.16l-2.94.48A.3.3,0,0,0,0,43.8.32.32,0,0,0,.09,44l2.17,2a.32.32,0,0,1,.09.26L1.9,49.2a.31.31,0,0,0,.25.34.28.28,0,0,0,.18,0l2.61-1.43a.28.28,0,0,1,.28,0l2.66,1.34a.29.29,0,0,0,.39-.14A.28.28,0,0,0,8.3,49.09Z" fill="url(#linear-gradient-9)"/><path id="Path_10082" data-name="Path 10082" d="M16.22,61.75l-3-.38a.29.29,0,0,1-.22-.15l-1.37-2.65a.28.28,0,0,0-.39-.12.24.24,0,0,0-.13.13l-1.27,2.7a.31.31,0,0,1-.22.16l-2.94.48a.3.3,0,0,0-.23.35.28.28,0,0,0,.08.15l2.17,2a.31.31,0,0,1,.09.26l-.45,2.94a.31.31,0,0,0,.25.34.37.37,0,0,0,.18,0l2.61-1.43a.26.26,0,0,1,.27,0l2.67,1.33a.28.28,0,0,0,.39-.12.32.32,0,0,0,0-.19l-.56-2.93a.29.29,0,0,1,.08-.26l2.09-2.12a.3.3,0,0,0,0-.41A.25.25,0,0,0,16.22,61.75Z" fill="url(#linear-gradient-10)"/><path id="Path_10083" data-name="Path 10083" d="M29.67,75.72l-3-.38a.29.29,0,0,1-.22-.15l-1.37-2.65a.28.28,0,0,0-.39-.12.25.25,0,0,0-.14.13l-1.26,2.7a.3.3,0,0,1-.22.16l-2.94.48a.3.3,0,0,0-.24.35.24.24,0,0,0,.09.15l2.17,2a.31.31,0,0,1,.09.26l-.45,2.94a.31.31,0,0,0,.25.34.3.3,0,0,0,.18,0l2.61-1.43a.26.26,0,0,1,.27,0l2.66,1.33a.29.29,0,0,0,.4-.13.28.28,0,0,0,0-.18l-.56-2.93a.35.35,0,0,1,.08-.26l2.1-2.12a.29.29,0,0,0,0-.41A.25.25,0,0,0,29.67,75.72Z" fill="url(#linear-gradient-11)"/><path id="Path_10084" data-name="Path 10084" d="M49.5,81.74l-3-.37a.29.29,0,0,1-.22-.16L45,78.56a.3.3,0,0,0-.4-.12.4.4,0,0,0-.13.13l-1.26,2.7a.3.3,0,0,1-.22.16L40,81.92a.29.29,0,0,0-.24.34.29.29,0,0,0,.09.16l2.17,2a.29.29,0,0,1,.08.26l-.44,3a.28.28,0,0,0,.24.33.31.31,0,0,0,.19,0l2.61-1.44a.32.32,0,0,1,.27,0l2.66,1.34a.31.31,0,0,0,.4-.13.31.31,0,0,0,0-.19l-.56-2.92a.33.33,0,0,1,.08-.26l2.1-2.12a.31.31,0,0,0,0-.42A.37.37,0,0,0,49.5,81.74Z" fill="url(#linear-gradient-12)"/><path id="Path_10085" data-name="Path 10085" d="M69.12,74.79l-3-.37a.3.3,0,0,1-.22-.16l-1.37-2.64a.29.29,0,0,0-.39-.13.25.25,0,0,0-.13.14l-1.27,2.69a.3.3,0,0,1-.22.17L59.62,75a.29.29,0,0,0-.23.34.3.3,0,0,0,.08.16l2.17,2a.3.3,0,0,1,.09.26l-.45,2.94a.29.29,0,0,0,.25.33.28.28,0,0,0,.18,0l2.61-1.43a.26.26,0,0,1,.27,0l2.66,1.33a.3.3,0,0,0,.4-.13.25.25,0,0,0,0-.19l-.55-2.92a.29.29,0,0,1,.08-.26l2.09-2.12a.3.3,0,0,0,0-.41A.32.32,0,0,0,69.12,74.79Z" fill="url(#linear-gradient-13)"/><path id="Path_10086" data-name="Path 10086" d="M82.12,61l-3-.37a.32.32,0,0,1-.23-.16l-1.36-2.65a.3.3,0,0,0-.4-.12.33.33,0,0,0-.13.13l-1.27,2.7a.27.27,0,0,1-.22.16l-2.93.49a.29.29,0,0,0-.24.34.35.35,0,0,0,.08.16l2.17,2a.29.29,0,0,1,.09.26l-.45,3a.29.29,0,0,0,.25.33.31.31,0,0,0,.19,0l2.61-1.44a.26.26,0,0,1,.27,0l2.66,1.33a.29.29,0,0,0,.39-.13.31.31,0,0,0,0-.19l-.56-2.92a.29.29,0,0,1,.08-.26l2.09-2.12a.28.28,0,0,0,0-.41A.3.3,0,0,0,82.12,61Z" fill="url(#linear-gradient-14)"/><path id="Path_10087" data-name="Path 10087" d="M88.12,42.44a.3.3,0,0,0,0-.42.37.37,0,0,0-.18-.08l-3-.38a.27.27,0,0,1-.22-.15l-1.37-2.65a.28.28,0,0,0-.39-.12.27.27,0,0,0-.13.13l-1.28,2.7a.3.3,0,0,1-.22.17l-2.93.48a.29.29,0,0,0-.24.34.3.3,0,0,0,.08.16l2.17,2a.28.28,0,0,1,.09.26l-.45,2.94a.29.29,0,0,0,.25.33.31.31,0,0,0,.19,0l2.61-1.44a.32.32,0,0,1,.27,0l2.66,1.34a.3.3,0,0,0,.39-.13.31.31,0,0,0,0-.19L86,44.82a.28.28,0,0,1,.08-.26Z" fill="url(#linear-gradient-15)"/><path id="Path_10088" data-name="Path 10088" d="M74.54,24.83l-.45,2.94a.31.31,0,0,0,.25.34.28.28,0,0,0,.18,0l2.61-1.43a.26.26,0,0,1,.27,0L80.06,28a.29.29,0,0,0,.4-.13.22.22,0,0,0,0-.18l-.55-2.93a.29.29,0,0,1,.08-.26l2.09-2.12a.3.3,0,0,0-.17-.5l-3-.37a.28.28,0,0,1-.22-.16l-1.37-2.64a.3.3,0,0,0-.39-.13.25.25,0,0,0-.13.14l-1.27,2.69a.32.32,0,0,1-.22.17L72.43,22a.3.3,0,0,0-.24.34.26.26,0,0,0,.09.16l2.17,2A.31.31,0,0,1,74.54,24.83Z" fill="url(#linear-gradient-16)"/><path id="Path_10089" data-name="Path 10089" d="M60.06,11.06a.25.25,0,0,1,.09.26l-.44,2.94a.28.28,0,0,0,.24.33.31.31,0,0,0,.19,0l2.61-1.44a.32.32,0,0,1,.27,0l2.66,1.34a.28.28,0,0,0,.39-.13.31.31,0,0,0,0-.19l-.56-2.92a.31.31,0,0,1,.08-.26l2.09-2.12a.29.29,0,0,0,0-.41.31.31,0,0,0-.18-.09l-3-.37a.32.32,0,0,1-.23-.16L63,5.16A.3.3,0,0,0,62.6,5a.33.33,0,0,0-.13.13l-1.26,2.7A.28.28,0,0,1,61,8l-2.94.49a.29.29,0,0,0-.24.34A.26.26,0,0,0,57.9,9Z" fill="url(#linear-gradient-17)"/></g></g></g></svg>