<svg xmlns="http://www.w3.org/2000/svg" xmlns:xlink="http://www.w3.org/1999/xlink" viewBox="0 0 88 88"><defs><linearGradient id="linear-gradient" x1="370.67" y1="784.22" x2="370.67" y2="776.76" gradientTransform="matrix(11.4, 0, 0, -11.4, -4219.91, 8939.45)" gradientUnits="userSpaceOnUse"><stop offset="0" stop-color="#2c2f89"/><stop offset="1" stop-color="#318f8c"/></linearGradient><linearGradient id="linear-gradient-2" x1="370.67" y1="784.22" x2="370.67" y2="776.76" gradientTransform="matrix(11.4, 0, 0, -11.4, -4143.31, 8939.45)" xlink:href="#linear-gradient"/><linearGradient id="linear-gradient-3" x1="399" y1="784.82" x2="399" y2="783.85" gradientTransform="matrix(61.45, 0, 0, -88, -24485.26, 69063.11)" xlink:href="#linear-gradient"/><linearGradient id="linear-gradient-4" x1="393.74" y1="783.4" x2="393.74" y2="778.57" gradientTransform="matrix(33.84, 0, 0, -17.6, -13256.46, 13787.22)" xlink:href="#linear-gradient"/></defs><g id="Layer_2" data-name="Layer 2"><g id="Layer_1-2" data-name="Layer 1"><g id="Group_4173" data-name="Group 4173"><path id="Path_9911" data-name="Path 9911" d="M5.7,20.28A5.7,5.7,0,1,0,11.4,26a5.7,5.7,0,0,0-5.7-5.7Zm0,7.88A2.18,2.18,0,1,1,7.88,26,2.19,2.19,0,0,1,5.7,28.16Z" fill="url(#linear-gradient)"/><path id="Path_9912" data-name="Path 9912" d="M82.3,20.28A5.7,5.7,0,1,0,88,26a5.71,5.71,0,0,0-5.7-5.7Zm0,7.88A2.18,2.18,0,1,1,84.48,26,2.18,2.18,0,0,1,82.3,28.16Z" fill="url(#linear-gradient-2)"/><path id="Path_9913" data-name="Path 9913" d="M45.75,57.53V1.76A1.75,1.75,0,0,0,44,0H5.69A1.76,1.76,0,0,0,3.93,1.76h0V15.84a1.76,1.76,0,1,0,3.52.08V3.52H42.23V58.08a1.75,1.75,0,0,0,.32,1l17.7,25.39H27.77l13.3-18.76a1.76,1.76,0,0,0-2.82-2.1l0,.06L22.93,85.22a1.76,1.76,0,0,0,.41,2.46,1.79,1.79,0,0,0,1,.32H63.63a1.76,1.76,0,0,0,1.44-2.77Z" fill="url(#linear-gradient-3)"/><path id="Path_9914" data-name="Path 9914" d="M52,3.52H80.54V15.84a1.76,1.76,0,0,0,1.76,1.76h0a1.76,1.76,0,0,0,1.76-1.76h0V1.76A1.76,1.76,0,0,0,82.3,0H52a1.76,1.76,0,0,0,0,3.52Z" fill="url(#linear-gradient-4)"/></g></g></g></svg>