<svg xmlns="http://www.w3.org/2000/svg" xmlns:xlink="http://www.w3.org/1999/xlink" viewBox="0 0 68.68 88"><defs><linearGradient id="linear-gradient" x1="595.62" y1="792.77" x2="595.62" y2="791.85" gradientTransform="matrix(68.68, 0, 0, -88, -40875.61, 69767.3)" gradientUnits="userSpaceOnUse"><stop offset="0" stop-color="#2c2f89"/><stop offset="1" stop-color="#318f8c"/></linearGradient></defs><g id="Layer_2" data-name="Layer 2"><g id="Layer_1-2" data-name="Layer 1"><path id="Path_9993" data-name="Path 9993" d="M37.23,5.7a5.76,5.76,0,0,0-4-5.43h0a5.75,5.75,0,1,0,.93,10.57,6.21,6.21,0,0,0,.6-.35,5.9,5.9,0,0,0,1.42-1.4A41.77,41.77,0,0,1,63.21,61.36,33.05,33.05,0,0,1,21.79,82.92a26.09,26.09,0,0,1-17-32.69A20.49,20.49,0,0,1,30.48,36.84h0A16,16,0,0,1,41,57h0A12.48,12.48,0,0,1,25.3,65.12h0a9.6,9.6,0,0,1-6.6-10.75,5.77,5.77,0,1,0-3.41-1.13A13.17,13.17,0,0,0,24.22,68.5,16,16,0,0,0,44.32,58,19.57,19.57,0,0,0,31.54,33.46,24,24,0,0,0,1.38,49.16h0A29.6,29.6,0,0,0,20.72,86.3,36.59,36.59,0,0,0,66.59,62.42,45.32,45.32,0,0,0,37.23,5.7Zm-4.73,2a2.18,2.18,0,1,1,1.08-1.28A2.19,2.19,0,0,1,32.5,7.69Zm-15.74,42a2.2,2.2,0,0,1,.71-2.83l.22-.13a2.2,2.2,0,1,1-.92,3Z" fill="url(#linear-gradient)"/></g></g></svg>