<svg xmlns="http://www.w3.org/2000/svg" xmlns:xlink="http://www.w3.org/1999/xlink" viewBox="0 0 88 88"><defs><linearGradient id="linear-gradient" x1="-174.94" y1="488.95" x2="-174.94" y2="486.59" gradientTransform="matrix(88, 0, 0, -36.17, 15438.53, 17683.96)" gradientUnits="userSpaceOnUse"><stop offset="0" stop-color="#2c2f89"/><stop offset="1" stop-color="#318f8c"/></linearGradient><linearGradient id="linear-gradient-2" x1="-174.94" y1="489.71" x2="-174.94" y2="487.1" gradientTransform="matrix(88, 0, 0, -32.71, 15438.53, 16020.68)" xlink:href="#linear-gradient"/><linearGradient id="linear-gradient-3" x1="-166.9" y1="480.54" x2="-166.9" y2="475.3" gradientTransform="matrix(18.31, 0, 0, -16.31, 3134.63, 7837.26)" xlink:href="#linear-gradient"/><linearGradient id="linear-gradient-4" x1="-166.43" y1="480.52" x2="-166.43" y2="475.3" gradientTransform="matrix(17.51, 0, 0, -16.32, 2923.18, 7844.17)" xlink:href="#linear-gradient"/><linearGradient id="linear-gradient-5" x1="-173.22" y1="491.6" x2="-173.22" y2="489.84" gradientTransform="matrix(48.47, 0, 0, -48.47, 8440.45, 23830.08)" xlink:href="#linear-gradient"/><linearGradient id="linear-gradient-6" x1="-169.91" y1="486.8" x2="-169.91" y2="483.55" gradientTransform="matrix(26.05, 0, 0, -26.26, 4470.41, 12782.13)" xlink:href="#linear-gradient"/></defs><g id="Layer_2" data-name="Layer 2"><g id="Layer_1-2" data-name="Layer 1"><g id="Group_4271" data-name="Group 4271"><path id="Path_10109" data-name="Path 10109" d="M.88,27.67l14.28,8.25a1.76,1.76,0,1,0,1.81-3l0,0L5.28,26.14,44,3.79,82.72,26.14,71.5,32.62a1.76,1.76,0,0,0,1.68,3.1l.08,0,13.86-8a1.75,1.75,0,0,0,.64-2.4,1.74,1.74,0,0,0-.64-.65L44.88.24a1.73,1.73,0,0,0-1.76,0L.88,24.62A1.76,1.76,0,0,0,.24,27a1.71,1.71,0,0,0,.64.64Z" fill="url(#linear-gradient)"/><path id="Path_10110" data-name="Path 10110" d="M87.12,60.33l-8-4.61a1.76,1.76,0,1,0-1.8,3l0,0,5.35,3.09L44,84.21,5.28,61.85,11,58.56a1.76,1.76,0,0,0-1.76-3.05L.88,60.33a1.77,1.77,0,0,0,0,3.05L43.12,87.76a1.73,1.73,0,0,0,1.76,0L87.12,63.38A1.76,1.76,0,0,0,87.76,61,1.71,1.71,0,0,0,87.12,60.33Z" fill="url(#linear-gradient-2)"/><path id="Path_10111" data-name="Path 10111" d="M87.12,42.51l-7.34-4.24a1.76,1.76,0,0,0-1.81,3l0,0L82.72,44,70.59,51a1.76,1.76,0,1,0,1.72,3.07l0,0,14.77-8.52a1.76,1.76,0,0,0,.64-2.41,1.78,1.78,0,0,0-.64-.64Z" fill="url(#linear-gradient-3)"/><path id="Path_10112" data-name="Path 10112" d="M.88,45.56l14,8.09a1.76,1.76,0,0,0,1.76-3L5.28,44l5.57-3.22a1.76,1.76,0,0,0-1.76-3L.88,42.51a1.76,1.76,0,0,0-.64,2.41,1.71,1.71,0,0,0,.64.64Z" fill="url(#linear-gradient-4)"/><path id="Path_10113" data-name="Path 10113" d="M19.76,44A24.24,24.24,0,1,0,44,19.76h0A24.28,24.28,0,0,0,19.76,44Zm45,0A20.72,20.72,0,1,1,44,23.28,20.72,20.72,0,0,1,64.72,44Z" fill="url(#linear-gradient-5)"/><path id="Path_10114" data-name="Path 10114" d="M34.09,43.56a1.76,1.76,0,0,0-2.73,2.23l0,0,9,10.67a1.77,1.77,0,0,0,1.35.63h.14a1.73,1.73,0,0,0,1.37-.85L56.77,33.53a1.76,1.76,0,0,0-3-1.8L41.47,52.34Z" fill="url(#linear-gradient-6)"/></g></g></g></svg>