<svg xmlns="http://www.w3.org/2000/svg" xmlns:xlink="http://www.w3.org/1999/xlink" viewBox="0 0 88 88"><defs><linearGradient id="linear-gradient" x1="-368.69" y1="643.7" x2="-368.69" y2="642.72" gradientTransform="matrix(88, 0, 0, -88, 32488.83, 56645.68)" gradientUnits="userSpaceOnUse"><stop offset="0" stop-color="#2c2f89"/><stop offset="1" stop-color="#318f8c"/></linearGradient><linearGradient id="linear-gradient-2" x1="-353.69" y1="639.53" x2="-353.69" y2="635.12" gradientTransform="matrix(19.74, 0, 0, -19.74, 7043.28, 12624.11)" xlink:href="#linear-gradient"/><linearGradient id="linear-gradient-3" x1="-351.42" y1="636.92" x2="-351.42" y2="631.99" gradientTransform="matrix(17.67, 0, 0, -17.67, 6237.04, 11254.98)" xlink:href="#linear-gradient"/><linearGradient id="linear-gradient-4" x1="-339.13" y1="636.16" x2="-339.13" y2="628.44" gradientTransform="matrix(11.26, 0, 0, -11.26, 3864.27, 7165.33)" xlink:href="#linear-gradient"/><linearGradient id="linear-gradient-5" x1="-350.12" y1="642.27" x2="-350.12" y2="640.4" gradientTransform="matrix(16.67, 0, 0, -46.44, 5881.65, 29826.75)" xlink:href="#linear-gradient"/></defs><g id="Layer_2" data-name="Layer 2"><g id="Layer_1-2" data-name="Layer 1"><g id="Group_4176" data-name="Group 4176"><path id="Path_9928" data-name="Path 9928" d="M44,0A44,44,0,1,0,88,44h0A44.05,44.05,0,0,0,44,0Zm0,84.48A40.48,40.48,0,1,1,84.48,44h0A40.53,40.53,0,0,1,44,84.48Z" fill="url(#linear-gradient)"/><path id="Path_9929" data-name="Path 9929" d="M54.18,50.65a1.76,1.76,0,0,0-2.5,2.49h0L67.91,69.36a1.76,1.76,0,0,0,2.49-2.49h0Z" fill="url(#linear-gradient-2)"/><path id="Path_9930" data-name="Path 9930" d="M21,17.11a1.76,1.76,0,0,0-2.49,2.48L32.66,33.75a1.76,1.76,0,1,0,2.48-2.49Z" fill="url(#linear-gradient-3)"/><path id="Path_9931" data-name="Path 9931" d="M44.33,64.05A5.64,5.64,0,1,0,50,69.68h0A5.64,5.64,0,0,0,44.33,64.05Zm0,7.74a2.11,2.11,0,1,1,2.11-2.11,2.11,2.11,0,0,1-2.11,2.11Z" fill="url(#linear-gradient-4)"/><path id="Path_9932" data-name="Path 9932" d="M44.33,60.59a1.77,1.77,0,0,0,1.74-1.49l6.57-42.92a1.76,1.76,0,0,0-1.47-2l-.27,0H37.75A1.76,1.76,0,0,0,36,15.91a2.45,2.45,0,0,0,0,.27L42.59,59.1A1.75,1.75,0,0,0,44.33,60.59Zm4.52-42.92L44.33,47.21,39.8,17.67Z" fill="url(#linear-gradient-5)"/></g></g></g></svg>