<svg xmlns="http://www.w3.org/2000/svg" xmlns:xlink="http://www.w3.org/1999/xlink" viewBox="0 0 88 88"><defs><linearGradient id="linear-gradient" x1="190.31" y1="775.91" x2="190.31" y2="774.92" gradientTransform="matrix(88, 0, 0, -88, -16703.09, 68279.86)" gradientUnits="userSpaceOnUse"><stop offset="0" stop-color="#2c2f89"/><stop offset="1" stop-color="#318f8c"/></linearGradient><linearGradient id="linear-gradient-2" x1="172.3" y1="778.64" x2="172.3" y2="769.08" gradientTransform="matrix(9.13, 0, 0, -9.13, -1507.39, 7111.25)" xlink:href="#linear-gradient"/><linearGradient id="linear-gradient-3" x1="173.79" y1="774" x2="173.79" y2="765.14" gradientTransform="matrix(9.87, 0, 0, -9.87, -1691.55, 7635.02)" xlink:href="#linear-gradient"/><linearGradient id="linear-gradient-4" x1="188.16" y1="775.97" x2="188.16" y2="774.13" gradientTransform="matrix(43.39, 0, 0, -47.61, -8124.55, 36945.72)" xlink:href="#linear-gradient"/></defs><g id="Layer_2" data-name="Layer 2"><g id="Layer_1-2" data-name="Layer 1"><g id="Group_4168" data-name="Group 4168"><path id="Path_9876" data-name="Path 9876" d="M44,0A44,44,0,1,0,88,44,44,44,0,0,0,44,0Zm0,84.48A40.48,40.48,0,1,1,84.48,44h0A40.53,40.53,0,0,1,44,84.48Z" fill="url(#linear-gradient)"/><path id="Path_9877" data-name="Path 9877" d="M64.78,61.25a1.76,1.76,0,0,0-2.49,2.49l5.61,5.62a1.77,1.77,0,0,0,2.49,0,1.74,1.74,0,0,0,0-2.48Z" fill="url(#linear-gradient-2)"/><path id="Path_9878" data-name="Path 9878" d="M24.84,25.94a1.76,1.76,0,1,0,2.49-2.49L21,17.1a1.77,1.77,0,0,0-2.49,0,1.76,1.76,0,0,0,0,2.49Z" fill="url(#linear-gradient-3)"/><path id="Path_9879" data-name="Path 9879" d="M43.58,24.27h.83a13.64,13.64,0,0,1,9.7,3.94A12.24,12.24,0,0,1,57.85,37a1.76,1.76,0,0,0,3.52,0,15.74,15.74,0,0,0-4.78-11.26,17.13,17.13,0,0,0-12.18-5h-.83c-9.35,0-17,7.28-17,16.22v1.45H19.74a1.76,1.76,0,0,0,0,3.52h6.88v5.9H19.74a1.76,1.76,0,0,0,0,3.52h6.88v.77c0,8.95,7.61,16.23,17,16.23h.83A17.33,17.33,0,0,0,56.9,63.08a15.77,15.77,0,0,0,4.47-10.95,1.76,1.76,0,1,0-3.52,0,12.33,12.33,0,0,1-3.49,8.52,13.85,13.85,0,0,1-10,4.19h-.83c-7.41,0-13.44-5.7-13.44-12.71v-.77H44a1.76,1.76,0,0,0,0-3.52H30.14v-5.9H44a1.76,1.76,0,0,0,0-3.52H30.14V37C30.14,30,36.17,24.27,43.58,24.27Z" fill="url(#linear-gradient-4)"/></g></g></g></svg>