<svg xmlns="http://www.w3.org/2000/svg" xmlns:xlink="http://www.w3.org/1999/xlink" viewBox="0 0 88 88"><defs><linearGradient id="linear-gradient" x1="385.8" y1="1037.27" x2="385.8" y2="1034.98" gradientTransform="matrix(88, 0, 0, -37.31, -33907.07, 38701.31)" gradientUnits="userSpaceOnUse"><stop offset="0" stop-color="#2c2f89"/><stop offset="1" stop-color="#318f8c"/></linearGradient><linearGradient id="linear-gradient-2" x1="385.8" y1="1040.1" x2="385.8" y2="1037.26" gradientTransform="matrix(88, 0, 0, -30.02, -33906.21, 31226.44)" xlink:href="#linear-gradient"/><linearGradient id="linear-gradient-3" x1="385.8" y1="1039.59" x2="385.8" y2="1036.74" gradientTransform="matrix(88, 0, 0, -29.93, -33906.28, 31110.63)" xlink:href="#linear-gradient"/><linearGradient id="linear-gradient-4" x1="281.82" y1="1039.73" x2="281.82" y2="1036.39" gradientTransform="matrix(3.52, 0, 0, -25.51, -948, 26522.77)" xlink:href="#linear-gradient"/><linearGradient id="linear-gradient-5" x1="377.68" y1="1049.88" x2="377.68" y2="1042.36" gradientTransform="matrix(30.61, 0, 0, -11.35, -11517.08, 11918.1)" xlink:href="#linear-gradient"/></defs><g id="Layer_2" data-name="Layer 2"><g id="Layer_1-2" data-name="Layer 1"><g id="Group_4268" data-name="Group 4268"><path id="Path_10090" data-name="Path 10090" d="M1,33.29,43.19,55.41a1.74,1.74,0,0,0,1.63,0L87.06,33.29a1.77,1.77,0,0,0,.74-2.38,1.71,1.71,0,0,0-.74-.74L64.89,18.56a1.76,1.76,0,0,0-1.67,3.1l0,0L82.45,31.73,44,51.86,5.56,31.73l19.3-10.11a1.76,1.76,0,1,0-1.64-3.12h0L.94,30.17A1.76,1.76,0,0,0,.2,32.55a1.88,1.88,0,0,0,.74.74Z" fill="url(#linear-gradient)"/><path id="Path_10091" data-name="Path 10091" d="M87.06,62.56l-8-4.19a1.76,1.76,0,1,0-1.63,3.12l5,2.63L44,84.25,5.56,64.12l5.36-2.81a1.76,1.76,0,1,0-1.59-3.14l0,0L1,62.56a1.76,1.76,0,0,0,0,3.12L43.19,87.8a1.74,1.74,0,0,0,1.63,0L87.06,65.68a1.77,1.77,0,0,0,.74-2.38,1.66,1.66,0,0,0-.74-.74Z" fill="url(#linear-gradient-2)"/><path id="Path_10092" data-name="Path 10092" d="M87.06,46.4l-7.34-3.85a1.76,1.76,0,1,0-1.67,3.1l0,0L82.45,48,44,68.09,5.56,48l5.22-2.73A1.76,1.76,0,0,0,9.15,42.1L1,46.4A1.76,1.76,0,0,0,.2,48.77a1.81,1.81,0,0,0,.75.75L43.19,71.64a1.74,1.74,0,0,0,1.63,0L87.06,49.52a1.77,1.77,0,0,0,.74-2.38,1.66,1.66,0,0,0-.74-.74Z" fill="url(#linear-gradient-3)"/><path id="Path_10093" data-name="Path 10093" d="M42.24,9.57v22a1.76,1.76,0,0,0,3.52,0h0v-22a1.76,1.76,0,1,0-3.52,0Z" fill="url(#linear-gradient-4)"/><path id="Path_10094" data-name="Path 10094" d="M31.36,11.09,44,3.79l12.65,7.3a1.71,1.71,0,0,0,.88.24,1.76,1.76,0,0,0,1.76-1.76A1.78,1.78,0,0,0,58.41,8L44.88.24a1.73,1.73,0,0,0-1.76,0L29.6,8a1.76,1.76,0,1,0,1.68,3.1Z" fill="url(#linear-gradient-5)"/></g></g></g></svg>