<svg xmlns="http://www.w3.org/2000/svg" xmlns:xlink="http://www.w3.org/1999/xlink" viewBox="0 0 88 88"><defs><linearGradient id="linear-gradient" x1="-21.53" y1="1010.38" x2="-21.53" y2="1009.4" gradientTransform="matrix(3.52, 0, 0, -87.89, 119.79, 88797.83)" gradientUnits="userSpaceOnUse"><stop offset="0" stop-color="#2c2f89"/><stop offset="1" stop-color="#318f8c"/></linearGradient><linearGradient id="linear-gradient-2" x1="-32.49" y1="1012.63" x2="-32.49" y2="1010.69" gradientTransform="matrix(38.66, 0, 0, -44.1, 1275.57, 44659.94)" xlink:href="#linear-gradient"/><linearGradient id="linear-gradient-3" x1="-32.49" y1="1016.81" x2="-32.49" y2="1013.82" gradientTransform="matrix(38.66, 0, 0, -28.63, 1275.47, 29113.65)" xlink:href="#linear-gradient"/><linearGradient id="linear-gradient-4" x1="-32.49" y1="1016.21" x2="-32.49" y2="1013.21" gradientTransform="matrix(38.66, 0, 0, -28.55, 1275.56, 29016.96)" xlink:href="#linear-gradient"/><linearGradient id="linear-gradient-5" x1="-28.66" y1="1018.17" x2="-28.66" y2="1014.35" gradientTransform="matrix(8.6, 0, 0, -22.48, 299.75, 22883.8)" xlink:href="#linear-gradient"/><linearGradient id="linear-gradient-6" x1="-32.5" y1="1010.37" x2="-32.5" y2="1009.4" gradientTransform="matrix(38.71, 0, 0, -88, 1326.68, 88910.81)" xlink:href="#linear-gradient"/></defs><g id="Layer_2" data-name="Layer 2"><g id="Layer_1-2" data-name="Layer 1"><g id="Group_4169" data-name="Group 4169"><path id="Path_9880" data-name="Path 9880" d="M44,.06a1.75,1.75,0,0,0-1.76,1.76h0V86.18a1.76,1.76,0,1,0,3.52,0V1.82A1.76,1.76,0,0,0,44,.06Z" fill="url(#linear-gradient)"/><path id="Path_9881" data-name="Path 9881" d="M37.78,44.85,5.28,26.08,37.78,7.31a1.76,1.76,0,0,0-1.76-3L.88,24.55A1.76,1.76,0,0,0,.24,27a1.64,1.64,0,0,0,.64.64L36,47.89a1.76,1.76,0,0,0,1.76-3Z" fill="url(#linear-gradient-2)"/><path id="Path_9882" data-name="Path 9882" d="M37.78,80.56,5.28,61.79,11,58.5a1.76,1.76,0,1,0-1.76-3h0L.88,60.27a1.77,1.77,0,0,0,0,3L36,83.61a1.76,1.76,0,0,0,2.4-.64h0A1.76,1.76,0,0,0,37.78,80.56Z" fill="url(#linear-gradient-3)"/><path id="Path_9883" data-name="Path 9883" d="M37.78,62.74,5.28,44l5.57-3.21a1.76,1.76,0,0,0-1.76-3L.88,42.45a1.77,1.77,0,0,0,0,3L36,65.79a1.76,1.76,0,0,0,1.76-3.05Z" fill="url(#linear-gradient-4)"/><path id="Path_9884" data-name="Path 9884" d="M49.93,52a1.76,1.76,0,1,0,2,2.88,13.26,13.26,0,0,0,3.23-18.47A13.09,13.09,0,0,0,51.76,33a1.76,1.76,0,1,0-2,2.9h0a9.75,9.75,0,0,1,.15,16Z" fill="url(#linear-gradient-5)"/><path id="Path_9885" data-name="Path 9885" d="M86.24,35.2h-6a36.64,36.64,0,0,0-4.42-10.57l4.28-4.28a1.76,1.76,0,0,0,0-2.49l-10-9.95a1.76,1.76,0,0,0-2.49,0l-4.36,4.36A36.49,36.49,0,0,0,52.81,8V1.76a1.76,1.76,0,0,0-3.52,0V9.44a1.74,1.74,0,0,0,1.45,1.73,33.11,33.11,0,0,1,11.77,4.76,1.75,1.75,0,0,0,2.27-.18l4.11-4.11,7.47,7.47-4,4a1.75,1.75,0,0,0-.43,2,.94.94,0,0,0,.14.26,33.29,33.29,0,0,1,5,11.94h0s0,0,0,0a1.73,1.73,0,0,0,.08.27l0,.1c0,.07.07.13.1.19l.08.1.12.14.1.1a.75.75,0,0,0,.13.11l.13.09.14.07a.69.69,0,0,0,.15.07l.15,0,.15,0,.22,0h5.76V49.28H78.87a1.75,1.75,0,0,0-1.76,1.41,33.37,33.37,0,0,1-5,11.94,1.76,1.76,0,0,0,.22,2.23h0l4,4-7.46,7.46L64.8,72.26A1.76,1.76,0,0,0,62.58,72a32.91,32.91,0,0,1-11.84,4.8A1.74,1.74,0,0,0,49.3,78.4s0,.09,0,.14v7.7a1.76,1.76,0,0,0,3.52,0V80a36.66,36.66,0,0,0,10.48-4.25l4.36,4.36a1.76,1.76,0,0,0,2.49,0h0l10-10a1.77,1.77,0,0,0,0-2.49l-4.28-4.28A36.47,36.47,0,0,0,80.23,52.8h6A1.76,1.76,0,0,0,88,51V37A1.76,1.76,0,0,0,86.24,35.2Z" fill="url(#linear-gradient-6)"/></g></g></g></svg>