<?xml version="1.0" encoding="utf-8"?>
<!-- Generator: Adobe Illustrator 25.0.1, SVG Export Plug-In . SVG Version: 6.00 Build 0)  -->
<svg version="1.1" id="Layer_1" xmlns="http://www.w3.org/2000/svg" xmlns:xlink="http://www.w3.org/1999/xlink" x="0px" y="0px"
	 viewBox="0 0 52.4 24" style="enable-background:new 0 0 52.4 24;" xml:space="preserve">
<style type="text/css">
	.st0{fill:#333333;}
</style>
<g>
	<path class="st0" d="M12,7.6c1.1,0,1.7-0.6,1.7-1.7c0-1.1-0.6-1.7-1.7-1.7s-1.7,0.6-1.7,1.7C10.3,7.1,10.9,7.6,12,7.6z"/>
	<path class="st0" d="M14.9,8.5c-0.1-0.1-0.3-0.2-0.5-0.2H9.5C9.3,8.3,9.2,8.4,9,8.5C8.9,8.6,8.8,8.8,8.8,9v4.9h1.3v5.8h3.7v-5.8
		h1.4V9C15.2,8.8,15.2,8.6,14.9,8.5z"/>
	<path class="st0" d="M12,0C8.7,0,5.9,1.2,3.5,3.5C1.2,5.9,0,8.7,0,12s1.2,6.1,3.6,8.5C5.9,22.8,8.8,24,12,24c3.3,0,6.1-1.2,8.6-3.6
		c2.3-2.2,3.4-5,3.4-8.4s-1.2-6.2-3.5-8.5S15.4,0,12,0z M19,19c-2,1.9-4.3,2.9-7,2.9c-2.6,0-5-1-6.9-2.9c-1.9-1.9-2.9-4.2-2.9-6.9
		c0-2.7,0.9-5,2.9-7C7,3.2,9.3,2.2,12,2.2s5.1,0.9,6.9,2.9c1.9,2,2.9,4.3,2.9,7C21.8,14.9,20.9,17.2,19,19z"/>
	<path class="st0" d="M48.9,3.5C46.6,1.2,43.8,0,40.4,0c-3.3,0-6.1,1.2-8.4,3.5c-2.3,2.4-3.5,5.2-3.5,8.5c0,3.2,1.1,6,3.5,8.4
		c2.3,2.4,5.1,3.6,8.4,3.6c3.3,0,6.2-1.2,8.6-3.6c2.3-2.2,3.4-5,3.4-8.4C52.4,8.7,51.2,5.8,48.9,3.5z M47.4,18.9
		c-2,1.9-4.3,2.9-7,2.9c-2.6,0-4.9-1-6.9-2.9c-1.9-1.9-2.9-4.2-2.9-6.9c0-1.1,0.1-2.2,0.5-3.2l6.2,2.8l1.9,0.8l1.4,0.6l1.2,0.6
		c0.2,0.2,0.3,0.4,0.3,0.7c0,0.4-0.1,0.7-0.4,0.9s-0.7,0.3-1.1,0.3c-1,0-1.9-0.4-2.7-1.1l-1.7,1.7c1.1,0.9,2.3,1.4,3.6,1.4v1.8h1.4
		v-1.8c0.9,0,1.6-0.3,2.2-0.8c0.6-0.5,0.9-1.1,1.1-1.9l4.5,2C48.6,17.5,48.1,18.2,47.4,18.9z M43.7,11.8l-1.9-0.9l-1-0.5l-1.5-0.7
		c-0.1-0.1-0.1-0.2-0.1-0.3c0-0.3,0.1-0.6,0.4-0.7c0.3-0.1,0.6-0.2,1-0.2c0.7,0,1.4,0.2,2.1,0.7l1.6-1.6c-0.9-0.7-1.9-1-3-1.1V4.7
		h-1.4v1.9c-0.8,0-1.4,0.2-2,0.6c-0.5,0.4-0.9,0.9-1.1,1.5l-4.6-2.1C32.6,6,33,5.5,33.5,5c1.9-1.9,4.2-2.9,6.9-2.9
		c2.8,0,5.1,1,6.8,2.8c1.9,1.9,2.9,4.2,2.9,7c0,0.9-0.1,1.8-0.3,2.6L43.7,11.8z"/>
</g>
</svg>
