<?xml version="1.0" encoding="utf-8"?>
<!-- Generator: Adobe Illustrator 25.0.1, SVG Export Plug-In . SVG Version: 6.00 Build 0)  -->
<svg version="1.1" id="Layer_1" xmlns="http://www.w3.org/2000/svg" xmlns:xlink="http://www.w3.org/1999/xlink" x="0px" y="0px"
	 viewBox="0 0 24 24" style="enable-background:new 0 0 24 24;" xml:space="preserve">
<style type="text/css">
	.st0{fill:#333333;}
</style>
<g>
	<g>
		<path class="st0" d="M12,0c3.4,0,6.2,1.2,8.5,3.5S24,8.6,24,12s-1.1,6.2-3.4,8.4C18.1,22.8,15.3,24,12,24c-3.2,0-6.1-1.2-8.4-3.5
			C1.2,18.1,0,15.3,0,12s1.2-6.1,3.5-8.5C5.9,1.2,8.7,0,12,0z M12,2.2c-2.7,0-5,1-6.9,2.9c-2,2-2.9,4.3-2.9,7s1,5,2.9,6.9
			s4.3,2.9,6.9,2.9c2.7,0,5-1,7-2.9c1.9-1.8,2.8-4.1,2.8-6.9c0-2.7-1-5-2.9-7C17.1,3.1,14.7,2.2,12,2.2z M15.2,9v4.9h-1.4v5.8h-3.7
			v-5.8H8.8V9c0-0.2,0.1-0.4,0.2-0.5c0.2-0.1,0.3-0.2,0.5-0.2h4.9c0.2,0,0.4,0.1,0.5,0.2C15.2,8.6,15.2,8.8,15.2,9z M10.3,5.9
			c0-1.1,0.6-1.7,1.7-1.7s1.7,0.6,1.7,1.7S13.1,7.6,12,7.6S10.3,7.1,10.3,5.9z"/>
	</g>
</g>
</svg>
