<?xml version="1.0" encoding="utf-8"?>
<!-- Generator: Adobe Illustrator 25.0.1, SVG Export Plug-In . SVG Version: 6.00 Build 0)  -->
<svg version="1.1" id="Layer_1" xmlns="http://www.w3.org/2000/svg" xmlns:xlink="http://www.w3.org/1999/xlink" x="0px" y="0px"
	 viewBox="0 0 52.4 24" style="enable-background:new 0 0 52.4 24;" xml:space="preserve">
<style type="text/css">
	.st0{fill:#333333;}
</style>
<g>
	<path class="st0" d="M12,7.6c1.1,0,1.7-0.6,1.7-1.7c0-1.1-0.6-1.7-1.7-1.7s-1.7,0.6-1.7,1.7C10.3,7.1,10.9,7.6,12,7.6z"/>
	<path class="st0" d="M12,0C8.7,0,5.9,1.2,3.5,3.5C1.2,5.9,0,8.7,0,12s1.2,6.1,3.6,8.5C5.9,22.8,8.8,24,12,24c3.3,0,6.1-1.2,8.6-3.6
		c2.3-2.2,3.4-5,3.4-8.4s-1.2-6.2-3.5-8.5S15.4,0,12,0z M19,19c-2,1.9-4.3,2.9-7,2.9c-2.6,0-5-1-6.9-2.9c-1.9-1.9-2.9-4.2-2.9-6.9
		c0-2.7,0.9-5,2.9-7C7,3.2,9.3,2.2,12,2.2s5.1,0.9,6.9,2.9c1.9,2,2.9,4.3,2.9,7C21.8,14.9,20.9,17.2,19,19z"/>
	<path class="st0" d="M14.9,8.5c-0.1-0.1-0.3-0.2-0.5-0.2H9.5C9.3,8.3,9.2,8.4,9,8.5C8.9,8.6,8.8,8.8,8.8,9v4.9h1.3v5.8h3.7v-5.8
		h1.4V9C15.2,8.8,15.2,8.6,14.9,8.5z"/>
	<path class="st0" d="M48.9,3.5C46.6,1.2,43.8,0,40.4,0c-3.3,0-6.1,1.2-8.4,3.5c-2.3,2.4-3.5,5.2-3.5,8.5s1.1,6.1,3.5,8.5
		c2.3,2.3,5.2,3.5,8.4,3.5c3.3,0,6.2-1.2,8.6-3.6c2.3-2.2,3.4-5,3.4-8.4S51.2,5.8,48.9,3.5z M47.4,18.9c-2,1.9-4.3,2.9-7,2.9
		c-2.6,0-5-1-6.9-2.9c-1.9-1.9-2.9-4.2-2.9-6.9c0-2.6,0.9-4.9,2.9-6.9c1.9-1.9,4.2-2.9,6.9-2.9c2.8,0,5.1,0.9,6.9,2.9
		c1.9,1.8,2.9,4.2,2.9,6.9C50.2,14.8,49.3,17.1,47.4,18.9z"/>
	<rect x="36.3" y="9.2" class="st0" width="8.7" height="2.1"/>
	<rect x="36.3" y="13" class="st0" width="8.7" height="2.1"/>
</g>
</svg>
