<svg xmlns="http://www.w3.org/2000/svg" width="24.31" height="24" viewBox="0 0 24.31 24">
  <g id="Group_1990" data-name="Group 1990" transform="translate(-647.086 -535.495)">
    <path id="Path_8978" data-name="Path 8978" d="M668.668,550.011c-.248,0-1.488-.036-1.658-.756a5.923,5.923,0,0,1,.036-1.77,47.034,47.034,0,0,0,.24-4.918c0-4.294-3.156-7.068-8.04-7.072h-.01c-4.886,0-8.042,2.778-8.042,7.072a46.913,46.913,0,0,0,.242,4.918,5.9,5.9,0,0,1,.034,1.77c-.17.72-1.41.756-1.658.756-1.58,0-2.726,1.344-2.726,3.2a2.863,2.863,0,0,0,2.726,2.918h2.862a.982.982,0,0,0,0-1.964h-2.862a.9.9,0,0,1-.762-.954c0-.612.236-1.23.762-1.23,1.9,0,3.236-.85,3.572-2.272a7.232,7.232,0,0,0,.008-2.408,44.436,44.436,0,0,1-.234-4.73c0-3.766,3.142-5.106,6.082-5.108s6.082,1.342,6.082,5.108a44.511,44.511,0,0,1-.232,4.728,7.191,7.191,0,0,0,.008,2.41c.334,1.422,1.67,2.272,3.57,2.272.63,0,.762.668.762,1.23a.9.9,0,0,1-.762.954h-2.86a.982.982,0,1,0,0,1.964h2.86a2.865,2.865,0,0,0,2.728-2.918C671.4,551,670.026,550.011,668.668,550.011Z" fill="#190aff"/>
    <path id="Path_8979" data-name="Path 8979" d="M657.8,545.134a.983.983,0,0,0-.982.984,1.773,1.773,0,0,1-3.546,0,.982.982,0,1,0-1.964,0,3.737,3.737,0,1,0,7.474,0A.983.983,0,0,0,657.8,545.134Z" transform="translate(4.219 9.639)" fill="#190aff"/>
  </g>
</svg>
