<svg xmlns="http://www.w3.org/2000/svg" width="24.086" height="24">
  <g data-name="Group 1982">
    <g data-name="Group 1972" fill="#190aff">
      <path data-name="Path 8968" d="M15.276 7.976H8.811a1 1 0 1 0 0 2h6.465a1 1 0 1 0 0-2z"/>
      <path data-name="Path 8969" d="M23.349 8.015a1 1 0 0 0-1.229.7l-3.629 13.283H5.596L1.966 8.715a1 1 0 1 0-1.93.527l3.831 14.02a1 1 0 0 0 .965.736h14.423a1 1 0 0 0 .965-.736l3.83-14.02a1 1 0 0 0-.701-1.227z"/>
      <path data-name="Path 8970" d="M5.057 9.979a1 1 0 0 0 1-1c0-.285.1-6.982 6-6.982 5.874 0 5.97 6.7 5.97 6.979a1 1 0 0 0 2 0c0-3.106-1.666-8.98-7.972-8.98-6.326 0-8 5.874-8 8.98a1 1 0 0 0 1.002 1.003z"/>
    </g>
  </g>
</svg>
