<svg id="Component_63_62" data-name="Component 63 – 62" xmlns="http://www.w3.org/2000/svg" width="15.307" height="16" viewBox="0 0 15.307 16">
  <g id="Group_806" data-name="Group 806" transform="translate(0 0.267)">
    <path id="Path_2230" data-name="Path 2230" d="M60.73,7171.745a8.058,8.058,0,0,0-3.652-1.425c-2.2-.28-1.491.356-3.11,1.264s-1.624,1.648-1.759,2.193a5.732,5.732,0,0,0,0,2.572c.251.891,1.784,2.842,4.009,5.626a14.8,14.8,0,0,0,3.306,3.393l4.218-5.042,2.783-4.335a4.409,4.409,0,0,0,0-2.81c-.541-1.294.355-1.321-1.652-2.067s.383-1.22-1.446-.7A7.016,7.016,0,0,0,60.73,7171.745Z" transform="translate(-52.061 -7170.124)" fill="#333"/>
  </g>
  <g id="Group_1963" data-name="Group 1963" transform="translate(0.071)">
    <path id="Path_8950" data-name="Path 8950" d="M1627.407,620.282l-.483-.508c-.2-.215-5.017-5.295-6.247-7.679a.655.655,0,1,1,1.164-.6c.929,1.8,4.289,5.5,5.55,6.861,1.272-1.413,4.717-5.313,5.6-7.028l.073-.14a5.258,5.258,0,0,0,.738-2.24,2.926,2.926,0,0,0-.777-2.262,3.41,3.41,0,0,0-5.133.145l-.505.611-.505-.611a3.4,3.4,0,0,0-2.629-1.239,2.922,2.922,0,0,0-2.146.867,3.429,3.429,0,0,0-.907,2.519.656.656,0,0,1-.639.671.67.67,0,0,1-.671-.639,4.73,4.73,0,0,1,1.28-3.466,4.258,4.258,0,0,1,3.083-1.262,4.72,4.72,0,0,0,6.268,0,4.708,4.708,0,0,1,3.472,1.521,4.23,4.23,0,0,1,1.113,3.265,6.544,6.544,0,0,1-.879,2.722l-.071.137c-1.161,2.26-6.065,7.612-6.274,7.839Z" transform="translate(-1619.886 -604.282)" fill="#333"/>
  </g>
</svg>
