<svg id="Group_1963" data-name="Group 1963" xmlns="http://www.w3.org/2000/svg" width="15.236" height="16" viewBox="0 0 15.236 16">
  <path id="Path_8950" data-name="Path 8950" d="M1627.406,620.282l-.483-.508c-.2-.215-5.017-5.295-6.247-7.679a.655.655,0,0,1,1.164-.6c.929,1.8,4.289,5.5,5.55,6.861,1.272-1.413,4.717-5.313,5.6-7.028l.073-.14a5.249,5.249,0,0,0,.738-2.24,2.925,2.925,0,0,0-.777-2.262,3.41,3.41,0,0,0-5.133.145l-.505.611-.505-.611a3.4,3.4,0,0,0-2.629-1.239,2.922,2.922,0,0,0-2.146.867,3.429,3.429,0,0,0-.907,2.519.656.656,0,0,1-.639.671.67.67,0,0,1-.671-.639,4.731,4.731,0,0,1,1.28-3.466,4.259,4.259,0,0,1,3.083-1.262,4.72,4.72,0,0,0,6.268,0,4.708,4.708,0,0,1,3.472,1.521,4.229,4.229,0,0,1,1.113,3.265,6.541,6.541,0,0,1-.879,2.722l-.071.137c-1.161,2.26-6.065,7.612-6.274,7.839Z" transform="translate(-1619.885 -604.282)" fill="#333"/>
</svg>
