<svg id="Component_63_51" data-name="Component 63 – 51" xmlns="http://www.w3.org/2000/svg" width="32.265" height="33.882" viewBox="0 0 32.265 33.882">
  <g id="Group_806" data-name="Group 806" transform="translate(-1.829 2)">
    <path id="Path_2230" data-name="Path 2230" d="M67.957,7173.144s-1.967-4.26-5.637-4.854-6.689,1.9-8.823,4.027c-1.458,1.454-1.874,3.957-.939,7.717.453,2.21.718,2.893,2.625,5.7s2.16,2.026,6.081,5.64a44.4,44.4,0,0,1,6.916,8.655s3.329-4.911,6.4-8.914,4.4-3.053,5.888-7.1,2.738-3.9,2.688-7.328-.229-4.284-2.887-6.384-4.669-2.724-7.747-2.014S67.957,7173.144,67.957,7173.144Z" transform="translate(-50.171 -7168.932)" fill="#333"/>
  </g>
  <g id="Group_1963" data-name="Group 1963">
    <path id="Path_8950" data-name="Path 8950" d="M1635.813,638.164l-1.023-1.076c-.434-.456-10.625-11.212-13.228-16.261a1.387,1.387,0,0,1,2.465-1.271c1.967,3.815,9.082,11.649,11.753,14.529,2.694-2.993,9.99-11.252,11.855-14.883l.154-.3a11.121,11.121,0,0,0,1.563-4.744,6.2,6.2,0,0,0-1.645-4.79,7.221,7.221,0,0,0-10.869.308l-1.07,1.295-1.07-1.295a7.2,7.2,0,0,0-5.567-2.625,6.188,6.188,0,0,0-4.544,1.835,7.262,7.262,0,0,0-1.922,5.335,1.39,1.39,0,0,1-1.354,1.422,1.42,1.42,0,0,1-1.42-1.354,10.017,10.017,0,0,1,2.711-7.34,9.018,9.018,0,0,1,6.53-2.672,9.995,9.995,0,0,0,13.273,0,9.969,9.969,0,0,1,7.353,3.22,8.956,8.956,0,0,1,2.358,6.913,13.853,13.853,0,0,1-1.861,5.764l-.151.291c-2.458,4.786-12.844,16.119-13.286,16.6Z" transform="translate(-1619.886 -604.282)" fill="#333"/>
  </g>
</svg>
