<svg id="Component_63_53" data-name="Component 63 – 53" xmlns="http://www.w3.org/2000/svg" width="32.377" height="34" viewBox="0 0 32.377 34">
  <g id="Group_1963" data-name="Group 1963" transform="translate(-1619.885 -604.282)">
    <path id="Path_8950" data-name="Path 8950" d="M1634.928,636.282l-.967-1.016c-.409-.431-10.035-10.589-12.493-15.357a1.31,1.31,0,1,1,2.328-1.2c1.857,3.6,8.577,11,11.1,13.721,2.544-2.827,9.435-10.627,11.2-14.056l.145-.28a10.5,10.5,0,0,0,1.476-4.48,5.85,5.85,0,0,0-1.553-4.524,6.82,6.82,0,0,0-10.265.291l-1.01,1.223-1.011-1.223a6.8,6.8,0,0,0-5.257-2.479,5.844,5.844,0,0,0-4.292,1.733,6.859,6.859,0,0,0-1.815,5.039,1.313,1.313,0,0,1-1.279,1.343,1.341,1.341,0,0,1-1.342-1.279,9.461,9.461,0,0,1,2.56-6.932,8.517,8.517,0,0,1,6.167-2.524,9.44,9.44,0,0,0,12.536,0,9.416,9.416,0,0,1,6.944,3.041,8.458,8.458,0,0,1,2.227,6.529,13.084,13.084,0,0,1-1.757,5.444l-.143.275c-2.321,4.52-12.131,15.224-12.548,15.679Z" transform="translate(0 0)" fill="#fff"/>
  </g>
</svg>
