<svg id="Component_63_45" data-name="Component 63 – 45" xmlns="http://www.w3.org/2000/svg" width="23.273" height="24.44" viewBox="0 0 23.273 24.44">
  <g id="Group_806" data-name="Group 806" transform="translate(0.059 1.076)">
    <path id="Path_2230" data-name="Path 2230" d="M63.928,7171.244s-1.965-2.579-4.574-3.025-4.755,1.424-6.272,3.021c-1.036,1.091-1.332,2.968-.668,5.789.322,1.658,2.3,3.841,2.3,3.841a23.719,23.719,0,0,0,3.893,4.662,25.175,25.175,0,0,0,5.325,4.025,16.91,16.91,0,0,0,4.142-4.219c2.184-3,3.13-2.29,4.186-5.322s1.946-2.926,1.911-5.5-.163-3.214-2.052-4.789-3.319-2.043-5.507-1.511A4.036,4.036,0,0,0,63.928,7171.244Z" transform="translate(-52.059 -7168.008)" fill="#333"/>
  </g>
  <g id="Group_1963" data-name="Group 1963">
    <path id="Path_8950" data-name="Path 8950" d="M1631.374,628.722l-.738-.776c-.313-.329-7.664-8.088-9.542-11.729a1,1,0,1,1,1.778-.917c1.419,2.752,6.551,8.4,8.478,10.48,1.943-2.159,7.205-8.116,8.551-10.735l.111-.214a8.021,8.021,0,0,0,1.127-3.422,4.468,4.468,0,0,0-1.186-3.455,5.209,5.209,0,0,0-7.84.222l-.772.934-.772-.934a5.191,5.191,0,0,0-4.015-1.893,4.463,4.463,0,0,0-3.278,1.324,5.238,5.238,0,0,0-1.386,3.848,1,1,0,0,1-.977,1.025,1.024,1.024,0,0,1-1.025-.977,7.226,7.226,0,0,1,1.955-5.294,6.5,6.5,0,0,1,4.71-1.928,7.209,7.209,0,0,0,9.574,0,7.191,7.191,0,0,1,5.3,2.323,6.46,6.46,0,0,1,1.7,4.987,9.992,9.992,0,0,1-1.342,4.158l-.109.21c-1.773,3.452-9.265,11.627-9.583,11.974Z" transform="translate(-1619.886 -604.282)" fill="#333"/>
  </g>
</svg>
